%TF.GenerationSoftware,KiCad,Pcbnew,7.0.8*%
%TF.CreationDate,2023-11-03T15:22:21-05:00*%
%TF.ProjectId,tapecart-sd-vertical,74617065-6361-4727-942d-73642d766572,rev?*%
%TF.SameCoordinates,Original*%
%TF.FileFunction,Legend,Top*%
%TF.FilePolarity,Positive*%
%FSLAX46Y46*%
G04 Gerber Fmt 4.6, Leading zero omitted, Abs format (unit mm)*
G04 Created by KiCad (PCBNEW 7.0.8) date 2023-11-03 15:22:21*
%MOMM*%
%LPD*%
G01*
G04 APERTURE LIST*
%ADD10C,0.358981*%
%ADD11C,0.275000*%
%ADD12C,0.150000*%
%ADD13C,0.200000*%
%ADD14C,0.254000*%
%ADD15C,0.120000*%
%ADD16C,0.500000*%
%ADD17C,0.152400*%
%ADD18C,0.276100*%
G04 APERTURE END LIST*
D10*
X154581509Y-119380000D02*
G75*
G03*
X154581509Y-119380000I-179490J0D01*
G01*
X161245471Y-114935000D02*
G75*
G03*
X161245471Y-114935000I-179490J0D01*
G01*
D11*
X173492500Y-93091000D02*
G75*
G03*
X173492500Y-93091000I-137500J0D01*
G01*
D10*
X145340490Y-113665000D02*
G75*
G03*
X145340490Y-113665000I-179490J0D01*
G01*
X136674509Y-123317000D02*
G75*
G03*
X136674509Y-123317000I-179490J0D01*
G01*
D11*
X166942500Y-93091000D02*
G75*
G03*
X166942500Y-93091000I-137500J0D01*
G01*
D12*
X176809476Y-120885390D02*
X176733286Y-120847295D01*
X176733286Y-120847295D02*
X176619000Y-120847295D01*
X176619000Y-120847295D02*
X176504714Y-120885390D01*
X176504714Y-120885390D02*
X176428524Y-120961580D01*
X176428524Y-120961580D02*
X176390429Y-121037771D01*
X176390429Y-121037771D02*
X176352333Y-121190152D01*
X176352333Y-121190152D02*
X176352333Y-121304438D01*
X176352333Y-121304438D02*
X176390429Y-121456819D01*
X176390429Y-121456819D02*
X176428524Y-121533009D01*
X176428524Y-121533009D02*
X176504714Y-121609200D01*
X176504714Y-121609200D02*
X176619000Y-121647295D01*
X176619000Y-121647295D02*
X176695191Y-121647295D01*
X176695191Y-121647295D02*
X176809476Y-121609200D01*
X176809476Y-121609200D02*
X176847572Y-121571104D01*
X176847572Y-121571104D02*
X176847572Y-121304438D01*
X176847572Y-121304438D02*
X176695191Y-121304438D01*
X177190429Y-121647295D02*
X177190429Y-120847295D01*
X177190429Y-120847295D02*
X177647572Y-121647295D01*
X177647572Y-121647295D02*
X177647572Y-120847295D01*
X178028524Y-121647295D02*
X178028524Y-120847295D01*
X178028524Y-120847295D02*
X178219000Y-120847295D01*
X178219000Y-120847295D02*
X178333286Y-120885390D01*
X178333286Y-120885390D02*
X178409476Y-120961580D01*
X178409476Y-120961580D02*
X178447571Y-121037771D01*
X178447571Y-121037771D02*
X178485667Y-121190152D01*
X178485667Y-121190152D02*
X178485667Y-121304438D01*
X178485667Y-121304438D02*
X178447571Y-121456819D01*
X178447571Y-121456819D02*
X178409476Y-121533009D01*
X178409476Y-121533009D02*
X178333286Y-121609200D01*
X178333286Y-121609200D02*
X178219000Y-121647295D01*
X178219000Y-121647295D02*
X178028524Y-121647295D01*
D13*
X144859951Y-85304219D02*
X144859951Y-86018504D01*
X144859951Y-86018504D02*
X144812332Y-86161361D01*
X144812332Y-86161361D02*
X144717094Y-86256600D01*
X144717094Y-86256600D02*
X144574237Y-86304219D01*
X144574237Y-86304219D02*
X144478999Y-86304219D01*
X145812332Y-86304219D02*
X145336142Y-86304219D01*
X145336142Y-86304219D02*
X145336142Y-85304219D01*
X146717094Y-86208980D02*
X146669475Y-86256600D01*
X146669475Y-86256600D02*
X146526618Y-86304219D01*
X146526618Y-86304219D02*
X146431380Y-86304219D01*
X146431380Y-86304219D02*
X146288523Y-86256600D01*
X146288523Y-86256600D02*
X146193285Y-86161361D01*
X146193285Y-86161361D02*
X146145666Y-86066123D01*
X146145666Y-86066123D02*
X146098047Y-85875647D01*
X146098047Y-85875647D02*
X146098047Y-85732790D01*
X146098047Y-85732790D02*
X146145666Y-85542314D01*
X146145666Y-85542314D02*
X146193285Y-85447076D01*
X146193285Y-85447076D02*
X146288523Y-85351838D01*
X146288523Y-85351838D02*
X146431380Y-85304219D01*
X146431380Y-85304219D02*
X146526618Y-85304219D01*
X146526618Y-85304219D02*
X146669475Y-85351838D01*
X146669475Y-85351838D02*
X146717094Y-85399457D01*
X147431380Y-85304219D02*
X147431380Y-86018504D01*
X147431380Y-86018504D02*
X147383761Y-86161361D01*
X147383761Y-86161361D02*
X147288523Y-86256600D01*
X147288523Y-86256600D02*
X147145666Y-86304219D01*
X147145666Y-86304219D02*
X147050428Y-86304219D01*
X148383761Y-86304219D02*
X147907571Y-86304219D01*
X147907571Y-86304219D02*
X147907571Y-85304219D01*
X149288523Y-86208980D02*
X149240904Y-86256600D01*
X149240904Y-86256600D02*
X149098047Y-86304219D01*
X149098047Y-86304219D02*
X149002809Y-86304219D01*
X149002809Y-86304219D02*
X148859952Y-86256600D01*
X148859952Y-86256600D02*
X148764714Y-86161361D01*
X148764714Y-86161361D02*
X148717095Y-86066123D01*
X148717095Y-86066123D02*
X148669476Y-85875647D01*
X148669476Y-85875647D02*
X148669476Y-85732790D01*
X148669476Y-85732790D02*
X148717095Y-85542314D01*
X148717095Y-85542314D02*
X148764714Y-85447076D01*
X148764714Y-85447076D02*
X148859952Y-85351838D01*
X148859952Y-85351838D02*
X149002809Y-85304219D01*
X149002809Y-85304219D02*
X149098047Y-85304219D01*
X149098047Y-85304219D02*
X149240904Y-85351838D01*
X149240904Y-85351838D02*
X149288523Y-85399457D01*
X150002809Y-85304219D02*
X150002809Y-86018504D01*
X150002809Y-86018504D02*
X149955190Y-86161361D01*
X149955190Y-86161361D02*
X149859952Y-86256600D01*
X149859952Y-86256600D02*
X149717095Y-86304219D01*
X149717095Y-86304219D02*
X149621857Y-86304219D01*
X150955190Y-86304219D02*
X150479000Y-86304219D01*
X150479000Y-86304219D02*
X150479000Y-85304219D01*
X151859952Y-86208980D02*
X151812333Y-86256600D01*
X151812333Y-86256600D02*
X151669476Y-86304219D01*
X151669476Y-86304219D02*
X151574238Y-86304219D01*
X151574238Y-86304219D02*
X151431381Y-86256600D01*
X151431381Y-86256600D02*
X151336143Y-86161361D01*
X151336143Y-86161361D02*
X151288524Y-86066123D01*
X151288524Y-86066123D02*
X151240905Y-85875647D01*
X151240905Y-85875647D02*
X151240905Y-85732790D01*
X151240905Y-85732790D02*
X151288524Y-85542314D01*
X151288524Y-85542314D02*
X151336143Y-85447076D01*
X151336143Y-85447076D02*
X151431381Y-85351838D01*
X151431381Y-85351838D02*
X151574238Y-85304219D01*
X151574238Y-85304219D02*
X151669476Y-85304219D01*
X151669476Y-85304219D02*
X151812333Y-85351838D01*
X151812333Y-85351838D02*
X151859952Y-85399457D01*
X152574238Y-85304219D02*
X152574238Y-86018504D01*
X152574238Y-86018504D02*
X152526619Y-86161361D01*
X152526619Y-86161361D02*
X152431381Y-86256600D01*
X152431381Y-86256600D02*
X152288524Y-86304219D01*
X152288524Y-86304219D02*
X152193286Y-86304219D01*
X153526619Y-86304219D02*
X153050429Y-86304219D01*
X153050429Y-86304219D02*
X153050429Y-85304219D01*
X154431381Y-86208980D02*
X154383762Y-86256600D01*
X154383762Y-86256600D02*
X154240905Y-86304219D01*
X154240905Y-86304219D02*
X154145667Y-86304219D01*
X154145667Y-86304219D02*
X154002810Y-86256600D01*
X154002810Y-86256600D02*
X153907572Y-86161361D01*
X153907572Y-86161361D02*
X153859953Y-86066123D01*
X153859953Y-86066123D02*
X153812334Y-85875647D01*
X153812334Y-85875647D02*
X153812334Y-85732790D01*
X153812334Y-85732790D02*
X153859953Y-85542314D01*
X153859953Y-85542314D02*
X153907572Y-85447076D01*
X153907572Y-85447076D02*
X154002810Y-85351838D01*
X154002810Y-85351838D02*
X154145667Y-85304219D01*
X154145667Y-85304219D02*
X154240905Y-85304219D01*
X154240905Y-85304219D02*
X154383762Y-85351838D01*
X154383762Y-85351838D02*
X154431381Y-85399457D01*
D12*
X142449779Y-113915866D02*
X143211684Y-113915866D01*
X142830731Y-114296819D02*
X142830731Y-113534914D01*
X142322779Y-123440866D02*
X143084684Y-123440866D01*
X142703731Y-123821819D02*
X142703731Y-123059914D01*
X176390429Y-112325533D02*
X176999953Y-112325533D01*
X176695191Y-112630295D02*
X176695191Y-112020771D01*
X177761857Y-111830295D02*
X177380905Y-111830295D01*
X177380905Y-111830295D02*
X177342809Y-112211247D01*
X177342809Y-112211247D02*
X177380905Y-112173152D01*
X177380905Y-112173152D02*
X177457095Y-112135057D01*
X177457095Y-112135057D02*
X177647571Y-112135057D01*
X177647571Y-112135057D02*
X177723762Y-112173152D01*
X177723762Y-112173152D02*
X177761857Y-112211247D01*
X177761857Y-112211247D02*
X177799952Y-112287438D01*
X177799952Y-112287438D02*
X177799952Y-112477914D01*
X177799952Y-112477914D02*
X177761857Y-112554104D01*
X177761857Y-112554104D02*
X177723762Y-112592200D01*
X177723762Y-112592200D02*
X177647571Y-112630295D01*
X177647571Y-112630295D02*
X177457095Y-112630295D01*
X177457095Y-112630295D02*
X177380905Y-112592200D01*
X177380905Y-112592200D02*
X177342809Y-112554104D01*
X178028524Y-111830295D02*
X178295191Y-112630295D01*
X178295191Y-112630295D02*
X178561857Y-111830295D01*
X165055779Y-105660866D02*
X165817684Y-105660866D01*
X165436731Y-106041819D02*
X165436731Y-105279914D01*
D13*
X175641191Y-130770219D02*
X175974524Y-131770219D01*
X175974524Y-131770219D02*
X176307857Y-130770219D01*
X177165000Y-131770219D02*
X176593572Y-131770219D01*
X176879286Y-131770219D02*
X176879286Y-130770219D01*
X176879286Y-130770219D02*
X176784048Y-130913076D01*
X176784048Y-130913076D02*
X176688810Y-131008314D01*
X176688810Y-131008314D02*
X176593572Y-131055933D01*
X177593572Y-131674980D02*
X177641191Y-131722600D01*
X177641191Y-131722600D02*
X177593572Y-131770219D01*
X177593572Y-131770219D02*
X177545953Y-131722600D01*
X177545953Y-131722600D02*
X177593572Y-131674980D01*
X177593572Y-131674980D02*
X177593572Y-131770219D01*
X178593571Y-131770219D02*
X178022143Y-131770219D01*
X178307857Y-131770219D02*
X178307857Y-130770219D01*
X178307857Y-130770219D02*
X178212619Y-130913076D01*
X178212619Y-130913076D02*
X178117381Y-131008314D01*
X178117381Y-131008314D02*
X178022143Y-131055933D01*
D12*
X170180095Y-111214819D02*
X170180095Y-112024342D01*
X170180095Y-112024342D02*
X170227714Y-112119580D01*
X170227714Y-112119580D02*
X170275333Y-112167200D01*
X170275333Y-112167200D02*
X170370571Y-112214819D01*
X170370571Y-112214819D02*
X170561047Y-112214819D01*
X170561047Y-112214819D02*
X170656285Y-112167200D01*
X170656285Y-112167200D02*
X170703904Y-112119580D01*
X170703904Y-112119580D02*
X170751523Y-112024342D01*
X170751523Y-112024342D02*
X170751523Y-111214819D01*
X171751523Y-112214819D02*
X171180095Y-112214819D01*
X171465809Y-112214819D02*
X171465809Y-111214819D01*
X171465809Y-111214819D02*
X171370571Y-111357676D01*
X171370571Y-111357676D02*
X171275333Y-111452914D01*
X171275333Y-111452914D02*
X171180095Y-111500533D01*
X144250580Y-124372666D02*
X144298200Y-124420285D01*
X144298200Y-124420285D02*
X144345819Y-124563142D01*
X144345819Y-124563142D02*
X144345819Y-124658380D01*
X144345819Y-124658380D02*
X144298200Y-124801237D01*
X144298200Y-124801237D02*
X144202961Y-124896475D01*
X144202961Y-124896475D02*
X144107723Y-124944094D01*
X144107723Y-124944094D02*
X143917247Y-124991713D01*
X143917247Y-124991713D02*
X143774390Y-124991713D01*
X143774390Y-124991713D02*
X143583914Y-124944094D01*
X143583914Y-124944094D02*
X143488676Y-124896475D01*
X143488676Y-124896475D02*
X143393438Y-124801237D01*
X143393438Y-124801237D02*
X143345819Y-124658380D01*
X143345819Y-124658380D02*
X143345819Y-124563142D01*
X143345819Y-124563142D02*
X143393438Y-124420285D01*
X143393438Y-124420285D02*
X143441057Y-124372666D01*
X143345819Y-124039332D02*
X143345819Y-123372666D01*
X143345819Y-123372666D02*
X144345819Y-123801237D01*
X175037761Y-94022057D02*
X174942523Y-93974438D01*
X174942523Y-93974438D02*
X174847285Y-93879200D01*
X174847285Y-93879200D02*
X174704428Y-93736342D01*
X174704428Y-93736342D02*
X174609190Y-93688723D01*
X174609190Y-93688723D02*
X174513952Y-93688723D01*
X174561571Y-93926819D02*
X174466333Y-93879200D01*
X174466333Y-93879200D02*
X174371095Y-93783961D01*
X174371095Y-93783961D02*
X174323476Y-93593485D01*
X174323476Y-93593485D02*
X174323476Y-93260152D01*
X174323476Y-93260152D02*
X174371095Y-93069676D01*
X174371095Y-93069676D02*
X174466333Y-92974438D01*
X174466333Y-92974438D02*
X174561571Y-92926819D01*
X174561571Y-92926819D02*
X174752047Y-92926819D01*
X174752047Y-92926819D02*
X174847285Y-92974438D01*
X174847285Y-92974438D02*
X174942523Y-93069676D01*
X174942523Y-93069676D02*
X174990142Y-93260152D01*
X174990142Y-93260152D02*
X174990142Y-93593485D01*
X174990142Y-93593485D02*
X174942523Y-93783961D01*
X174942523Y-93783961D02*
X174847285Y-93879200D01*
X174847285Y-93879200D02*
X174752047Y-93926819D01*
X174752047Y-93926819D02*
X174561571Y-93926819D01*
X175371095Y-93022057D02*
X175418714Y-92974438D01*
X175418714Y-92974438D02*
X175513952Y-92926819D01*
X175513952Y-92926819D02*
X175752047Y-92926819D01*
X175752047Y-92926819D02*
X175847285Y-92974438D01*
X175847285Y-92974438D02*
X175894904Y-93022057D01*
X175894904Y-93022057D02*
X175942523Y-93117295D01*
X175942523Y-93117295D02*
X175942523Y-93212533D01*
X175942523Y-93212533D02*
X175894904Y-93355390D01*
X175894904Y-93355390D02*
X175323476Y-93926819D01*
X175323476Y-93926819D02*
X175942523Y-93926819D01*
X169251333Y-102308819D02*
X168918000Y-101832628D01*
X168679905Y-102308819D02*
X168679905Y-101308819D01*
X168679905Y-101308819D02*
X169060857Y-101308819D01*
X169060857Y-101308819D02*
X169156095Y-101356438D01*
X169156095Y-101356438D02*
X169203714Y-101404057D01*
X169203714Y-101404057D02*
X169251333Y-101499295D01*
X169251333Y-101499295D02*
X169251333Y-101642152D01*
X169251333Y-101642152D02*
X169203714Y-101737390D01*
X169203714Y-101737390D02*
X169156095Y-101785009D01*
X169156095Y-101785009D02*
X169060857Y-101832628D01*
X169060857Y-101832628D02*
X168679905Y-101832628D01*
X169727524Y-102308819D02*
X169918000Y-102308819D01*
X169918000Y-102308819D02*
X170013238Y-102261200D01*
X170013238Y-102261200D02*
X170060857Y-102213580D01*
X170060857Y-102213580D02*
X170156095Y-102070723D01*
X170156095Y-102070723D02*
X170203714Y-101880247D01*
X170203714Y-101880247D02*
X170203714Y-101499295D01*
X170203714Y-101499295D02*
X170156095Y-101404057D01*
X170156095Y-101404057D02*
X170108476Y-101356438D01*
X170108476Y-101356438D02*
X170013238Y-101308819D01*
X170013238Y-101308819D02*
X169822762Y-101308819D01*
X169822762Y-101308819D02*
X169727524Y-101356438D01*
X169727524Y-101356438D02*
X169679905Y-101404057D01*
X169679905Y-101404057D02*
X169632286Y-101499295D01*
X169632286Y-101499295D02*
X169632286Y-101737390D01*
X169632286Y-101737390D02*
X169679905Y-101832628D01*
X169679905Y-101832628D02*
X169727524Y-101880247D01*
X169727524Y-101880247D02*
X169822762Y-101927866D01*
X169822762Y-101927866D02*
X170013238Y-101927866D01*
X170013238Y-101927866D02*
X170108476Y-101880247D01*
X170108476Y-101880247D02*
X170156095Y-101832628D01*
X170156095Y-101832628D02*
X170203714Y-101737390D01*
X147534333Y-110468580D02*
X147486714Y-110516200D01*
X147486714Y-110516200D02*
X147343857Y-110563819D01*
X147343857Y-110563819D02*
X147248619Y-110563819D01*
X147248619Y-110563819D02*
X147105762Y-110516200D01*
X147105762Y-110516200D02*
X147010524Y-110420961D01*
X147010524Y-110420961D02*
X146962905Y-110325723D01*
X146962905Y-110325723D02*
X146915286Y-110135247D01*
X146915286Y-110135247D02*
X146915286Y-109992390D01*
X146915286Y-109992390D02*
X146962905Y-109801914D01*
X146962905Y-109801914D02*
X147010524Y-109706676D01*
X147010524Y-109706676D02*
X147105762Y-109611438D01*
X147105762Y-109611438D02*
X147248619Y-109563819D01*
X147248619Y-109563819D02*
X147343857Y-109563819D01*
X147343857Y-109563819D02*
X147486714Y-109611438D01*
X147486714Y-109611438D02*
X147534333Y-109659057D01*
X148391476Y-109563819D02*
X148201000Y-109563819D01*
X148201000Y-109563819D02*
X148105762Y-109611438D01*
X148105762Y-109611438D02*
X148058143Y-109659057D01*
X148058143Y-109659057D02*
X147962905Y-109801914D01*
X147962905Y-109801914D02*
X147915286Y-109992390D01*
X147915286Y-109992390D02*
X147915286Y-110373342D01*
X147915286Y-110373342D02*
X147962905Y-110468580D01*
X147962905Y-110468580D02*
X148010524Y-110516200D01*
X148010524Y-110516200D02*
X148105762Y-110563819D01*
X148105762Y-110563819D02*
X148296238Y-110563819D01*
X148296238Y-110563819D02*
X148391476Y-110516200D01*
X148391476Y-110516200D02*
X148439095Y-110468580D01*
X148439095Y-110468580D02*
X148486714Y-110373342D01*
X148486714Y-110373342D02*
X148486714Y-110135247D01*
X148486714Y-110135247D02*
X148439095Y-110040009D01*
X148439095Y-110040009D02*
X148391476Y-109992390D01*
X148391476Y-109992390D02*
X148296238Y-109944771D01*
X148296238Y-109944771D02*
X148105762Y-109944771D01*
X148105762Y-109944771D02*
X148010524Y-109992390D01*
X148010524Y-109992390D02*
X147962905Y-110040009D01*
X147962905Y-110040009D02*
X147915286Y-110135247D01*
X163776819Y-90971666D02*
X163300628Y-91304999D01*
X163776819Y-91543094D02*
X162776819Y-91543094D01*
X162776819Y-91543094D02*
X162776819Y-91162142D01*
X162776819Y-91162142D02*
X162824438Y-91066904D01*
X162824438Y-91066904D02*
X162872057Y-91019285D01*
X162872057Y-91019285D02*
X162967295Y-90971666D01*
X162967295Y-90971666D02*
X163110152Y-90971666D01*
X163110152Y-90971666D02*
X163205390Y-91019285D01*
X163205390Y-91019285D02*
X163253009Y-91066904D01*
X163253009Y-91066904D02*
X163300628Y-91162142D01*
X163300628Y-91162142D02*
X163300628Y-91543094D01*
X162872057Y-90590713D02*
X162824438Y-90543094D01*
X162824438Y-90543094D02*
X162776819Y-90447856D01*
X162776819Y-90447856D02*
X162776819Y-90209761D01*
X162776819Y-90209761D02*
X162824438Y-90114523D01*
X162824438Y-90114523D02*
X162872057Y-90066904D01*
X162872057Y-90066904D02*
X162967295Y-90019285D01*
X162967295Y-90019285D02*
X163062533Y-90019285D01*
X163062533Y-90019285D02*
X163205390Y-90066904D01*
X163205390Y-90066904D02*
X163776819Y-90638332D01*
X163776819Y-90638332D02*
X163776819Y-90019285D01*
X170634819Y-89701666D02*
X170158628Y-90034999D01*
X170634819Y-90273094D02*
X169634819Y-90273094D01*
X169634819Y-90273094D02*
X169634819Y-89892142D01*
X169634819Y-89892142D02*
X169682438Y-89796904D01*
X169682438Y-89796904D02*
X169730057Y-89749285D01*
X169730057Y-89749285D02*
X169825295Y-89701666D01*
X169825295Y-89701666D02*
X169968152Y-89701666D01*
X169968152Y-89701666D02*
X170063390Y-89749285D01*
X170063390Y-89749285D02*
X170111009Y-89796904D01*
X170111009Y-89796904D02*
X170158628Y-89892142D01*
X170158628Y-89892142D02*
X170158628Y-90273094D01*
X169968152Y-88844523D02*
X170634819Y-88844523D01*
X169587200Y-89082618D02*
X170301485Y-89320713D01*
X170301485Y-89320713D02*
X170301485Y-88701666D01*
X171285819Y-85796333D02*
X172000104Y-85796333D01*
X172000104Y-85796333D02*
X172142961Y-85843952D01*
X172142961Y-85843952D02*
X172238200Y-85939190D01*
X172238200Y-85939190D02*
X172285819Y-86082047D01*
X172285819Y-86082047D02*
X172285819Y-86177285D01*
X172285819Y-85320142D02*
X171285819Y-85320142D01*
X171285819Y-85320142D02*
X171285819Y-84939190D01*
X171285819Y-84939190D02*
X171333438Y-84843952D01*
X171333438Y-84843952D02*
X171381057Y-84796333D01*
X171381057Y-84796333D02*
X171476295Y-84748714D01*
X171476295Y-84748714D02*
X171619152Y-84748714D01*
X171619152Y-84748714D02*
X171714390Y-84796333D01*
X171714390Y-84796333D02*
X171762009Y-84843952D01*
X171762009Y-84843952D02*
X171809628Y-84939190D01*
X171809628Y-84939190D02*
X171809628Y-85320142D01*
X171381057Y-84367761D02*
X171333438Y-84320142D01*
X171333438Y-84320142D02*
X171285819Y-84224904D01*
X171285819Y-84224904D02*
X171285819Y-83986809D01*
X171285819Y-83986809D02*
X171333438Y-83891571D01*
X171333438Y-83891571D02*
X171381057Y-83843952D01*
X171381057Y-83843952D02*
X171476295Y-83796333D01*
X171476295Y-83796333D02*
X171571533Y-83796333D01*
X171571533Y-83796333D02*
X171714390Y-83843952D01*
X171714390Y-83843952D02*
X172285819Y-84415380D01*
X172285819Y-84415380D02*
X172285819Y-83796333D01*
X169283142Y-95831819D02*
X168949809Y-95355628D01*
X168711714Y-95831819D02*
X168711714Y-94831819D01*
X168711714Y-94831819D02*
X169092666Y-94831819D01*
X169092666Y-94831819D02*
X169187904Y-94879438D01*
X169187904Y-94879438D02*
X169235523Y-94927057D01*
X169235523Y-94927057D02*
X169283142Y-95022295D01*
X169283142Y-95022295D02*
X169283142Y-95165152D01*
X169283142Y-95165152D02*
X169235523Y-95260390D01*
X169235523Y-95260390D02*
X169187904Y-95308009D01*
X169187904Y-95308009D02*
X169092666Y-95355628D01*
X169092666Y-95355628D02*
X168711714Y-95355628D01*
X170235523Y-95831819D02*
X169664095Y-95831819D01*
X169949809Y-95831819D02*
X169949809Y-94831819D01*
X169949809Y-94831819D02*
X169854571Y-94974676D01*
X169854571Y-94974676D02*
X169759333Y-95069914D01*
X169759333Y-95069914D02*
X169664095Y-95117533D01*
X171187904Y-95831819D02*
X170616476Y-95831819D01*
X170902190Y-95831819D02*
X170902190Y-94831819D01*
X170902190Y-94831819D02*
X170806952Y-94974676D01*
X170806952Y-94974676D02*
X170711714Y-95069914D01*
X170711714Y-95069914D02*
X170616476Y-95117533D01*
X167155905Y-81861819D02*
X167155905Y-80861819D01*
X167155905Y-80861819D02*
X167394000Y-80861819D01*
X167394000Y-80861819D02*
X167536857Y-80909438D01*
X167536857Y-80909438D02*
X167632095Y-81004676D01*
X167632095Y-81004676D02*
X167679714Y-81099914D01*
X167679714Y-81099914D02*
X167727333Y-81290390D01*
X167727333Y-81290390D02*
X167727333Y-81433247D01*
X167727333Y-81433247D02*
X167679714Y-81623723D01*
X167679714Y-81623723D02*
X167632095Y-81718961D01*
X167632095Y-81718961D02*
X167536857Y-81814200D01*
X167536857Y-81814200D02*
X167394000Y-81861819D01*
X167394000Y-81861819D02*
X167155905Y-81861819D01*
X168679714Y-81861819D02*
X168108286Y-81861819D01*
X168394000Y-81861819D02*
X168394000Y-80861819D01*
X168394000Y-80861819D02*
X168298762Y-81004676D01*
X168298762Y-81004676D02*
X168203524Y-81099914D01*
X168203524Y-81099914D02*
X168108286Y-81147533D01*
X166822571Y-83766819D02*
X166489238Y-83290628D01*
X166251143Y-83766819D02*
X166251143Y-82766819D01*
X166251143Y-82766819D02*
X166632095Y-82766819D01*
X166632095Y-82766819D02*
X166727333Y-82814438D01*
X166727333Y-82814438D02*
X166774952Y-82862057D01*
X166774952Y-82862057D02*
X166822571Y-82957295D01*
X166822571Y-82957295D02*
X166822571Y-83100152D01*
X166822571Y-83100152D02*
X166774952Y-83195390D01*
X166774952Y-83195390D02*
X166727333Y-83243009D01*
X166727333Y-83243009D02*
X166632095Y-83290628D01*
X166632095Y-83290628D02*
X166251143Y-83290628D01*
X167251143Y-83243009D02*
X167584476Y-83243009D01*
X167727333Y-83766819D02*
X167251143Y-83766819D01*
X167251143Y-83766819D02*
X167251143Y-82766819D01*
X167251143Y-82766819D02*
X167727333Y-82766819D01*
X168108286Y-83481104D02*
X168584476Y-83481104D01*
X168013048Y-83766819D02*
X168346381Y-82766819D01*
X168346381Y-82766819D02*
X168679714Y-83766819D01*
X169013048Y-83766819D02*
X169013048Y-82766819D01*
X169013048Y-82766819D02*
X169251143Y-82766819D01*
X169251143Y-82766819D02*
X169394000Y-82814438D01*
X169394000Y-82814438D02*
X169489238Y-82909676D01*
X169489238Y-82909676D02*
X169536857Y-83004914D01*
X169536857Y-83004914D02*
X169584476Y-83195390D01*
X169584476Y-83195390D02*
X169584476Y-83338247D01*
X169584476Y-83338247D02*
X169536857Y-83528723D01*
X169536857Y-83528723D02*
X169489238Y-83623961D01*
X169489238Y-83623961D02*
X169394000Y-83719200D01*
X169394000Y-83719200D02*
X169251143Y-83766819D01*
X169251143Y-83766819D02*
X169013048Y-83766819D01*
X156932333Y-111484580D02*
X156884714Y-111532200D01*
X156884714Y-111532200D02*
X156741857Y-111579819D01*
X156741857Y-111579819D02*
X156646619Y-111579819D01*
X156646619Y-111579819D02*
X156503762Y-111532200D01*
X156503762Y-111532200D02*
X156408524Y-111436961D01*
X156408524Y-111436961D02*
X156360905Y-111341723D01*
X156360905Y-111341723D02*
X156313286Y-111151247D01*
X156313286Y-111151247D02*
X156313286Y-111008390D01*
X156313286Y-111008390D02*
X156360905Y-110817914D01*
X156360905Y-110817914D02*
X156408524Y-110722676D01*
X156408524Y-110722676D02*
X156503762Y-110627438D01*
X156503762Y-110627438D02*
X156646619Y-110579819D01*
X156646619Y-110579819D02*
X156741857Y-110579819D01*
X156741857Y-110579819D02*
X156884714Y-110627438D01*
X156884714Y-110627438D02*
X156932333Y-110675057D01*
X157313286Y-110675057D02*
X157360905Y-110627438D01*
X157360905Y-110627438D02*
X157456143Y-110579819D01*
X157456143Y-110579819D02*
X157694238Y-110579819D01*
X157694238Y-110579819D02*
X157789476Y-110627438D01*
X157789476Y-110627438D02*
X157837095Y-110675057D01*
X157837095Y-110675057D02*
X157884714Y-110770295D01*
X157884714Y-110770295D02*
X157884714Y-110865533D01*
X157884714Y-110865533D02*
X157837095Y-111008390D01*
X157837095Y-111008390D02*
X157265667Y-111579819D01*
X157265667Y-111579819D02*
X157884714Y-111579819D01*
X179381819Y-87796666D02*
X178905628Y-88129999D01*
X179381819Y-88368094D02*
X178381819Y-88368094D01*
X178381819Y-88368094D02*
X178381819Y-87987142D01*
X178381819Y-87987142D02*
X178429438Y-87891904D01*
X178429438Y-87891904D02*
X178477057Y-87844285D01*
X178477057Y-87844285D02*
X178572295Y-87796666D01*
X178572295Y-87796666D02*
X178715152Y-87796666D01*
X178715152Y-87796666D02*
X178810390Y-87844285D01*
X178810390Y-87844285D02*
X178858009Y-87891904D01*
X178858009Y-87891904D02*
X178905628Y-87987142D01*
X178905628Y-87987142D02*
X178905628Y-88368094D01*
X178381819Y-86891904D02*
X178381819Y-87368094D01*
X178381819Y-87368094D02*
X178858009Y-87415713D01*
X178858009Y-87415713D02*
X178810390Y-87368094D01*
X178810390Y-87368094D02*
X178762771Y-87272856D01*
X178762771Y-87272856D02*
X178762771Y-87034761D01*
X178762771Y-87034761D02*
X178810390Y-86939523D01*
X178810390Y-86939523D02*
X178858009Y-86891904D01*
X178858009Y-86891904D02*
X178953247Y-86844285D01*
X178953247Y-86844285D02*
X179191342Y-86844285D01*
X179191342Y-86844285D02*
X179286580Y-86891904D01*
X179286580Y-86891904D02*
X179334200Y-86939523D01*
X179334200Y-86939523D02*
X179381819Y-87034761D01*
X179381819Y-87034761D02*
X179381819Y-87272856D01*
X179381819Y-87272856D02*
X179334200Y-87368094D01*
X179334200Y-87368094D02*
X179286580Y-87415713D01*
X163792819Y-85796333D02*
X164507104Y-85796333D01*
X164507104Y-85796333D02*
X164649961Y-85843952D01*
X164649961Y-85843952D02*
X164745200Y-85939190D01*
X164745200Y-85939190D02*
X164792819Y-86082047D01*
X164792819Y-86082047D02*
X164792819Y-86177285D01*
X164792819Y-85320142D02*
X163792819Y-85320142D01*
X163792819Y-85320142D02*
X163792819Y-84939190D01*
X163792819Y-84939190D02*
X163840438Y-84843952D01*
X163840438Y-84843952D02*
X163888057Y-84796333D01*
X163888057Y-84796333D02*
X163983295Y-84748714D01*
X163983295Y-84748714D02*
X164126152Y-84748714D01*
X164126152Y-84748714D02*
X164221390Y-84796333D01*
X164221390Y-84796333D02*
X164269009Y-84843952D01*
X164269009Y-84843952D02*
X164316628Y-84939190D01*
X164316628Y-84939190D02*
X164316628Y-85320142D01*
X164792819Y-83796333D02*
X164792819Y-84367761D01*
X164792819Y-84082047D02*
X163792819Y-84082047D01*
X163792819Y-84082047D02*
X163935676Y-84177285D01*
X163935676Y-84177285D02*
X164030914Y-84272523D01*
X164030914Y-84272523D02*
X164078533Y-84367761D01*
X168728819Y-110513666D02*
X168252628Y-110846999D01*
X168728819Y-111085094D02*
X167728819Y-111085094D01*
X167728819Y-111085094D02*
X167728819Y-110704142D01*
X167728819Y-110704142D02*
X167776438Y-110608904D01*
X167776438Y-110608904D02*
X167824057Y-110561285D01*
X167824057Y-110561285D02*
X167919295Y-110513666D01*
X167919295Y-110513666D02*
X168062152Y-110513666D01*
X168062152Y-110513666D02*
X168157390Y-110561285D01*
X168157390Y-110561285D02*
X168205009Y-110608904D01*
X168205009Y-110608904D02*
X168252628Y-110704142D01*
X168252628Y-110704142D02*
X168252628Y-111085094D01*
X168728819Y-109561285D02*
X168728819Y-110132713D01*
X168728819Y-109846999D02*
X167728819Y-109846999D01*
X167728819Y-109846999D02*
X167871676Y-109942237D01*
X167871676Y-109942237D02*
X167966914Y-110037475D01*
X167966914Y-110037475D02*
X168014533Y-110132713D01*
X168433761Y-94022057D02*
X168338523Y-93974438D01*
X168338523Y-93974438D02*
X168243285Y-93879200D01*
X168243285Y-93879200D02*
X168100428Y-93736342D01*
X168100428Y-93736342D02*
X168005190Y-93688723D01*
X168005190Y-93688723D02*
X167909952Y-93688723D01*
X167957571Y-93926819D02*
X167862333Y-93879200D01*
X167862333Y-93879200D02*
X167767095Y-93783961D01*
X167767095Y-93783961D02*
X167719476Y-93593485D01*
X167719476Y-93593485D02*
X167719476Y-93260152D01*
X167719476Y-93260152D02*
X167767095Y-93069676D01*
X167767095Y-93069676D02*
X167862333Y-92974438D01*
X167862333Y-92974438D02*
X167957571Y-92926819D01*
X167957571Y-92926819D02*
X168148047Y-92926819D01*
X168148047Y-92926819D02*
X168243285Y-92974438D01*
X168243285Y-92974438D02*
X168338523Y-93069676D01*
X168338523Y-93069676D02*
X168386142Y-93260152D01*
X168386142Y-93260152D02*
X168386142Y-93593485D01*
X168386142Y-93593485D02*
X168338523Y-93783961D01*
X168338523Y-93783961D02*
X168243285Y-93879200D01*
X168243285Y-93879200D02*
X168148047Y-93926819D01*
X168148047Y-93926819D02*
X167957571Y-93926819D01*
X169338523Y-93926819D02*
X168767095Y-93926819D01*
X169052809Y-93926819D02*
X169052809Y-92926819D01*
X169052809Y-92926819D02*
X168957571Y-93069676D01*
X168957571Y-93069676D02*
X168862333Y-93164914D01*
X168862333Y-93164914D02*
X168767095Y-93212533D01*
X159543809Y-113489628D02*
X159543809Y-113965819D01*
X159210476Y-112965819D02*
X159543809Y-113489628D01*
X159543809Y-113489628D02*
X159877142Y-112965819D01*
X160734285Y-113965819D02*
X160162857Y-113965819D01*
X160448571Y-113965819D02*
X160448571Y-112965819D01*
X160448571Y-112965819D02*
X160353333Y-113108676D01*
X160353333Y-113108676D02*
X160258095Y-113203914D01*
X160258095Y-113203914D02*
X160162857Y-113251533D01*
X169251333Y-99895819D02*
X168918000Y-99419628D01*
X168679905Y-99895819D02*
X168679905Y-98895819D01*
X168679905Y-98895819D02*
X169060857Y-98895819D01*
X169060857Y-98895819D02*
X169156095Y-98943438D01*
X169156095Y-98943438D02*
X169203714Y-98991057D01*
X169203714Y-98991057D02*
X169251333Y-99086295D01*
X169251333Y-99086295D02*
X169251333Y-99229152D01*
X169251333Y-99229152D02*
X169203714Y-99324390D01*
X169203714Y-99324390D02*
X169156095Y-99372009D01*
X169156095Y-99372009D02*
X169060857Y-99419628D01*
X169060857Y-99419628D02*
X168679905Y-99419628D01*
X169822762Y-99324390D02*
X169727524Y-99276771D01*
X169727524Y-99276771D02*
X169679905Y-99229152D01*
X169679905Y-99229152D02*
X169632286Y-99133914D01*
X169632286Y-99133914D02*
X169632286Y-99086295D01*
X169632286Y-99086295D02*
X169679905Y-98991057D01*
X169679905Y-98991057D02*
X169727524Y-98943438D01*
X169727524Y-98943438D02*
X169822762Y-98895819D01*
X169822762Y-98895819D02*
X170013238Y-98895819D01*
X170013238Y-98895819D02*
X170108476Y-98943438D01*
X170108476Y-98943438D02*
X170156095Y-98991057D01*
X170156095Y-98991057D02*
X170203714Y-99086295D01*
X170203714Y-99086295D02*
X170203714Y-99133914D01*
X170203714Y-99133914D02*
X170156095Y-99229152D01*
X170156095Y-99229152D02*
X170108476Y-99276771D01*
X170108476Y-99276771D02*
X170013238Y-99324390D01*
X170013238Y-99324390D02*
X169822762Y-99324390D01*
X169822762Y-99324390D02*
X169727524Y-99372009D01*
X169727524Y-99372009D02*
X169679905Y-99419628D01*
X169679905Y-99419628D02*
X169632286Y-99514866D01*
X169632286Y-99514866D02*
X169632286Y-99705342D01*
X169632286Y-99705342D02*
X169679905Y-99800580D01*
X169679905Y-99800580D02*
X169727524Y-99848200D01*
X169727524Y-99848200D02*
X169822762Y-99895819D01*
X169822762Y-99895819D02*
X170013238Y-99895819D01*
X170013238Y-99895819D02*
X170108476Y-99848200D01*
X170108476Y-99848200D02*
X170156095Y-99800580D01*
X170156095Y-99800580D02*
X170203714Y-99705342D01*
X170203714Y-99705342D02*
X170203714Y-99514866D01*
X170203714Y-99514866D02*
X170156095Y-99419628D01*
X170156095Y-99419628D02*
X170108476Y-99372009D01*
X170108476Y-99372009D02*
X170013238Y-99324390D01*
D14*
X149341337Y-101831318D02*
X149341337Y-102738461D01*
X149341337Y-102738461D02*
X149280860Y-102919889D01*
X149280860Y-102919889D02*
X149159908Y-103040842D01*
X149159908Y-103040842D02*
X148978479Y-103101318D01*
X148978479Y-103101318D02*
X148857527Y-103101318D01*
X149825146Y-101831318D02*
X150611337Y-101831318D01*
X150611337Y-101831318D02*
X150188003Y-102315127D01*
X150188003Y-102315127D02*
X150369432Y-102315127D01*
X150369432Y-102315127D02*
X150490384Y-102375603D01*
X150490384Y-102375603D02*
X150550860Y-102436080D01*
X150550860Y-102436080D02*
X150611337Y-102557032D01*
X150611337Y-102557032D02*
X150611337Y-102859413D01*
X150611337Y-102859413D02*
X150550860Y-102980365D01*
X150550860Y-102980365D02*
X150490384Y-103040842D01*
X150490384Y-103040842D02*
X150369432Y-103101318D01*
X150369432Y-103101318D02*
X150006575Y-103101318D01*
X150006575Y-103101318D02*
X149885622Y-103040842D01*
X149885622Y-103040842D02*
X149825146Y-102980365D01*
D12*
X164552333Y-107293580D02*
X164504714Y-107341200D01*
X164504714Y-107341200D02*
X164361857Y-107388819D01*
X164361857Y-107388819D02*
X164266619Y-107388819D01*
X164266619Y-107388819D02*
X164123762Y-107341200D01*
X164123762Y-107341200D02*
X164028524Y-107245961D01*
X164028524Y-107245961D02*
X163980905Y-107150723D01*
X163980905Y-107150723D02*
X163933286Y-106960247D01*
X163933286Y-106960247D02*
X163933286Y-106817390D01*
X163933286Y-106817390D02*
X163980905Y-106626914D01*
X163980905Y-106626914D02*
X164028524Y-106531676D01*
X164028524Y-106531676D02*
X164123762Y-106436438D01*
X164123762Y-106436438D02*
X164266619Y-106388819D01*
X164266619Y-106388819D02*
X164361857Y-106388819D01*
X164361857Y-106388819D02*
X164504714Y-106436438D01*
X164504714Y-106436438D02*
X164552333Y-106484057D01*
X165457095Y-106388819D02*
X164980905Y-106388819D01*
X164980905Y-106388819D02*
X164933286Y-106865009D01*
X164933286Y-106865009D02*
X164980905Y-106817390D01*
X164980905Y-106817390D02*
X165076143Y-106769771D01*
X165076143Y-106769771D02*
X165314238Y-106769771D01*
X165314238Y-106769771D02*
X165409476Y-106817390D01*
X165409476Y-106817390D02*
X165457095Y-106865009D01*
X165457095Y-106865009D02*
X165504714Y-106960247D01*
X165504714Y-106960247D02*
X165504714Y-107198342D01*
X165504714Y-107198342D02*
X165457095Y-107293580D01*
X165457095Y-107293580D02*
X165409476Y-107341200D01*
X165409476Y-107341200D02*
X165314238Y-107388819D01*
X165314238Y-107388819D02*
X165076143Y-107388819D01*
X165076143Y-107388819D02*
X164980905Y-107341200D01*
X164980905Y-107341200D02*
X164933286Y-107293580D01*
X177466666Y-108928819D02*
X177466666Y-109643104D01*
X177466666Y-109643104D02*
X177419047Y-109785961D01*
X177419047Y-109785961D02*
X177323809Y-109881200D01*
X177323809Y-109881200D02*
X177180952Y-109928819D01*
X177180952Y-109928819D02*
X177085714Y-109928819D01*
X177895238Y-109024057D02*
X177942857Y-108976438D01*
X177942857Y-108976438D02*
X178038095Y-108928819D01*
X178038095Y-108928819D02*
X178276190Y-108928819D01*
X178276190Y-108928819D02*
X178371428Y-108976438D01*
X178371428Y-108976438D02*
X178419047Y-109024057D01*
X178419047Y-109024057D02*
X178466666Y-109119295D01*
X178466666Y-109119295D02*
X178466666Y-109214533D01*
X178466666Y-109214533D02*
X178419047Y-109357390D01*
X178419047Y-109357390D02*
X177847619Y-109928819D01*
X177847619Y-109928819D02*
X178466666Y-109928819D01*
X174926810Y-124533819D02*
X174926810Y-123533819D01*
X175974428Y-124438580D02*
X175926809Y-124486200D01*
X175926809Y-124486200D02*
X175783952Y-124533819D01*
X175783952Y-124533819D02*
X175688714Y-124533819D01*
X175688714Y-124533819D02*
X175545857Y-124486200D01*
X175545857Y-124486200D02*
X175450619Y-124390961D01*
X175450619Y-124390961D02*
X175403000Y-124295723D01*
X175403000Y-124295723D02*
X175355381Y-124105247D01*
X175355381Y-124105247D02*
X175355381Y-123962390D01*
X175355381Y-123962390D02*
X175403000Y-123771914D01*
X175403000Y-123771914D02*
X175450619Y-123676676D01*
X175450619Y-123676676D02*
X175545857Y-123581438D01*
X175545857Y-123581438D02*
X175688714Y-123533819D01*
X175688714Y-123533819D02*
X175783952Y-123533819D01*
X175783952Y-123533819D02*
X175926809Y-123581438D01*
X175926809Y-123581438D02*
X175974428Y-123629057D01*
X176355381Y-124486200D02*
X176498238Y-124533819D01*
X176498238Y-124533819D02*
X176736333Y-124533819D01*
X176736333Y-124533819D02*
X176831571Y-124486200D01*
X176831571Y-124486200D02*
X176879190Y-124438580D01*
X176879190Y-124438580D02*
X176926809Y-124343342D01*
X176926809Y-124343342D02*
X176926809Y-124248104D01*
X176926809Y-124248104D02*
X176879190Y-124152866D01*
X176879190Y-124152866D02*
X176831571Y-124105247D01*
X176831571Y-124105247D02*
X176736333Y-124057628D01*
X176736333Y-124057628D02*
X176545857Y-124010009D01*
X176545857Y-124010009D02*
X176450619Y-123962390D01*
X176450619Y-123962390D02*
X176403000Y-123914771D01*
X176403000Y-123914771D02*
X176355381Y-123819533D01*
X176355381Y-123819533D02*
X176355381Y-123724295D01*
X176355381Y-123724295D02*
X176403000Y-123629057D01*
X176403000Y-123629057D02*
X176450619Y-123581438D01*
X176450619Y-123581438D02*
X176545857Y-123533819D01*
X176545857Y-123533819D02*
X176783952Y-123533819D01*
X176783952Y-123533819D02*
X176926809Y-123581438D01*
X177355381Y-124533819D02*
X177355381Y-123533819D01*
X177355381Y-123533819D02*
X177736333Y-123533819D01*
X177736333Y-123533819D02*
X177831571Y-123581438D01*
X177831571Y-123581438D02*
X177879190Y-123629057D01*
X177879190Y-123629057D02*
X177926809Y-123724295D01*
X177926809Y-123724295D02*
X177926809Y-123867152D01*
X177926809Y-123867152D02*
X177879190Y-123962390D01*
X177879190Y-123962390D02*
X177831571Y-124010009D01*
X177831571Y-124010009D02*
X177736333Y-124057628D01*
X177736333Y-124057628D02*
X177355381Y-124057628D01*
X169251333Y-97863819D02*
X168918000Y-97387628D01*
X168679905Y-97863819D02*
X168679905Y-96863819D01*
X168679905Y-96863819D02*
X169060857Y-96863819D01*
X169060857Y-96863819D02*
X169156095Y-96911438D01*
X169156095Y-96911438D02*
X169203714Y-96959057D01*
X169203714Y-96959057D02*
X169251333Y-97054295D01*
X169251333Y-97054295D02*
X169251333Y-97197152D01*
X169251333Y-97197152D02*
X169203714Y-97292390D01*
X169203714Y-97292390D02*
X169156095Y-97340009D01*
X169156095Y-97340009D02*
X169060857Y-97387628D01*
X169060857Y-97387628D02*
X168679905Y-97387628D01*
X169584667Y-96863819D02*
X170251333Y-96863819D01*
X170251333Y-96863819D02*
X169822762Y-97863819D01*
X179523819Y-92622666D02*
X179047628Y-92955999D01*
X179523819Y-93194094D02*
X178523819Y-93194094D01*
X178523819Y-93194094D02*
X178523819Y-92813142D01*
X178523819Y-92813142D02*
X178571438Y-92717904D01*
X178571438Y-92717904D02*
X178619057Y-92670285D01*
X178619057Y-92670285D02*
X178714295Y-92622666D01*
X178714295Y-92622666D02*
X178857152Y-92622666D01*
X178857152Y-92622666D02*
X178952390Y-92670285D01*
X178952390Y-92670285D02*
X179000009Y-92717904D01*
X179000009Y-92717904D02*
X179047628Y-92813142D01*
X179047628Y-92813142D02*
X179047628Y-93194094D01*
X178523819Y-91765523D02*
X178523819Y-91955999D01*
X178523819Y-91955999D02*
X178571438Y-92051237D01*
X178571438Y-92051237D02*
X178619057Y-92098856D01*
X178619057Y-92098856D02*
X178761914Y-92194094D01*
X178761914Y-92194094D02*
X178952390Y-92241713D01*
X178952390Y-92241713D02*
X179333342Y-92241713D01*
X179333342Y-92241713D02*
X179428580Y-92194094D01*
X179428580Y-92194094D02*
X179476200Y-92146475D01*
X179476200Y-92146475D02*
X179523819Y-92051237D01*
X179523819Y-92051237D02*
X179523819Y-91860761D01*
X179523819Y-91860761D02*
X179476200Y-91765523D01*
X179476200Y-91765523D02*
X179428580Y-91717904D01*
X179428580Y-91717904D02*
X179333342Y-91670285D01*
X179333342Y-91670285D02*
X179095247Y-91670285D01*
X179095247Y-91670285D02*
X179000009Y-91717904D01*
X179000009Y-91717904D02*
X178952390Y-91765523D01*
X178952390Y-91765523D02*
X178904771Y-91860761D01*
X178904771Y-91860761D02*
X178904771Y-92051237D01*
X178904771Y-92051237D02*
X178952390Y-92146475D01*
X178952390Y-92146475D02*
X179000009Y-92194094D01*
X179000009Y-92194094D02*
X179095247Y-92241713D01*
X139787333Y-110214580D02*
X139739714Y-110262200D01*
X139739714Y-110262200D02*
X139596857Y-110309819D01*
X139596857Y-110309819D02*
X139501619Y-110309819D01*
X139501619Y-110309819D02*
X139358762Y-110262200D01*
X139358762Y-110262200D02*
X139263524Y-110166961D01*
X139263524Y-110166961D02*
X139215905Y-110071723D01*
X139215905Y-110071723D02*
X139168286Y-109881247D01*
X139168286Y-109881247D02*
X139168286Y-109738390D01*
X139168286Y-109738390D02*
X139215905Y-109547914D01*
X139215905Y-109547914D02*
X139263524Y-109452676D01*
X139263524Y-109452676D02*
X139358762Y-109357438D01*
X139358762Y-109357438D02*
X139501619Y-109309819D01*
X139501619Y-109309819D02*
X139596857Y-109309819D01*
X139596857Y-109309819D02*
X139739714Y-109357438D01*
X139739714Y-109357438D02*
X139787333Y-109405057D01*
X140358762Y-109738390D02*
X140263524Y-109690771D01*
X140263524Y-109690771D02*
X140215905Y-109643152D01*
X140215905Y-109643152D02*
X140168286Y-109547914D01*
X140168286Y-109547914D02*
X140168286Y-109500295D01*
X140168286Y-109500295D02*
X140215905Y-109405057D01*
X140215905Y-109405057D02*
X140263524Y-109357438D01*
X140263524Y-109357438D02*
X140358762Y-109309819D01*
X140358762Y-109309819D02*
X140549238Y-109309819D01*
X140549238Y-109309819D02*
X140644476Y-109357438D01*
X140644476Y-109357438D02*
X140692095Y-109405057D01*
X140692095Y-109405057D02*
X140739714Y-109500295D01*
X140739714Y-109500295D02*
X140739714Y-109547914D01*
X140739714Y-109547914D02*
X140692095Y-109643152D01*
X140692095Y-109643152D02*
X140644476Y-109690771D01*
X140644476Y-109690771D02*
X140549238Y-109738390D01*
X140549238Y-109738390D02*
X140358762Y-109738390D01*
X140358762Y-109738390D02*
X140263524Y-109786009D01*
X140263524Y-109786009D02*
X140215905Y-109833628D01*
X140215905Y-109833628D02*
X140168286Y-109928866D01*
X140168286Y-109928866D02*
X140168286Y-110119342D01*
X140168286Y-110119342D02*
X140215905Y-110214580D01*
X140215905Y-110214580D02*
X140263524Y-110262200D01*
X140263524Y-110262200D02*
X140358762Y-110309819D01*
X140358762Y-110309819D02*
X140549238Y-110309819D01*
X140549238Y-110309819D02*
X140644476Y-110262200D01*
X140644476Y-110262200D02*
X140692095Y-110214580D01*
X140692095Y-110214580D02*
X140739714Y-110119342D01*
X140739714Y-110119342D02*
X140739714Y-109928866D01*
X140739714Y-109928866D02*
X140692095Y-109833628D01*
X140692095Y-109833628D02*
X140644476Y-109786009D01*
X140644476Y-109786009D02*
X140549238Y-109738390D01*
X171664333Y-108690580D02*
X171616714Y-108738200D01*
X171616714Y-108738200D02*
X171473857Y-108785819D01*
X171473857Y-108785819D02*
X171378619Y-108785819D01*
X171378619Y-108785819D02*
X171235762Y-108738200D01*
X171235762Y-108738200D02*
X171140524Y-108642961D01*
X171140524Y-108642961D02*
X171092905Y-108547723D01*
X171092905Y-108547723D02*
X171045286Y-108357247D01*
X171045286Y-108357247D02*
X171045286Y-108214390D01*
X171045286Y-108214390D02*
X171092905Y-108023914D01*
X171092905Y-108023914D02*
X171140524Y-107928676D01*
X171140524Y-107928676D02*
X171235762Y-107833438D01*
X171235762Y-107833438D02*
X171378619Y-107785819D01*
X171378619Y-107785819D02*
X171473857Y-107785819D01*
X171473857Y-107785819D02*
X171616714Y-107833438D01*
X171616714Y-107833438D02*
X171664333Y-107881057D01*
X172616714Y-108785819D02*
X172045286Y-108785819D01*
X172331000Y-108785819D02*
X172331000Y-107785819D01*
X172331000Y-107785819D02*
X172235762Y-107928676D01*
X172235762Y-107928676D02*
X172140524Y-108023914D01*
X172140524Y-108023914D02*
X172045286Y-108071533D01*
X170634819Y-91987666D02*
X170158628Y-92320999D01*
X170634819Y-92559094D02*
X169634819Y-92559094D01*
X169634819Y-92559094D02*
X169634819Y-92178142D01*
X169634819Y-92178142D02*
X169682438Y-92082904D01*
X169682438Y-92082904D02*
X169730057Y-92035285D01*
X169730057Y-92035285D02*
X169825295Y-91987666D01*
X169825295Y-91987666D02*
X169968152Y-91987666D01*
X169968152Y-91987666D02*
X170063390Y-92035285D01*
X170063390Y-92035285D02*
X170111009Y-92082904D01*
X170111009Y-92082904D02*
X170158628Y-92178142D01*
X170158628Y-92178142D02*
X170158628Y-92559094D01*
X169634819Y-91654332D02*
X169634819Y-91035285D01*
X169634819Y-91035285D02*
X170015771Y-91368618D01*
X170015771Y-91368618D02*
X170015771Y-91225761D01*
X170015771Y-91225761D02*
X170063390Y-91130523D01*
X170063390Y-91130523D02*
X170111009Y-91082904D01*
X170111009Y-91082904D02*
X170206247Y-91035285D01*
X170206247Y-91035285D02*
X170444342Y-91035285D01*
X170444342Y-91035285D02*
X170539580Y-91082904D01*
X170539580Y-91082904D02*
X170587200Y-91130523D01*
X170587200Y-91130523D02*
X170634819Y-91225761D01*
X170634819Y-91225761D02*
X170634819Y-91511475D01*
X170634819Y-91511475D02*
X170587200Y-91606713D01*
X170587200Y-91606713D02*
X170539580Y-91654332D01*
X169283142Y-104848819D02*
X168949809Y-104372628D01*
X168711714Y-104848819D02*
X168711714Y-103848819D01*
X168711714Y-103848819D02*
X169092666Y-103848819D01*
X169092666Y-103848819D02*
X169187904Y-103896438D01*
X169187904Y-103896438D02*
X169235523Y-103944057D01*
X169235523Y-103944057D02*
X169283142Y-104039295D01*
X169283142Y-104039295D02*
X169283142Y-104182152D01*
X169283142Y-104182152D02*
X169235523Y-104277390D01*
X169235523Y-104277390D02*
X169187904Y-104325009D01*
X169187904Y-104325009D02*
X169092666Y-104372628D01*
X169092666Y-104372628D02*
X168711714Y-104372628D01*
X170235523Y-104848819D02*
X169664095Y-104848819D01*
X169949809Y-104848819D02*
X169949809Y-103848819D01*
X169949809Y-103848819D02*
X169854571Y-103991676D01*
X169854571Y-103991676D02*
X169759333Y-104086914D01*
X169759333Y-104086914D02*
X169664095Y-104134533D01*
X170854571Y-103848819D02*
X170949809Y-103848819D01*
X170949809Y-103848819D02*
X171045047Y-103896438D01*
X171045047Y-103896438D02*
X171092666Y-103944057D01*
X171092666Y-103944057D02*
X171140285Y-104039295D01*
X171140285Y-104039295D02*
X171187904Y-104229771D01*
X171187904Y-104229771D02*
X171187904Y-104467866D01*
X171187904Y-104467866D02*
X171140285Y-104658342D01*
X171140285Y-104658342D02*
X171092666Y-104753580D01*
X171092666Y-104753580D02*
X171045047Y-104801200D01*
X171045047Y-104801200D02*
X170949809Y-104848819D01*
X170949809Y-104848819D02*
X170854571Y-104848819D01*
X170854571Y-104848819D02*
X170759333Y-104801200D01*
X170759333Y-104801200D02*
X170711714Y-104753580D01*
X170711714Y-104753580D02*
X170664095Y-104658342D01*
X170664095Y-104658342D02*
X170616476Y-104467866D01*
X170616476Y-104467866D02*
X170616476Y-104229771D01*
X170616476Y-104229771D02*
X170664095Y-104039295D01*
X170664095Y-104039295D02*
X170711714Y-103944057D01*
X170711714Y-103944057D02*
X170759333Y-103896438D01*
X170759333Y-103896438D02*
X170854571Y-103848819D01*
X174648905Y-81861819D02*
X174648905Y-80861819D01*
X174648905Y-80861819D02*
X174887000Y-80861819D01*
X174887000Y-80861819D02*
X175029857Y-80909438D01*
X175029857Y-80909438D02*
X175125095Y-81004676D01*
X175125095Y-81004676D02*
X175172714Y-81099914D01*
X175172714Y-81099914D02*
X175220333Y-81290390D01*
X175220333Y-81290390D02*
X175220333Y-81433247D01*
X175220333Y-81433247D02*
X175172714Y-81623723D01*
X175172714Y-81623723D02*
X175125095Y-81718961D01*
X175125095Y-81718961D02*
X175029857Y-81814200D01*
X175029857Y-81814200D02*
X174887000Y-81861819D01*
X174887000Y-81861819D02*
X174648905Y-81861819D01*
X175601286Y-80957057D02*
X175648905Y-80909438D01*
X175648905Y-80909438D02*
X175744143Y-80861819D01*
X175744143Y-80861819D02*
X175982238Y-80861819D01*
X175982238Y-80861819D02*
X176077476Y-80909438D01*
X176077476Y-80909438D02*
X176125095Y-80957057D01*
X176125095Y-80957057D02*
X176172714Y-81052295D01*
X176172714Y-81052295D02*
X176172714Y-81147533D01*
X176172714Y-81147533D02*
X176125095Y-81290390D01*
X176125095Y-81290390D02*
X175553667Y-81861819D01*
X175553667Y-81861819D02*
X176172714Y-81861819D01*
X173387000Y-82766819D02*
X173625095Y-83766819D01*
X173625095Y-83766819D02*
X173815571Y-83052533D01*
X173815571Y-83052533D02*
X174006047Y-83766819D01*
X174006047Y-83766819D02*
X174244143Y-82766819D01*
X175196523Y-83766819D02*
X174863190Y-83290628D01*
X174625095Y-83766819D02*
X174625095Y-82766819D01*
X174625095Y-82766819D02*
X175006047Y-82766819D01*
X175006047Y-82766819D02*
X175101285Y-82814438D01*
X175101285Y-82814438D02*
X175148904Y-82862057D01*
X175148904Y-82862057D02*
X175196523Y-82957295D01*
X175196523Y-82957295D02*
X175196523Y-83100152D01*
X175196523Y-83100152D02*
X175148904Y-83195390D01*
X175148904Y-83195390D02*
X175101285Y-83243009D01*
X175101285Y-83243009D02*
X175006047Y-83290628D01*
X175006047Y-83290628D02*
X174625095Y-83290628D01*
X175625095Y-83766819D02*
X175625095Y-82766819D01*
X175958428Y-82766819D02*
X176529856Y-82766819D01*
X176244142Y-83766819D02*
X176244142Y-82766819D01*
X176863190Y-83243009D02*
X177196523Y-83243009D01*
X177339380Y-83766819D02*
X176863190Y-83766819D01*
X176863190Y-83766819D02*
X176863190Y-82766819D01*
X176863190Y-82766819D02*
X177339380Y-82766819D01*
X176345479Y-106006770D02*
X176536327Y-106006770D01*
X176536327Y-106006770D02*
X176631751Y-106054482D01*
X176631751Y-106054482D02*
X176727175Y-106149906D01*
X176727175Y-106149906D02*
X176774887Y-106340754D01*
X176774887Y-106340754D02*
X176774887Y-106674738D01*
X176774887Y-106674738D02*
X176727175Y-106865586D01*
X176727175Y-106865586D02*
X176631751Y-106961011D01*
X176631751Y-106961011D02*
X176536327Y-107008723D01*
X176536327Y-107008723D02*
X176345479Y-107008723D01*
X176345479Y-107008723D02*
X176250055Y-106961011D01*
X176250055Y-106961011D02*
X176154631Y-106865586D01*
X176154631Y-106865586D02*
X176106919Y-106674738D01*
X176106919Y-106674738D02*
X176106919Y-106340754D01*
X176106919Y-106340754D02*
X176154631Y-106149906D01*
X176154631Y-106149906D02*
X176250055Y-106054482D01*
X176250055Y-106054482D02*
X176345479Y-106006770D01*
X177204296Y-107008723D02*
X177204296Y-106006770D01*
X177776840Y-107008723D02*
X177347432Y-106436178D01*
X177776840Y-106006770D02*
X177204296Y-106579314D01*
X178731081Y-107008723D02*
X178158537Y-107008723D01*
X178444809Y-107008723D02*
X178444809Y-106006770D01*
X178444809Y-106006770D02*
X178349385Y-106149906D01*
X178349385Y-106149906D02*
X178253961Y-106245330D01*
X178253961Y-106245330D02*
X178158537Y-106293042D01*
X156678333Y-122435580D02*
X156630714Y-122483200D01*
X156630714Y-122483200D02*
X156487857Y-122530819D01*
X156487857Y-122530819D02*
X156392619Y-122530819D01*
X156392619Y-122530819D02*
X156249762Y-122483200D01*
X156249762Y-122483200D02*
X156154524Y-122387961D01*
X156154524Y-122387961D02*
X156106905Y-122292723D01*
X156106905Y-122292723D02*
X156059286Y-122102247D01*
X156059286Y-122102247D02*
X156059286Y-121959390D01*
X156059286Y-121959390D02*
X156106905Y-121768914D01*
X156106905Y-121768914D02*
X156154524Y-121673676D01*
X156154524Y-121673676D02*
X156249762Y-121578438D01*
X156249762Y-121578438D02*
X156392619Y-121530819D01*
X156392619Y-121530819D02*
X156487857Y-121530819D01*
X156487857Y-121530819D02*
X156630714Y-121578438D01*
X156630714Y-121578438D02*
X156678333Y-121626057D01*
X157011667Y-121530819D02*
X157630714Y-121530819D01*
X157630714Y-121530819D02*
X157297381Y-121911771D01*
X157297381Y-121911771D02*
X157440238Y-121911771D01*
X157440238Y-121911771D02*
X157535476Y-121959390D01*
X157535476Y-121959390D02*
X157583095Y-122007009D01*
X157583095Y-122007009D02*
X157630714Y-122102247D01*
X157630714Y-122102247D02*
X157630714Y-122340342D01*
X157630714Y-122340342D02*
X157583095Y-122435580D01*
X157583095Y-122435580D02*
X157535476Y-122483200D01*
X157535476Y-122483200D02*
X157440238Y-122530819D01*
X157440238Y-122530819D02*
X157154524Y-122530819D01*
X157154524Y-122530819D02*
X157059286Y-122483200D01*
X157059286Y-122483200D02*
X157011667Y-122435580D01*
X162901333Y-109833580D02*
X162853714Y-109881200D01*
X162853714Y-109881200D02*
X162710857Y-109928819D01*
X162710857Y-109928819D02*
X162615619Y-109928819D01*
X162615619Y-109928819D02*
X162472762Y-109881200D01*
X162472762Y-109881200D02*
X162377524Y-109785961D01*
X162377524Y-109785961D02*
X162329905Y-109690723D01*
X162329905Y-109690723D02*
X162282286Y-109500247D01*
X162282286Y-109500247D02*
X162282286Y-109357390D01*
X162282286Y-109357390D02*
X162329905Y-109166914D01*
X162329905Y-109166914D02*
X162377524Y-109071676D01*
X162377524Y-109071676D02*
X162472762Y-108976438D01*
X162472762Y-108976438D02*
X162615619Y-108928819D01*
X162615619Y-108928819D02*
X162710857Y-108928819D01*
X162710857Y-108928819D02*
X162853714Y-108976438D01*
X162853714Y-108976438D02*
X162901333Y-109024057D01*
X163758476Y-109262152D02*
X163758476Y-109928819D01*
X163520381Y-108881200D02*
X163282286Y-109595485D01*
X163282286Y-109595485D02*
X163901333Y-109595485D01*
X135382095Y-112865819D02*
X135382095Y-113675342D01*
X135382095Y-113675342D02*
X135429714Y-113770580D01*
X135429714Y-113770580D02*
X135477333Y-113818200D01*
X135477333Y-113818200D02*
X135572571Y-113865819D01*
X135572571Y-113865819D02*
X135763047Y-113865819D01*
X135763047Y-113865819D02*
X135858285Y-113818200D01*
X135858285Y-113818200D02*
X135905904Y-113770580D01*
X135905904Y-113770580D02*
X135953523Y-113675342D01*
X135953523Y-113675342D02*
X135953523Y-112865819D01*
X136334476Y-112865819D02*
X136953523Y-112865819D01*
X136953523Y-112865819D02*
X136620190Y-113246771D01*
X136620190Y-113246771D02*
X136763047Y-113246771D01*
X136763047Y-113246771D02*
X136858285Y-113294390D01*
X136858285Y-113294390D02*
X136905904Y-113342009D01*
X136905904Y-113342009D02*
X136953523Y-113437247D01*
X136953523Y-113437247D02*
X136953523Y-113675342D01*
X136953523Y-113675342D02*
X136905904Y-113770580D01*
X136905904Y-113770580D02*
X136858285Y-113818200D01*
X136858285Y-113818200D02*
X136763047Y-113865819D01*
X136763047Y-113865819D02*
X136477333Y-113865819D01*
X136477333Y-113865819D02*
X136382095Y-113818200D01*
X136382095Y-113818200D02*
X136334476Y-113770580D01*
X149860095Y-111664819D02*
X149860095Y-112474342D01*
X149860095Y-112474342D02*
X149907714Y-112569580D01*
X149907714Y-112569580D02*
X149955333Y-112617200D01*
X149955333Y-112617200D02*
X150050571Y-112664819D01*
X150050571Y-112664819D02*
X150241047Y-112664819D01*
X150241047Y-112664819D02*
X150336285Y-112617200D01*
X150336285Y-112617200D02*
X150383904Y-112569580D01*
X150383904Y-112569580D02*
X150431523Y-112474342D01*
X150431523Y-112474342D02*
X150431523Y-111664819D01*
X150860095Y-111760057D02*
X150907714Y-111712438D01*
X150907714Y-111712438D02*
X151002952Y-111664819D01*
X151002952Y-111664819D02*
X151241047Y-111664819D01*
X151241047Y-111664819D02*
X151336285Y-111712438D01*
X151336285Y-111712438D02*
X151383904Y-111760057D01*
X151383904Y-111760057D02*
X151431523Y-111855295D01*
X151431523Y-111855295D02*
X151431523Y-111950533D01*
X151431523Y-111950533D02*
X151383904Y-112093390D01*
X151383904Y-112093390D02*
X150812476Y-112664819D01*
X150812476Y-112664819D02*
X151431523Y-112664819D01*
%TO.C,U1*%
X163380000Y-114231000D02*
X163380000Y-114456000D01*
X163380000Y-114231000D02*
X163705000Y-114231000D01*
X163380000Y-114456000D02*
X161955000Y-114456000D01*
X163380000Y-121481000D02*
X163380000Y-121156000D01*
X163380000Y-121481000D02*
X163705000Y-121481000D01*
X170630000Y-114231000D02*
X170305000Y-114231000D01*
X170630000Y-114231000D02*
X170630000Y-114556000D01*
X170630000Y-121481000D02*
X170305000Y-121481000D01*
X170630000Y-121481000D02*
X170630000Y-121156000D01*
D15*
%TO.C,C7*%
X142956000Y-123008000D02*
X144826000Y-123008000D01*
X144826000Y-123008000D02*
X144826000Y-118923000D01*
X142956000Y-118923000D02*
X142956000Y-123008000D01*
%TO.C,Q2*%
X172811000Y-90853500D02*
X172811000Y-92528500D01*
X172811000Y-90853500D02*
X172811000Y-90203500D01*
X175931000Y-90853500D02*
X175931000Y-91503500D01*
X175931000Y-90853500D02*
X175931000Y-90203500D01*
%TO.C,R9*%
X166851064Y-102589000D02*
X166396936Y-102589000D01*
X166851064Y-101119000D02*
X166396936Y-101119000D01*
%TO.C,C6*%
X147962252Y-112495000D02*
X147439748Y-112495000D01*
X147962252Y-111025000D02*
X147439748Y-111025000D01*
%TO.C,R2*%
X165708000Y-90577936D02*
X165708000Y-91032064D01*
X164238000Y-90577936D02*
X164238000Y-91032064D01*
%TO.C,R4*%
X169010064Y-88365000D02*
X168555936Y-88365000D01*
X169010064Y-86895000D02*
X168555936Y-86895000D01*
%TO.C,JP2*%
X171357000Y-86630000D02*
X174157000Y-86630000D01*
X171357000Y-88630000D02*
X171357000Y-86630000D01*
X174157000Y-86630000D02*
X174157000Y-88630000D01*
X174157000Y-88630000D02*
X171357000Y-88630000D01*
%TO.C,R11*%
X166851064Y-96112000D02*
X166396936Y-96112000D01*
X166851064Y-94642000D02*
X166396936Y-94642000D01*
%TO.C,D1*%
X168894000Y-83963000D02*
X170594000Y-83963000D01*
X170594000Y-83963000D02*
X170594000Y-85963000D01*
X170594000Y-85963000D02*
X168894000Y-85963000D01*
X168594000Y-83963000D02*
X168694000Y-83963000D01*
X168694000Y-83963000D02*
X168694000Y-85963000D01*
X168694000Y-85963000D02*
X168594000Y-85963000D01*
X168594000Y-85963000D02*
X168594000Y-83963000D01*
%TO.C,C2*%
X157360252Y-113511000D02*
X156837748Y-113511000D01*
X157360252Y-112041000D02*
X156837748Y-112041000D01*
%TO.C,R5*%
X176503064Y-88365000D02*
X176048936Y-88365000D01*
X176503064Y-86895000D02*
X176048936Y-86895000D01*
%TO.C,JP1*%
X163864000Y-86630000D02*
X166664000Y-86630000D01*
X163864000Y-88630000D02*
X163864000Y-86630000D01*
X166664000Y-86630000D02*
X166664000Y-88630000D01*
X166664000Y-88630000D02*
X163864000Y-88630000D01*
%TO.C,R1*%
X167359000Y-110119936D02*
X167359000Y-110574064D01*
X165889000Y-110119936D02*
X165889000Y-110574064D01*
%TO.C,Q1*%
X166207000Y-90853500D02*
X166207000Y-92528500D01*
X166207000Y-90853500D02*
X166207000Y-90203500D01*
X169327000Y-90853500D02*
X169327000Y-91503500D01*
X169327000Y-90853500D02*
X169327000Y-90203500D01*
%TO.C,Y1*%
X154145000Y-114336000D02*
X154145000Y-118836000D01*
X154145000Y-118836000D02*
X159545000Y-118836000D01*
%TO.C,R8*%
X166851064Y-100176000D02*
X166396936Y-100176000D01*
X166851064Y-98706000D02*
X166396936Y-98706000D01*
D14*
%TO.C,J3*%
X162306000Y-104109000D02*
X162306000Y-86482330D01*
X162306000Y-82696000D02*
X135706000Y-82696000D01*
X135706000Y-107696000D02*
X135706000Y-86482330D01*
D16*
X142055670Y-109833330D02*
G75*
G03*
X142055670Y-109833330I-209335J0D01*
G01*
D15*
%TO.C,C5*%
X165790000Y-105999000D02*
X165790000Y-107869000D01*
X165790000Y-107869000D02*
X169875000Y-107869000D01*
X169875000Y-105999000D02*
X165790000Y-105999000D01*
%TO.C,J2*%
X173026000Y-110263000D02*
X179526000Y-110263000D01*
X173026000Y-114663000D02*
X173026000Y-110263000D01*
X173026000Y-118763000D02*
X173026000Y-118763000D01*
X173026000Y-123163000D02*
X173026000Y-118763000D01*
X179526000Y-110263000D02*
X179526000Y-123163000D01*
X179526000Y-123163000D02*
X173026000Y-123163000D01*
%TO.C,R7*%
X166851064Y-98144000D02*
X166396936Y-98144000D01*
X166851064Y-96674000D02*
X166396936Y-96674000D01*
%TO.C,R6*%
X178154000Y-92228936D02*
X178154000Y-92683064D01*
X176684000Y-92228936D02*
X176684000Y-92683064D01*
%TO.C,C8*%
X142589000Y-113651000D02*
X142589000Y-110631000D01*
X142589000Y-110631000D02*
X138204000Y-110631000D01*
X138204000Y-113651000D02*
X142589000Y-113651000D01*
%TO.C,C1*%
X175140252Y-109066000D02*
X174617748Y-109066000D01*
X175140252Y-107596000D02*
X174617748Y-107596000D01*
%TO.C,R3*%
X172312000Y-90577936D02*
X172312000Y-91032064D01*
X170842000Y-90577936D02*
X170842000Y-91032064D01*
%TO.C,R10*%
X166851064Y-104621000D02*
X166396936Y-104621000D01*
X166851064Y-103151000D02*
X166396936Y-103151000D01*
%TO.C,D2*%
X176387000Y-83963000D02*
X178087000Y-83963000D01*
X178087000Y-83963000D02*
X178087000Y-85963000D01*
X178087000Y-85963000D02*
X176387000Y-85963000D01*
X176087000Y-83963000D02*
X176187000Y-83963000D01*
X176187000Y-83963000D02*
X176187000Y-85963000D01*
X176187000Y-85963000D02*
X176087000Y-85963000D01*
X176087000Y-85963000D02*
X176087000Y-83963000D01*
D17*
%TO.C,OK1*%
X179264000Y-103510000D02*
X170519000Y-103510000D01*
X179264000Y-97150000D02*
X179264000Y-103510000D01*
X170519000Y-103510000D02*
X170519000Y-97666000D01*
X170519000Y-97666000D02*
X179164000Y-97666000D01*
X170519000Y-97666000D02*
X170519000Y-97150000D01*
X170519000Y-97150000D02*
X179264000Y-97150000D01*
D18*
X178517050Y-98330000D02*
G75*
G03*
X178517050Y-98330000I-138050J0D01*
G01*
D15*
%TO.C,C3*%
X157106252Y-121131000D02*
X156583748Y-121131000D01*
X157106252Y-119661000D02*
X156583748Y-119661000D01*
%TO.C,C4*%
X163329252Y-111860000D02*
X162806748Y-111860000D01*
X163329252Y-110390000D02*
X162806748Y-110390000D01*
%TO.C,U3*%
X135401000Y-122718000D02*
X135401000Y-116708000D01*
X142221000Y-120468000D02*
X142221000Y-116708000D01*
X135401000Y-116708000D02*
X136661000Y-116708000D01*
X142221000Y-116708000D02*
X140961000Y-116708000D01*
%TO.C,U2*%
X149479000Y-113050000D02*
X146029000Y-113050000D01*
X149479000Y-113050000D02*
X151429000Y-113050000D01*
X149479000Y-123170000D02*
X147529000Y-123170000D01*
X149479000Y-123170000D02*
X151429000Y-123170000D01*
%TD*%
M02*
