%TF.GenerationSoftware,KiCad,Pcbnew,7.0.8*%
%TF.CreationDate,2023-11-03T15:22:21-05:00*%
%TF.ProjectId,tapecart-sd-vertical,74617065-6361-4727-942d-73642d766572,rev?*%
%TF.SameCoordinates,Original*%
%TF.FileFunction,Copper,L1,Top*%
%TF.FilePolarity,Positive*%
%FSLAX46Y46*%
G04 Gerber Fmt 4.6, Leading zero omitted, Abs format (unit mm)*
G04 Created by KiCad (PCBNEW 7.0.8) date 2023-11-03 15:22:21*
%MOMM*%
%LPD*%
G01*
G04 APERTURE LIST*
G04 Aperture macros list*
%AMRoundRect*
0 Rectangle with rounded corners*
0 $1 Rounding radius*
0 $2 $3 $4 $5 $6 $7 $8 $9 X,Y pos of 4 corners*
0 Add a 4 corners polygon primitive as box body*
4,1,4,$2,$3,$4,$5,$6,$7,$8,$9,$2,$3,0*
0 Add four circle primitives for the rounded corners*
1,1,$1+$1,$2,$3*
1,1,$1+$1,$4,$5*
1,1,$1+$1,$6,$7*
1,1,$1+$1,$8,$9*
0 Add four rect primitives between the rounded corners*
20,1,$1+$1,$2,$3,$4,$5,0*
20,1,$1+$1,$4,$5,$6,$7,0*
20,1,$1+$1,$6,$7,$8,$9,0*
20,1,$1+$1,$8,$9,$2,$3,0*%
%AMFreePoly0*
4,1,6,1.000000,0.000000,0.500000,-0.750000,-0.500000,-0.750000,-0.500000,0.750000,0.500000,0.750000,1.000000,0.000000,1.000000,0.000000,$1*%
%AMFreePoly1*
4,1,6,0.500000,-0.750000,-0.650000,-0.750000,-0.150000,0.000000,-0.650000,0.750000,0.500000,0.750000,0.500000,-0.750000,0.500000,-0.750000,$1*%
G04 Aperture macros list end*
%TA.AperFunction,SMDPad,CuDef*%
%ADD10R,1.600000X0.550000*%
%TD*%
%TA.AperFunction,SMDPad,CuDef*%
%ADD11R,0.550000X1.600000*%
%TD*%
%TA.AperFunction,SMDPad,CuDef*%
%ADD12RoundRect,0.250000X0.425000X-0.537500X0.425000X0.537500X-0.425000X0.537500X-0.425000X-0.537500X0*%
%TD*%
%TA.AperFunction,SMDPad,CuDef*%
%ADD13RoundRect,0.150000X0.150000X-0.587500X0.150000X0.587500X-0.150000X0.587500X-0.150000X-0.587500X0*%
%TD*%
%TA.AperFunction,SMDPad,CuDef*%
%ADD14RoundRect,0.250000X0.350000X0.450000X-0.350000X0.450000X-0.350000X-0.450000X0.350000X-0.450000X0*%
%TD*%
%TA.AperFunction,SMDPad,CuDef*%
%ADD15RoundRect,0.250000X0.337500X0.475000X-0.337500X0.475000X-0.337500X-0.475000X0.337500X-0.475000X0*%
%TD*%
%TA.AperFunction,SMDPad,CuDef*%
%ADD16RoundRect,0.250000X-0.450000X0.350000X-0.450000X-0.350000X0.450000X-0.350000X0.450000X0.350000X0*%
%TD*%
%TA.AperFunction,SMDPad,CuDef*%
%ADD17FreePoly0,0.000000*%
%TD*%
%TA.AperFunction,SMDPad,CuDef*%
%ADD18FreePoly1,0.000000*%
%TD*%
%TA.AperFunction,SMDPad,CuDef*%
%ADD19R,0.900000X0.900000*%
%TD*%
%TA.AperFunction,SMDPad,CuDef*%
%ADD20R,1.500000X1.500000*%
%TD*%
%TA.AperFunction,SMDPad,CuDef*%
%ADD21R,2.100000X1.800000*%
%TD*%
%TA.AperFunction,SMDPad,CuDef*%
%ADD22R,1.000000X1.500000*%
%TD*%
%TA.AperFunction,SMDPad,CuDef*%
%ADD23R,0.700000X1.500000*%
%TD*%
%TA.AperFunction,SMDPad,CuDef*%
%ADD24R,1.500000X2.800000*%
%TD*%
%TA.AperFunction,ComponentPad*%
%ADD25C,1.650000*%
%TD*%
%TA.AperFunction,ComponentPad*%
%ADD26C,2.200000*%
%TD*%
%TA.AperFunction,SMDPad,CuDef*%
%ADD27RoundRect,0.250000X-0.537500X-0.425000X0.537500X-0.425000X0.537500X0.425000X-0.537500X0.425000X0*%
%TD*%
%TA.AperFunction,ComponentPad*%
%ADD28RoundRect,0.250000X-0.600000X-0.600000X0.600000X-0.600000X0.600000X0.600000X-0.600000X0.600000X0*%
%TD*%
%TA.AperFunction,ComponentPad*%
%ADD29C,1.700000*%
%TD*%
%TA.AperFunction,SMDPad,CuDef*%
%ADD30RoundRect,0.250001X0.499999X0.924999X-0.499999X0.924999X-0.499999X-0.924999X0.499999X-0.924999X0*%
%TD*%
%TA.AperFunction,SMDPad,CuDef*%
%ADD31R,1.780000X1.520000*%
%TD*%
%TA.AperFunction,SMDPad,CuDef*%
%ADD32R,1.500000X2.000000*%
%TD*%
%TA.AperFunction,SMDPad,CuDef*%
%ADD33R,3.800000X2.000000*%
%TD*%
%TA.AperFunction,SMDPad,CuDef*%
%ADD34RoundRect,0.150000X-0.825000X-0.150000X0.825000X-0.150000X0.825000X0.150000X-0.825000X0.150000X0*%
%TD*%
%TA.AperFunction,ComponentPad*%
%ADD35C,1.800000*%
%TD*%
%TA.AperFunction,ViaPad*%
%ADD36C,0.800000*%
%TD*%
%TA.AperFunction,Conductor*%
%ADD37C,0.250000*%
%TD*%
%TA.AperFunction,Conductor*%
%ADD38C,0.800000*%
%TD*%
G04 APERTURE END LIST*
D10*
%TO.P,U1,1,PD3*%
%TO.N,/READ_D3*%
X162755000Y-115056000D03*
%TO.P,U1,2,PD4*%
%TO.N,/MOTOR_D4*%
X162755000Y-115856000D03*
%TO.P,U1,3,GND*%
%TO.N,GND*%
X162755000Y-116656000D03*
%TO.P,U1,4,VCC*%
%TO.N,+5V*%
X162755000Y-117456000D03*
%TO.P,U1,5,GND*%
%TO.N,GND*%
X162755000Y-118256000D03*
%TO.P,U1,6,VCC*%
%TO.N,+5V*%
X162755000Y-119056000D03*
%TO.P,U1,7,XTAL1/PB6*%
%TO.N,Net-(U1-XTAL1{slash}PB6)*%
X162755000Y-119856000D03*
%TO.P,U1,8,XTAL2/PB7*%
%TO.N,Net-(U1-XTAL2{slash}PB7)*%
X162755000Y-120656000D03*
D11*
%TO.P,U1,9,PD5*%
%TO.N,/SENSE_D5*%
X164205000Y-122106000D03*
%TO.P,U1,10,PD6*%
%TO.N,unconnected-(U1-PD6-Pad10)*%
X165005000Y-122106000D03*
%TO.P,U1,11,PD7*%
%TO.N,unconnected-(U1-PD7-Pad11)*%
X165805000Y-122106000D03*
%TO.P,U1,12,PB0*%
%TO.N,/WRITE_D8*%
X166605000Y-122106000D03*
%TO.P,U1,13,PB1*%
%TO.N,unconnected-(U1-PB1-Pad13)*%
X167405000Y-122106000D03*
%TO.P,U1,14,PB2*%
%TO.N,/CS_D10*%
X168205000Y-122106000D03*
%TO.P,U1,15,PB3*%
%TO.N,/MOSI_D11*%
X169005000Y-122106000D03*
%TO.P,U1,16,PB4*%
%TO.N,/MISO_D12*%
X169805000Y-122106000D03*
D10*
%TO.P,U1,17,PB5*%
%TO.N,/SCK_D13*%
X171255000Y-120656000D03*
%TO.P,U1,18,AVCC*%
%TO.N,+5V*%
X171255000Y-119856000D03*
%TO.P,U1,19,ADC6*%
%TO.N,unconnected-(U1-ADC6-Pad19)*%
X171255000Y-119056000D03*
%TO.P,U1,20,AREF*%
%TO.N,Net-(U1-AREF)*%
X171255000Y-118256000D03*
%TO.P,U1,21,GND*%
%TO.N,GND*%
X171255000Y-117456000D03*
%TO.P,U1,22,ADC7*%
%TO.N,unconnected-(U1-ADC7-Pad22)*%
X171255000Y-116656000D03*
%TO.P,U1,23,PC0*%
%TO.N,unconnected-(U1-PC0-Pad23)*%
X171255000Y-115856000D03*
%TO.P,U1,24,PC1*%
%TO.N,unconnected-(U1-PC1-Pad24)*%
X171255000Y-115056000D03*
D11*
%TO.P,U1,25,PC2*%
%TO.N,unconnected-(U1-PC2-Pad25)*%
X169805000Y-113606000D03*
%TO.P,U1,26,PC3*%
%TO.N,unconnected-(U1-PC3-Pad26)*%
X169005000Y-113606000D03*
%TO.P,U1,27,PC4*%
%TO.N,unconnected-(U1-PC4-Pad27)*%
X168205000Y-113606000D03*
%TO.P,U1,28,PC5*%
%TO.N,unconnected-(U1-PC5-Pad28)*%
X167405000Y-113606000D03*
%TO.P,U1,29,~{RESET}/PC6*%
%TO.N,/RESET*%
X166605000Y-113606000D03*
%TO.P,U1,30,PD0*%
%TO.N,unconnected-(U1-PD0-Pad30)*%
X165805000Y-113606000D03*
%TO.P,U1,31,PD1*%
%TO.N,unconnected-(U1-PD1-Pad31)*%
X165005000Y-113606000D03*
%TO.P,U1,32,PD2*%
%TO.N,unconnected-(U1-PD2-Pad32)*%
X164205000Y-113606000D03*
%TD*%
D12*
%TO.P,C7,1*%
%TO.N,+5V*%
X143891000Y-121960500D03*
%TO.P,C7,2*%
%TO.N,GND*%
X143891000Y-119085500D03*
%TD*%
D13*
%TO.P,Q2,1,B*%
%TO.N,Net-(Q2-B)*%
X173421000Y-91791000D03*
%TO.P,Q2,2,E*%
%TO.N,Net-(JP2-B)*%
X175321000Y-91791000D03*
%TO.P,Q2,3,C*%
%TO.N,+5V*%
X174371000Y-89916000D03*
%TD*%
D14*
%TO.P,R9,1*%
%TO.N,+3.3V*%
X167624000Y-101854000D03*
%TO.P,R9,2*%
%TO.N,/MISO_D12*%
X165624000Y-101854000D03*
%TD*%
D15*
%TO.P,C6,1*%
%TO.N,GND*%
X148738500Y-111760000D03*
%TO.P,C6,2*%
%TO.N,+3.3V*%
X146663500Y-111760000D03*
%TD*%
D16*
%TO.P,R2,1*%
%TO.N,Net-(Q1-B)*%
X164973000Y-89805000D03*
%TO.P,R2,2*%
%TO.N,/READ_D3*%
X164973000Y-91805000D03*
%TD*%
D14*
%TO.P,R4,1*%
%TO.N,Net-(D1-A)*%
X169783000Y-87630000D03*
%TO.P,R4,2*%
%TO.N,Net-(JP1-B)*%
X167783000Y-87630000D03*
%TD*%
D17*
%TO.P,JP2,1,A*%
%TO.N,/WRITE_D8*%
X172032000Y-87630000D03*
D18*
%TO.P,JP2,2,B*%
%TO.N,Net-(JP2-B)*%
X173482000Y-87630000D03*
%TD*%
D14*
%TO.P,R11,1*%
%TO.N,+3.3V*%
X167624000Y-95377000D03*
%TO.P,R11,2*%
%TO.N,Net-(J3-DAT2)*%
X165624000Y-95377000D03*
%TD*%
D19*
%TO.P,D1,*%
%TO.N,*%
X167894000Y-85513000D03*
D20*
%TO.P,D1,1,K*%
%TO.N,GND*%
X169644000Y-84963000D03*
%TO.P,D1,2,A*%
%TO.N,Net-(D1-A)*%
X166144000Y-84963000D03*
%TD*%
D15*
%TO.P,C2,1*%
%TO.N,Net-(U1-XTAL1{slash}PB6)*%
X158136500Y-112776000D03*
%TO.P,C2,2*%
%TO.N,GND*%
X156061500Y-112776000D03*
%TD*%
D14*
%TO.P,R5,1*%
%TO.N,Net-(D2-A)*%
X177276000Y-87630000D03*
%TO.P,R5,2*%
%TO.N,Net-(JP2-B)*%
X175276000Y-87630000D03*
%TD*%
D17*
%TO.P,JP1,1,A*%
%TO.N,/READ_D3*%
X164539000Y-87630000D03*
D18*
%TO.P,JP1,2,B*%
%TO.N,Net-(JP1-B)*%
X165989000Y-87630000D03*
%TD*%
D16*
%TO.P,R1,1*%
%TO.N,+5V*%
X166624000Y-109347000D03*
%TO.P,R1,2*%
%TO.N,/RESET*%
X166624000Y-111347000D03*
%TD*%
D13*
%TO.P,Q1,1,B*%
%TO.N,Net-(Q1-B)*%
X166817000Y-91791000D03*
%TO.P,Q1,2,E*%
%TO.N,Net-(JP1-B)*%
X168717000Y-91791000D03*
%TO.P,Q1,3,C*%
%TO.N,+5V*%
X167767000Y-89916000D03*
%TD*%
D21*
%TO.P,Y1,1,1*%
%TO.N,Net-(U1-XTAL2{slash}PB7)*%
X155395000Y-117736000D03*
%TO.P,Y1,2,2*%
%TO.N,GND*%
X158295000Y-117736000D03*
%TO.P,Y1,3,3*%
%TO.N,Net-(U1-XTAL1{slash}PB6)*%
X158295000Y-115436000D03*
%TO.P,Y1,4,4*%
%TO.N,GND*%
X155395000Y-115436000D03*
%TD*%
D14*
%TO.P,R8,1*%
%TO.N,+3.3V*%
X167624000Y-99441000D03*
%TO.P,R8,2*%
%TO.N,Net-(J3-CMD{slash}DI)*%
X165624000Y-99441000D03*
%TD*%
D22*
%TO.P,J3,1,DAT3/CS*%
%TO.N,Net-(J3-DAT3{slash}CS)*%
X142131000Y-108146000D03*
%TO.P,J3,2,CMD/DI*%
%TO.N,Net-(J3-CMD{slash}DI)*%
X144631000Y-108146000D03*
%TO.P,J3,3,GND*%
%TO.N,GND*%
X147131000Y-108146000D03*
%TO.P,J3,4,VCC*%
%TO.N,+3.3V*%
X149631000Y-108146000D03*
%TO.P,J3,5,CLK/SCLK*%
%TO.N,Net-(J3-CLK{slash}SCLK)*%
X152131000Y-108146000D03*
%TO.P,J3,6,GND*%
%TO.N,GND*%
X154631000Y-108146000D03*
%TO.P,J3,7,DAT0/DO*%
%TO.N,/MISO_D12*%
X157061000Y-108146000D03*
%TO.P,J3,8,DAT1*%
%TO.N,Net-(J3-DAT1)*%
X158761000Y-108146000D03*
%TO.P,J3,9,DAT2*%
%TO.N,Net-(J3-DAT2)*%
X139631000Y-108146000D03*
D23*
%TO.P,J3,10,CARD_DETECT*%
%TO.N,unconnected-(J3-CARD_DETECT-Pad10)*%
X159961000Y-108146000D03*
%TO.P,J3,11,WRITE_PROTECTION*%
%TO.N,unconnected-(J3-WRITE_PROTECTION-Pad11)*%
X161161000Y-108146000D03*
D24*
%TO.P,J3,12,SHELL_GND*%
%TO.N,GND*%
X162656000Y-84646000D03*
%TO.P,J3,13,SHELL_GND*%
X135356000Y-84646000D03*
%TO.P,J3,14,SHELL_GND*%
X162656000Y-106146000D03*
%TO.P,J3,15,SHELL_GND*%
X137556000Y-106146000D03*
D25*
%TO.P,J3,16*%
%TO.N,N/C*%
X160506000Y-105346000D03*
D26*
%TO.P,J3,17*%
X139506000Y-105346000D03*
%TD*%
D27*
%TO.P,C5,1*%
%TO.N,+5V*%
X166837500Y-106934000D03*
%TO.P,C5,2*%
%TO.N,GND*%
X169712500Y-106934000D03*
%TD*%
D28*
%TO.P,J2,1,Pin_1*%
%TO.N,/MISO_D12*%
X175006000Y-114173000D03*
D29*
%TO.P,J2,2,Pin_2*%
%TO.N,+5V*%
X177546000Y-114173000D03*
%TO.P,J2,3,Pin_3*%
%TO.N,/SCK_D13*%
X175006000Y-116713000D03*
%TO.P,J2,4,Pin_4*%
%TO.N,/MOSI_D11*%
X177546000Y-116713000D03*
%TO.P,J2,5,Pin_5*%
%TO.N,/RESET*%
X175006000Y-119253000D03*
%TO.P,J2,6,Pin_6*%
%TO.N,GND*%
X177546000Y-119253000D03*
%TD*%
D14*
%TO.P,R7,1*%
%TO.N,+3.3V*%
X167624000Y-97409000D03*
%TO.P,R7,2*%
%TO.N,Net-(J3-DAT3{slash}CS)*%
X165624000Y-97409000D03*
%TD*%
D16*
%TO.P,R6,1*%
%TO.N,/MOTOR*%
X177419000Y-91456000D03*
%TO.P,R6,2*%
%TO.N,Net-(OK1-Pad1)*%
X177419000Y-93456000D03*
%TD*%
D30*
%TO.P,C8,1*%
%TO.N,+3.3V*%
X141579000Y-112141000D03*
%TO.P,C8,2*%
%TO.N,GND*%
X138329000Y-112141000D03*
%TD*%
D15*
%TO.P,C1,1*%
%TO.N,GND*%
X175916500Y-108331000D03*
%TO.P,C1,2*%
%TO.N,Net-(U1-AREF)*%
X173841500Y-108331000D03*
%TD*%
D16*
%TO.P,R3,1*%
%TO.N,Net-(Q2-B)*%
X171577000Y-89805000D03*
%TO.P,R3,2*%
%TO.N,/WRITE_D8*%
X171577000Y-91805000D03*
%TD*%
D14*
%TO.P,R10,1*%
%TO.N,+3.3V*%
X167624000Y-103886000D03*
%TO.P,R10,2*%
%TO.N,Net-(J3-DAT1)*%
X165624000Y-103886000D03*
%TD*%
D19*
%TO.P,D2,*%
%TO.N,*%
X175387000Y-85513000D03*
D20*
%TO.P,D2,1,K*%
%TO.N,GND*%
X177137000Y-84963000D03*
%TO.P,D2,2,A*%
%TO.N,Net-(D2-A)*%
X173637000Y-84963000D03*
%TD*%
D31*
%TO.P,OK1,1*%
%TO.N,Net-(OK1-Pad1)*%
X177419000Y-95685000D03*
%TO.P,OK1,2*%
%TO.N,GND*%
X174879000Y-95685000D03*
%TO.P,OK1,3*%
%TO.N,N/C*%
X172339000Y-95685000D03*
%TO.P,OK1,4*%
%TO.N,GND*%
X172339000Y-104975000D03*
%TO.P,OK1,5*%
%TO.N,/MOTOR_D4*%
X174879000Y-104975000D03*
%TO.P,OK1,6*%
%TO.N,unconnected-(OK1-Pad6)*%
X177419000Y-104975000D03*
%TD*%
D15*
%TO.P,C3,1*%
%TO.N,GND*%
X157882500Y-120396000D03*
%TO.P,C3,2*%
%TO.N,Net-(U1-XTAL2{slash}PB7)*%
X155807500Y-120396000D03*
%TD*%
%TO.P,C4,1*%
%TO.N,GND*%
X164105500Y-111125000D03*
%TO.P,C4,2*%
%TO.N,+5V*%
X162030500Y-111125000D03*
%TD*%
D32*
%TO.P,U3,1,GND*%
%TO.N,GND*%
X136511000Y-121768000D03*
%TO.P,U3,2,VO*%
%TO.N,+3.3V*%
X138811000Y-121768000D03*
D33*
X138811000Y-115468000D03*
D32*
%TO.P,U3,3,VI*%
%TO.N,+5V*%
X141111000Y-121768000D03*
%TD*%
D34*
%TO.P,U2,1,VCC*%
%TO.N,+3.3V*%
X147004000Y-113665000D03*
%TO.P,U2,2*%
%TO.N,Net-(J3-DAT3{slash}CS)*%
X147004000Y-114935000D03*
%TO.P,U2,3*%
%TO.N,/CS_D10*%
X147004000Y-116205000D03*
%TO.P,U2,4*%
%TO.N,Net-(J3-CMD{slash}DI)*%
X147004000Y-117475000D03*
%TO.P,U2,5*%
%TO.N,/MOSI_D11*%
X147004000Y-118745000D03*
%TO.P,U2,6*%
%TO.N,Net-(J3-CLK{slash}SCLK)*%
X147004000Y-120015000D03*
%TO.P,U2,7*%
%TO.N,/SCK_D13*%
X147004000Y-121285000D03*
%TO.P,U2,8,VSS*%
%TO.N,GND*%
X147004000Y-122555000D03*
%TO.P,U2,9*%
X151954000Y-122555000D03*
%TO.P,U2,10*%
%TO.N,unconnected-(U2-Pad10)*%
X151954000Y-121285000D03*
%TO.P,U2,11*%
%TO.N,GND*%
X151954000Y-120015000D03*
%TO.P,U2,12*%
%TO.N,unconnected-(U2-Pad12)*%
X151954000Y-118745000D03*
%TO.P,U2,13*%
%TO.N,N/C*%
X151954000Y-117475000D03*
%TO.P,U2,14*%
%TO.N,GND*%
X151954000Y-116205000D03*
%TO.P,U2,15*%
%TO.N,unconnected-(U2-Pad15)*%
X151954000Y-114935000D03*
%TO.P,U2,16*%
%TO.N,N/C*%
X151954000Y-113665000D03*
%TD*%
D35*
%TO.P,J1,1,GND*%
%TO.N,GND*%
X147100000Y-126036000D03*
%TO.P,J1,2,5V*%
%TO.N,+5V*%
X151060000Y-126036000D03*
%TO.P,J1,3,Motor*%
%TO.N,/MOTOR*%
X155020000Y-126036000D03*
%TO.P,J1,4,Read*%
%TO.N,/READ_D3*%
X158980000Y-126036000D03*
%TO.P,J1,5,Write*%
%TO.N,/WRITE_D8*%
X162940000Y-126036000D03*
%TO.P,J1,6,Sense*%
%TO.N,/SENSE_D5*%
X166900000Y-126036000D03*
%TO.P,J1,A,GND*%
%TO.N,GND*%
X147100000Y-129996000D03*
%TO.P,J1,B,5V*%
%TO.N,+5V*%
X151060000Y-129996000D03*
%TO.P,J1,C,Motor*%
%TO.N,/MOTOR*%
X155020000Y-129996000D03*
%TO.P,J1,D,Read*%
%TO.N,/READ_D3*%
X158980000Y-129996000D03*
%TO.P,J1,E,Write*%
%TO.N,/WRITE_D8*%
X162940000Y-129996000D03*
%TO.P,J1,F,Sense*%
%TO.N,/SENSE_D5*%
X166900000Y-129996000D03*
%TD*%
D36*
%TO.N,GND*%
X139319000Y-101854000D03*
X136398000Y-109982000D03*
X142240000Y-115824000D03*
X155448000Y-114046000D03*
X169291000Y-117475000D03*
X174879000Y-94488000D03*
X160655000Y-117602000D03*
X149098000Y-92202000D03*
X172339000Y-106172000D03*
X162306000Y-113665000D03*
X159639000Y-84709000D03*
X176530000Y-111379000D03*
X152146000Y-112268000D03*
X138938000Y-84836000D03*
X158242000Y-119126000D03*
%TO.N,/READ_D3*%
X164211000Y-115062000D03*
X164973000Y-93218000D03*
%TO.N,/MOTOR_D4*%
X174879000Y-106299000D03*
X164973000Y-115951000D03*
%TO.N,/SENSE_D5*%
X164211000Y-120650000D03*
%TO.N,/WRITE_D8*%
X166624000Y-120650000D03*
X166624000Y-116713000D03*
X171577000Y-92964000D03*
%TO.N,+5V*%
X161290000Y-118999000D03*
X172085000Y-128270000D03*
X165608000Y-119126000D03*
X167513000Y-119126000D03*
X172212000Y-126365000D03*
%TO.N,Net-(J3-DAT3{slash}CS)*%
X143764000Y-114935000D03*
X142113000Y-106807000D03*
X164211000Y-97409000D03*
%TO.N,Net-(J3-CMD{slash}DI)*%
X144653000Y-106807000D03*
X164084000Y-99441000D03*
X144653000Y-116713000D03*
%TO.N,+3.3V*%
X164084000Y-100584000D03*
X149733000Y-106807000D03*
%TO.N,Net-(J3-CLK{slash}SCLK)*%
X148590000Y-120015000D03*
X152146000Y-106807000D03*
%TO.N,/MISO_D12*%
X164084000Y-101854000D03*
X162687000Y-122174000D03*
X169799000Y-120650000D03*
X157061000Y-106845000D03*
%TO.N,Net-(J3-DAT1)*%
X158750000Y-106807000D03*
X164084000Y-103886000D03*
%TO.N,Net-(J3-DAT2)*%
X140843000Y-106807000D03*
X164338000Y-95377000D03*
%TO.N,/MOSI_D11*%
X169037000Y-123571000D03*
%TO.N,/RESET*%
X177165000Y-121412000D03*
%TD*%
D37*
%TO.N,Net-(OK1-Pad1)*%
X177419000Y-93456000D02*
X177419000Y-95685000D01*
%TO.N,GND*%
X162306000Y-113665000D02*
X164105500Y-111865500D01*
X150749000Y-120015000D02*
X150368000Y-119634000D01*
X161309000Y-118256000D02*
X162755000Y-118256000D01*
X162755000Y-116656000D02*
X161705000Y-116656000D01*
X150368000Y-120396000D02*
X150749000Y-120015000D01*
X161290000Y-114681000D02*
X162306000Y-113665000D01*
X150495000Y-116205000D02*
X151954000Y-116205000D01*
X161290000Y-116241000D02*
X161290000Y-114681000D01*
X155395000Y-113442500D02*
X155395000Y-115436000D01*
X150749000Y-120015000D02*
X151954000Y-120015000D01*
X160655000Y-117602000D02*
X161309000Y-118256000D01*
X150368000Y-116332000D02*
X150495000Y-116205000D01*
X150368000Y-119634000D02*
X150368000Y-116332000D01*
X156061500Y-112776000D02*
X155395000Y-113442500D01*
X158295000Y-117736000D02*
X158295000Y-119983500D01*
X169291000Y-117475000D02*
X171236000Y-117475000D01*
X150368000Y-122301000D02*
X150368000Y-120396000D01*
X161705000Y-116656000D02*
X161290000Y-116241000D01*
X164105500Y-111865500D02*
X164105500Y-111125000D01*
X150622000Y-122555000D02*
X150368000Y-122301000D01*
X151954000Y-122555000D02*
X150622000Y-122555000D01*
%TO.N,/READ_D3*%
X163948000Y-88221000D02*
X164539000Y-87630000D01*
X164973000Y-91805000D02*
X163948000Y-90780000D01*
X163948000Y-90780000D02*
X163948000Y-88221000D01*
X164205000Y-115056000D02*
X164211000Y-115062000D01*
X164973000Y-93218000D02*
X164973000Y-91805000D01*
X162755000Y-115056000D02*
X164205000Y-115056000D01*
%TO.N,/MOTOR_D4*%
X164878000Y-115856000D02*
X164973000Y-115951000D01*
X174879000Y-106299000D02*
X174879000Y-104975000D01*
X162755000Y-115856000D02*
X164878000Y-115856000D01*
%TO.N,/SENSE_D5*%
X164205000Y-122106000D02*
X164205000Y-120656000D01*
X164205000Y-120656000D02*
X164211000Y-120650000D01*
%TO.N,/WRITE_D8*%
X166624000Y-120650000D02*
X166624000Y-116713000D01*
X171577000Y-91805000D02*
X170552000Y-90780000D01*
X170552000Y-90780000D02*
X170552000Y-89110000D01*
X166605000Y-120669000D02*
X166624000Y-120650000D01*
X171577000Y-92964000D02*
X171577000Y-91805000D01*
X170552000Y-89110000D02*
X172032000Y-87630000D01*
X166605000Y-122106000D02*
X166605000Y-120669000D01*
%TO.N,Net-(U1-AREF)*%
X172305000Y-118256000D02*
X172593000Y-117968000D01*
X172593000Y-117968000D02*
X172593000Y-109579500D01*
X171255000Y-118256000D02*
X172305000Y-118256000D01*
X172593000Y-109579500D02*
X173841500Y-108331000D01*
%TO.N,+5V*%
X161290000Y-118999000D02*
X162698000Y-118999000D01*
X174371000Y-115443000D02*
X176276000Y-115443000D01*
X166837500Y-106934000D02*
X168910000Y-104861500D01*
D38*
X144653000Y-124079000D02*
X143891000Y-123317000D01*
D37*
X174371000Y-93091000D02*
X174371000Y-89916000D01*
X151060000Y-126036000D02*
X153294000Y-128270000D01*
X171255000Y-119856000D02*
X172180000Y-119856000D01*
X162755000Y-119056000D02*
X165538000Y-119056000D01*
X169513000Y-119856000D02*
X171255000Y-119856000D01*
X163808500Y-109347000D02*
X162030500Y-111125000D01*
X166624000Y-109347000D02*
X163808500Y-109347000D01*
X173101000Y-116713000D02*
X174371000Y-115443000D01*
X163805000Y-117456000D02*
X163957000Y-117608000D01*
X161690000Y-117456000D02*
X161671000Y-117475000D01*
D38*
X143891000Y-123317000D02*
X143891000Y-121960500D01*
X143698500Y-121768000D02*
X141111000Y-121768000D01*
D37*
X153294000Y-128270000D02*
X172085000Y-128270000D01*
X167767000Y-92837000D02*
X168910000Y-93980000D01*
D38*
X149658000Y-126036000D02*
X147701000Y-124079000D01*
D37*
X176276000Y-122301000D02*
X172212000Y-126365000D01*
X168910000Y-104861500D02*
X168910000Y-93980000D01*
X160655000Y-116459000D02*
X160655000Y-112500500D01*
X162755000Y-117456000D02*
X161690000Y-117456000D01*
X172180000Y-119856000D02*
X173101000Y-118935000D01*
D38*
X147701000Y-124079000D02*
X144653000Y-124079000D01*
D37*
X165538000Y-119056000D02*
X165608000Y-119126000D01*
X167767000Y-89916000D02*
X167767000Y-92837000D01*
X166624000Y-107147500D02*
X166837500Y-106934000D01*
X167513000Y-119126000D02*
X168783000Y-119126000D01*
X163957000Y-118872000D02*
X163773000Y-119056000D01*
D38*
X151060000Y-126036000D02*
X149658000Y-126036000D01*
D37*
X168783000Y-119126000D02*
X169513000Y-119856000D01*
X173482000Y-93980000D02*
X174371000Y-93091000D01*
X173101000Y-118935000D02*
X173101000Y-116713000D01*
X161671000Y-117475000D02*
X160655000Y-116459000D01*
X163957000Y-117608000D02*
X163957000Y-118872000D01*
X160655000Y-112500500D02*
X162030500Y-111125000D01*
X163773000Y-119056000D02*
X162755000Y-119056000D01*
X176276000Y-115443000D02*
X177546000Y-114173000D01*
X162755000Y-117456000D02*
X163805000Y-117456000D01*
X166624000Y-109347000D02*
X166624000Y-107147500D01*
X176276000Y-115443000D02*
X176276000Y-122301000D01*
X168910000Y-93980000D02*
X173482000Y-93980000D01*
%TO.N,Net-(U1-XTAL1{slash}PB6)*%
X162755000Y-119856000D02*
X160115000Y-119856000D01*
X160115000Y-119856000D02*
X159893000Y-119634000D01*
X159893000Y-119634000D02*
X159893000Y-116586000D01*
X158295000Y-112934500D02*
X158295000Y-115436000D01*
X159893000Y-116586000D02*
X158743000Y-115436000D01*
%TO.N,Net-(U1-XTAL2{slash}PB7)*%
X155395000Y-119983500D02*
X155395000Y-117736000D01*
X162755000Y-120656000D02*
X161544000Y-120656000D01*
X160534000Y-121666000D02*
X157077500Y-121666000D01*
X157077500Y-121666000D02*
X155807500Y-120396000D01*
X161544000Y-120656000D02*
X160534000Y-121666000D01*
%TO.N,/MOTOR*%
X156492000Y-127508000D02*
X172593000Y-127508000D01*
X172593000Y-127508000D02*
X179171000Y-120930000D01*
X155020000Y-126036000D02*
X156492000Y-127508000D01*
X179171000Y-120930000D02*
X179171000Y-93208000D01*
X179171000Y-93208000D02*
X177419000Y-91456000D01*
%TO.N,Net-(D1-A)*%
X166918000Y-86487000D02*
X168640000Y-86487000D01*
X168640000Y-86487000D02*
X169783000Y-87630000D01*
X166144000Y-85713000D02*
X166918000Y-86487000D01*
X166144000Y-84963000D02*
X166144000Y-85713000D01*
%TO.N,Net-(D2-A)*%
X173637000Y-85713000D02*
X174411000Y-86487000D01*
X174411000Y-86487000D02*
X176133000Y-86487000D01*
X176133000Y-86487000D02*
X177276000Y-87630000D01*
X173637000Y-84963000D02*
X173637000Y-85713000D01*
%TO.N,Net-(J3-DAT3{slash}CS)*%
X164211000Y-97409000D02*
X165624000Y-97409000D01*
X142131000Y-108146000D02*
X142131000Y-106825000D01*
X142131000Y-106825000D02*
X142113000Y-106807000D01*
X143764000Y-114935000D02*
X147004000Y-114935000D01*
%TO.N,Net-(J3-CMD{slash}DI)*%
X164084000Y-99441000D02*
X165624000Y-99441000D01*
X144653000Y-116713000D02*
X145415000Y-117475000D01*
X144631000Y-108146000D02*
X144631000Y-106829000D01*
X145415000Y-117475000D02*
X147004000Y-117475000D01*
X144631000Y-106829000D02*
X144653000Y-106807000D01*
D38*
%TO.N,+3.3V*%
X138811000Y-114721500D02*
X141391500Y-112141000D01*
X146663500Y-111760000D02*
X146663500Y-113324500D01*
D37*
X167624000Y-95758000D02*
X167624000Y-103886000D01*
D38*
X138811000Y-121768000D02*
X138811000Y-115468000D01*
D37*
X146663500Y-113324500D02*
X147004000Y-113665000D01*
D38*
X146663500Y-111113500D02*
X149631000Y-108146000D01*
D37*
X149631000Y-108146000D02*
X149631000Y-106909000D01*
X164084000Y-100584000D02*
X166481000Y-100584000D01*
D38*
X146409500Y-112014000D02*
X146663500Y-111760000D01*
X146663500Y-111760000D02*
X146663500Y-111113500D01*
X141518500Y-112014000D02*
X146409500Y-112014000D01*
D37*
X166481000Y-100584000D02*
X167624000Y-99441000D01*
X149631000Y-106909000D02*
X149733000Y-106807000D01*
%TO.N,Net-(J3-CLK{slash}SCLK)*%
X148590000Y-120015000D02*
X147004000Y-120015000D01*
X152131000Y-108146000D02*
X152131000Y-106822000D01*
X152131000Y-106822000D02*
X152146000Y-106807000D01*
%TO.N,/MISO_D12*%
X164084000Y-101854000D02*
X165624000Y-101854000D01*
X154940000Y-122174000D02*
X162687000Y-122174000D01*
X169805000Y-122106000D02*
X169805000Y-120764500D01*
X153670000Y-120904000D02*
X154940000Y-122174000D01*
X157061000Y-108146000D02*
X157061000Y-106845000D01*
X157099000Y-106807000D02*
X157061000Y-106845000D01*
X153670000Y-112014000D02*
X153670000Y-120904000D01*
X169805000Y-120764500D02*
X169799000Y-120758500D01*
X157061000Y-108623000D02*
X153670000Y-112014000D01*
%TO.N,Net-(J3-DAT1)*%
X158761000Y-106818000D02*
X158750000Y-106807000D01*
X164084000Y-103886000D02*
X165624000Y-103886000D01*
X158761000Y-108146000D02*
X158761000Y-106818000D01*
%TO.N,Net-(J3-DAT2)*%
X139631000Y-108019000D02*
X140843000Y-106807000D01*
X164338000Y-95377000D02*
X165624000Y-95377000D01*
%TO.N,Net-(Q1-B)*%
X165243000Y-89805000D02*
X166817000Y-91379000D01*
X166817000Y-91379000D02*
X166817000Y-91791000D01*
X164973000Y-89805000D02*
X165243000Y-89805000D01*
%TO.N,Net-(JP1-B)*%
X168717000Y-91791000D02*
X168717000Y-88564000D01*
X165989000Y-87630000D02*
X167783000Y-87630000D01*
X168717000Y-88564000D02*
X167783000Y-87630000D01*
%TO.N,Net-(Q2-B)*%
X171577000Y-89805000D02*
X171974000Y-89805000D01*
X173421000Y-91252000D02*
X173421000Y-91791000D01*
X171974000Y-89805000D02*
X173421000Y-91252000D01*
%TO.N,Net-(JP2-B)*%
X173482000Y-87630000D02*
X175276000Y-87630000D01*
X175321000Y-91791000D02*
X175321000Y-87675000D01*
X175321000Y-87675000D02*
X175276000Y-87630000D01*
%TO.N,/CS_D10*%
X168205000Y-123031000D02*
X167665000Y-123571000D01*
X168205000Y-122106000D02*
X168205000Y-123031000D01*
X149765000Y-117888000D02*
X148082000Y-116205000D01*
X149765000Y-122831812D02*
X149765000Y-117888000D01*
X167665000Y-123571000D02*
X150504188Y-123571000D01*
X150504188Y-123571000D02*
X149765000Y-122831812D01*
X148082000Y-116205000D02*
X147004000Y-116205000D01*
%TO.N,/MOSI_D11*%
X150317792Y-124021000D02*
X168079000Y-124021000D01*
X149315000Y-119216000D02*
X149315000Y-123018208D01*
X168079000Y-124021000D02*
X169005000Y-123095000D01*
X149315000Y-123018208D02*
X150317792Y-124021000D01*
X169005000Y-122106000D02*
X169005000Y-123539000D01*
X169005000Y-123095000D02*
X169005000Y-122106000D01*
X148844000Y-118745000D02*
X149315000Y-119216000D01*
X147004000Y-118745000D02*
X148844000Y-118745000D01*
X169005000Y-123539000D02*
X169037000Y-123571000D01*
%TO.N,/SCK_D13*%
X173609000Y-118110000D02*
X173609000Y-119507000D01*
X172460000Y-120656000D02*
X171255000Y-120656000D01*
X150131396Y-124471000D02*
X169280000Y-124471000D01*
X148865000Y-122703000D02*
X148865000Y-123204604D01*
X169280000Y-124471000D02*
X171323000Y-122428000D01*
X173609000Y-119507000D02*
X172460000Y-120656000D01*
X147447000Y-121285000D02*
X148865000Y-122703000D01*
X171323000Y-122428000D02*
X171323000Y-120724000D01*
X148865000Y-123204604D02*
X150131396Y-124471000D01*
X175006000Y-116713000D02*
X173609000Y-118110000D01*
%TO.N,/RESET*%
X166605000Y-113606000D02*
X166605000Y-111471000D01*
X171958000Y-109601000D02*
X171958000Y-107950000D01*
X172847000Y-107061000D02*
X177292000Y-107061000D01*
X166624000Y-111347000D02*
X170212000Y-111347000D01*
X178721000Y-108490000D02*
X178721000Y-120743604D01*
X178721000Y-120743604D02*
X178052604Y-121412000D01*
X178052604Y-121412000D02*
X177165000Y-121412000D01*
X171958000Y-107950000D02*
X172847000Y-107061000D01*
X177292000Y-107061000D02*
X178721000Y-108490000D01*
X170212000Y-111347000D02*
X171958000Y-109601000D01*
%TD*%
%TA.AperFunction,Conductor*%
%TO.N,GND*%
G36*
X161379327Y-82920502D02*
G01*
X161425820Y-82974158D01*
X161435924Y-83044432D01*
X161429262Y-83070533D01*
X161404505Y-83136907D01*
X161398000Y-83197402D01*
X161398000Y-84392000D01*
X163914000Y-84392000D01*
X163914000Y-83197414D01*
X163913999Y-83197402D01*
X163907494Y-83136907D01*
X163882738Y-83070533D01*
X163877673Y-82999717D01*
X163911698Y-82937405D01*
X163974010Y-82903380D01*
X164000794Y-82900500D01*
X179287500Y-82900500D01*
X179355621Y-82920502D01*
X179402114Y-82974158D01*
X179413500Y-83026500D01*
X179413500Y-92250405D01*
X179393498Y-92318526D01*
X179339842Y-92365019D01*
X179269568Y-92375123D01*
X179204988Y-92345629D01*
X179198405Y-92339500D01*
X178664404Y-91805499D01*
X178630378Y-91743187D01*
X178627499Y-91716404D01*
X178627499Y-91055455D01*
X178616887Y-90951574D01*
X178605993Y-90918697D01*
X178561115Y-90783262D01*
X178468030Y-90632348D01*
X178468029Y-90632347D01*
X178468024Y-90632341D01*
X178342658Y-90506975D01*
X178342652Y-90506970D01*
X178327453Y-90497595D01*
X178191738Y-90413885D01*
X178107582Y-90385999D01*
X178023427Y-90358113D01*
X178023420Y-90358112D01*
X177919553Y-90347500D01*
X176918455Y-90347500D01*
X176814574Y-90358112D01*
X176646261Y-90413885D01*
X176495347Y-90506970D01*
X176495341Y-90506975D01*
X176369975Y-90632341D01*
X176369970Y-90632347D01*
X176276883Y-90783265D01*
X176260070Y-90834005D01*
X176219656Y-90892377D01*
X176154100Y-90919632D01*
X176084215Y-90907119D01*
X176032189Y-90858809D01*
X176032013Y-90858511D01*
X175995455Y-90796696D01*
X175995450Y-90796689D01*
X175991405Y-90792644D01*
X175957379Y-90730332D01*
X175954500Y-90703549D01*
X175954500Y-88838883D01*
X175974502Y-88770762D01*
X176014354Y-88731642D01*
X176045349Y-88712524D01*
X176099652Y-88679030D01*
X176132531Y-88646151D01*
X176186905Y-88591778D01*
X176249217Y-88557752D01*
X176320032Y-88562817D01*
X176365095Y-88591778D01*
X176452341Y-88679024D01*
X176452347Y-88679029D01*
X176452348Y-88679030D01*
X176603262Y-88772115D01*
X176771574Y-88827887D01*
X176875455Y-88838500D01*
X177676544Y-88838499D01*
X177780426Y-88827887D01*
X177948738Y-88772115D01*
X178099652Y-88679030D01*
X178225030Y-88553652D01*
X178318115Y-88402738D01*
X178373887Y-88234426D01*
X178384500Y-88130545D01*
X178384499Y-87129456D01*
X178373887Y-87025574D01*
X178318115Y-86857262D01*
X178225030Y-86706348D01*
X178225029Y-86706347D01*
X178225024Y-86706341D01*
X178099658Y-86580975D01*
X178099652Y-86580970D01*
X178045379Y-86547494D01*
X177948738Y-86487885D01*
X177884516Y-86466604D01*
X177826145Y-86426191D01*
X177798889Y-86360635D01*
X177811402Y-86290749D01*
X177859712Y-86238723D01*
X177924149Y-86221000D01*
X177935585Y-86221000D01*
X177935597Y-86220999D01*
X177996093Y-86214494D01*
X178132964Y-86163444D01*
X178132965Y-86163444D01*
X178249904Y-86075904D01*
X178337444Y-85958965D01*
X178337444Y-85958964D01*
X178388494Y-85822093D01*
X178394999Y-85761597D01*
X178395000Y-85761585D01*
X178395000Y-85217000D01*
X177009000Y-85217000D01*
X176940879Y-85196998D01*
X176894386Y-85143342D01*
X176883000Y-85091000D01*
X176883000Y-83705000D01*
X177391000Y-83705000D01*
X177391000Y-84709000D01*
X178395000Y-84709000D01*
X178395000Y-84164414D01*
X178394999Y-84164402D01*
X178388494Y-84103906D01*
X178337444Y-83967035D01*
X178337444Y-83967034D01*
X178249904Y-83850095D01*
X178132965Y-83762555D01*
X177996093Y-83711505D01*
X177935597Y-83705000D01*
X177391000Y-83705000D01*
X176883000Y-83705000D01*
X176338402Y-83705000D01*
X176277906Y-83711505D01*
X176141035Y-83762555D01*
X176141034Y-83762555D01*
X176024095Y-83850095D01*
X175936555Y-83967034D01*
X175936555Y-83967035D01*
X175885505Y-84103906D01*
X175879000Y-84164402D01*
X175879000Y-84428500D01*
X175858998Y-84496621D01*
X175805342Y-84543114D01*
X175753000Y-84554500D01*
X175021500Y-84554500D01*
X174953379Y-84534498D01*
X174906886Y-84480842D01*
X174895500Y-84428500D01*
X174895500Y-84164367D01*
X174895499Y-84164350D01*
X174888990Y-84103803D01*
X174888988Y-84103795D01*
X174837978Y-83967035D01*
X174837889Y-83966796D01*
X174837888Y-83966794D01*
X174837887Y-83966792D01*
X174750261Y-83849738D01*
X174633207Y-83762112D01*
X174633202Y-83762110D01*
X174496204Y-83711011D01*
X174496196Y-83711009D01*
X174435649Y-83704500D01*
X174435638Y-83704500D01*
X172838362Y-83704500D01*
X172838350Y-83704500D01*
X172777803Y-83711009D01*
X172777795Y-83711011D01*
X172640797Y-83762110D01*
X172640792Y-83762112D01*
X172523738Y-83849738D01*
X172436112Y-83966792D01*
X172436110Y-83966797D01*
X172385011Y-84103795D01*
X172385009Y-84103803D01*
X172378500Y-84164350D01*
X172378500Y-85761649D01*
X172385009Y-85822196D01*
X172385011Y-85822204D01*
X172436110Y-85959202D01*
X172436112Y-85959207D01*
X172523738Y-86076261D01*
X172608086Y-86139403D01*
X172650633Y-86196239D01*
X172655697Y-86267054D01*
X172621672Y-86329367D01*
X172559360Y-86363392D01*
X172532577Y-86366271D01*
X172532000Y-86366271D01*
X171532000Y-86366271D01*
X171506173Y-86368118D01*
X171458892Y-86371499D01*
X171458884Y-86371501D01*
X171318589Y-86412696D01*
X171318587Y-86412697D01*
X171195579Y-86491749D01*
X171099824Y-86602256D01*
X171039081Y-86735265D01*
X171039079Y-86735271D01*
X171033878Y-86771446D01*
X171004384Y-86836026D01*
X170944657Y-86874409D01*
X170873660Y-86874407D01*
X170813935Y-86836023D01*
X170801923Y-86819662D01*
X170732030Y-86706348D01*
X170732027Y-86706345D01*
X170732024Y-86706341D01*
X170606658Y-86580975D01*
X170606652Y-86580970D01*
X170552379Y-86547494D01*
X170455738Y-86487885D01*
X170391516Y-86466604D01*
X170333145Y-86426191D01*
X170305889Y-86360635D01*
X170318402Y-86290749D01*
X170366712Y-86238723D01*
X170431149Y-86221000D01*
X170442585Y-86221000D01*
X170442597Y-86220999D01*
X170503093Y-86214494D01*
X170639964Y-86163444D01*
X170639965Y-86163444D01*
X170756904Y-86075904D01*
X170844444Y-85958965D01*
X170844444Y-85958964D01*
X170895494Y-85822093D01*
X170901999Y-85761597D01*
X170902000Y-85761585D01*
X170902000Y-85217000D01*
X169516000Y-85217000D01*
X169447879Y-85196998D01*
X169401386Y-85143342D01*
X169390000Y-85091000D01*
X169390000Y-83705000D01*
X169898000Y-83705000D01*
X169898000Y-84709000D01*
X170902000Y-84709000D01*
X170902000Y-84164414D01*
X170901999Y-84164402D01*
X170895494Y-84103906D01*
X170844444Y-83967035D01*
X170844444Y-83967034D01*
X170756904Y-83850095D01*
X170639965Y-83762555D01*
X170503093Y-83711505D01*
X170442597Y-83705000D01*
X169898000Y-83705000D01*
X169390000Y-83705000D01*
X168845402Y-83705000D01*
X168784906Y-83711505D01*
X168648035Y-83762555D01*
X168648034Y-83762555D01*
X168531095Y-83850095D01*
X168443555Y-83967034D01*
X168443555Y-83967035D01*
X168392505Y-84103906D01*
X168386000Y-84164402D01*
X168386000Y-84428500D01*
X168365998Y-84496621D01*
X168312342Y-84543114D01*
X168260000Y-84554500D01*
X167528500Y-84554500D01*
X167460379Y-84534498D01*
X167413886Y-84480842D01*
X167402500Y-84428500D01*
X167402500Y-84164367D01*
X167402499Y-84164350D01*
X167395990Y-84103803D01*
X167395988Y-84103795D01*
X167344978Y-83967035D01*
X167344889Y-83966796D01*
X167344888Y-83966794D01*
X167344887Y-83966792D01*
X167257261Y-83849738D01*
X167140207Y-83762112D01*
X167140202Y-83762110D01*
X167003204Y-83711011D01*
X167003196Y-83711009D01*
X166942649Y-83704500D01*
X166942638Y-83704500D01*
X165345362Y-83704500D01*
X165345350Y-83704500D01*
X165284803Y-83711009D01*
X165284795Y-83711011D01*
X165147797Y-83762110D01*
X165147792Y-83762112D01*
X165030738Y-83849738D01*
X164943112Y-83966792D01*
X164943110Y-83966797D01*
X164892011Y-84103795D01*
X164892009Y-84103803D01*
X164885500Y-84164350D01*
X164885500Y-85761649D01*
X164892009Y-85822196D01*
X164892011Y-85822204D01*
X164943110Y-85959202D01*
X164943112Y-85959207D01*
X165030738Y-86076261D01*
X165115086Y-86139403D01*
X165157633Y-86196239D01*
X165162697Y-86267054D01*
X165128672Y-86329367D01*
X165066360Y-86363392D01*
X165039577Y-86366271D01*
X165039000Y-86366271D01*
X164039000Y-86366271D01*
X164031940Y-86366775D01*
X164018523Y-86367735D01*
X163949149Y-86352642D01*
X163898948Y-86302438D01*
X163883859Y-86233063D01*
X163891483Y-86198023D01*
X163907494Y-86155096D01*
X163913999Y-86094597D01*
X163914000Y-86094585D01*
X163914000Y-84900000D01*
X162910000Y-84900000D01*
X162910000Y-86554000D01*
X163432803Y-86554000D01*
X163500924Y-86574002D01*
X163547417Y-86627658D01*
X163557521Y-86697932D01*
X163547417Y-86732340D01*
X163546081Y-86735265D01*
X163546081Y-86735266D01*
X163546079Y-86735272D01*
X163525271Y-86879993D01*
X163525271Y-87695632D01*
X163505269Y-87763753D01*
X163488369Y-87784725D01*
X163471863Y-87801231D01*
X163467560Y-87806777D01*
X163463714Y-87811279D01*
X163431417Y-87845674D01*
X163431411Y-87845683D01*
X163421651Y-87863435D01*
X163410803Y-87879950D01*
X163398386Y-87895958D01*
X163379645Y-87939264D01*
X163377034Y-87944594D01*
X163354305Y-87985939D01*
X163354303Y-87985944D01*
X163349267Y-88005559D01*
X163342864Y-88024262D01*
X163334819Y-88042852D01*
X163327437Y-88089456D01*
X163326233Y-88095268D01*
X163314500Y-88140968D01*
X163314500Y-88161223D01*
X163312949Y-88180933D01*
X163309780Y-88200942D01*
X163309780Y-88200943D01*
X163314220Y-88247917D01*
X163314500Y-88253850D01*
X163314500Y-90696146D01*
X163312751Y-90711988D01*
X163313044Y-90712016D01*
X163312298Y-90719907D01*
X163314500Y-90789957D01*
X163314500Y-90819851D01*
X163314501Y-90819872D01*
X163315378Y-90826820D01*
X163315844Y-90832732D01*
X163317326Y-90879888D01*
X163317327Y-90879893D01*
X163322977Y-90899339D01*
X163326986Y-90918697D01*
X163329525Y-90938793D01*
X163329526Y-90938799D01*
X163346893Y-90982662D01*
X163348816Y-90988279D01*
X163361982Y-91033593D01*
X163372294Y-91051031D01*
X163380988Y-91068779D01*
X163388444Y-91087609D01*
X163388450Y-91087620D01*
X163416177Y-91125783D01*
X163419437Y-91130746D01*
X163443460Y-91171365D01*
X163457779Y-91185684D01*
X163470617Y-91200714D01*
X163480156Y-91213843D01*
X163482528Y-91217107D01*
X163510794Y-91240491D01*
X163518886Y-91247185D01*
X163523267Y-91251171D01*
X163727595Y-91455499D01*
X163761621Y-91517811D01*
X163764500Y-91544594D01*
X163764500Y-92205544D01*
X163775112Y-92309425D01*
X163830885Y-92477738D01*
X163923970Y-92628652D01*
X163923975Y-92628658D01*
X164049341Y-92754024D01*
X164049345Y-92754027D01*
X164049348Y-92754030D01*
X164049350Y-92754031D01*
X164064317Y-92763263D01*
X164111796Y-92816048D01*
X164123199Y-92886123D01*
X164118004Y-92909441D01*
X164079457Y-93028072D01*
X164059496Y-93218000D01*
X164079457Y-93407927D01*
X164098431Y-93466320D01*
X164138473Y-93589556D01*
X164166841Y-93638691D01*
X164233958Y-93754941D01*
X164233965Y-93754951D01*
X164361744Y-93896864D01*
X164361747Y-93896866D01*
X164516248Y-94009118D01*
X164690712Y-94086794D01*
X164755425Y-94100549D01*
X164817898Y-94134277D01*
X164852220Y-94196427D01*
X164847492Y-94267266D01*
X164805983Y-94323268D01*
X164806103Y-94323420D01*
X164805543Y-94323862D01*
X164805216Y-94324304D01*
X164803494Y-94325482D01*
X164800341Y-94327975D01*
X164669780Y-94458537D01*
X164667756Y-94456513D01*
X164620477Y-94489953D01*
X164553451Y-94493999D01*
X164433487Y-94468500D01*
X164242513Y-94468500D01*
X164055711Y-94508206D01*
X163881247Y-94585882D01*
X163726744Y-94698135D01*
X163598965Y-94840048D01*
X163598958Y-94840058D01*
X163503476Y-95005438D01*
X163503473Y-95005445D01*
X163444457Y-95187072D01*
X163424496Y-95377000D01*
X163444457Y-95566927D01*
X163474526Y-95659470D01*
X163503473Y-95748556D01*
X163503476Y-95748561D01*
X163598958Y-95913941D01*
X163598965Y-95913951D01*
X163726744Y-96055864D01*
X163726747Y-96055866D01*
X163881248Y-96168118D01*
X164055712Y-96245794D01*
X164104928Y-96256255D01*
X164167402Y-96289983D01*
X164201723Y-96352132D01*
X164196996Y-96422971D01*
X164154721Y-96480009D01*
X164104930Y-96502748D01*
X163928715Y-96540204D01*
X163754247Y-96617882D01*
X163599744Y-96730135D01*
X163471965Y-96872048D01*
X163471958Y-96872058D01*
X163376476Y-97037438D01*
X163376473Y-97037445D01*
X163317457Y-97219072D01*
X163297496Y-97409000D01*
X163317457Y-97598927D01*
X163347526Y-97691470D01*
X163376473Y-97780556D01*
X163376476Y-97780561D01*
X163471958Y-97945941D01*
X163471965Y-97945951D01*
X163599744Y-98087864D01*
X163599747Y-98087866D01*
X163754248Y-98200118D01*
X163928712Y-98277794D01*
X163977928Y-98288255D01*
X164040402Y-98321983D01*
X164074723Y-98384132D01*
X164069996Y-98454971D01*
X164027721Y-98512009D01*
X163977930Y-98534748D01*
X163801715Y-98572204D01*
X163627247Y-98649882D01*
X163472744Y-98762135D01*
X163344965Y-98904048D01*
X163344958Y-98904058D01*
X163249476Y-99069438D01*
X163249473Y-99069445D01*
X163190457Y-99251072D01*
X163170496Y-99441000D01*
X163190457Y-99630927D01*
X163220526Y-99723470D01*
X163249473Y-99812556D01*
X163249476Y-99812561D01*
X163328537Y-99949500D01*
X163345275Y-100018496D01*
X163328537Y-100075500D01*
X163249476Y-100212438D01*
X163249473Y-100212445D01*
X163190457Y-100394072D01*
X163170496Y-100584000D01*
X163190457Y-100773927D01*
X163220526Y-100866470D01*
X163249473Y-100955556D01*
X163249476Y-100955561D01*
X163344957Y-101120940D01*
X163344958Y-101120942D01*
X163344960Y-101120944D01*
X163357337Y-101134690D01*
X163388054Y-101198698D01*
X163379289Y-101269152D01*
X163357337Y-101303310D01*
X163344957Y-101317059D01*
X163249476Y-101482438D01*
X163249473Y-101482445D01*
X163190457Y-101664072D01*
X163170496Y-101854000D01*
X163190457Y-102043927D01*
X163220526Y-102136470D01*
X163249473Y-102225556D01*
X163249476Y-102225561D01*
X163344958Y-102390941D01*
X163344965Y-102390951D01*
X163472744Y-102532864D01*
X163472747Y-102532866D01*
X163627248Y-102645118D01*
X163801712Y-102722794D01*
X163898642Y-102743397D01*
X163914429Y-102746753D01*
X163976903Y-102780482D01*
X164011224Y-102842631D01*
X164006496Y-102913470D01*
X163964220Y-102970508D01*
X163914429Y-102993247D01*
X163801711Y-103017206D01*
X163627247Y-103094882D01*
X163472744Y-103207135D01*
X163344965Y-103349048D01*
X163344958Y-103349058D01*
X163249476Y-103514438D01*
X163249473Y-103514445D01*
X163190457Y-103696072D01*
X163170496Y-103886000D01*
X163190457Y-104075930D01*
X163191830Y-104082385D01*
X163189804Y-104082815D01*
X163191555Y-104144029D01*
X163154894Y-104204828D01*
X163091182Y-104236154D01*
X163069694Y-104238000D01*
X162910000Y-104238000D01*
X162910000Y-105892000D01*
X163914000Y-105892000D01*
X163914000Y-104920500D01*
X163934002Y-104852379D01*
X163987658Y-104805886D01*
X164040000Y-104794500D01*
X164179487Y-104794500D01*
X164366288Y-104754794D01*
X164481268Y-104703601D01*
X164551633Y-104694168D01*
X164615930Y-104724274D01*
X164639755Y-104752561D01*
X164674968Y-104809649D01*
X164674975Y-104809658D01*
X164800341Y-104935024D01*
X164800347Y-104935029D01*
X164800348Y-104935030D01*
X164951262Y-105028115D01*
X165119574Y-105083887D01*
X165223455Y-105094500D01*
X166024544Y-105094499D01*
X166128426Y-105083887D01*
X166296738Y-105028115D01*
X166447652Y-104935030D01*
X166481119Y-104901563D01*
X166534905Y-104847778D01*
X166597217Y-104813752D01*
X166668032Y-104818817D01*
X166713095Y-104847778D01*
X166800341Y-104935024D01*
X166800347Y-104935029D01*
X166800348Y-104935030D01*
X166951262Y-105028115D01*
X167119574Y-105083887D01*
X167223455Y-105094500D01*
X167476906Y-105094499D01*
X167545025Y-105114501D01*
X167591518Y-105168156D01*
X167601623Y-105238430D01*
X167572130Y-105303011D01*
X167566000Y-105309594D01*
X167161999Y-105713595D01*
X167099687Y-105747621D01*
X167072904Y-105750500D01*
X166249455Y-105750500D01*
X166145574Y-105761112D01*
X165977261Y-105816885D01*
X165826347Y-105909970D01*
X165826341Y-105909975D01*
X165700975Y-106035341D01*
X165700970Y-106035347D01*
X165607885Y-106186262D01*
X165552113Y-106354572D01*
X165552112Y-106354579D01*
X165541500Y-106458446D01*
X165541500Y-107409544D01*
X165552112Y-107513425D01*
X165607885Y-107681738D01*
X165700970Y-107832652D01*
X165700975Y-107832658D01*
X165826341Y-107958024D01*
X165826347Y-107958029D01*
X165826348Y-107958030D01*
X165930647Y-108022363D01*
X165978125Y-108075148D01*
X165990500Y-108129603D01*
X165990500Y-108167761D01*
X165970498Y-108235882D01*
X165916842Y-108282375D01*
X165904133Y-108287365D01*
X165851265Y-108304883D01*
X165700347Y-108397970D01*
X165700341Y-108397975D01*
X165574975Y-108523341D01*
X165574970Y-108523347D01*
X165494601Y-108653647D01*
X165441815Y-108701125D01*
X165387360Y-108713500D01*
X163892354Y-108713500D01*
X163876512Y-108711750D01*
X163876485Y-108712044D01*
X163868592Y-108711297D01*
X163798529Y-108713500D01*
X163768644Y-108713500D01*
X163768640Y-108713500D01*
X163768629Y-108713501D01*
X163761690Y-108714377D01*
X163755777Y-108714843D01*
X163708614Y-108716325D01*
X163708607Y-108716327D01*
X163689149Y-108721979D01*
X163669804Y-108725985D01*
X163649706Y-108728525D01*
X163649697Y-108728527D01*
X163605831Y-108745894D01*
X163600216Y-108747817D01*
X163554908Y-108760981D01*
X163537464Y-108771297D01*
X163519718Y-108779990D01*
X163500882Y-108787448D01*
X163462709Y-108815181D01*
X163457748Y-108818440D01*
X163417138Y-108842458D01*
X163402811Y-108856784D01*
X163387785Y-108869617D01*
X163371395Y-108881525D01*
X163371393Y-108881527D01*
X163341308Y-108917892D01*
X163337312Y-108922283D01*
X162404999Y-109854595D01*
X162342687Y-109888621D01*
X162315904Y-109891500D01*
X161642455Y-109891500D01*
X161538574Y-109902112D01*
X161370261Y-109957885D01*
X161219347Y-110050970D01*
X161219341Y-110050975D01*
X161093975Y-110176341D01*
X161093970Y-110176347D01*
X161000885Y-110327262D01*
X160945113Y-110495572D01*
X160945112Y-110495579D01*
X160934500Y-110599446D01*
X160934500Y-111272904D01*
X160914498Y-111341025D01*
X160897599Y-111361994D01*
X160570636Y-111688958D01*
X160266336Y-111993258D01*
X160253901Y-112003221D01*
X160254089Y-112003448D01*
X160247980Y-112008501D01*
X160200015Y-112059579D01*
X160178866Y-112080727D01*
X160174560Y-112086277D01*
X160170714Y-112090779D01*
X160138417Y-112125174D01*
X160138411Y-112125183D01*
X160128651Y-112142935D01*
X160117803Y-112159450D01*
X160105386Y-112175458D01*
X160086645Y-112218764D01*
X160084034Y-112224094D01*
X160061305Y-112265439D01*
X160061303Y-112265444D01*
X160056267Y-112285059D01*
X160049864Y-112303762D01*
X160041819Y-112322352D01*
X160034437Y-112368956D01*
X160033233Y-112374768D01*
X160021500Y-112420468D01*
X160021500Y-112440723D01*
X160019949Y-112460433D01*
X160016780Y-112480442D01*
X160016780Y-112480443D01*
X160021220Y-112527417D01*
X160021500Y-112533350D01*
X160021500Y-114212607D01*
X160001498Y-114280728D01*
X159947842Y-114327221D01*
X159877568Y-114337325D01*
X159812988Y-114307831D01*
X159794632Y-114288116D01*
X159708261Y-114172738D01*
X159591207Y-114085112D01*
X159591202Y-114085110D01*
X159454204Y-114034011D01*
X159454196Y-114034009D01*
X159393649Y-114027500D01*
X159393638Y-114027500D01*
X159074373Y-114027500D01*
X159006252Y-114007498D01*
X158959759Y-113953842D01*
X158949655Y-113883568D01*
X158979149Y-113818988D01*
X158985278Y-113812405D01*
X159073024Y-113724658D01*
X159073025Y-113724657D01*
X159073030Y-113724652D01*
X159166115Y-113573738D01*
X159221887Y-113405426D01*
X159232500Y-113301545D01*
X159232499Y-112250456D01*
X159221887Y-112146574D01*
X159166115Y-111978262D01*
X159073030Y-111827348D01*
X159073027Y-111827345D01*
X159073024Y-111827341D01*
X158947658Y-111701975D01*
X158947652Y-111701970D01*
X158864279Y-111650545D01*
X158796738Y-111608885D01*
X158688678Y-111573078D01*
X158628427Y-111553113D01*
X158628420Y-111553112D01*
X158524553Y-111542500D01*
X157748455Y-111542500D01*
X157644574Y-111553112D01*
X157476261Y-111608885D01*
X157325347Y-111701970D01*
X157325341Y-111701975D01*
X157199971Y-111827345D01*
X157197511Y-111830457D01*
X157195281Y-111832035D01*
X157194780Y-111832537D01*
X157194694Y-111832451D01*
X157139568Y-111871483D01*
X157068643Y-111874671D01*
X157007254Y-111839008D01*
X156999837Y-111830446D01*
X156997632Y-111827657D01*
X156872345Y-111702370D01*
X156872339Y-111702365D01*
X156721525Y-111609342D01*
X156553321Y-111553606D01*
X156553318Y-111553605D01*
X156449516Y-111543000D01*
X156315500Y-111543000D01*
X156315500Y-112904000D01*
X156295498Y-112972121D01*
X156241842Y-113018614D01*
X156189500Y-113030000D01*
X154966000Y-113030000D01*
X154966000Y-113301516D01*
X154976605Y-113405318D01*
X154976606Y-113405321D01*
X155032342Y-113573525D01*
X155125365Y-113724339D01*
X155125370Y-113724345D01*
X155213930Y-113812905D01*
X155247956Y-113875217D01*
X155242891Y-113946032D01*
X155200344Y-114002868D01*
X155133824Y-114027679D01*
X155124835Y-114028000D01*
X154429500Y-114028000D01*
X154361379Y-114007998D01*
X154314886Y-113954342D01*
X154303500Y-113902000D01*
X154303500Y-112522000D01*
X154966000Y-112522000D01*
X155807500Y-112522000D01*
X155807500Y-111543000D01*
X155673483Y-111543000D01*
X155569681Y-111553605D01*
X155569678Y-111553606D01*
X155401474Y-111609342D01*
X155250660Y-111702365D01*
X155250654Y-111702370D01*
X155125370Y-111827654D01*
X155125365Y-111827660D01*
X155032342Y-111978474D01*
X154976606Y-112146678D01*
X154976605Y-112146681D01*
X154966000Y-112250483D01*
X154966000Y-112522000D01*
X154303500Y-112522000D01*
X154303500Y-112328594D01*
X154323502Y-112260473D01*
X154340405Y-112239499D01*
X157138499Y-109441405D01*
X157200811Y-109407379D01*
X157227594Y-109404500D01*
X157609632Y-109404500D01*
X157609638Y-109404500D01*
X157609645Y-109404499D01*
X157609649Y-109404499D01*
X157670196Y-109397990D01*
X157670199Y-109397989D01*
X157670201Y-109397989D01*
X157807204Y-109346889D01*
X157835489Y-109325714D01*
X157902008Y-109300902D01*
X157971383Y-109315992D01*
X157986511Y-109325715D01*
X158014791Y-109346886D01*
X158014793Y-109346887D01*
X158014796Y-109346889D01*
X158055034Y-109361897D01*
X158151795Y-109397988D01*
X158151803Y-109397990D01*
X158212350Y-109404499D01*
X158212355Y-109404499D01*
X158212362Y-109404500D01*
X158212368Y-109404500D01*
X159309632Y-109404500D01*
X159309638Y-109404500D01*
X159309645Y-109404499D01*
X159309649Y-109404499D01*
X159370197Y-109397990D01*
X159370199Y-109397989D01*
X159370201Y-109397989D01*
X159391965Y-109389870D01*
X159462777Y-109384803D01*
X159480023Y-109389866D01*
X159501799Y-109397989D01*
X159501802Y-109397990D01*
X159562350Y-109404499D01*
X159562355Y-109404499D01*
X159562362Y-109404500D01*
X159562368Y-109404500D01*
X160359632Y-109404500D01*
X160359638Y-109404500D01*
X160359645Y-109404499D01*
X160359649Y-109404499D01*
X160420196Y-109397990D01*
X160420199Y-109397989D01*
X160420201Y-109397989D01*
X160486003Y-109373446D01*
X160516967Y-109361897D01*
X160587783Y-109356831D01*
X160605033Y-109361897D01*
X160701795Y-109397988D01*
X160701803Y-109397990D01*
X160762350Y-109404499D01*
X160762355Y-109404499D01*
X160762362Y-109404500D01*
X160762368Y-109404500D01*
X161559632Y-109404500D01*
X161559638Y-109404500D01*
X161559645Y-109404499D01*
X161559649Y-109404499D01*
X161620196Y-109397990D01*
X161620199Y-109397989D01*
X161620201Y-109397989D01*
X161757204Y-109346889D01*
X161757799Y-109346444D01*
X161874261Y-109259261D01*
X161961887Y-109142207D01*
X161961887Y-109142206D01*
X161961889Y-109142204D01*
X162012989Y-109005201D01*
X162017531Y-108962960D01*
X162019499Y-108944649D01*
X162019500Y-108944632D01*
X162019500Y-108180000D01*
X162039502Y-108111879D01*
X162093158Y-108065386D01*
X162145500Y-108054000D01*
X162402000Y-108054000D01*
X162402000Y-106400000D01*
X162910000Y-106400000D01*
X162910000Y-108054000D01*
X163454585Y-108054000D01*
X163454597Y-108053999D01*
X163515093Y-108047494D01*
X163651964Y-107996444D01*
X163651965Y-107996444D01*
X163768904Y-107908904D01*
X163856444Y-107791965D01*
X163856444Y-107791964D01*
X163907494Y-107655093D01*
X163913999Y-107594597D01*
X163914000Y-107594585D01*
X163914000Y-106400000D01*
X162910000Y-106400000D01*
X162402000Y-106400000D01*
X162402000Y-104238000D01*
X161857402Y-104238000D01*
X161796906Y-104244505D01*
X161660035Y-104295555D01*
X161660034Y-104295555D01*
X161565219Y-104366534D01*
X161498699Y-104391345D01*
X161429325Y-104376254D01*
X161400615Y-104354761D01*
X161366434Y-104320580D01*
X161366428Y-104320575D01*
X161175297Y-104186744D01*
X160963828Y-104088134D01*
X160963824Y-104088132D01*
X160859224Y-104060104D01*
X160738444Y-104027742D01*
X160506000Y-104007406D01*
X160273556Y-104027742D01*
X160225301Y-104040672D01*
X160048175Y-104088132D01*
X160048171Y-104088134D01*
X159836702Y-104186744D01*
X159645571Y-104320575D01*
X159645565Y-104320580D01*
X159480580Y-104485565D01*
X159480575Y-104485571D01*
X159346744Y-104676702D01*
X159248134Y-104888171D01*
X159248132Y-104888175D01*
X159233836Y-104941530D01*
X159187742Y-105113556D01*
X159167406Y-105346000D01*
X159187742Y-105578444D01*
X159248133Y-105803826D01*
X159249557Y-105809140D01*
X159247352Y-105809730D01*
X159251208Y-105870854D01*
X159216660Y-105932878D01*
X159154063Y-105966378D01*
X159083293Y-105960717D01*
X159077069Y-105958143D01*
X159032290Y-105938206D01*
X158845487Y-105898500D01*
X158654513Y-105898500D01*
X158467711Y-105938206D01*
X158293247Y-106015882D01*
X158138744Y-106128135D01*
X158010965Y-106270048D01*
X158010961Y-106270054D01*
X158010960Y-106270056D01*
X158001897Y-106285752D01*
X157950516Y-106334744D01*
X157880802Y-106348179D01*
X157814891Y-106321792D01*
X157799144Y-106307060D01*
X157672255Y-106166135D01*
X157517752Y-106053882D01*
X157343288Y-105976206D01*
X157156487Y-105936500D01*
X156965513Y-105936500D01*
X156778711Y-105976206D01*
X156604247Y-106053882D01*
X156449744Y-106166135D01*
X156321965Y-106308048D01*
X156321958Y-106308058D01*
X156226476Y-106473438D01*
X156226473Y-106473444D01*
X156217374Y-106501448D01*
X156167457Y-106655072D01*
X156147496Y-106845000D01*
X156165820Y-107019348D01*
X156153048Y-107089186D01*
X156141379Y-107108026D01*
X156110110Y-107149796D01*
X156059011Y-107286795D01*
X156059009Y-107286803D01*
X156052500Y-107347350D01*
X156052500Y-108683404D01*
X156032498Y-108751525D01*
X156015595Y-108772499D01*
X155854095Y-108933999D01*
X155791783Y-108968025D01*
X155720968Y-108962960D01*
X155664132Y-108920413D01*
X155639321Y-108853893D01*
X155639000Y-108844904D01*
X155639000Y-108400000D01*
X154885000Y-108400000D01*
X154885000Y-109404000D01*
X155079905Y-109404000D01*
X155148026Y-109424002D01*
X155194519Y-109477658D01*
X155204623Y-109547932D01*
X155175129Y-109612512D01*
X155169017Y-109619076D01*
X153726519Y-111061575D01*
X153281336Y-111506758D01*
X153268901Y-111516721D01*
X153269089Y-111516948D01*
X153262980Y-111522001D01*
X153215016Y-111573078D01*
X153193866Y-111594227D01*
X153189560Y-111599777D01*
X153185714Y-111604279D01*
X153153417Y-111638674D01*
X153153411Y-111638683D01*
X153143651Y-111656435D01*
X153132803Y-111672950D01*
X153120386Y-111688958D01*
X153101645Y-111732264D01*
X153099034Y-111737594D01*
X153076305Y-111778939D01*
X153076303Y-111778944D01*
X153071267Y-111798559D01*
X153064864Y-111817262D01*
X153056819Y-111835852D01*
X153049437Y-111882456D01*
X153048233Y-111888268D01*
X153036500Y-111933968D01*
X153036500Y-111954223D01*
X153034949Y-111973933D01*
X153031780Y-111993942D01*
X153031780Y-111993943D01*
X153036220Y-112040917D01*
X153036500Y-112046850D01*
X153036500Y-112736407D01*
X153016498Y-112804528D01*
X152962842Y-112851021D01*
X152892568Y-112861125D01*
X152887869Y-112860358D01*
X152882829Y-112859437D01*
X152845506Y-112856500D01*
X152845502Y-112856500D01*
X151062498Y-112856500D01*
X151062494Y-112856500D01*
X151025170Y-112859437D01*
X150865394Y-112905856D01*
X150722196Y-112990544D01*
X150722189Y-112990549D01*
X150604549Y-113108189D01*
X150604544Y-113108196D01*
X150519856Y-113251394D01*
X150473437Y-113411170D01*
X150470500Y-113448494D01*
X150470500Y-113881506D01*
X150473437Y-113918829D01*
X150519856Y-114078605D01*
X150604543Y-114221802D01*
X150605298Y-114222775D01*
X150605652Y-114223676D01*
X150608582Y-114228631D01*
X150607782Y-114229103D01*
X150631244Y-114288861D01*
X150617342Y-114358483D01*
X150605298Y-114377225D01*
X150604543Y-114378197D01*
X150519856Y-114521394D01*
X150473437Y-114681170D01*
X150470500Y-114718494D01*
X150470500Y-115151506D01*
X150473437Y-115188829D01*
X150519856Y-115348605D01*
X150604544Y-115491803D01*
X150605615Y-115493184D01*
X150606117Y-115494463D01*
X150608582Y-115498631D01*
X150607909Y-115499028D01*
X150631562Y-115559270D01*
X150617662Y-115628892D01*
X150605614Y-115647639D01*
X150604946Y-115648499D01*
X150520318Y-115791598D01*
X150474007Y-115951000D01*
X152082000Y-115951000D01*
X152150121Y-115971002D01*
X152196614Y-116024658D01*
X152208000Y-116077000D01*
X152208000Y-116333000D01*
X152187998Y-116401121D01*
X152134342Y-116447614D01*
X152082000Y-116459000D01*
X150474007Y-116459000D01*
X150520318Y-116618401D01*
X150604946Y-116761498D01*
X150605616Y-116762362D01*
X150605930Y-116763162D01*
X150608981Y-116768321D01*
X150608148Y-116768813D01*
X150631563Y-116828448D01*
X150617662Y-116898070D01*
X150605625Y-116916802D01*
X150604551Y-116918186D01*
X150519856Y-117061396D01*
X150473437Y-117221170D01*
X150470500Y-117258494D01*
X150470500Y-117393404D01*
X150450498Y-117461525D01*
X150396842Y-117508018D01*
X150326568Y-117518122D01*
X150261988Y-117488628D01*
X150255405Y-117482499D01*
X150255218Y-117482312D01*
X150242377Y-117467279D01*
X150230471Y-117450892D01*
X150208830Y-117432989D01*
X150194108Y-117420810D01*
X150189736Y-117416831D01*
X148589244Y-115816339D01*
X148579279Y-115803901D01*
X148579052Y-115804090D01*
X148574001Y-115797984D01*
X148574000Y-115797982D01*
X148522921Y-115750016D01*
X148513467Y-115740562D01*
X148501777Y-115728871D01*
X148501772Y-115728866D01*
X148496225Y-115724563D01*
X148491717Y-115720712D01*
X148457325Y-115688417D01*
X148457319Y-115688413D01*
X148439563Y-115678651D01*
X148423047Y-115667802D01*
X148407041Y-115655386D01*
X148407040Y-115655385D01*
X148407038Y-115655384D01*
X148404120Y-115653659D01*
X148402299Y-115651708D01*
X148400778Y-115650529D01*
X148400968Y-115650283D01*
X148355667Y-115601767D01*
X148342961Y-115531917D01*
X148359803Y-115481068D01*
X148438145Y-115348601D01*
X148484562Y-115188831D01*
X148486835Y-115159949D01*
X148487500Y-115151506D01*
X148487500Y-114718494D01*
X148484562Y-114681170D01*
X148484562Y-114681169D01*
X148438145Y-114521399D01*
X148438143Y-114521397D01*
X148438143Y-114521394D01*
X148353456Y-114378198D01*
X148353455Y-114378197D01*
X148353453Y-114378193D01*
X148353449Y-114378189D01*
X148352708Y-114377233D01*
X148352356Y-114376337D01*
X148349418Y-114371369D01*
X148350219Y-114370895D01*
X148326756Y-114311150D01*
X148340652Y-114241526D01*
X148352708Y-114222767D01*
X148353445Y-114221814D01*
X148353453Y-114221807D01*
X148422688Y-114104738D01*
X148438143Y-114078605D01*
X148438144Y-114078602D01*
X148438145Y-114078601D01*
X148484562Y-113918831D01*
X148485887Y-113902000D01*
X148487500Y-113881506D01*
X148487500Y-113448494D01*
X148484562Y-113411170D01*
X148482894Y-113405427D01*
X148438145Y-113251399D01*
X148438143Y-113251397D01*
X148438143Y-113251394D01*
X148397777Y-113183139D01*
X148380317Y-113114323D01*
X148402834Y-113046992D01*
X148458178Y-113002522D01*
X148479131Y-112998369D01*
X148484500Y-112993001D01*
X148484500Y-112014000D01*
X148992500Y-112014000D01*
X148992500Y-112993000D01*
X149126517Y-112993000D01*
X149126516Y-112992999D01*
X149230318Y-112982394D01*
X149230321Y-112982393D01*
X149398525Y-112926657D01*
X149549339Y-112833634D01*
X149549345Y-112833629D01*
X149674629Y-112708345D01*
X149674634Y-112708339D01*
X149767657Y-112557525D01*
X149823393Y-112389321D01*
X149823394Y-112389318D01*
X149833999Y-112285516D01*
X149834000Y-112285516D01*
X149834000Y-112014000D01*
X148992500Y-112014000D01*
X148484500Y-112014000D01*
X148484500Y-110629502D01*
X148504502Y-110561381D01*
X148521405Y-110540407D01*
X148534812Y-110527000D01*
X148992500Y-110527000D01*
X148992500Y-111506000D01*
X149834000Y-111506000D01*
X149834000Y-111234483D01*
X149823394Y-111130681D01*
X149823393Y-111130678D01*
X149767657Y-110962474D01*
X149674634Y-110811660D01*
X149674629Y-110811654D01*
X149549345Y-110686370D01*
X149549339Y-110686365D01*
X149398525Y-110593342D01*
X149230321Y-110537606D01*
X149230318Y-110537605D01*
X149126516Y-110527000D01*
X148992500Y-110527000D01*
X148534812Y-110527000D01*
X148714813Y-110347000D01*
X149620408Y-109441405D01*
X149682720Y-109407379D01*
X149709503Y-109404500D01*
X150179632Y-109404500D01*
X150179638Y-109404500D01*
X150179645Y-109404499D01*
X150179649Y-109404499D01*
X150240196Y-109397990D01*
X150240199Y-109397989D01*
X150240201Y-109397989D01*
X150377204Y-109346889D01*
X150377799Y-109346444D01*
X150494261Y-109259261D01*
X150581887Y-109142207D01*
X150581887Y-109142206D01*
X150581889Y-109142204D01*
X150632989Y-109005201D01*
X150637531Y-108962960D01*
X150639499Y-108944649D01*
X151122500Y-108944649D01*
X151129009Y-109005196D01*
X151129011Y-109005204D01*
X151180110Y-109142202D01*
X151180112Y-109142207D01*
X151267738Y-109259261D01*
X151384792Y-109346887D01*
X151384794Y-109346888D01*
X151384796Y-109346889D01*
X151425034Y-109361897D01*
X151521795Y-109397988D01*
X151521803Y-109397990D01*
X151582350Y-109404499D01*
X151582355Y-109404499D01*
X151582362Y-109404500D01*
X151582368Y-109404500D01*
X152679632Y-109404500D01*
X152679638Y-109404500D01*
X152679645Y-109404499D01*
X152679649Y-109404499D01*
X152740196Y-109397990D01*
X152740199Y-109397989D01*
X152740201Y-109397989D01*
X152877204Y-109346889D01*
X152877799Y-109346444D01*
X152994261Y-109259261D01*
X153081887Y-109142207D01*
X153081887Y-109142206D01*
X153081889Y-109142204D01*
X153132989Y-109005201D01*
X153137531Y-108962960D01*
X153139499Y-108944649D01*
X153139500Y-108944632D01*
X153139500Y-108400000D01*
X153623000Y-108400000D01*
X153623000Y-108944597D01*
X153629505Y-109005093D01*
X153680555Y-109141964D01*
X153680555Y-109141965D01*
X153768095Y-109258904D01*
X153885034Y-109346444D01*
X154021906Y-109397494D01*
X154082402Y-109403999D01*
X154082415Y-109404000D01*
X154377000Y-109404000D01*
X154377000Y-108400000D01*
X153623000Y-108400000D01*
X153139500Y-108400000D01*
X153139500Y-107892000D01*
X153623000Y-107892000D01*
X154377000Y-107892000D01*
X154377000Y-106888000D01*
X154885000Y-106888000D01*
X154885000Y-107892000D01*
X155639000Y-107892000D01*
X155639000Y-107347414D01*
X155638999Y-107347402D01*
X155632494Y-107286906D01*
X155581444Y-107150035D01*
X155581444Y-107150034D01*
X155493904Y-107033095D01*
X155376965Y-106945555D01*
X155240093Y-106894505D01*
X155179597Y-106888000D01*
X154885000Y-106888000D01*
X154377000Y-106888000D01*
X154082402Y-106888000D01*
X154021906Y-106894505D01*
X153885035Y-106945555D01*
X153885034Y-106945555D01*
X153768095Y-107033095D01*
X153680555Y-107150034D01*
X153680555Y-107150035D01*
X153629505Y-107286906D01*
X153623000Y-107347402D01*
X153623000Y-107892000D01*
X153139500Y-107892000D01*
X153139500Y-107347367D01*
X153139499Y-107347350D01*
X153132990Y-107286803D01*
X153132988Y-107286795D01*
X153081890Y-107149798D01*
X153081889Y-107149797D01*
X153081889Y-107149796D01*
X153056877Y-107116384D01*
X153032067Y-107049864D01*
X153037914Y-107001937D01*
X153039540Y-106996933D01*
X153039542Y-106996928D01*
X153059504Y-106807000D01*
X153039542Y-106617072D01*
X152980527Y-106435444D01*
X152885040Y-106270056D01*
X152885038Y-106270054D01*
X152885034Y-106270048D01*
X152757255Y-106128135D01*
X152602752Y-106015882D01*
X152428288Y-105938206D01*
X152241487Y-105898500D01*
X152050513Y-105898500D01*
X151863711Y-105938206D01*
X151689247Y-106015882D01*
X151534744Y-106128135D01*
X151406965Y-106270048D01*
X151406958Y-106270058D01*
X151313766Y-106431472D01*
X151311473Y-106435444D01*
X151309172Y-106442526D01*
X151252457Y-106617072D01*
X151232496Y-106807000D01*
X151252475Y-106997099D01*
X151239702Y-107066938D01*
X151228034Y-107085777D01*
X151180112Y-107149793D01*
X151180110Y-107149797D01*
X151129011Y-107286795D01*
X151129009Y-107286803D01*
X151122500Y-107347350D01*
X151122500Y-108944649D01*
X150639499Y-108944649D01*
X150639500Y-108944632D01*
X150639500Y-107347367D01*
X150639499Y-107347350D01*
X150632990Y-107286803D01*
X150632988Y-107286795D01*
X150594565Y-107183781D01*
X150589499Y-107112966D01*
X150592781Y-107100830D01*
X150626542Y-106996928D01*
X150646504Y-106807000D01*
X150626542Y-106617072D01*
X150567527Y-106435444D01*
X150472040Y-106270056D01*
X150472038Y-106270054D01*
X150472034Y-106270048D01*
X150344255Y-106128135D01*
X150189752Y-106015882D01*
X150015288Y-105938206D01*
X149828487Y-105898500D01*
X149637513Y-105898500D01*
X149450711Y-105938206D01*
X149276247Y-106015882D01*
X149121744Y-106128135D01*
X148993965Y-106270048D01*
X148993958Y-106270058D01*
X148900766Y-106431472D01*
X148898473Y-106435444D01*
X148896172Y-106442526D01*
X148839457Y-106617072D01*
X148819496Y-106806999D01*
X148830237Y-106909195D01*
X148817465Y-106979033D01*
X148780439Y-107023231D01*
X148767738Y-107032739D01*
X148680112Y-107149792D01*
X148680110Y-107149797D01*
X148629011Y-107286795D01*
X148629009Y-107286803D01*
X148622500Y-107347350D01*
X148622500Y-107817497D01*
X148602498Y-107885618D01*
X148585595Y-107906592D01*
X148129092Y-108363095D01*
X148066780Y-108397121D01*
X148039997Y-108400000D01*
X146123000Y-108400000D01*
X146123000Y-108944597D01*
X146129505Y-109005093D01*
X146180555Y-109141964D01*
X146180555Y-109141965D01*
X146268095Y-109258904D01*
X146385034Y-109346444D01*
X146521906Y-109397494D01*
X146582402Y-109403999D01*
X146582415Y-109404000D01*
X146783996Y-109404000D01*
X146852117Y-109424002D01*
X146898610Y-109477658D01*
X146908714Y-109547932D01*
X146879220Y-109612512D01*
X146873100Y-109619086D01*
X146472449Y-110019737D01*
X146078663Y-110413523D01*
X146063636Y-110426358D01*
X146052246Y-110434634D01*
X146005389Y-110486673D01*
X146003122Y-110489063D01*
X145987431Y-110504755D01*
X145987426Y-110504760D01*
X145973466Y-110521997D01*
X145971329Y-110524499D01*
X145924463Y-110576551D01*
X145924456Y-110576560D01*
X145917418Y-110588749D01*
X145906234Y-110605022D01*
X145897373Y-110615966D01*
X145897371Y-110615969D01*
X145880481Y-110649116D01*
X145857312Y-110681005D01*
X145726970Y-110811347D01*
X145643635Y-110946455D01*
X145633885Y-110962262D01*
X145615039Y-111019134D01*
X145574627Y-111077504D01*
X145509070Y-111104760D01*
X145495436Y-111105500D01*
X142932428Y-111105500D01*
X142864307Y-111085498D01*
X142817814Y-111031842D01*
X142812823Y-111019133D01*
X142771115Y-110893262D01*
X142678030Y-110742349D01*
X142678029Y-110742348D01*
X142678024Y-110742342D01*
X142552657Y-110616975D01*
X142552651Y-110616970D01*
X142506898Y-110588749D01*
X142401738Y-110523885D01*
X142233425Y-110468113D01*
X142233423Y-110468112D01*
X142233421Y-110468112D01*
X142129552Y-110457500D01*
X142129544Y-110457500D01*
X141028456Y-110457500D01*
X141028448Y-110457500D01*
X140924578Y-110468112D01*
X140756262Y-110523885D01*
X140756260Y-110523886D01*
X140605348Y-110616970D01*
X140605342Y-110616975D01*
X140479975Y-110742342D01*
X140479970Y-110742348D01*
X140386886Y-110893260D01*
X140386885Y-110893262D01*
X140331112Y-111061578D01*
X140320500Y-111165447D01*
X140320500Y-111874995D01*
X140300498Y-111943116D01*
X140283595Y-111964091D01*
X139802094Y-112445591D01*
X139739782Y-112479616D01*
X139668966Y-112474551D01*
X139612131Y-112432004D01*
X139605067Y-112413066D01*
X139587001Y-112395000D01*
X137071001Y-112395000D01*
X137071001Y-113116507D01*
X137081605Y-113220318D01*
X137137342Y-113388525D01*
X137230366Y-113539339D01*
X137230371Y-113539345D01*
X137355654Y-113664628D01*
X137355660Y-113664633D01*
X137455571Y-113726259D01*
X137503049Y-113779045D01*
X137514452Y-113849120D01*
X137486159Y-113914236D01*
X137427154Y-113953718D01*
X137389424Y-113959500D01*
X136862350Y-113959500D01*
X136801803Y-113966009D01*
X136801795Y-113966011D01*
X136664797Y-114017110D01*
X136664792Y-114017112D01*
X136547738Y-114104738D01*
X136460112Y-114221792D01*
X136460110Y-114221797D01*
X136409011Y-114358795D01*
X136409009Y-114358803D01*
X136402500Y-114419350D01*
X136402500Y-116516649D01*
X136409009Y-116577196D01*
X136409011Y-116577204D01*
X136460110Y-116714202D01*
X136460112Y-116714207D01*
X136547738Y-116831261D01*
X136664792Y-116918887D01*
X136664794Y-116918888D01*
X136664796Y-116918889D01*
X136680856Y-116924879D01*
X136801795Y-116969988D01*
X136801803Y-116969990D01*
X136862350Y-116976499D01*
X136862355Y-116976499D01*
X136862362Y-116976500D01*
X137776500Y-116976500D01*
X137844621Y-116996502D01*
X137891114Y-117050158D01*
X137902500Y-117102500D01*
X137902500Y-120196915D01*
X137882498Y-120265036D01*
X137828842Y-120311529D01*
X137820538Y-120314969D01*
X137814797Y-120317110D01*
X137736091Y-120376028D01*
X137669570Y-120400838D01*
X137600196Y-120385746D01*
X137585074Y-120376027D01*
X137506965Y-120317556D01*
X137506964Y-120317555D01*
X137370093Y-120266505D01*
X137309597Y-120260000D01*
X136765000Y-120260000D01*
X136765000Y-123276000D01*
X137309585Y-123276000D01*
X137309597Y-123275999D01*
X137370093Y-123269494D01*
X137506964Y-123218444D01*
X137506966Y-123218443D01*
X137585072Y-123159973D01*
X137651592Y-123135161D01*
X137720966Y-123150252D01*
X137736091Y-123159972D01*
X137814792Y-123218887D01*
X137814794Y-123218888D01*
X137814796Y-123218889D01*
X137834320Y-123226171D01*
X137951795Y-123269988D01*
X137951803Y-123269990D01*
X138012350Y-123276499D01*
X138012355Y-123276499D01*
X138012362Y-123276500D01*
X138012368Y-123276500D01*
X139609632Y-123276500D01*
X139609638Y-123276500D01*
X139609645Y-123276499D01*
X139609649Y-123276499D01*
X139670196Y-123269990D01*
X139670199Y-123269989D01*
X139670201Y-123269989D01*
X139807204Y-123218889D01*
X139885491Y-123160283D01*
X139952011Y-123135473D01*
X140021385Y-123150564D01*
X140036503Y-123160279D01*
X140114200Y-123218443D01*
X140114796Y-123218889D01*
X140251795Y-123269988D01*
X140251803Y-123269990D01*
X140312350Y-123276499D01*
X140312355Y-123276499D01*
X140312362Y-123276500D01*
X140312368Y-123276500D01*
X141909632Y-123276500D01*
X141909638Y-123276500D01*
X141909645Y-123276499D01*
X141909649Y-123276499D01*
X141970196Y-123269990D01*
X141970199Y-123269989D01*
X141970201Y-123269989D01*
X142107204Y-123218889D01*
X142107799Y-123218444D01*
X142224261Y-123131261D01*
X142311887Y-123014207D01*
X142311887Y-123014206D01*
X142311889Y-123014204D01*
X142362989Y-122877201D01*
X142364426Y-122863842D01*
X142369499Y-122816649D01*
X142369500Y-122816632D01*
X142369500Y-122802500D01*
X142389502Y-122734379D01*
X142443158Y-122687886D01*
X142495500Y-122676500D01*
X142635104Y-122676500D01*
X142703225Y-122696502D01*
X142749718Y-122750158D01*
X142754708Y-122762867D01*
X142773883Y-122820734D01*
X142773884Y-122820736D01*
X142773885Y-122820738D01*
X142866970Y-122971652D01*
X142945596Y-123050278D01*
X142979620Y-123112588D01*
X142982500Y-123139372D01*
X142982500Y-123235582D01*
X142980949Y-123255291D01*
X142978747Y-123269190D01*
X142979331Y-123280321D01*
X142982414Y-123339153D01*
X142982500Y-123342424D01*
X142982500Y-123364603D01*
X142982501Y-123364624D01*
X142984818Y-123386671D01*
X142985076Y-123389956D01*
X142988742Y-123459902D01*
X142992384Y-123473495D01*
X142995985Y-123492922D01*
X142997458Y-123506927D01*
X142997459Y-123506933D01*
X143007396Y-123537516D01*
X143019112Y-123573575D01*
X143020041Y-123576712D01*
X143038170Y-123644369D01*
X143044558Y-123656905D01*
X143052123Y-123675169D01*
X143056472Y-123688554D01*
X143091496Y-123749217D01*
X143093062Y-123752102D01*
X143124871Y-123814530D01*
X143133732Y-123825474D01*
X143144920Y-123841751D01*
X143151960Y-123853944D01*
X143184821Y-123890440D01*
X143198832Y-123906002D01*
X143200971Y-123908507D01*
X143214928Y-123925741D01*
X143230626Y-123941439D01*
X143232863Y-123943796D01*
X143254051Y-123967328D01*
X143279745Y-123995865D01*
X143291128Y-124004135D01*
X143306164Y-124016977D01*
X143953020Y-124663833D01*
X143965859Y-124678864D01*
X143974134Y-124690253D01*
X144026203Y-124737136D01*
X144028558Y-124739371D01*
X144044259Y-124755072D01*
X144044262Y-124755075D01*
X144061492Y-124769028D01*
X144063998Y-124771169D01*
X144116056Y-124818040D01*
X144128242Y-124825076D01*
X144144526Y-124836267D01*
X144155470Y-124845129D01*
X144217911Y-124876944D01*
X144220778Y-124878502D01*
X144281444Y-124913527D01*
X144294823Y-124917873D01*
X144313084Y-124925437D01*
X144325630Y-124931830D01*
X144325632Y-124931830D01*
X144325633Y-124931831D01*
X144393288Y-124949958D01*
X144396446Y-124950893D01*
X144463072Y-124972542D01*
X144477075Y-124974013D01*
X144496499Y-124977613D01*
X144510097Y-124981257D01*
X144580068Y-124984924D01*
X144583301Y-124985178D01*
X144598115Y-124986735D01*
X144605378Y-124987499D01*
X144605384Y-124987499D01*
X144605390Y-124987500D01*
X144627576Y-124987500D01*
X144630846Y-124987585D01*
X144692096Y-124990795D01*
X144700808Y-124991252D01*
X144700808Y-124991251D01*
X144700810Y-124991252D01*
X144714707Y-124989050D01*
X144734417Y-124987500D01*
X145870327Y-124987500D01*
X145938448Y-125007502D01*
X145984941Y-125061158D01*
X145995045Y-125131432D01*
X145975810Y-125182415D01*
X145857456Y-125363569D01*
X145763726Y-125577252D01*
X145763724Y-125577256D01*
X145706444Y-125803450D01*
X145687174Y-126036000D01*
X145706444Y-126268549D01*
X145763724Y-126494743D01*
X145763726Y-126494747D01*
X145857454Y-126708425D01*
X145857461Y-126708439D01*
X145940795Y-126835991D01*
X145940796Y-126835992D01*
X146535569Y-126241219D01*
X146575901Y-126338588D01*
X146672075Y-126463925D01*
X146797412Y-126560099D01*
X146894779Y-126600429D01*
X146298680Y-127196528D01*
X146298681Y-127196529D01*
X146327249Y-127218765D01*
X146327258Y-127218771D01*
X146532474Y-127329827D01*
X146532477Y-127329829D01*
X146753167Y-127405592D01*
X146753176Y-127405594D01*
X146983334Y-127444000D01*
X147216666Y-127444000D01*
X147446823Y-127405594D01*
X147446832Y-127405592D01*
X147667522Y-127329829D01*
X147667525Y-127329827D01*
X147872738Y-127218772D01*
X147901317Y-127196528D01*
X147305219Y-126600430D01*
X147402588Y-126560099D01*
X147527925Y-126463925D01*
X147624099Y-126338589D01*
X147664430Y-126241219D01*
X148259202Y-126835991D01*
X148342544Y-126708427D01*
X148436273Y-126494748D01*
X148461785Y-126394003D01*
X148497898Y-126332876D01*
X148561325Y-126300977D01*
X148631929Y-126308433D01*
X148673025Y-126335838D01*
X148958020Y-126620833D01*
X148970859Y-126635864D01*
X148979134Y-126647253D01*
X149031203Y-126694136D01*
X149033558Y-126696371D01*
X149045612Y-126708425D01*
X149049262Y-126712075D01*
X149066492Y-126726028D01*
X149068998Y-126728169D01*
X149113575Y-126768304D01*
X149121056Y-126775040D01*
X149133242Y-126782076D01*
X149149526Y-126793267D01*
X149160470Y-126802129D01*
X149222911Y-126833944D01*
X149225778Y-126835502D01*
X149286444Y-126870527D01*
X149299823Y-126874873D01*
X149318084Y-126882437D01*
X149330630Y-126888830D01*
X149330632Y-126888830D01*
X149330633Y-126888831D01*
X149374837Y-126900674D01*
X149387557Y-126904083D01*
X149398288Y-126906958D01*
X149401446Y-126907893D01*
X149468072Y-126929542D01*
X149482075Y-126931013D01*
X149501499Y-126934613D01*
X149515097Y-126938257D01*
X149585068Y-126941924D01*
X149588301Y-126942178D01*
X149603115Y-126943735D01*
X149610378Y-126944499D01*
X149610384Y-126944499D01*
X149610390Y-126944500D01*
X149632576Y-126944500D01*
X149635846Y-126944585D01*
X149697096Y-126947795D01*
X149705808Y-126948252D01*
X149705808Y-126948251D01*
X149705810Y-126948252D01*
X149719706Y-126946050D01*
X149739417Y-126944500D01*
X149926624Y-126944500D01*
X149994745Y-126964502D01*
X150019325Y-126985163D01*
X150102774Y-127075813D01*
X150102778Y-127075817D01*
X150168650Y-127127087D01*
X150286983Y-127219190D01*
X150492273Y-127330287D01*
X150713049Y-127406080D01*
X150943288Y-127444500D01*
X150943292Y-127444500D01*
X151176708Y-127444500D01*
X151176712Y-127444500D01*
X151406951Y-127406080D01*
X151419165Y-127401886D01*
X151427269Y-127399105D01*
X151498194Y-127395903D01*
X151557277Y-127429181D01*
X152208167Y-128080072D01*
X152786755Y-128658660D01*
X152796723Y-128671102D01*
X152796951Y-128670914D01*
X152801998Y-128677015D01*
X152802000Y-128677018D01*
X152802002Y-128677020D01*
X152802003Y-128677021D01*
X152853079Y-128724983D01*
X152874224Y-128746130D01*
X152874228Y-128746133D01*
X152874230Y-128746135D01*
X152879782Y-128750442D01*
X152884269Y-128754273D01*
X152906959Y-128775581D01*
X152918677Y-128786585D01*
X152918679Y-128786586D01*
X152936428Y-128796343D01*
X152952954Y-128807199D01*
X152960727Y-128813229D01*
X152968959Y-128819614D01*
X153005602Y-128835470D01*
X153012262Y-128838352D01*
X153017583Y-128840958D01*
X153058940Y-128863695D01*
X153058948Y-128863697D01*
X153078558Y-128868732D01*
X153097267Y-128875137D01*
X153115855Y-128883181D01*
X153162477Y-128890564D01*
X153168262Y-128891763D01*
X153213970Y-128903500D01*
X153234224Y-128903500D01*
X153253934Y-128905051D01*
X153256141Y-128905400D01*
X153273943Y-128908220D01*
X153307870Y-128905012D01*
X153320917Y-128903780D01*
X153326850Y-128903500D01*
X153824025Y-128903500D01*
X153892146Y-128923502D01*
X153938639Y-128977158D01*
X153948743Y-129047432D01*
X153919249Y-129112012D01*
X153916727Y-129114836D01*
X153904685Y-129127916D01*
X153777015Y-129323331D01*
X153683252Y-129537089D01*
X153683249Y-129537096D01*
X153625950Y-129763366D01*
X153606673Y-129996000D01*
X153625950Y-130228633D01*
X153683249Y-130454903D01*
X153683252Y-130454910D01*
X153777015Y-130668668D01*
X153904685Y-130864083D01*
X154062774Y-131035813D01*
X154062778Y-131035817D01*
X154128650Y-131087087D01*
X154246983Y-131179190D01*
X154452273Y-131290287D01*
X154673049Y-131366080D01*
X154903288Y-131404500D01*
X154903292Y-131404500D01*
X155136708Y-131404500D01*
X155136712Y-131404500D01*
X155366951Y-131366080D01*
X155587727Y-131290287D01*
X155793017Y-131179190D01*
X155977220Y-131035818D01*
X156135314Y-130864083D01*
X156262984Y-130668669D01*
X156356749Y-130454907D01*
X156414051Y-130228626D01*
X156433327Y-129996000D01*
X156414051Y-129763374D01*
X156398820Y-129703227D01*
X156356750Y-129537096D01*
X156356747Y-129537089D01*
X156354400Y-129531739D01*
X156262984Y-129323331D01*
X156135314Y-129127916D01*
X156123273Y-129114836D01*
X156091853Y-129051171D01*
X156099841Y-128980625D01*
X156144700Y-128925597D01*
X156212189Y-128903557D01*
X156215975Y-128903500D01*
X157784025Y-128903500D01*
X157852146Y-128923502D01*
X157898639Y-128977158D01*
X157908743Y-129047432D01*
X157879249Y-129112012D01*
X157876727Y-129114836D01*
X157864685Y-129127916D01*
X157737015Y-129323331D01*
X157643252Y-129537089D01*
X157643249Y-129537096D01*
X157585950Y-129763366D01*
X157566673Y-129996000D01*
X157585950Y-130228633D01*
X157643249Y-130454903D01*
X157643252Y-130454910D01*
X157737015Y-130668668D01*
X157864685Y-130864083D01*
X158022774Y-131035813D01*
X158022778Y-131035817D01*
X158088650Y-131087087D01*
X158206983Y-131179190D01*
X158412273Y-131290287D01*
X158633049Y-131366080D01*
X158863288Y-131404500D01*
X158863292Y-131404500D01*
X159096708Y-131404500D01*
X159096712Y-131404500D01*
X159326951Y-131366080D01*
X159547727Y-131290287D01*
X159753017Y-131179190D01*
X159937220Y-131035818D01*
X160095314Y-130864083D01*
X160222984Y-130668669D01*
X160316749Y-130454907D01*
X160374051Y-130228626D01*
X160393327Y-129996000D01*
X160374051Y-129763374D01*
X160358820Y-129703227D01*
X160316750Y-129537096D01*
X160316747Y-129537089D01*
X160314400Y-129531739D01*
X160222984Y-129323331D01*
X160095314Y-129127916D01*
X160083273Y-129114836D01*
X160051853Y-129051171D01*
X160059841Y-128980625D01*
X160104700Y-128925597D01*
X160172189Y-128903557D01*
X160175975Y-128903500D01*
X161744025Y-128903500D01*
X161812146Y-128923502D01*
X161858639Y-128977158D01*
X161868743Y-129047432D01*
X161839249Y-129112012D01*
X161836727Y-129114836D01*
X161824685Y-129127916D01*
X161697015Y-129323331D01*
X161603252Y-129537089D01*
X161603249Y-129537096D01*
X161545950Y-129763366D01*
X161526673Y-129996000D01*
X161545950Y-130228633D01*
X161603249Y-130454903D01*
X161603252Y-130454910D01*
X161697015Y-130668668D01*
X161824685Y-130864083D01*
X161982774Y-131035813D01*
X161982778Y-131035817D01*
X162048650Y-131087087D01*
X162166983Y-131179190D01*
X162372273Y-131290287D01*
X162593049Y-131366080D01*
X162823288Y-131404500D01*
X162823292Y-131404500D01*
X163056708Y-131404500D01*
X163056712Y-131404500D01*
X163286951Y-131366080D01*
X163507727Y-131290287D01*
X163713017Y-131179190D01*
X163897220Y-131035818D01*
X164055314Y-130864083D01*
X164182984Y-130668669D01*
X164276749Y-130454907D01*
X164334051Y-130228626D01*
X164353327Y-129996000D01*
X164334051Y-129763374D01*
X164318820Y-129703227D01*
X164276750Y-129537096D01*
X164276747Y-129537089D01*
X164274400Y-129531739D01*
X164182984Y-129323331D01*
X164055314Y-129127916D01*
X164043273Y-129114836D01*
X164011853Y-129051171D01*
X164019841Y-128980625D01*
X164064700Y-128925597D01*
X164132189Y-128903557D01*
X164135975Y-128903500D01*
X165704025Y-128903500D01*
X165772146Y-128923502D01*
X165818639Y-128977158D01*
X165828743Y-129047432D01*
X165799249Y-129112012D01*
X165796727Y-129114836D01*
X165784685Y-129127916D01*
X165657015Y-129323331D01*
X165563252Y-129537089D01*
X165563249Y-129537096D01*
X165505950Y-129763366D01*
X165486673Y-129996000D01*
X165505950Y-130228633D01*
X165563249Y-130454903D01*
X165563252Y-130454910D01*
X165657015Y-130668668D01*
X165784685Y-130864083D01*
X165942774Y-131035813D01*
X165942778Y-131035817D01*
X166008650Y-131087087D01*
X166126983Y-131179190D01*
X166332273Y-131290287D01*
X166553049Y-131366080D01*
X166783288Y-131404500D01*
X166783292Y-131404500D01*
X167016708Y-131404500D01*
X167016712Y-131404500D01*
X167246951Y-131366080D01*
X167467727Y-131290287D01*
X167673017Y-131179190D01*
X167857220Y-131035818D01*
X168015314Y-130864083D01*
X168142984Y-130668669D01*
X168236749Y-130454907D01*
X168294051Y-130228626D01*
X168313327Y-129996000D01*
X168294051Y-129763374D01*
X168278820Y-129703227D01*
X168236750Y-129537096D01*
X168236747Y-129537089D01*
X168234400Y-129531739D01*
X168142984Y-129323331D01*
X168015314Y-129127916D01*
X168003273Y-129114836D01*
X167971853Y-129051171D01*
X167979841Y-128980625D01*
X168024700Y-128925597D01*
X168092189Y-128903557D01*
X168095975Y-128903500D01*
X171376800Y-128903500D01*
X171444921Y-128923502D01*
X171470437Y-128945190D01*
X171473747Y-128948866D01*
X171628248Y-129061118D01*
X171802712Y-129138794D01*
X171989513Y-129178500D01*
X172180487Y-129178500D01*
X172367288Y-129138794D01*
X172541752Y-129061118D01*
X172696253Y-128948866D01*
X172699563Y-128945190D01*
X172824034Y-128806951D01*
X172824035Y-128806949D01*
X172824040Y-128806944D01*
X172919527Y-128641556D01*
X172978542Y-128459928D01*
X172998504Y-128270000D01*
X172979395Y-128088187D01*
X172992167Y-128018349D01*
X173025047Y-127979670D01*
X173024325Y-127978901D01*
X173030097Y-127973478D01*
X173030107Y-127973472D01*
X173060193Y-127937103D01*
X173064161Y-127932741D01*
X174045946Y-126950956D01*
X174108256Y-126916932D01*
X174179071Y-126921997D01*
X174235907Y-126964544D01*
X174260718Y-127031064D01*
X174245627Y-127100438D01*
X174200632Y-127182839D01*
X174100631Y-127450953D01*
X174039803Y-127730575D01*
X174019390Y-128016000D01*
X174039803Y-128301424D01*
X174100631Y-128581046D01*
X174200632Y-128849160D01*
X174200637Y-128849170D01*
X174337768Y-129100307D01*
X174337772Y-129100312D01*
X174337774Y-129100315D01*
X174504906Y-129323578D01*
X174509262Y-129329396D01*
X174509270Y-129329405D01*
X174711594Y-129531729D01*
X174711603Y-129531737D01*
X174711605Y-129531739D01*
X174940685Y-129703226D01*
X174940687Y-129703227D01*
X174940692Y-129703231D01*
X175191829Y-129840362D01*
X175191839Y-129840367D01*
X175459954Y-129940369D01*
X175739572Y-130001196D01*
X175953552Y-130016500D01*
X175953558Y-130016500D01*
X176096442Y-130016500D01*
X176096448Y-130016500D01*
X176310428Y-130001196D01*
X176590046Y-129940369D01*
X176858161Y-129840367D01*
X176888144Y-129823994D01*
X177109307Y-129703231D01*
X177109309Y-129703229D01*
X177109315Y-129703226D01*
X177338395Y-129531739D01*
X177540739Y-129329395D01*
X177712226Y-129100315D01*
X177712229Y-129100309D01*
X177712231Y-129100307D01*
X177849362Y-128849170D01*
X177849367Y-128849161D01*
X177949369Y-128581046D01*
X178010196Y-128301428D01*
X178030610Y-128016000D01*
X178010196Y-127730572D01*
X177949369Y-127450954D01*
X177849367Y-127182839D01*
X177849362Y-127182829D01*
X177712231Y-126931692D01*
X177712227Y-126931687D01*
X177711721Y-126931011D01*
X177540739Y-126702605D01*
X177540737Y-126702603D01*
X177540729Y-126702594D01*
X177338405Y-126500270D01*
X177338396Y-126500262D01*
X177331237Y-126494903D01*
X177109315Y-126328774D01*
X177109313Y-126328773D01*
X177109312Y-126328772D01*
X177109307Y-126328768D01*
X176858170Y-126191637D01*
X176858160Y-126191632D01*
X176590046Y-126091631D01*
X176310424Y-126030803D01*
X176176775Y-126021245D01*
X176096448Y-126015500D01*
X175953552Y-126015500D01*
X175877954Y-126020906D01*
X175739575Y-126030803D01*
X175459953Y-126091631D01*
X175191839Y-126191632D01*
X175109439Y-126236627D01*
X175040065Y-126251718D01*
X174973545Y-126226907D01*
X174930998Y-126170071D01*
X174925934Y-126099256D01*
X174959959Y-126036944D01*
X176227875Y-124769028D01*
X179198407Y-121798496D01*
X179260717Y-121764472D01*
X179331532Y-121769537D01*
X179388368Y-121812084D01*
X179413179Y-121878604D01*
X179413500Y-121887593D01*
X179413500Y-132173500D01*
X179393498Y-132241621D01*
X179339842Y-132288114D01*
X179287500Y-132299500D01*
X134712500Y-132299500D01*
X134644379Y-132279498D01*
X134597886Y-132225842D01*
X134586500Y-132173500D01*
X134586500Y-128016000D01*
X135969390Y-128016000D01*
X135989803Y-128301424D01*
X136050631Y-128581046D01*
X136150632Y-128849160D01*
X136150637Y-128849170D01*
X136287768Y-129100307D01*
X136287772Y-129100312D01*
X136287774Y-129100315D01*
X136454906Y-129323578D01*
X136459262Y-129329396D01*
X136459270Y-129329405D01*
X136661594Y-129531729D01*
X136661603Y-129531737D01*
X136661605Y-129531739D01*
X136890685Y-129703226D01*
X136890687Y-129703227D01*
X136890692Y-129703231D01*
X137141829Y-129840362D01*
X137141839Y-129840367D01*
X137409954Y-129940369D01*
X137689572Y-130001196D01*
X137903552Y-130016500D01*
X137903558Y-130016500D01*
X138046442Y-130016500D01*
X138046448Y-130016500D01*
X138260428Y-130001196D01*
X138284314Y-129996000D01*
X145687174Y-129996000D01*
X145706444Y-130228549D01*
X145763724Y-130454743D01*
X145763726Y-130454747D01*
X145857454Y-130668425D01*
X145857461Y-130668439D01*
X145940795Y-130795991D01*
X145940796Y-130795991D01*
X146535569Y-130201218D01*
X146575901Y-130298588D01*
X146672075Y-130423925D01*
X146797412Y-130520099D01*
X146894779Y-130560429D01*
X146298680Y-131156528D01*
X146298681Y-131156529D01*
X146327249Y-131178765D01*
X146327258Y-131178771D01*
X146532474Y-131289827D01*
X146532477Y-131289829D01*
X146753167Y-131365592D01*
X146753176Y-131365594D01*
X146983334Y-131404000D01*
X147216666Y-131404000D01*
X147446823Y-131365594D01*
X147446832Y-131365592D01*
X147667522Y-131289829D01*
X147667525Y-131289827D01*
X147872738Y-131178772D01*
X147901317Y-131156528D01*
X147305219Y-130560430D01*
X147402588Y-130520099D01*
X147527925Y-130423925D01*
X147624099Y-130298589D01*
X147664430Y-130201219D01*
X148259203Y-130795991D01*
X148342544Y-130668427D01*
X148436273Y-130454747D01*
X148436275Y-130454743D01*
X148493555Y-130228549D01*
X148512825Y-129996000D01*
X149646673Y-129996000D01*
X149665950Y-130228633D01*
X149723249Y-130454903D01*
X149723252Y-130454910D01*
X149817015Y-130668668D01*
X149944685Y-130864083D01*
X150102774Y-131035813D01*
X150102778Y-131035817D01*
X150168650Y-131087087D01*
X150286983Y-131179190D01*
X150492273Y-131290287D01*
X150713049Y-131366080D01*
X150943288Y-131404500D01*
X150943292Y-131404500D01*
X151176708Y-131404500D01*
X151176712Y-131404500D01*
X151406951Y-131366080D01*
X151627727Y-131290287D01*
X151833017Y-131179190D01*
X152017220Y-131035818D01*
X152175314Y-130864083D01*
X152302984Y-130668669D01*
X152396749Y-130454907D01*
X152454051Y-130228626D01*
X152473327Y-129996000D01*
X152454051Y-129763374D01*
X152438820Y-129703227D01*
X152396750Y-129537096D01*
X152396747Y-129537089D01*
X152394400Y-129531739D01*
X152302984Y-129323331D01*
X152175314Y-129127916D01*
X152017225Y-128956186D01*
X152017221Y-128956182D01*
X151898396Y-128863697D01*
X151833017Y-128812810D01*
X151627727Y-128701713D01*
X151627724Y-128701712D01*
X151627723Y-128701711D01*
X151406955Y-128625921D01*
X151406948Y-128625919D01*
X151308411Y-128609476D01*
X151176712Y-128587500D01*
X150943288Y-128587500D01*
X150828066Y-128606727D01*
X150713051Y-128625919D01*
X150713044Y-128625921D01*
X150492276Y-128701711D01*
X150492273Y-128701713D01*
X150297823Y-128806944D01*
X150286985Y-128812809D01*
X150286983Y-128812810D01*
X150102778Y-128956182D01*
X150102774Y-128956186D01*
X149944685Y-129127916D01*
X149817015Y-129323331D01*
X149723252Y-129537089D01*
X149723249Y-129537096D01*
X149665950Y-129763366D01*
X149646673Y-129996000D01*
X148512825Y-129996000D01*
X148493555Y-129763450D01*
X148436275Y-129537256D01*
X148436273Y-129537252D01*
X148342547Y-129323578D01*
X148342540Y-129323566D01*
X148259202Y-129196007D01*
X147664429Y-129790779D01*
X147624099Y-129693412D01*
X147527925Y-129568075D01*
X147402588Y-129471901D01*
X147305219Y-129431569D01*
X147901318Y-128835470D01*
X147872743Y-128813229D01*
X147872741Y-128813228D01*
X147667525Y-128702172D01*
X147667522Y-128702170D01*
X147446832Y-128626407D01*
X147446823Y-128626405D01*
X147216666Y-128588000D01*
X146983334Y-128588000D01*
X146753176Y-128626405D01*
X146753167Y-128626407D01*
X146532477Y-128702170D01*
X146532474Y-128702172D01*
X146327259Y-128813227D01*
X146298681Y-128835470D01*
X146298680Y-128835470D01*
X146894780Y-129431570D01*
X146797412Y-129471901D01*
X146672075Y-129568075D01*
X146575901Y-129693411D01*
X146535569Y-129790779D01*
X145940796Y-129196006D01*
X145940795Y-129196007D01*
X145857461Y-129323560D01*
X145857454Y-129323574D01*
X145763726Y-129537252D01*
X145763724Y-129537256D01*
X145706444Y-129763450D01*
X145687174Y-129996000D01*
X138284314Y-129996000D01*
X138540046Y-129940369D01*
X138808161Y-129840367D01*
X138838144Y-129823994D01*
X139059307Y-129703231D01*
X139059309Y-129703229D01*
X139059315Y-129703226D01*
X139288395Y-129531739D01*
X139490739Y-129329395D01*
X139662226Y-129100315D01*
X139662229Y-129100309D01*
X139662231Y-129100307D01*
X139799362Y-128849170D01*
X139799367Y-128849161D01*
X139899369Y-128581046D01*
X139960196Y-128301428D01*
X139980610Y-128016000D01*
X139960196Y-127730572D01*
X139899369Y-127450954D01*
X139799367Y-127182839D01*
X139799362Y-127182829D01*
X139662231Y-126931692D01*
X139662227Y-126931687D01*
X139661721Y-126931011D01*
X139490739Y-126702605D01*
X139490737Y-126702603D01*
X139490729Y-126702594D01*
X139288405Y-126500270D01*
X139288396Y-126500262D01*
X139281237Y-126494903D01*
X139059315Y-126328774D01*
X139059313Y-126328773D01*
X139059312Y-126328772D01*
X139059307Y-126328768D01*
X138808170Y-126191637D01*
X138808160Y-126191632D01*
X138540046Y-126091631D01*
X138260424Y-126030803D01*
X138126775Y-126021245D01*
X138046448Y-126015500D01*
X137903552Y-126015500D01*
X137827954Y-126020906D01*
X137689575Y-126030803D01*
X137409953Y-126091631D01*
X137141839Y-126191632D01*
X137141829Y-126191637D01*
X136890692Y-126328768D01*
X136890687Y-126328772D01*
X136661603Y-126500262D01*
X136661594Y-126500270D01*
X136459270Y-126702594D01*
X136459262Y-126702603D01*
X136287772Y-126931687D01*
X136287768Y-126931692D01*
X136150637Y-127182829D01*
X136150632Y-127182839D01*
X136050631Y-127450953D01*
X135989803Y-127730575D01*
X135969390Y-128016000D01*
X134586500Y-128016000D01*
X134586500Y-122022000D01*
X135253000Y-122022000D01*
X135253000Y-122816597D01*
X135259505Y-122877093D01*
X135310555Y-123013964D01*
X135310555Y-123013965D01*
X135398095Y-123130904D01*
X135515034Y-123218444D01*
X135651906Y-123269494D01*
X135712402Y-123275999D01*
X135712415Y-123276000D01*
X136257000Y-123276000D01*
X136257000Y-122022000D01*
X135253000Y-122022000D01*
X134586500Y-122022000D01*
X134586500Y-121514000D01*
X135253000Y-121514000D01*
X136257000Y-121514000D01*
X136257000Y-120260000D01*
X135712402Y-120260000D01*
X135651906Y-120266505D01*
X135515035Y-120317555D01*
X135515034Y-120317555D01*
X135398095Y-120405095D01*
X135310555Y-120522034D01*
X135310555Y-120522035D01*
X135259505Y-120658906D01*
X135253000Y-120719402D01*
X135253000Y-121514000D01*
X134586500Y-121514000D01*
X134586500Y-111887000D01*
X137071000Y-111887000D01*
X138075000Y-111887000D01*
X138075000Y-110458000D01*
X138583000Y-110458000D01*
X138583000Y-111887000D01*
X139586999Y-111887000D01*
X139586999Y-111165492D01*
X139576394Y-111061681D01*
X139520657Y-110893474D01*
X139427633Y-110742660D01*
X139427628Y-110742654D01*
X139302345Y-110617371D01*
X139302339Y-110617366D01*
X139151525Y-110524342D01*
X138983321Y-110468606D01*
X138983318Y-110468605D01*
X138879515Y-110458000D01*
X138583000Y-110458000D01*
X138075000Y-110458000D01*
X137778492Y-110458000D01*
X137674681Y-110468605D01*
X137506474Y-110524342D01*
X137355660Y-110617366D01*
X137355654Y-110617371D01*
X137230371Y-110742654D01*
X137230366Y-110742660D01*
X137137342Y-110893474D01*
X137081606Y-111061678D01*
X137081605Y-111061681D01*
X137071000Y-111165484D01*
X137071000Y-111887000D01*
X134586500Y-111887000D01*
X134586500Y-106400000D01*
X136298000Y-106400000D01*
X136298000Y-107594597D01*
X136304505Y-107655093D01*
X136355555Y-107791964D01*
X136355555Y-107791965D01*
X136443095Y-107908904D01*
X136560034Y-107996444D01*
X136696906Y-108047494D01*
X136757402Y-108053999D01*
X136757415Y-108054000D01*
X137302000Y-108054000D01*
X137810000Y-108054000D01*
X138354585Y-108054000D01*
X138354597Y-108053999D01*
X138415094Y-108047494D01*
X138452466Y-108033555D01*
X138523281Y-108028489D01*
X138585594Y-108062513D01*
X138619620Y-108124825D01*
X138622500Y-108151610D01*
X138622500Y-108944649D01*
X138629009Y-109005196D01*
X138629011Y-109005204D01*
X138680110Y-109142202D01*
X138680112Y-109142207D01*
X138767738Y-109259261D01*
X138884792Y-109346887D01*
X138884794Y-109346888D01*
X138884796Y-109346889D01*
X138925034Y-109361897D01*
X139021795Y-109397988D01*
X139021803Y-109397990D01*
X139082350Y-109404499D01*
X139082355Y-109404499D01*
X139082362Y-109404500D01*
X139082368Y-109404500D01*
X140179632Y-109404500D01*
X140179638Y-109404500D01*
X140179645Y-109404499D01*
X140179649Y-109404499D01*
X140240196Y-109397990D01*
X140240199Y-109397989D01*
X140240201Y-109397989D01*
X140377204Y-109346889D01*
X140377799Y-109346444D01*
X140494261Y-109259261D01*
X140581887Y-109142207D01*
X140581887Y-109142206D01*
X140581889Y-109142204D01*
X140632989Y-109005201D01*
X140637531Y-108962960D01*
X140639499Y-108944649D01*
X140639500Y-108944632D01*
X140639500Y-107958595D01*
X140659502Y-107890474D01*
X140676405Y-107869499D01*
X140793501Y-107752404D01*
X140855813Y-107718379D01*
X140882596Y-107715500D01*
X140938486Y-107715500D01*
X140938487Y-107715500D01*
X140970303Y-107708737D01*
X141041093Y-107714138D01*
X141097726Y-107756954D01*
X141122220Y-107823591D01*
X141122500Y-107831983D01*
X141122500Y-108944649D01*
X141129009Y-109005196D01*
X141129011Y-109005204D01*
X141180110Y-109142202D01*
X141180112Y-109142207D01*
X141267738Y-109259261D01*
X141384792Y-109346887D01*
X141384794Y-109346888D01*
X141384796Y-109346889D01*
X141425034Y-109361897D01*
X141521795Y-109397988D01*
X141521803Y-109397990D01*
X141582350Y-109404499D01*
X141582355Y-109404499D01*
X141582362Y-109404500D01*
X141582368Y-109404500D01*
X142679632Y-109404500D01*
X142679638Y-109404500D01*
X142679645Y-109404499D01*
X142679649Y-109404499D01*
X142740196Y-109397990D01*
X142740199Y-109397989D01*
X142740201Y-109397989D01*
X142877204Y-109346889D01*
X142877799Y-109346444D01*
X142994261Y-109259261D01*
X143081887Y-109142207D01*
X143081887Y-109142206D01*
X143081889Y-109142204D01*
X143132989Y-109005201D01*
X143137531Y-108962960D01*
X143139499Y-108944649D01*
X143622500Y-108944649D01*
X143629009Y-109005196D01*
X143629011Y-109005204D01*
X143680110Y-109142202D01*
X143680112Y-109142207D01*
X143767738Y-109259261D01*
X143884792Y-109346887D01*
X143884794Y-109346888D01*
X143884796Y-109346889D01*
X143925034Y-109361897D01*
X144021795Y-109397988D01*
X144021803Y-109397990D01*
X144082350Y-109404499D01*
X144082355Y-109404499D01*
X144082362Y-109404500D01*
X144082368Y-109404500D01*
X145179632Y-109404500D01*
X145179638Y-109404500D01*
X145179645Y-109404499D01*
X145179649Y-109404499D01*
X145240196Y-109397990D01*
X145240199Y-109397989D01*
X145240201Y-109397989D01*
X145377204Y-109346889D01*
X145377799Y-109346444D01*
X145494261Y-109259261D01*
X145581887Y-109142207D01*
X145581887Y-109142206D01*
X145581889Y-109142204D01*
X145632989Y-109005201D01*
X145637531Y-108962960D01*
X145639499Y-108944649D01*
X145639500Y-108944632D01*
X145639500Y-107892000D01*
X146123000Y-107892000D01*
X146877000Y-107892000D01*
X146877000Y-106888000D01*
X147385000Y-106888000D01*
X147385000Y-107892000D01*
X148139000Y-107892000D01*
X148139000Y-107347414D01*
X148138999Y-107347402D01*
X148132494Y-107286906D01*
X148081444Y-107150035D01*
X148081444Y-107150034D01*
X147993904Y-107033095D01*
X147876965Y-106945555D01*
X147740093Y-106894505D01*
X147679597Y-106888000D01*
X147385000Y-106888000D01*
X146877000Y-106888000D01*
X146582402Y-106888000D01*
X146521906Y-106894505D01*
X146385035Y-106945555D01*
X146385034Y-106945555D01*
X146268095Y-107033095D01*
X146180555Y-107150034D01*
X146180555Y-107150035D01*
X146129505Y-107286906D01*
X146123000Y-107347402D01*
X146123000Y-107892000D01*
X145639500Y-107892000D01*
X145639500Y-107347367D01*
X145639499Y-107347350D01*
X145632990Y-107286803D01*
X145632988Y-107286795D01*
X145598936Y-107195500D01*
X145581889Y-107149796D01*
X145581887Y-107149793D01*
X145581887Y-107149792D01*
X145561760Y-107122906D01*
X145536949Y-107056386D01*
X145542795Y-107008460D01*
X145546542Y-106996927D01*
X145546542Y-106996925D01*
X145566504Y-106807000D01*
X145546542Y-106617072D01*
X145487527Y-106435444D01*
X145392040Y-106270056D01*
X145392038Y-106270054D01*
X145392034Y-106270048D01*
X145264255Y-106128135D01*
X145109752Y-106015882D01*
X144935288Y-105938206D01*
X144748487Y-105898500D01*
X144557513Y-105898500D01*
X144370711Y-105938206D01*
X144196247Y-106015882D01*
X144041744Y-106128135D01*
X143913965Y-106270048D01*
X143913958Y-106270058D01*
X143820766Y-106431472D01*
X143818473Y-106435444D01*
X143816172Y-106442526D01*
X143759457Y-106617072D01*
X143739496Y-106807000D01*
X143758613Y-106988901D01*
X143745840Y-107058739D01*
X143734171Y-107077579D01*
X143680113Y-107149792D01*
X143680110Y-107149797D01*
X143629011Y-107286795D01*
X143629009Y-107286803D01*
X143622500Y-107347350D01*
X143622500Y-108944649D01*
X143139499Y-108944649D01*
X143139500Y-108944632D01*
X143139500Y-107347367D01*
X143139499Y-107347350D01*
X143132990Y-107286803D01*
X143132988Y-107286795D01*
X143081890Y-107149798D01*
X143081889Y-107149797D01*
X143081889Y-107149796D01*
X143036516Y-107089186D01*
X143031334Y-107082263D01*
X143006523Y-107015743D01*
X143006891Y-106993600D01*
X143026504Y-106807000D01*
X143006542Y-106617072D01*
X142947527Y-106435444D01*
X142852040Y-106270056D01*
X142852038Y-106270054D01*
X142852034Y-106270048D01*
X142724255Y-106128135D01*
X142569752Y-106015882D01*
X142395288Y-105938206D01*
X142208487Y-105898500D01*
X142017513Y-105898500D01*
X141830711Y-105938206D01*
X141656247Y-106015882D01*
X141552061Y-106091578D01*
X141485193Y-106115437D01*
X141416041Y-106099356D01*
X141403939Y-106091578D01*
X141299752Y-106015882D01*
X141124120Y-105937686D01*
X141070024Y-105891706D01*
X141049375Y-105823779D01*
X141052848Y-105793174D01*
X141099609Y-105598403D01*
X141119474Y-105346000D01*
X141099609Y-105093597D01*
X141040505Y-104847409D01*
X140943616Y-104613498D01*
X140811328Y-104397624D01*
X140646898Y-104205102D01*
X140454376Y-104040672D01*
X140238502Y-103908384D01*
X140184463Y-103886000D01*
X140004589Y-103811494D01*
X139807225Y-103764112D01*
X139758403Y-103752391D01*
X139506000Y-103732526D01*
X139253597Y-103752391D01*
X139007410Y-103811494D01*
X138773499Y-103908383D01*
X138557622Y-104040673D01*
X138557620Y-104040674D01*
X138361929Y-104207811D01*
X138297140Y-104236842D01*
X138280099Y-104238000D01*
X137810000Y-104238000D01*
X137810000Y-108054000D01*
X137302000Y-108054000D01*
X137302000Y-106400000D01*
X136298000Y-106400000D01*
X134586500Y-106400000D01*
X134586500Y-105892000D01*
X136298000Y-105892000D01*
X137302000Y-105892000D01*
X137302000Y-104238000D01*
X136757402Y-104238000D01*
X136696906Y-104244505D01*
X136560035Y-104295555D01*
X136560034Y-104295555D01*
X136443095Y-104383095D01*
X136355555Y-104500034D01*
X136355555Y-104500035D01*
X136304505Y-104636906D01*
X136298000Y-104697402D01*
X136298000Y-105892000D01*
X134586500Y-105892000D01*
X134586500Y-86680000D01*
X134606502Y-86611879D01*
X134660158Y-86565386D01*
X134712500Y-86554000D01*
X135102000Y-86554000D01*
X135102000Y-84900000D01*
X135610000Y-84900000D01*
X135610000Y-86554000D01*
X136154585Y-86554000D01*
X136154597Y-86553999D01*
X136215093Y-86547494D01*
X136351964Y-86496444D01*
X136351965Y-86496444D01*
X136468904Y-86408904D01*
X136556444Y-86291965D01*
X136556444Y-86291964D01*
X136607494Y-86155093D01*
X136613999Y-86094597D01*
X136614000Y-86094585D01*
X136614000Y-84900000D01*
X161398000Y-84900000D01*
X161398000Y-86094597D01*
X161404505Y-86155093D01*
X161455555Y-86291964D01*
X161455555Y-86291965D01*
X161543095Y-86408904D01*
X161660034Y-86496444D01*
X161796906Y-86547494D01*
X161857402Y-86553999D01*
X161857415Y-86554000D01*
X162402000Y-86554000D01*
X162402000Y-84900000D01*
X161398000Y-84900000D01*
X136614000Y-84900000D01*
X135610000Y-84900000D01*
X135102000Y-84900000D01*
X135102000Y-84518000D01*
X135122002Y-84449879D01*
X135175658Y-84403386D01*
X135228000Y-84392000D01*
X136614000Y-84392000D01*
X136614000Y-83197414D01*
X136613999Y-83197402D01*
X136607494Y-83136907D01*
X136582738Y-83070533D01*
X136577673Y-82999717D01*
X136611698Y-82937405D01*
X136674010Y-82903380D01*
X136700794Y-82900500D01*
X161311206Y-82900500D01*
X161379327Y-82920502D01*
G37*
%TD.AperFunction*%
%TA.AperFunction,Conductor*%
G36*
X145611585Y-112942502D02*
G01*
X145658078Y-112996158D01*
X145668182Y-113066432D01*
X145651917Y-113112639D01*
X145569856Y-113251394D01*
X145523437Y-113411170D01*
X145520500Y-113448494D01*
X145520500Y-113881506D01*
X145523437Y-113918829D01*
X145569855Y-114078602D01*
X145589229Y-114111361D01*
X145606688Y-114180178D01*
X145584171Y-114247509D01*
X145528826Y-114291978D01*
X145480775Y-114301500D01*
X144472200Y-114301500D01*
X144404079Y-114281498D01*
X144378563Y-114259810D01*
X144375252Y-114256133D01*
X144220752Y-114143882D01*
X144046288Y-114066206D01*
X143859487Y-114026500D01*
X143668513Y-114026500D01*
X143481711Y-114066206D01*
X143307247Y-114143882D01*
X143152744Y-114256135D01*
X143024965Y-114398048D01*
X143024958Y-114398058D01*
X142929476Y-114563438D01*
X142929473Y-114563445D01*
X142870457Y-114745072D01*
X142850496Y-114935000D01*
X142870457Y-115124927D01*
X142900526Y-115217470D01*
X142929473Y-115306556D01*
X142929476Y-115306561D01*
X143024958Y-115471941D01*
X143024965Y-115471951D01*
X143152744Y-115613864D01*
X143152747Y-115613866D01*
X143307248Y-115726118D01*
X143481712Y-115803794D01*
X143668513Y-115843500D01*
X143859490Y-115843500D01*
X143904307Y-115833973D01*
X143917842Y-115831096D01*
X143988633Y-115836497D01*
X144045266Y-115879313D01*
X144069761Y-115945950D01*
X144054341Y-116015252D01*
X144037678Y-116038652D01*
X143913961Y-116176054D01*
X143913958Y-116176058D01*
X143818476Y-116341438D01*
X143818473Y-116341445D01*
X143759457Y-116523072D01*
X143739496Y-116713000D01*
X143759457Y-116902927D01*
X143787063Y-116987886D01*
X143818473Y-117084556D01*
X143818476Y-117084561D01*
X143913958Y-117249941D01*
X143913965Y-117249951D01*
X144041744Y-117391864D01*
X144061031Y-117405877D01*
X144196248Y-117504118D01*
X144288287Y-117545096D01*
X144296815Y-117548893D01*
X144350911Y-117594873D01*
X144371560Y-117662801D01*
X144352208Y-117731109D01*
X144298997Y-117778110D01*
X144245566Y-117790000D01*
X144145000Y-117790000D01*
X144145000Y-118831500D01*
X145074000Y-118831500D01*
X145074000Y-118497483D01*
X145063394Y-118393681D01*
X145063392Y-118393669D01*
X145006709Y-118222611D01*
X145004268Y-118151656D01*
X145040576Y-118090646D01*
X145104105Y-118058951D01*
X145172704Y-118065829D01*
X145179932Y-118068690D01*
X145179940Y-118068695D01*
X145179948Y-118068697D01*
X145199558Y-118073732D01*
X145218267Y-118080137D01*
X145236855Y-118088181D01*
X145283477Y-118095564D01*
X145289262Y-118096763D01*
X145334970Y-118108500D01*
X145355224Y-118108500D01*
X145374934Y-118110051D01*
X145377141Y-118110400D01*
X145394943Y-118113220D01*
X145429007Y-118110000D01*
X145441917Y-118108780D01*
X145447850Y-118108500D01*
X145480775Y-118108500D01*
X145548896Y-118128502D01*
X145595389Y-118182158D01*
X145605493Y-118252432D01*
X145589229Y-118298639D01*
X145569855Y-118331397D01*
X145523437Y-118491170D01*
X145520500Y-118528494D01*
X145520500Y-118961506D01*
X145523437Y-118998829D01*
X145569856Y-119158605D01*
X145654543Y-119301802D01*
X145655298Y-119302775D01*
X145655652Y-119303676D01*
X145658582Y-119308631D01*
X145657782Y-119309103D01*
X145681244Y-119368861D01*
X145667342Y-119438483D01*
X145655298Y-119457225D01*
X145654543Y-119458197D01*
X145569856Y-119601394D01*
X145523437Y-119761170D01*
X145520500Y-119798494D01*
X145520500Y-120231506D01*
X145523437Y-120268829D01*
X145569856Y-120428605D01*
X145654543Y-120571802D01*
X145655298Y-120572775D01*
X145655652Y-120573676D01*
X145658582Y-120578631D01*
X145657782Y-120579103D01*
X145681244Y-120638861D01*
X145667342Y-120708483D01*
X145655298Y-120727225D01*
X145654543Y-120728197D01*
X145569856Y-120871394D01*
X145523437Y-121031170D01*
X145520500Y-121068494D01*
X145520500Y-121501506D01*
X145523437Y-121538829D01*
X145569856Y-121698605D01*
X145654544Y-121841803D01*
X145655615Y-121843184D01*
X145656117Y-121844463D01*
X145658582Y-121848631D01*
X145657909Y-121849028D01*
X145681562Y-121909270D01*
X145667662Y-121978892D01*
X145655614Y-121997639D01*
X145654946Y-121998499D01*
X145570318Y-122141598D01*
X145524007Y-122301000D01*
X147132000Y-122301000D01*
X147200121Y-122321002D01*
X147246614Y-122374658D01*
X147258000Y-122427000D01*
X147258000Y-122683000D01*
X147237998Y-122751121D01*
X147184342Y-122797614D01*
X147132000Y-122809000D01*
X145524007Y-122809000D01*
X145570319Y-122968402D01*
X145577391Y-122980360D01*
X145594851Y-123049176D01*
X145572335Y-123116508D01*
X145516991Y-123160977D01*
X145468938Y-123170500D01*
X145081503Y-123170500D01*
X145013382Y-123150498D01*
X144992408Y-123133595D01*
X144953216Y-123094403D01*
X144919190Y-123032091D01*
X144924255Y-122961276D01*
X144935067Y-122939166D01*
X145008115Y-122820738D01*
X145063887Y-122652426D01*
X145074500Y-122548545D01*
X145074499Y-121372456D01*
X145063887Y-121268574D01*
X145008115Y-121100262D01*
X144915030Y-120949348D01*
X144915029Y-120949347D01*
X144915024Y-120949341D01*
X144789658Y-120823975D01*
X144789652Y-120823970D01*
X144757293Y-120804011D01*
X144638738Y-120730885D01*
X144539532Y-120698012D01*
X144470427Y-120675113D01*
X144470420Y-120675112D01*
X144366553Y-120664500D01*
X143415455Y-120664500D01*
X143311574Y-120675112D01*
X143143261Y-120730885D01*
X142992347Y-120823970D01*
X142986590Y-120828523D01*
X142985467Y-120827102D01*
X142931410Y-120856621D01*
X142904627Y-120859500D01*
X142495500Y-120859500D01*
X142427379Y-120839498D01*
X142380886Y-120785842D01*
X142369500Y-120733500D01*
X142369500Y-120719367D01*
X142369499Y-120719350D01*
X142362990Y-120658803D01*
X142362988Y-120658795D01*
X142327316Y-120563158D01*
X142311889Y-120521796D01*
X142311888Y-120521794D01*
X142311887Y-120521792D01*
X142224261Y-120404738D01*
X142107207Y-120317112D01*
X142107202Y-120317110D01*
X141970204Y-120266011D01*
X141970196Y-120266009D01*
X141909649Y-120259500D01*
X141909638Y-120259500D01*
X140312362Y-120259500D01*
X140312350Y-120259500D01*
X140251803Y-120266009D01*
X140251795Y-120266011D01*
X140114797Y-120317110D01*
X140114793Y-120317112D01*
X140036507Y-120375716D01*
X139969987Y-120400526D01*
X139900613Y-120385434D01*
X139885490Y-120375715D01*
X139807203Y-120317110D01*
X139801462Y-120314969D01*
X139744628Y-120272419D01*
X139719821Y-120205898D01*
X139719500Y-120196915D01*
X139719500Y-119339500D01*
X142708000Y-119339500D01*
X142708000Y-119673516D01*
X142718605Y-119777318D01*
X142718606Y-119777321D01*
X142774342Y-119945525D01*
X142867365Y-120096339D01*
X142867370Y-120096345D01*
X142992654Y-120221629D01*
X142992660Y-120221634D01*
X143143474Y-120314657D01*
X143311678Y-120370393D01*
X143311681Y-120370394D01*
X143415483Y-120380999D01*
X143415483Y-120381000D01*
X143637000Y-120381000D01*
X143637000Y-119339500D01*
X144145000Y-119339500D01*
X144145000Y-120381000D01*
X144366517Y-120381000D01*
X144366516Y-120380999D01*
X144470318Y-120370394D01*
X144470321Y-120370393D01*
X144638525Y-120314657D01*
X144789339Y-120221634D01*
X144789345Y-120221629D01*
X144914629Y-120096345D01*
X144914634Y-120096339D01*
X145007657Y-119945525D01*
X145063393Y-119777321D01*
X145063394Y-119777318D01*
X145073999Y-119673516D01*
X145074000Y-119673516D01*
X145074000Y-119339500D01*
X144145000Y-119339500D01*
X143637000Y-119339500D01*
X142708000Y-119339500D01*
X139719500Y-119339500D01*
X139719500Y-118831500D01*
X142708000Y-118831500D01*
X143637000Y-118831500D01*
X143637000Y-117790000D01*
X143415483Y-117790000D01*
X143311681Y-117800605D01*
X143311678Y-117800606D01*
X143143474Y-117856342D01*
X142992660Y-117949365D01*
X142992654Y-117949370D01*
X142867370Y-118074654D01*
X142867365Y-118074660D01*
X142774342Y-118225474D01*
X142718606Y-118393678D01*
X142718605Y-118393681D01*
X142708000Y-118497483D01*
X142708000Y-118831500D01*
X139719500Y-118831500D01*
X139719500Y-117102500D01*
X139739502Y-117034379D01*
X139793158Y-116987886D01*
X139845500Y-116976500D01*
X140759632Y-116976500D01*
X140759638Y-116976500D01*
X140759645Y-116976499D01*
X140759649Y-116976499D01*
X140820196Y-116969990D01*
X140820199Y-116969989D01*
X140820201Y-116969989D01*
X140957204Y-116918889D01*
X140957325Y-116918799D01*
X141074261Y-116831261D01*
X141161887Y-116714207D01*
X141161887Y-116714206D01*
X141161889Y-116714204D01*
X141205960Y-116596045D01*
X141212988Y-116577204D01*
X141212990Y-116577196D01*
X141219499Y-116516649D01*
X141219500Y-116516632D01*
X141219500Y-114419367D01*
X141219499Y-114419350D01*
X141212990Y-114358803D01*
X141212988Y-114358795D01*
X141174697Y-114256135D01*
X141161889Y-114221796D01*
X141161888Y-114221794D01*
X141161887Y-114221792D01*
X141074261Y-114104738D01*
X141002966Y-114051368D01*
X140960419Y-113994533D01*
X140955354Y-113923717D01*
X140989379Y-113861405D01*
X141051692Y-113827380D01*
X141078475Y-113824500D01*
X142129552Y-113824500D01*
X142198798Y-113817424D01*
X142233425Y-113813887D01*
X142401738Y-113758115D01*
X142552651Y-113665030D01*
X142678030Y-113539651D01*
X142771115Y-113388738D01*
X142826887Y-113220425D01*
X142832029Y-113170094D01*
X142837500Y-113116552D01*
X142837500Y-113048500D01*
X142857502Y-112980379D01*
X142911158Y-112933886D01*
X142963500Y-112922500D01*
X145543464Y-112922500D01*
X145611585Y-112942502D01*
G37*
%TD.AperFunction*%
%TA.AperFunction,Conductor*%
G36*
X153559929Y-121690880D02*
G01*
X153570103Y-121700007D01*
X154432753Y-122562657D01*
X154442720Y-122575097D01*
X154442947Y-122574910D01*
X154447999Y-122581017D01*
X154499095Y-122628999D01*
X154520225Y-122650130D01*
X154525768Y-122654430D01*
X154530281Y-122658285D01*
X154564679Y-122690586D01*
X154564680Y-122690586D01*
X154564682Y-122690588D01*
X154582429Y-122700344D01*
X154598957Y-122711201D01*
X154599911Y-122711941D01*
X154641478Y-122769497D01*
X154645328Y-122840389D01*
X154610241Y-122902109D01*
X154547354Y-122935061D01*
X154522685Y-122937500D01*
X153564477Y-122937500D01*
X153496356Y-122917498D01*
X153449863Y-122863842D01*
X153443869Y-122822154D01*
X153433993Y-122809000D01*
X151826000Y-122809000D01*
X151757879Y-122788998D01*
X151711386Y-122735342D01*
X151700000Y-122683000D01*
X151700000Y-122427000D01*
X151720002Y-122358879D01*
X151773658Y-122312386D01*
X151826000Y-122301000D01*
X153433992Y-122301000D01*
X153387681Y-122141598D01*
X153303053Y-121998500D01*
X153302385Y-121997639D01*
X153302071Y-121996840D01*
X153299019Y-121991679D01*
X153299851Y-121991186D01*
X153276437Y-121931554D01*
X153290336Y-121861931D01*
X153302390Y-121843176D01*
X153303443Y-121841816D01*
X153303453Y-121841807D01*
X153372555Y-121724961D01*
X153424447Y-121676510D01*
X153494298Y-121663805D01*
X153559929Y-121690880D01*
G37*
%TD.AperFunction*%
%TA.AperFunction,Conductor*%
G36*
X159201621Y-119164002D02*
G01*
X159248114Y-119217658D01*
X159259500Y-119270000D01*
X159259500Y-119550146D01*
X159257751Y-119565988D01*
X159258044Y-119566016D01*
X159257298Y-119573907D01*
X159259500Y-119643957D01*
X159259500Y-119673851D01*
X159259501Y-119673872D01*
X159260378Y-119680820D01*
X159260844Y-119686732D01*
X159262326Y-119733888D01*
X159262327Y-119733893D01*
X159267977Y-119753339D01*
X159271986Y-119772697D01*
X159274525Y-119792793D01*
X159274526Y-119792799D01*
X159291893Y-119836662D01*
X159293816Y-119842279D01*
X159306982Y-119887593D01*
X159317294Y-119905031D01*
X159325988Y-119922779D01*
X159333444Y-119941609D01*
X159333450Y-119941620D01*
X159361177Y-119979783D01*
X159364437Y-119984746D01*
X159388460Y-120025365D01*
X159402779Y-120039684D01*
X159415617Y-120054714D01*
X159425156Y-120067843D01*
X159427528Y-120071107D01*
X159444370Y-120085040D01*
X159463886Y-120101185D01*
X159468267Y-120105171D01*
X159541719Y-120178623D01*
X159607753Y-120244657D01*
X159617720Y-120257097D01*
X159617947Y-120256910D01*
X159622999Y-120263017D01*
X159674095Y-120310999D01*
X159695225Y-120332130D01*
X159700768Y-120336430D01*
X159705281Y-120340285D01*
X159739679Y-120372586D01*
X159739680Y-120372586D01*
X159739682Y-120372588D01*
X159757429Y-120382344D01*
X159773959Y-120393202D01*
X159779168Y-120397243D01*
X159789959Y-120405613D01*
X159821136Y-120419104D01*
X159833251Y-120424347D01*
X159838585Y-120426959D01*
X159879940Y-120449695D01*
X159899562Y-120454733D01*
X159918263Y-120461135D01*
X159936855Y-120469181D01*
X159983470Y-120476563D01*
X159989242Y-120477758D01*
X160034970Y-120489500D01*
X160055231Y-120489500D01*
X160074939Y-120491050D01*
X160094943Y-120494219D01*
X160128459Y-120491051D01*
X160141910Y-120489780D01*
X160147842Y-120489500D01*
X160510405Y-120489500D01*
X160578526Y-120509502D01*
X160625019Y-120563158D01*
X160635123Y-120633432D01*
X160605629Y-120698012D01*
X160599505Y-120704590D01*
X160447474Y-120856621D01*
X160308499Y-120995596D01*
X160246187Y-121029621D01*
X160219404Y-121032500D01*
X159104000Y-121032500D01*
X159035879Y-121012498D01*
X158989386Y-120958842D01*
X158978000Y-120906500D01*
X158978000Y-120650000D01*
X157754500Y-120650000D01*
X157686379Y-120629998D01*
X157639886Y-120576342D01*
X157628500Y-120524000D01*
X157628500Y-120268000D01*
X157648502Y-120199879D01*
X157702158Y-120153386D01*
X157754500Y-120142000D01*
X158978000Y-120142000D01*
X158978000Y-119870483D01*
X158967394Y-119766681D01*
X158967393Y-119766678D01*
X158911657Y-119598474D01*
X158818634Y-119447660D01*
X158818629Y-119447654D01*
X158730070Y-119359095D01*
X158696044Y-119296783D01*
X158701109Y-119225968D01*
X158743656Y-119169132D01*
X158810176Y-119144321D01*
X158819165Y-119144000D01*
X159133500Y-119144000D01*
X159201621Y-119164002D01*
G37*
%TD.AperFunction*%
%TA.AperFunction,Conductor*%
G36*
X166281350Y-114914499D02*
G01*
X166281355Y-114914499D01*
X166281362Y-114914500D01*
X166281368Y-114914500D01*
X166928632Y-114914500D01*
X166928638Y-114914500D01*
X166928645Y-114914499D01*
X166928649Y-114914499D01*
X166991532Y-114907739D01*
X167018468Y-114907739D01*
X167081350Y-114914499D01*
X167081355Y-114914499D01*
X167081362Y-114914500D01*
X167081368Y-114914500D01*
X167728632Y-114914500D01*
X167728638Y-114914500D01*
X167728645Y-114914499D01*
X167728649Y-114914499D01*
X167791532Y-114907739D01*
X167818468Y-114907739D01*
X167881350Y-114914499D01*
X167881355Y-114914499D01*
X167881362Y-114914500D01*
X167881368Y-114914500D01*
X168528632Y-114914500D01*
X168528638Y-114914500D01*
X168528645Y-114914499D01*
X168528649Y-114914499D01*
X168591532Y-114907739D01*
X168618468Y-114907739D01*
X168681350Y-114914499D01*
X168681355Y-114914499D01*
X168681362Y-114914500D01*
X168681368Y-114914500D01*
X169328632Y-114914500D01*
X169328638Y-114914500D01*
X169328645Y-114914499D01*
X169328649Y-114914499D01*
X169391532Y-114907739D01*
X169418468Y-114907739D01*
X169481350Y-114914499D01*
X169481355Y-114914499D01*
X169481362Y-114914500D01*
X169820500Y-114914500D01*
X169888621Y-114934502D01*
X169935114Y-114988158D01*
X169946500Y-115040500D01*
X169946500Y-115379649D01*
X169953261Y-115442532D01*
X169953261Y-115469468D01*
X169946500Y-115532350D01*
X169946500Y-116179649D01*
X169953261Y-116242532D01*
X169953261Y-116269468D01*
X169946500Y-116332350D01*
X169946500Y-116979632D01*
X169946501Y-116979652D01*
X169953513Y-117044884D01*
X169953513Y-117071818D01*
X169947001Y-117132394D01*
X169947000Y-117132414D01*
X169947000Y-117202000D01*
X169959602Y-117202000D01*
X170027723Y-117222002D01*
X170060470Y-117252491D01*
X170091738Y-117294261D01*
X170173052Y-117355132D01*
X170215599Y-117411968D01*
X170220663Y-117482784D01*
X170186638Y-117545096D01*
X170173052Y-117556868D01*
X170091738Y-117617738D01*
X170060470Y-117659509D01*
X170003634Y-117702056D01*
X169959602Y-117710000D01*
X169947000Y-117710000D01*
X169947000Y-117779585D01*
X169947001Y-117779605D01*
X169953513Y-117840182D01*
X169953513Y-117867116D01*
X169946501Y-117932347D01*
X169946500Y-117932367D01*
X169946500Y-118579649D01*
X169953261Y-118642532D01*
X169953261Y-118669468D01*
X169946500Y-118732350D01*
X169946500Y-119089406D01*
X169926498Y-119157527D01*
X169872842Y-119204020D01*
X169802568Y-119214124D01*
X169737988Y-119184630D01*
X169731405Y-119178501D01*
X169290247Y-118737343D01*
X169280280Y-118724902D01*
X169280053Y-118725091D01*
X169274999Y-118718981D01*
X169223920Y-118671015D01*
X169202777Y-118649871D01*
X169202772Y-118649866D01*
X169197225Y-118645563D01*
X169192717Y-118641712D01*
X169158325Y-118609417D01*
X169158319Y-118609413D01*
X169140563Y-118599651D01*
X169124047Y-118588802D01*
X169108041Y-118576386D01*
X169077289Y-118563078D01*
X169064740Y-118557648D01*
X169059408Y-118555036D01*
X169018061Y-118532305D01*
X168998436Y-118527266D01*
X168979736Y-118520864D01*
X168961145Y-118512819D01*
X168961143Y-118512818D01*
X168961142Y-118512818D01*
X168914542Y-118505437D01*
X168908729Y-118504233D01*
X168863030Y-118492500D01*
X168842776Y-118492500D01*
X168823066Y-118490949D01*
X168803057Y-118487780D01*
X168803056Y-118487780D01*
X168756083Y-118492220D01*
X168750150Y-118492500D01*
X168221200Y-118492500D01*
X168153079Y-118472498D01*
X168127563Y-118450810D01*
X168124252Y-118447133D01*
X167969752Y-118334882D01*
X167795288Y-118257206D01*
X167608487Y-118217500D01*
X167417513Y-118217500D01*
X167417510Y-118217500D01*
X167409695Y-118219161D01*
X167338904Y-118213758D01*
X167282272Y-118170940D01*
X167257780Y-118104302D01*
X167257500Y-118095914D01*
X167257500Y-117415524D01*
X167277502Y-117347403D01*
X167289858Y-117331220D01*
X167363040Y-117249944D01*
X167458527Y-117084556D01*
X167517542Y-116902928D01*
X167537504Y-116713000D01*
X167517542Y-116523072D01*
X167458527Y-116341444D01*
X167363040Y-116176056D01*
X167363038Y-116176054D01*
X167363034Y-116176048D01*
X167235255Y-116034135D01*
X167080752Y-115921882D01*
X166906288Y-115844206D01*
X166719487Y-115804500D01*
X166528513Y-115804500D01*
X166341711Y-115844206D01*
X166167248Y-115921882D01*
X166080135Y-115985173D01*
X166013268Y-116009031D01*
X165944116Y-115992950D01*
X165894636Y-115942035D01*
X165880766Y-115896409D01*
X165866542Y-115761072D01*
X165807527Y-115579444D01*
X165712040Y-115414056D01*
X165712038Y-115414054D01*
X165712034Y-115414048D01*
X165584255Y-115272135D01*
X165519050Y-115224761D01*
X165429752Y-115159882D01*
X165419127Y-115155151D01*
X165365032Y-115109173D01*
X165344382Y-115041246D01*
X165363734Y-114972937D01*
X165416944Y-114925935D01*
X165477911Y-114915762D01*
X165477989Y-114914319D01*
X165481356Y-114914499D01*
X165481362Y-114914500D01*
X165481368Y-114914500D01*
X166128632Y-114914500D01*
X166128638Y-114914500D01*
X166128645Y-114914499D01*
X166128649Y-114914499D01*
X166191532Y-114907739D01*
X166218468Y-114907739D01*
X166281350Y-114914499D01*
G37*
%TD.AperFunction*%
%TA.AperFunction,Conductor*%
G36*
X160735012Y-117435371D02*
G01*
X160741591Y-117441495D01*
X160959604Y-117659509D01*
X161172283Y-117872188D01*
X161187399Y-117890460D01*
X161192026Y-117897269D01*
X161193295Y-117898708D01*
X161193933Y-117900075D01*
X161196484Y-117903828D01*
X161195878Y-117904239D01*
X161223339Y-117963034D01*
X161213837Y-118033392D01*
X161167806Y-118087444D01*
X161124977Y-118105279D01*
X161007716Y-118130204D01*
X160833248Y-118207882D01*
X160726560Y-118285395D01*
X160659693Y-118309253D01*
X160590541Y-118293172D01*
X160541061Y-118242258D01*
X160526500Y-118183458D01*
X160526500Y-117530595D01*
X160546502Y-117462474D01*
X160600158Y-117415981D01*
X160670432Y-117405877D01*
X160735012Y-117435371D01*
G37*
%TD.AperFunction*%
%TA.AperFunction,Conductor*%
G36*
X177220512Y-107885870D02*
G01*
X177227095Y-107891999D01*
X178050595Y-108715499D01*
X178084621Y-108777811D01*
X178087500Y-108804594D01*
X178087500Y-112746098D01*
X178067498Y-112814219D01*
X178013842Y-112860712D01*
X177943568Y-112870816D01*
X177920590Y-112865272D01*
X177898047Y-112857533D01*
X177880635Y-112851556D01*
X177880631Y-112851555D01*
X177880630Y-112851555D01*
X177836476Y-112844187D01*
X177658569Y-112814500D01*
X177433431Y-112814500D01*
X177285211Y-112839233D01*
X177211369Y-112851555D01*
X177211360Y-112851557D01*
X176998428Y-112924656D01*
X176998426Y-112924658D01*
X176803771Y-113030000D01*
X176800426Y-113031810D01*
X176800424Y-113031811D01*
X176622759Y-113170094D01*
X176509483Y-113293143D01*
X176448630Y-113329714D01*
X176377666Y-113327579D01*
X176319121Y-113287417D01*
X176302144Y-113256481D01*
X176301217Y-113256914D01*
X176298116Y-113250266D01*
X176298115Y-113250262D01*
X176205030Y-113099348D01*
X176205029Y-113099347D01*
X176205024Y-113099341D01*
X176079658Y-112973975D01*
X176079652Y-112973970D01*
X176076654Y-112972121D01*
X175928738Y-112880885D01*
X175838613Y-112851021D01*
X175760427Y-112825113D01*
X175760420Y-112825112D01*
X175656553Y-112814500D01*
X174355455Y-112814500D01*
X174251574Y-112825112D01*
X174083261Y-112880885D01*
X173932347Y-112973970D01*
X173932341Y-112973975D01*
X173806975Y-113099341D01*
X173806970Y-113099347D01*
X173713885Y-113250262D01*
X173658113Y-113418572D01*
X173658112Y-113418579D01*
X173647500Y-113522446D01*
X173647500Y-114823544D01*
X173658113Y-114927427D01*
X173658113Y-114927431D01*
X173716193Y-115102703D01*
X173713212Y-115103690D01*
X173721755Y-115159949D01*
X173692773Y-115224761D01*
X173685995Y-115232098D01*
X173441595Y-115476498D01*
X173379283Y-115510524D01*
X173308468Y-115505459D01*
X173251632Y-115462912D01*
X173226821Y-115396392D01*
X173226500Y-115387403D01*
X173226500Y-109894094D01*
X173246502Y-109825973D01*
X173263405Y-109804999D01*
X173467000Y-109601404D01*
X173529312Y-109567378D01*
X173556095Y-109564499D01*
X174229544Y-109564499D01*
X174333426Y-109553887D01*
X174501738Y-109498115D01*
X174652652Y-109405030D01*
X174778030Y-109279652D01*
X174778037Y-109279639D01*
X174780478Y-109276554D01*
X174782709Y-109274973D01*
X174783220Y-109274463D01*
X174783307Y-109274550D01*
X174838416Y-109235521D01*
X174909340Y-109232324D01*
X174970734Y-109267980D01*
X174978161Y-109276551D01*
X174980369Y-109279344D01*
X175105654Y-109404629D01*
X175105660Y-109404634D01*
X175256474Y-109497657D01*
X175424678Y-109553393D01*
X175424681Y-109553394D01*
X175528483Y-109563999D01*
X175528483Y-109564000D01*
X175662500Y-109564000D01*
X175662500Y-108585000D01*
X176170500Y-108585000D01*
X176170500Y-109564000D01*
X176304517Y-109564000D01*
X176304516Y-109563999D01*
X176408318Y-109553394D01*
X176408321Y-109553393D01*
X176576525Y-109497657D01*
X176727339Y-109404634D01*
X176727345Y-109404629D01*
X176852629Y-109279345D01*
X176852634Y-109279339D01*
X176945657Y-109128525D01*
X177001393Y-108960321D01*
X177001394Y-108960318D01*
X177011999Y-108856516D01*
X177012000Y-108856516D01*
X177012000Y-108585000D01*
X176170500Y-108585000D01*
X175662500Y-108585000D01*
X175662500Y-108203000D01*
X175682502Y-108134879D01*
X175736158Y-108088386D01*
X175788500Y-108077000D01*
X177012000Y-108077000D01*
X177012000Y-107981094D01*
X177032002Y-107912973D01*
X177085658Y-107866480D01*
X177155932Y-107856376D01*
X177220512Y-107885870D01*
G37*
%TD.AperFunction*%
%TA.AperFunction,Conductor*%
G36*
X163159734Y-112061980D02*
G01*
X163167161Y-112070551D01*
X163169369Y-112073344D01*
X163294654Y-112198629D01*
X163294660Y-112198634D01*
X163445475Y-112291657D01*
X163467160Y-112298843D01*
X163525532Y-112339257D01*
X163552788Y-112404813D01*
X163540275Y-112474698D01*
X163528397Y-112493956D01*
X163479112Y-112559793D01*
X163479110Y-112559797D01*
X163428011Y-112696795D01*
X163428009Y-112696803D01*
X163421500Y-112757350D01*
X163421500Y-114146500D01*
X163401498Y-114214621D01*
X163347842Y-114261114D01*
X163295500Y-114272500D01*
X161906350Y-114272500D01*
X161845803Y-114279009D01*
X161845795Y-114279011D01*
X161708797Y-114330110D01*
X161708792Y-114330112D01*
X161591740Y-114417737D01*
X161515368Y-114519758D01*
X161458532Y-114562304D01*
X161387716Y-114567368D01*
X161325404Y-114533343D01*
X161291379Y-114471031D01*
X161288500Y-114444248D01*
X161288500Y-112815094D01*
X161308502Y-112746973D01*
X161325405Y-112725999D01*
X161656000Y-112395404D01*
X161718312Y-112361378D01*
X161745095Y-112358499D01*
X162418544Y-112358499D01*
X162522426Y-112347887D01*
X162690738Y-112292115D01*
X162841652Y-112199030D01*
X162967030Y-112073652D01*
X162967037Y-112073639D01*
X162969478Y-112070554D01*
X162971709Y-112068973D01*
X162972220Y-112068463D01*
X162972307Y-112068550D01*
X163027416Y-112029521D01*
X163098340Y-112026324D01*
X163159734Y-112061980D01*
G37*
%TD.AperFunction*%
%TA.AperFunction,Conductor*%
G36*
X176338012Y-92238854D02*
G01*
X176362741Y-92267932D01*
X176369968Y-92279649D01*
X176369975Y-92279658D01*
X176457222Y-92366905D01*
X176491248Y-92429217D01*
X176486183Y-92500032D01*
X176457222Y-92545095D01*
X176369975Y-92632341D01*
X176369968Y-92632349D01*
X176314534Y-92722222D01*
X176266038Y-92765840D01*
X176267680Y-92810018D01*
X176265154Y-92818664D01*
X176221113Y-92951572D01*
X176221112Y-92951579D01*
X176210500Y-93055446D01*
X176210500Y-93856544D01*
X176221112Y-93960425D01*
X176262986Y-94086793D01*
X176276885Y-94128738D01*
X176362330Y-94267266D01*
X176370631Y-94280723D01*
X176389368Y-94349202D01*
X176368109Y-94416941D01*
X176313602Y-94462433D01*
X176307424Y-94464925D01*
X176282795Y-94474111D01*
X176282792Y-94474112D01*
X176224092Y-94518056D01*
X176157572Y-94542867D01*
X176088198Y-94527776D01*
X176073073Y-94518056D01*
X176014963Y-94474554D01*
X175878093Y-94423505D01*
X175817597Y-94417000D01*
X175133000Y-94417000D01*
X175133000Y-96953000D01*
X175817585Y-96953000D01*
X175817597Y-96952999D01*
X175878093Y-96946494D01*
X176014964Y-96895444D01*
X176014966Y-96895443D01*
X176073072Y-96851945D01*
X176139592Y-96827133D01*
X176208966Y-96842224D01*
X176224091Y-96851944D01*
X176282200Y-96895443D01*
X176282796Y-96895889D01*
X176341875Y-96917924D01*
X176419795Y-96946988D01*
X176419803Y-96946990D01*
X176480350Y-96953499D01*
X176480355Y-96953499D01*
X176480362Y-96953500D01*
X176480368Y-96953500D01*
X178357632Y-96953500D01*
X178357638Y-96953500D01*
X178398031Y-96949157D01*
X178467899Y-96961762D01*
X178519861Y-97010140D01*
X178537500Y-97074435D01*
X178537500Y-103585564D01*
X178517498Y-103653685D01*
X178463842Y-103700178D01*
X178398033Y-103710842D01*
X178357652Y-103706501D01*
X178357643Y-103706500D01*
X178357638Y-103706500D01*
X176480362Y-103706500D01*
X176480350Y-103706500D01*
X176419803Y-103713009D01*
X176419795Y-103713011D01*
X176282797Y-103764110D01*
X176224509Y-103807744D01*
X176157988Y-103832554D01*
X176088614Y-103817462D01*
X176073491Y-103807744D01*
X176055900Y-103794575D01*
X176015204Y-103764111D01*
X176015202Y-103764110D01*
X175878204Y-103713011D01*
X175878196Y-103713009D01*
X175817649Y-103706500D01*
X175817638Y-103706500D01*
X173940362Y-103706500D01*
X173940350Y-103706500D01*
X173879803Y-103713009D01*
X173879795Y-103713011D01*
X173742797Y-103764110D01*
X173742792Y-103764112D01*
X173684092Y-103808056D01*
X173617572Y-103832867D01*
X173548198Y-103817776D01*
X173533073Y-103808056D01*
X173474963Y-103764554D01*
X173338093Y-103713505D01*
X173277597Y-103707000D01*
X172593000Y-103707000D01*
X172593000Y-106243001D01*
X172624062Y-106274063D01*
X172658088Y-106336375D01*
X172653023Y-106407190D01*
X172610476Y-106464026D01*
X172599102Y-106471614D01*
X172575965Y-106485296D01*
X172558218Y-106493990D01*
X172539382Y-106501448D01*
X172501209Y-106529181D01*
X172496248Y-106532440D01*
X172455638Y-106556458D01*
X172441311Y-106570784D01*
X172426285Y-106583617D01*
X172409895Y-106595525D01*
X172409893Y-106595527D01*
X172379808Y-106631892D01*
X172375812Y-106636283D01*
X171569340Y-107442754D01*
X171556903Y-107452719D01*
X171557091Y-107452946D01*
X171550982Y-107457999D01*
X171503015Y-107509079D01*
X171481866Y-107530227D01*
X171477560Y-107535777D01*
X171473714Y-107540279D01*
X171441417Y-107574674D01*
X171441411Y-107574683D01*
X171431651Y-107592435D01*
X171420803Y-107608950D01*
X171408386Y-107624958D01*
X171389645Y-107668264D01*
X171387034Y-107673594D01*
X171364305Y-107714939D01*
X171364303Y-107714944D01*
X171359267Y-107734559D01*
X171352864Y-107753262D01*
X171344819Y-107771852D01*
X171337437Y-107818456D01*
X171336233Y-107824268D01*
X171324500Y-107869968D01*
X171324500Y-107890223D01*
X171322949Y-107909933D01*
X171319780Y-107929942D01*
X171319780Y-107929943D01*
X171324220Y-107976917D01*
X171324500Y-107982850D01*
X171324500Y-109286405D01*
X171304498Y-109354526D01*
X171287595Y-109375500D01*
X169986500Y-110676595D01*
X169924188Y-110710621D01*
X169897405Y-110713500D01*
X167860640Y-110713500D01*
X167792519Y-110693498D01*
X167753399Y-110653647D01*
X167750604Y-110649116D01*
X167673030Y-110523348D01*
X167673029Y-110523347D01*
X167673024Y-110523341D01*
X167585778Y-110436095D01*
X167551752Y-110373783D01*
X167556817Y-110302968D01*
X167585778Y-110257905D01*
X167673024Y-110170658D01*
X167673030Y-110170652D01*
X167766115Y-110019738D01*
X167821887Y-109851426D01*
X167832500Y-109747545D01*
X167832499Y-108946456D01*
X167832314Y-108944649D01*
X167821887Y-108842574D01*
X167813890Y-108818440D01*
X167766115Y-108674262D01*
X167673030Y-108523348D01*
X167673029Y-108523347D01*
X167673024Y-108523341D01*
X167547658Y-108397975D01*
X167547652Y-108397970D01*
X167546276Y-108397121D01*
X167456121Y-108341513D01*
X167408645Y-108288729D01*
X167397242Y-108218654D01*
X167425534Y-108153539D01*
X167484540Y-108114056D01*
X167509466Y-108108926D01*
X167529426Y-108106887D01*
X167697738Y-108051115D01*
X167848652Y-107958030D01*
X167974030Y-107832652D01*
X168067115Y-107681738D01*
X168122887Y-107513426D01*
X168133500Y-107409545D01*
X168133500Y-107188000D01*
X168417000Y-107188000D01*
X168417000Y-107409516D01*
X168427605Y-107513318D01*
X168427606Y-107513321D01*
X168483342Y-107681525D01*
X168576365Y-107832339D01*
X168576370Y-107832345D01*
X168701654Y-107957629D01*
X168701660Y-107957634D01*
X168852474Y-108050657D01*
X169020678Y-108106393D01*
X169020681Y-108106394D01*
X169124483Y-108116999D01*
X169124483Y-108117000D01*
X169458500Y-108117000D01*
X169458500Y-107188000D01*
X169966500Y-107188000D01*
X169966500Y-108117000D01*
X170300517Y-108117000D01*
X170300516Y-108116999D01*
X170404318Y-108106394D01*
X170404321Y-108106393D01*
X170572525Y-108050657D01*
X170723339Y-107957634D01*
X170723345Y-107957629D01*
X170848629Y-107832345D01*
X170848634Y-107832339D01*
X170941657Y-107681525D01*
X170997393Y-107513321D01*
X170997394Y-107513318D01*
X171007999Y-107409516D01*
X171008000Y-107409516D01*
X171008000Y-107188000D01*
X169966500Y-107188000D01*
X169458500Y-107188000D01*
X168417000Y-107188000D01*
X168133500Y-107188000D01*
X168133499Y-106586093D01*
X168153501Y-106517973D01*
X168170404Y-106496999D01*
X168201905Y-106465498D01*
X168264217Y-106431472D01*
X168335032Y-106436537D01*
X168391868Y-106479084D01*
X168416679Y-106545604D01*
X168417000Y-106554593D01*
X168417000Y-106680000D01*
X169458500Y-106680000D01*
X169966500Y-106680000D01*
X171008000Y-106680000D01*
X171008000Y-106458483D01*
X170997394Y-106354681D01*
X170997393Y-106354678D01*
X170981259Y-106305986D01*
X170978819Y-106235031D01*
X171015127Y-106174021D01*
X171078656Y-106142326D01*
X171149236Y-106150008D01*
X171176374Y-106165486D01*
X171203033Y-106185443D01*
X171203035Y-106185444D01*
X171339906Y-106236494D01*
X171400402Y-106242999D01*
X171400415Y-106243000D01*
X172085000Y-106243000D01*
X172085000Y-105229000D01*
X170941000Y-105229000D01*
X170941000Y-105783602D01*
X170944312Y-105814401D01*
X170931706Y-105884269D01*
X170883328Y-105936231D01*
X170814536Y-105953789D01*
X170747173Y-105931368D01*
X170729939Y-105916964D01*
X170723345Y-105910370D01*
X170723339Y-105910365D01*
X170572525Y-105817342D01*
X170404321Y-105761606D01*
X170404318Y-105761605D01*
X170300516Y-105751000D01*
X169966500Y-105751000D01*
X169966500Y-106680000D01*
X169458500Y-106680000D01*
X169458500Y-105751000D01*
X169220594Y-105751000D01*
X169152473Y-105730998D01*
X169105980Y-105677342D01*
X169095876Y-105607068D01*
X169125370Y-105542488D01*
X169131498Y-105535905D01*
X169298659Y-105368743D01*
X169311093Y-105358784D01*
X169310905Y-105358557D01*
X169317009Y-105353505D01*
X169317018Y-105353500D01*
X169364999Y-105302404D01*
X169386135Y-105281269D01*
X169390437Y-105275721D01*
X169394267Y-105271235D01*
X169426586Y-105236821D01*
X169436345Y-105219067D01*
X169447204Y-105202538D01*
X169459614Y-105186540D01*
X169478354Y-105143232D01*
X169480965Y-105137904D01*
X169503695Y-105096560D01*
X169508733Y-105076935D01*
X169515138Y-105058230D01*
X169523181Y-105039645D01*
X169530561Y-104993047D01*
X169531762Y-104987240D01*
X169543500Y-104941530D01*
X169543500Y-104921275D01*
X169545051Y-104901563D01*
X169548220Y-104881557D01*
X169544992Y-104847409D01*
X169543780Y-104834580D01*
X169543500Y-104828648D01*
X169543500Y-104721000D01*
X170941000Y-104721000D01*
X172085000Y-104721000D01*
X172085000Y-103707000D01*
X171400402Y-103707000D01*
X171339906Y-103713505D01*
X171203035Y-103764555D01*
X171203034Y-103764555D01*
X171086095Y-103852095D01*
X170998555Y-103969034D01*
X170998555Y-103969035D01*
X170947505Y-104105906D01*
X170941000Y-104166402D01*
X170941000Y-104721000D01*
X169543500Y-104721000D01*
X169543500Y-94739500D01*
X169563502Y-94671379D01*
X169617158Y-94624886D01*
X169669500Y-94613500D01*
X170840990Y-94613500D01*
X170909111Y-94633502D01*
X170955604Y-94687158D01*
X170965708Y-94757432D01*
X170959046Y-94783532D01*
X170947010Y-94815799D01*
X170947009Y-94815803D01*
X170940500Y-94876350D01*
X170940500Y-96493649D01*
X170947009Y-96554196D01*
X170947011Y-96554204D01*
X170998110Y-96691202D01*
X170998112Y-96691207D01*
X171085738Y-96808261D01*
X171202792Y-96895887D01*
X171202794Y-96895888D01*
X171202796Y-96895889D01*
X171261875Y-96917924D01*
X171339795Y-96946988D01*
X171339803Y-96946990D01*
X171400350Y-96953499D01*
X171400355Y-96953499D01*
X171400362Y-96953500D01*
X171400368Y-96953500D01*
X173277632Y-96953500D01*
X173277638Y-96953500D01*
X173277645Y-96953499D01*
X173277649Y-96953499D01*
X173338196Y-96946990D01*
X173338199Y-96946989D01*
X173338201Y-96946989D01*
X173475204Y-96895889D01*
X173533907Y-96851943D01*
X173600427Y-96827132D01*
X173669801Y-96842223D01*
X173684928Y-96851944D01*
X173743036Y-96895444D01*
X173879906Y-96946494D01*
X173940402Y-96952999D01*
X173940415Y-96953000D01*
X174625000Y-96953000D01*
X174625000Y-94417000D01*
X174245093Y-94417000D01*
X174176972Y-94396998D01*
X174130479Y-94343342D01*
X174120375Y-94273068D01*
X174149869Y-94208488D01*
X174155983Y-94201919D01*
X174759661Y-93598241D01*
X174772096Y-93588282D01*
X174771908Y-93588054D01*
X174778019Y-93582999D01*
X174825984Y-93531920D01*
X174847128Y-93510777D01*
X174847128Y-93510776D01*
X174847135Y-93510770D01*
X174851445Y-93505212D01*
X174855274Y-93500729D01*
X174887586Y-93466321D01*
X174897346Y-93448565D01*
X174908195Y-93432050D01*
X174920614Y-93416041D01*
X174939363Y-93372710D01*
X174941953Y-93367423D01*
X174964695Y-93326060D01*
X174969733Y-93306434D01*
X174976137Y-93287732D01*
X174982033Y-93274109D01*
X174984181Y-93269145D01*
X174991561Y-93222547D01*
X174992762Y-93216740D01*
X175004500Y-93171030D01*
X175004500Y-93163000D01*
X175024502Y-93094879D01*
X175078158Y-93048386D01*
X175130500Y-93037000D01*
X175537506Y-93037000D01*
X175562388Y-93035041D01*
X175574831Y-93034062D01*
X175734601Y-92987645D01*
X175734603Y-92987643D01*
X175734605Y-92987643D01*
X175806204Y-92945299D01*
X175877807Y-92902953D01*
X175995453Y-92785307D01*
X176037096Y-92714891D01*
X176086609Y-92668661D01*
X176085762Y-92622819D01*
X176086254Y-92621070D01*
X176126562Y-92482331D01*
X176127541Y-92469888D01*
X176129500Y-92445006D01*
X176129500Y-92334078D01*
X176149502Y-92265957D01*
X176203158Y-92219464D01*
X176273432Y-92209360D01*
X176338012Y-92238854D01*
G37*
%TD.AperFunction*%
%TD*%
M02*
