%TF.GenerationSoftware,KiCad,Pcbnew,7.0.8*%
%TF.CreationDate,2023-11-03T15:22:21-05:00*%
%TF.ProjectId,tapecart-sd-vertical,74617065-6361-4727-942d-73642d766572,rev?*%
%TF.SameCoordinates,Original*%
%TF.FileFunction,Copper,L2,Bot*%
%TF.FilePolarity,Positive*%
%FSLAX46Y46*%
G04 Gerber Fmt 4.6, Leading zero omitted, Abs format (unit mm)*
G04 Created by KiCad (PCBNEW 7.0.8) date 2023-11-03 15:22:21*
%MOMM*%
%LPD*%
G01*
G04 APERTURE LIST*
G04 Aperture macros list*
%AMRoundRect*
0 Rectangle with rounded corners*
0 $1 Rounding radius*
0 $2 $3 $4 $5 $6 $7 $8 $9 X,Y pos of 4 corners*
0 Add a 4 corners polygon primitive as box body*
4,1,4,$2,$3,$4,$5,$6,$7,$8,$9,$2,$3,0*
0 Add four circle primitives for the rounded corners*
1,1,$1+$1,$2,$3*
1,1,$1+$1,$4,$5*
1,1,$1+$1,$6,$7*
1,1,$1+$1,$8,$9*
0 Add four rect primitives between the rounded corners*
20,1,$1+$1,$2,$3,$4,$5,0*
20,1,$1+$1,$4,$5,$6,$7,0*
20,1,$1+$1,$6,$7,$8,$9,0*
20,1,$1+$1,$8,$9,$2,$3,0*%
G04 Aperture macros list end*
%TA.AperFunction,ComponentPad*%
%ADD10C,1.650000*%
%TD*%
%TA.AperFunction,ComponentPad*%
%ADD11C,2.200000*%
%TD*%
%TA.AperFunction,ComponentPad*%
%ADD12RoundRect,0.250000X-0.600000X-0.600000X0.600000X-0.600000X0.600000X0.600000X-0.600000X0.600000X0*%
%TD*%
%TA.AperFunction,ComponentPad*%
%ADD13C,1.700000*%
%TD*%
%TA.AperFunction,ComponentPad*%
%ADD14C,1.800000*%
%TD*%
%TA.AperFunction,ViaPad*%
%ADD15C,0.800000*%
%TD*%
%TA.AperFunction,Conductor*%
%ADD16C,0.800000*%
%TD*%
%TA.AperFunction,Conductor*%
%ADD17C,0.250000*%
%TD*%
G04 APERTURE END LIST*
D10*
%TO.P,J3,16*%
%TO.N,N/C*%
X160506000Y-105346000D03*
D11*
%TO.P,J3,17*%
X139506000Y-105346000D03*
%TD*%
D12*
%TO.P,J2,1,Pin_1*%
%TO.N,/MISO_D12*%
X175006000Y-114173000D03*
D13*
%TO.P,J2,2,Pin_2*%
%TO.N,+5V*%
X177546000Y-114173000D03*
%TO.P,J2,3,Pin_3*%
%TO.N,/SCK_D13*%
X175006000Y-116713000D03*
%TO.P,J2,4,Pin_4*%
%TO.N,/MOSI_D11*%
X177546000Y-116713000D03*
%TO.P,J2,5,Pin_5*%
%TO.N,/RESET*%
X175006000Y-119253000D03*
%TO.P,J2,6,Pin_6*%
%TO.N,GND*%
X177546000Y-119253000D03*
%TD*%
D14*
%TO.P,J1,1,GND*%
%TO.N,GND*%
X147100000Y-126036000D03*
%TO.P,J1,2,5V*%
%TO.N,+5V*%
X151060000Y-126036000D03*
%TO.P,J1,3,Motor*%
%TO.N,/MOTOR*%
X155020000Y-126036000D03*
%TO.P,J1,4,Read*%
%TO.N,/READ_D3*%
X158980000Y-126036000D03*
%TO.P,J1,5,Write*%
%TO.N,/WRITE_D8*%
X162940000Y-126036000D03*
%TO.P,J1,6,Sense*%
%TO.N,/SENSE_D5*%
X166900000Y-126036000D03*
%TO.P,J1,A,GND*%
%TO.N,GND*%
X147100000Y-129996000D03*
%TO.P,J1,B,5V*%
%TO.N,+5V*%
X151060000Y-129996000D03*
%TO.P,J1,C,Motor*%
%TO.N,/MOTOR*%
X155020000Y-129996000D03*
%TO.P,J1,D,Read*%
%TO.N,/READ_D3*%
X158980000Y-129996000D03*
%TO.P,J1,E,Write*%
%TO.N,/WRITE_D8*%
X162940000Y-129996000D03*
%TO.P,J1,F,Sense*%
%TO.N,/SENSE_D5*%
X166900000Y-129996000D03*
%TD*%
D15*
%TO.N,GND*%
X139319000Y-101854000D03*
X136398000Y-109982000D03*
X142240000Y-115824000D03*
X155448000Y-114046000D03*
X169291000Y-117475000D03*
X174879000Y-94488000D03*
X160655000Y-117602000D03*
X149098000Y-92202000D03*
X172339000Y-106172000D03*
X162306000Y-113665000D03*
X159639000Y-84709000D03*
X176530000Y-111379000D03*
X152146000Y-112268000D03*
X138938000Y-84836000D03*
X158242000Y-119126000D03*
%TO.N,/READ_D3*%
X164211000Y-115062000D03*
X164973000Y-93218000D03*
%TO.N,/MOTOR_D4*%
X174879000Y-106299000D03*
X164973000Y-115951000D03*
%TO.N,/SENSE_D5*%
X164211000Y-120650000D03*
%TO.N,/WRITE_D8*%
X166624000Y-120650000D03*
X166624000Y-116713000D03*
X171577000Y-92964000D03*
%TO.N,+5V*%
X161290000Y-118999000D03*
X172085000Y-128270000D03*
X165608000Y-119126000D03*
X167513000Y-119126000D03*
X172212000Y-126365000D03*
%TO.N,Net-(J3-DAT3{slash}CS)*%
X143764000Y-114935000D03*
X142113000Y-106807000D03*
X164211000Y-97409000D03*
%TO.N,Net-(J3-CMD{slash}DI)*%
X144653000Y-106807000D03*
X164084000Y-99441000D03*
X144653000Y-116713000D03*
%TO.N,+3.3V*%
X164084000Y-100584000D03*
X149733000Y-106807000D03*
%TO.N,Net-(J3-CLK{slash}SCLK)*%
X148590000Y-120015000D03*
X152146000Y-106807000D03*
%TO.N,/MISO_D12*%
X164084000Y-101854000D03*
X162687000Y-122174000D03*
X169799000Y-120650000D03*
X157061000Y-106845000D03*
%TO.N,Net-(J3-DAT1)*%
X158750000Y-106807000D03*
X164084000Y-103886000D03*
%TO.N,Net-(J3-DAT2)*%
X140843000Y-106807000D03*
X164338000Y-95377000D03*
%TO.N,/MOSI_D11*%
X169037000Y-123571000D03*
%TO.N,/RESET*%
X177165000Y-121412000D03*
%TD*%
D16*
%TO.N,GND*%
X147100000Y-125705800D02*
X147100000Y-129665800D01*
D17*
%TO.N,/READ_D3*%
X163703000Y-119126000D02*
X161290000Y-121539000D01*
X163703000Y-115570000D02*
X163703000Y-119126000D01*
X164211000Y-106680000D02*
X165735000Y-105156000D01*
D16*
X158980000Y-129665800D02*
X158980000Y-125705800D01*
D17*
X161290000Y-121539000D02*
X161290000Y-123726000D01*
X165735000Y-93980000D02*
X164973000Y-93218000D01*
X158980000Y-126036000D02*
X161290000Y-123726000D01*
X164211000Y-115062000D02*
X164211000Y-106680000D01*
X165735000Y-105156000D02*
X165735000Y-93980000D01*
X164211000Y-115062000D02*
X163703000Y-115570000D01*
%TO.N,/MOTOR_D4*%
X174879000Y-109982000D02*
X174879000Y-106299000D01*
X164973000Y-115951000D02*
X164973000Y-116586000D01*
X167132000Y-117729000D02*
X174879000Y-109982000D01*
X166116000Y-117729000D02*
X167132000Y-117729000D01*
X164973000Y-116586000D02*
X166116000Y-117729000D01*
%TO.N,/SENSE_D5*%
X164211000Y-123347000D02*
X166900000Y-126036000D01*
D16*
X166900000Y-129665800D02*
X166900000Y-125705800D01*
D17*
X164211000Y-120650000D02*
X164211000Y-123347000D01*
%TO.N,/WRITE_D8*%
X166624000Y-120650000D02*
X166624000Y-123825000D01*
X169672000Y-94869000D02*
X171577000Y-92964000D01*
X167513000Y-131572000D02*
X164516000Y-131572000D01*
X168402000Y-125603000D02*
X168402000Y-130683000D01*
X168402000Y-130683000D02*
X167513000Y-131572000D01*
D16*
X162940000Y-129665800D02*
X162940000Y-125705800D01*
D17*
X166624000Y-123825000D02*
X168402000Y-125603000D01*
X169672000Y-113665000D02*
X169672000Y-94869000D01*
X164516000Y-131572000D02*
X162940000Y-129996000D01*
X166624000Y-116713000D02*
X169672000Y-113665000D01*
%TO.N,+5V*%
X172085000Y-126492000D02*
X172212000Y-126365000D01*
X160274000Y-119507000D02*
X160274000Y-121412000D01*
X154160000Y-122936000D02*
X151060000Y-126036000D01*
X172085000Y-128270000D02*
X172085000Y-126492000D01*
X160274000Y-121412000D02*
X158750000Y-122936000D01*
X165608000Y-119126000D02*
X167513000Y-119126000D01*
X161290000Y-118999000D02*
X160782000Y-118999000D01*
D16*
X151060000Y-125705800D02*
X151060000Y-129665800D01*
D17*
X158750000Y-122936000D02*
X154160000Y-122936000D01*
X160782000Y-118999000D02*
X160274000Y-119507000D01*
D16*
%TO.N,/MOTOR*%
X155020000Y-129665800D02*
X155020000Y-125705800D01*
D17*
%TO.N,Net-(J3-DAT3{slash}CS)*%
X143764000Y-114935000D02*
X143764000Y-111379000D01*
X151511000Y-97409000D02*
X164211000Y-97409000D01*
X142113000Y-106807000D02*
X151511000Y-97409000D01*
X143764000Y-111379000D02*
X142113000Y-109728000D01*
X142113000Y-109728000D02*
X142113000Y-106807000D01*
%TO.N,Net-(J3-CMD{slash}DI)*%
X152019000Y-99441000D02*
X164084000Y-99441000D01*
X144653000Y-106807000D02*
X144653000Y-116713000D01*
X144653000Y-106807000D02*
X152019000Y-99441000D01*
%TO.N,+3.3V*%
X155956000Y-100584000D02*
X164084000Y-100584000D01*
X149733000Y-106807000D02*
X155956000Y-100584000D01*
%TO.N,Net-(J3-CLK{slash}SCLK)*%
X148590000Y-113030000D02*
X148590000Y-120015000D01*
X152146000Y-106807000D02*
X152146000Y-109474000D01*
X148590000Y-113030000D02*
X152146000Y-109474000D01*
%TO.N,/MISO_D12*%
X169799000Y-119380000D02*
X175006000Y-114173000D01*
X162687000Y-122174000D02*
X162687000Y-121148695D01*
X158496000Y-101854000D02*
X164084000Y-101854000D01*
X162687000Y-121148695D02*
X163910695Y-119925000D01*
X169074000Y-119925000D02*
X169799000Y-120650000D01*
X163910695Y-119925000D02*
X169074000Y-119925000D01*
X169799000Y-120650000D02*
X169799000Y-119380000D01*
X157099000Y-106807000D02*
X157099000Y-103251000D01*
X157099000Y-103251000D02*
X158496000Y-101854000D01*
%TO.N,Net-(J3-DAT1)*%
X158750000Y-104521000D02*
X159385000Y-103886000D01*
X158750000Y-106807000D02*
X158750000Y-104521000D01*
X159385000Y-103886000D02*
X164084000Y-103886000D01*
%TO.N,Net-(J3-DAT2)*%
X152273000Y-95377000D02*
X164338000Y-95377000D01*
X140843000Y-106807000D02*
X152273000Y-95377000D01*
%TO.N,/MOSI_D11*%
X177546000Y-116713000D02*
X176276000Y-117983000D01*
X176276000Y-117983000D02*
X174371000Y-117983000D01*
X169037000Y-123317000D02*
X169037000Y-123571000D01*
X174371000Y-117983000D02*
X169037000Y-123317000D01*
%TO.N,/RESET*%
X175006000Y-119253000D02*
X177165000Y-121412000D01*
%TD*%
%TA.AperFunction,Conductor*%
%TO.N,GND*%
G36*
X179355621Y-82920502D02*
G01*
X179402114Y-82974158D01*
X179413500Y-83026500D01*
X179413500Y-132173500D01*
X179393498Y-132241621D01*
X179339842Y-132288114D01*
X179287500Y-132299500D01*
X167984942Y-132299500D01*
X167916821Y-132279498D01*
X167870328Y-132225842D01*
X167860224Y-132155568D01*
X167889718Y-132090988D01*
X167898898Y-132082292D01*
X167898755Y-132082149D01*
X167918683Y-132062220D01*
X167933724Y-132049374D01*
X167950107Y-132037472D01*
X167980193Y-132001103D01*
X167984161Y-131996741D01*
X168790657Y-131190245D01*
X168803097Y-131180282D01*
X168802908Y-131180054D01*
X168809019Y-131174999D01*
X168856984Y-131123920D01*
X168878128Y-131102777D01*
X168878128Y-131102776D01*
X168878135Y-131102770D01*
X168882445Y-131097212D01*
X168886274Y-131092729D01*
X168918586Y-131058321D01*
X168928346Y-131040565D01*
X168939195Y-131024050D01*
X168951614Y-131008041D01*
X168970363Y-130964710D01*
X168972953Y-130959423D01*
X168995695Y-130918060D01*
X169000733Y-130898434D01*
X169007137Y-130879732D01*
X169015181Y-130861145D01*
X169022561Y-130814547D01*
X169023762Y-130808740D01*
X169035500Y-130763030D01*
X169035500Y-130742775D01*
X169037051Y-130723063D01*
X169040220Y-130703057D01*
X169037629Y-130675651D01*
X169035780Y-130656080D01*
X169035500Y-130650148D01*
X169035500Y-128270000D01*
X171171496Y-128270000D01*
X171191457Y-128459927D01*
X171221526Y-128552470D01*
X171250473Y-128641556D01*
X171250476Y-128641561D01*
X171345958Y-128806941D01*
X171345965Y-128806951D01*
X171473744Y-128948864D01*
X171483832Y-128956193D01*
X171628248Y-129061118D01*
X171802712Y-129138794D01*
X171989513Y-129178500D01*
X172180487Y-129178500D01*
X172367288Y-129138794D01*
X172541752Y-129061118D01*
X172696253Y-128948866D01*
X172824040Y-128806944D01*
X172919527Y-128641556D01*
X172978542Y-128459928D01*
X172998504Y-128270000D01*
X172978542Y-128080072D01*
X172957724Y-128016000D01*
X174019390Y-128016000D01*
X174039803Y-128301424D01*
X174100631Y-128581046D01*
X174200632Y-128849160D01*
X174200637Y-128849170D01*
X174337768Y-129100307D01*
X174337772Y-129100312D01*
X174337774Y-129100315D01*
X174504906Y-129323578D01*
X174509262Y-129329396D01*
X174509270Y-129329405D01*
X174711594Y-129531729D01*
X174711603Y-129531737D01*
X174711605Y-129531739D01*
X174940685Y-129703226D01*
X174940687Y-129703227D01*
X174940692Y-129703231D01*
X175191829Y-129840362D01*
X175191839Y-129840367D01*
X175459954Y-129940369D01*
X175739572Y-130001196D01*
X175953552Y-130016500D01*
X175953558Y-130016500D01*
X176096442Y-130016500D01*
X176096448Y-130016500D01*
X176310428Y-130001196D01*
X176590046Y-129940369D01*
X176858161Y-129840367D01*
X176888144Y-129823994D01*
X177109307Y-129703231D01*
X177109309Y-129703229D01*
X177109315Y-129703226D01*
X177338395Y-129531739D01*
X177540739Y-129329395D01*
X177712226Y-129100315D01*
X177712229Y-129100309D01*
X177712231Y-129100307D01*
X177849362Y-128849170D01*
X177849367Y-128849161D01*
X177949369Y-128581046D01*
X178010196Y-128301428D01*
X178030610Y-128016000D01*
X178010196Y-127730572D01*
X177949369Y-127450954D01*
X177849367Y-127182839D01*
X177849362Y-127182829D01*
X177712231Y-126931692D01*
X177712227Y-126931687D01*
X177689962Y-126901944D01*
X177540739Y-126702605D01*
X177540737Y-126702603D01*
X177540729Y-126702594D01*
X177338405Y-126500270D01*
X177338396Y-126500262D01*
X177331237Y-126494903D01*
X177109315Y-126328774D01*
X177109313Y-126328773D01*
X177109312Y-126328772D01*
X177109307Y-126328768D01*
X176858170Y-126191637D01*
X176858160Y-126191632D01*
X176590046Y-126091631D01*
X176310424Y-126030803D01*
X176176775Y-126021245D01*
X176096448Y-126015500D01*
X175953552Y-126015500D01*
X175877954Y-126020906D01*
X175739575Y-126030803D01*
X175459953Y-126091631D01*
X175191839Y-126191632D01*
X175191829Y-126191637D01*
X174940692Y-126328768D01*
X174940687Y-126328772D01*
X174711603Y-126500262D01*
X174711594Y-126500270D01*
X174509270Y-126702594D01*
X174509262Y-126702603D01*
X174337772Y-126931687D01*
X174337768Y-126931692D01*
X174200637Y-127182829D01*
X174200632Y-127182839D01*
X174100631Y-127450953D01*
X174039803Y-127730575D01*
X174019390Y-128016000D01*
X172957724Y-128016000D01*
X172919527Y-127898444D01*
X172824040Y-127733056D01*
X172750863Y-127651784D01*
X172720146Y-127587776D01*
X172718500Y-127567474D01*
X172718500Y-127184173D01*
X172738502Y-127116052D01*
X172770438Y-127082238D01*
X172823253Y-127043866D01*
X172924255Y-126931692D01*
X172951034Y-126901951D01*
X172951035Y-126901949D01*
X172951040Y-126901944D01*
X173046527Y-126736556D01*
X173105542Y-126554928D01*
X173125504Y-126365000D01*
X173105542Y-126175072D01*
X173046527Y-125993444D01*
X172951040Y-125828056D01*
X172951038Y-125828054D01*
X172951034Y-125828048D01*
X172823255Y-125686135D01*
X172668752Y-125573882D01*
X172494288Y-125496206D01*
X172307487Y-125456500D01*
X172116513Y-125456500D01*
X171929711Y-125496206D01*
X171755247Y-125573882D01*
X171600744Y-125686135D01*
X171472965Y-125828048D01*
X171472958Y-125828058D01*
X171377476Y-125993438D01*
X171377473Y-125993445D01*
X171318457Y-126175072D01*
X171298496Y-126365000D01*
X171318457Y-126554927D01*
X171320138Y-126560099D01*
X171377473Y-126736556D01*
X171434619Y-126835536D01*
X171451500Y-126898535D01*
X171451500Y-127567474D01*
X171431498Y-127635595D01*
X171419137Y-127651784D01*
X171345957Y-127733059D01*
X171250476Y-127898438D01*
X171250473Y-127898445D01*
X171191457Y-128080072D01*
X171171496Y-128270000D01*
X169035500Y-128270000D01*
X169035500Y-125686854D01*
X169037249Y-125671012D01*
X169036956Y-125670985D01*
X169037700Y-125663099D01*
X169037702Y-125663092D01*
X169035500Y-125593028D01*
X169035500Y-125563144D01*
X169034620Y-125556182D01*
X169034156Y-125550293D01*
X169032674Y-125503111D01*
X169027017Y-125483642D01*
X169023012Y-125464298D01*
X169020474Y-125444203D01*
X169003100Y-125400322D01*
X169001181Y-125394716D01*
X168992131Y-125363566D01*
X168988018Y-125349407D01*
X168977706Y-125331970D01*
X168969010Y-125314221D01*
X168961552Y-125295383D01*
X168933812Y-125257203D01*
X168930564Y-125252258D01*
X168906542Y-125211638D01*
X168892214Y-125197310D01*
X168879384Y-125182289D01*
X168867472Y-125165893D01*
X168867469Y-125165891D01*
X168867469Y-125165890D01*
X168831107Y-125135808D01*
X168826726Y-125131822D01*
X167294405Y-123599500D01*
X167260379Y-123537188D01*
X167257500Y-123510405D01*
X167257500Y-121352524D01*
X167277502Y-121284403D01*
X167289858Y-121268220D01*
X167363040Y-121186944D01*
X167458527Y-121021556D01*
X167517542Y-120839928D01*
X167535262Y-120671329D01*
X167562275Y-120605673D01*
X167620496Y-120565043D01*
X167660572Y-120558500D01*
X168759405Y-120558500D01*
X168827526Y-120578502D01*
X168848514Y-120595418D01*
X168851891Y-120598796D01*
X168885906Y-120661113D01*
X168888092Y-120674707D01*
X168905457Y-120839927D01*
X168919711Y-120883794D01*
X168964473Y-121021556D01*
X168964476Y-121021561D01*
X169059958Y-121186941D01*
X169059965Y-121186951D01*
X169187744Y-121328864D01*
X169187747Y-121328866D01*
X169342248Y-121441118D01*
X169516712Y-121518794D01*
X169638231Y-121544623D01*
X169700703Y-121578351D01*
X169735025Y-121640501D01*
X169730297Y-121711340D01*
X169701128Y-121756965D01*
X168773345Y-122684748D01*
X168735499Y-122710760D01*
X168580247Y-122779882D01*
X168425744Y-122892135D01*
X168297965Y-123034048D01*
X168297958Y-123034058D01*
X168202476Y-123199438D01*
X168202473Y-123199445D01*
X168143457Y-123381072D01*
X168123496Y-123571000D01*
X168143457Y-123760927D01*
X168160762Y-123814185D01*
X168202473Y-123942556D01*
X168202476Y-123942561D01*
X168297958Y-124107941D01*
X168297965Y-124107951D01*
X168425744Y-124249864D01*
X168425747Y-124249866D01*
X168580248Y-124362118D01*
X168754712Y-124439794D01*
X168941513Y-124479500D01*
X169132487Y-124479500D01*
X169319288Y-124439794D01*
X169493752Y-124362118D01*
X169648253Y-124249866D01*
X169678420Y-124216362D01*
X169776034Y-124107951D01*
X169776035Y-124107949D01*
X169776040Y-124107944D01*
X169871527Y-123942556D01*
X169930542Y-123760928D01*
X169950504Y-123571000D01*
X169930954Y-123384996D01*
X169943726Y-123315160D01*
X169967166Y-123282736D01*
X173536782Y-119713120D01*
X173599092Y-119679096D01*
X173669907Y-119684161D01*
X173726743Y-119726708D01*
X173741260Y-119751599D01*
X173792227Y-119867793D01*
X173807141Y-119901793D01*
X173930275Y-120090265D01*
X173930279Y-120090270D01*
X174082762Y-120255908D01*
X174111709Y-120278438D01*
X174260424Y-120394189D01*
X174458426Y-120501342D01*
X174458427Y-120501342D01*
X174458428Y-120501343D01*
X174559731Y-120536120D01*
X174671365Y-120574444D01*
X174893431Y-120611500D01*
X174893435Y-120611500D01*
X175118565Y-120611500D01*
X175118569Y-120611500D01*
X175340635Y-120574444D01*
X175340651Y-120574438D01*
X175343760Y-120573652D01*
X175345083Y-120573701D01*
X175345777Y-120573586D01*
X175345800Y-120573728D01*
X175414707Y-120576315D01*
X175463794Y-120606700D01*
X176217877Y-121360783D01*
X176251903Y-121423095D01*
X176254092Y-121436707D01*
X176271457Y-121601927D01*
X176283991Y-121640501D01*
X176330473Y-121783556D01*
X176330476Y-121783561D01*
X176425958Y-121948941D01*
X176425965Y-121948951D01*
X176553744Y-122090864D01*
X176553747Y-122090866D01*
X176708248Y-122203118D01*
X176882712Y-122280794D01*
X177069513Y-122320500D01*
X177260487Y-122320500D01*
X177447288Y-122280794D01*
X177621752Y-122203118D01*
X177776253Y-122090866D01*
X177904040Y-121948944D01*
X177999527Y-121783556D01*
X178058542Y-121601928D01*
X178078504Y-121412000D01*
X178058542Y-121222072D01*
X177999527Y-121040444D01*
X177904040Y-120875056D01*
X177904038Y-120875054D01*
X177904034Y-120875048D01*
X177818634Y-120780202D01*
X177787916Y-120716195D01*
X177796681Y-120645741D01*
X177842144Y-120591210D01*
X177875780Y-120576223D01*
X177875583Y-120575649D01*
X178093369Y-120500883D01*
X178093371Y-120500882D01*
X178291298Y-120393768D01*
X178291302Y-120393766D01*
X178311689Y-120377898D01*
X177673588Y-119739797D01*
X177688315Y-119737680D01*
X177819100Y-119677952D01*
X177927761Y-119583798D01*
X178005493Y-119462844D01*
X178030360Y-119378151D01*
X178669076Y-120016867D01*
X178669077Y-120016866D01*
X178744419Y-119901551D01*
X178834820Y-119695456D01*
X178834823Y-119695449D01*
X178890067Y-119477292D01*
X178908653Y-119253000D01*
X178890067Y-119028707D01*
X178834823Y-118810550D01*
X178834820Y-118810543D01*
X178744422Y-118604456D01*
X178744417Y-118604448D01*
X178669076Y-118489132D01*
X178030360Y-119127848D01*
X178005493Y-119043156D01*
X177927761Y-118922202D01*
X177819100Y-118828048D01*
X177688315Y-118768320D01*
X177673586Y-118766202D01*
X178311689Y-118128100D01*
X178311688Y-118128099D01*
X178291306Y-118112235D01*
X178291294Y-118112227D01*
X178257792Y-118094097D01*
X178207402Y-118044084D01*
X178192050Y-117974767D01*
X178216611Y-117908154D01*
X178257790Y-117872472D01*
X178291576Y-117854189D01*
X178469240Y-117715906D01*
X178621722Y-117550268D01*
X178744860Y-117361791D01*
X178835296Y-117155616D01*
X178890564Y-116937368D01*
X178909156Y-116713000D01*
X178890564Y-116488632D01*
X178880948Y-116450660D01*
X178835297Y-116270387D01*
X178835296Y-116270386D01*
X178835296Y-116270384D01*
X178744860Y-116064209D01*
X178738140Y-116053924D01*
X178621724Y-115875734D01*
X178621720Y-115875729D01*
X178469237Y-115710091D01*
X178360399Y-115625379D01*
X178291576Y-115571811D01*
X178258319Y-115553813D01*
X178207929Y-115503802D01*
X178192576Y-115434485D01*
X178217136Y-115367872D01*
X178258320Y-115332186D01*
X178291576Y-115314189D01*
X178469240Y-115175906D01*
X178621722Y-115010268D01*
X178744860Y-114821791D01*
X178835296Y-114615616D01*
X178890564Y-114397368D01*
X178909156Y-114173000D01*
X178890564Y-113948632D01*
X178835296Y-113730384D01*
X178744860Y-113524209D01*
X178675849Y-113418579D01*
X178621724Y-113335734D01*
X178621720Y-113335729D01*
X178469237Y-113170091D01*
X178387382Y-113106381D01*
X178291576Y-113031811D01*
X178093574Y-112924658D01*
X178093572Y-112924657D01*
X178093571Y-112924656D01*
X177880639Y-112851557D01*
X177880630Y-112851555D01*
X177836476Y-112844187D01*
X177658569Y-112814500D01*
X177433431Y-112814500D01*
X177285211Y-112839233D01*
X177211369Y-112851555D01*
X177211360Y-112851557D01*
X176998428Y-112924656D01*
X176998426Y-112924658D01*
X176840835Y-113009942D01*
X176800426Y-113031810D01*
X176800424Y-113031811D01*
X176622759Y-113170094D01*
X176509483Y-113293143D01*
X176448630Y-113329714D01*
X176377666Y-113327579D01*
X176319121Y-113287417D01*
X176302144Y-113256481D01*
X176301217Y-113256914D01*
X176298116Y-113250266D01*
X176298115Y-113250262D01*
X176205030Y-113099348D01*
X176205029Y-113099347D01*
X176205024Y-113099341D01*
X176079658Y-112973975D01*
X176079652Y-112973970D01*
X176040739Y-112949968D01*
X175928738Y-112880885D01*
X175785019Y-112833262D01*
X175760427Y-112825113D01*
X175760420Y-112825112D01*
X175656553Y-112814500D01*
X174355455Y-112814500D01*
X174251574Y-112825112D01*
X174083261Y-112880885D01*
X173932347Y-112973970D01*
X173932341Y-112973975D01*
X173806975Y-113099341D01*
X173806970Y-113099347D01*
X173713885Y-113250262D01*
X173658113Y-113418572D01*
X173658112Y-113418579D01*
X173647500Y-113522446D01*
X173647500Y-114583404D01*
X173627498Y-114651525D01*
X173610595Y-114672499D01*
X169410336Y-118872757D01*
X169397901Y-118882721D01*
X169398089Y-118882948D01*
X169391980Y-118888001D01*
X169344016Y-118939078D01*
X169322866Y-118960227D01*
X169318560Y-118965777D01*
X169314714Y-118970279D01*
X169282417Y-119004674D01*
X169282411Y-119004683D01*
X169272651Y-119022435D01*
X169261803Y-119038950D01*
X169249386Y-119054958D01*
X169230645Y-119098264D01*
X169228034Y-119103594D01*
X169205305Y-119144939D01*
X169205303Y-119144944D01*
X169200267Y-119164559D01*
X169193864Y-119183262D01*
X169182671Y-119209129D01*
X169180455Y-119208170D01*
X169148709Y-119257872D01*
X169084210Y-119287543D01*
X169077794Y-119288317D01*
X169047085Y-119291220D01*
X169041151Y-119291500D01*
X168549046Y-119291500D01*
X168480925Y-119271498D01*
X168434432Y-119217842D01*
X168423736Y-119152330D01*
X168426504Y-119126000D01*
X168406542Y-118936072D01*
X168347527Y-118754444D01*
X168252040Y-118589056D01*
X168252038Y-118589054D01*
X168252034Y-118589048D01*
X168124255Y-118447135D01*
X167969752Y-118334882D01*
X167795288Y-118257206D01*
X167795286Y-118257205D01*
X167795285Y-118257205D01*
X167778501Y-118253637D01*
X167716029Y-118219908D01*
X167681709Y-118157757D01*
X167686438Y-118086918D01*
X167715604Y-118041298D01*
X175267657Y-110489245D01*
X175280092Y-110479284D01*
X175279905Y-110479057D01*
X175286009Y-110474005D01*
X175286018Y-110474000D01*
X175333999Y-110422904D01*
X175355134Y-110401770D01*
X175359429Y-110396232D01*
X175363271Y-110391731D01*
X175395586Y-110357321D01*
X175405345Y-110339567D01*
X175416197Y-110323046D01*
X175428613Y-110307041D01*
X175447347Y-110263748D01*
X175449961Y-110258412D01*
X175472694Y-110217061D01*
X175472695Y-110217060D01*
X175477733Y-110197435D01*
X175484138Y-110178730D01*
X175492181Y-110160145D01*
X175499563Y-110113525D01*
X175500761Y-110107744D01*
X175512500Y-110062030D01*
X175512500Y-110041769D01*
X175514051Y-110022058D01*
X175517219Y-110002056D01*
X175512780Y-109955089D01*
X175512500Y-109949157D01*
X175512500Y-107001524D01*
X175532502Y-106933403D01*
X175544858Y-106917220D01*
X175618040Y-106835944D01*
X175713527Y-106670556D01*
X175772542Y-106488928D01*
X175792504Y-106299000D01*
X175772542Y-106109072D01*
X175713527Y-105927444D01*
X175618040Y-105762056D01*
X175618038Y-105762054D01*
X175618034Y-105762048D01*
X175490255Y-105620135D01*
X175335752Y-105507882D01*
X175161288Y-105430206D01*
X174974487Y-105390500D01*
X174783513Y-105390500D01*
X174596711Y-105430206D01*
X174422247Y-105507882D01*
X174267744Y-105620135D01*
X174139965Y-105762048D01*
X174139958Y-105762058D01*
X174044476Y-105927438D01*
X174044473Y-105927445D01*
X173985457Y-106109072D01*
X173965496Y-106299000D01*
X173985457Y-106488927D01*
X173990763Y-106505256D01*
X174044473Y-106670556D01*
X174044476Y-106670561D01*
X174137512Y-106831705D01*
X174139960Y-106835944D01*
X174213137Y-106917215D01*
X174243853Y-106981220D01*
X174245500Y-107001524D01*
X174245500Y-109667404D01*
X174225498Y-109735525D01*
X174208595Y-109756499D01*
X170520595Y-113444499D01*
X170458283Y-113478525D01*
X170387468Y-113473460D01*
X170330632Y-113430913D01*
X170305821Y-113364393D01*
X170305500Y-113355404D01*
X170305500Y-95183594D01*
X170325502Y-95115473D01*
X170342405Y-95094499D01*
X171527500Y-93909405D01*
X171589812Y-93875379D01*
X171616595Y-93872500D01*
X171672487Y-93872500D01*
X171859288Y-93832794D01*
X172033752Y-93755118D01*
X172188253Y-93642866D01*
X172188255Y-93642864D01*
X172316034Y-93500951D01*
X172316035Y-93500949D01*
X172316040Y-93500944D01*
X172411527Y-93335556D01*
X172470542Y-93153928D01*
X172490504Y-92964000D01*
X172470542Y-92774072D01*
X172411527Y-92592444D01*
X172316040Y-92427056D01*
X172316038Y-92427054D01*
X172316034Y-92427048D01*
X172188255Y-92285135D01*
X172033752Y-92172882D01*
X171859288Y-92095206D01*
X171672487Y-92055500D01*
X171481513Y-92055500D01*
X171294711Y-92095206D01*
X171120247Y-92172882D01*
X170965744Y-92285135D01*
X170837965Y-92427048D01*
X170837958Y-92427058D01*
X170742476Y-92592438D01*
X170742473Y-92592445D01*
X170683457Y-92774072D01*
X170666092Y-92939292D01*
X170639079Y-93004949D01*
X170629877Y-93015216D01*
X169283336Y-94361757D01*
X169270901Y-94371721D01*
X169271089Y-94371948D01*
X169264980Y-94377001D01*
X169217015Y-94428079D01*
X169195866Y-94449227D01*
X169191560Y-94454777D01*
X169187714Y-94459279D01*
X169155417Y-94493674D01*
X169155411Y-94493683D01*
X169145651Y-94511435D01*
X169134803Y-94527950D01*
X169122386Y-94543958D01*
X169103645Y-94587264D01*
X169101034Y-94592594D01*
X169078305Y-94633939D01*
X169078303Y-94633944D01*
X169073267Y-94653559D01*
X169066864Y-94672262D01*
X169058819Y-94690852D01*
X169051437Y-94737456D01*
X169050233Y-94743268D01*
X169038500Y-94788968D01*
X169038500Y-94809223D01*
X169036949Y-94828933D01*
X169033780Y-94848942D01*
X169033780Y-94848943D01*
X169038220Y-94895917D01*
X169038500Y-94901850D01*
X169038500Y-113350405D01*
X169018498Y-113418526D01*
X169001595Y-113439500D01*
X166673500Y-115767595D01*
X166611188Y-115801621D01*
X166584405Y-115804500D01*
X166528513Y-115804500D01*
X166341711Y-115844206D01*
X166167248Y-115921882D01*
X166080135Y-115985173D01*
X166013268Y-116009031D01*
X165944116Y-115992950D01*
X165894636Y-115942035D01*
X165880766Y-115896409D01*
X165866542Y-115761072D01*
X165807527Y-115579444D01*
X165712040Y-115414056D01*
X165712038Y-115414054D01*
X165712034Y-115414048D01*
X165584255Y-115272135D01*
X165429752Y-115159882D01*
X165255284Y-115082204D01*
X165213230Y-115073265D01*
X165150757Y-115039536D01*
X165116436Y-114977387D01*
X165114118Y-114963188D01*
X165104542Y-114872072D01*
X165045527Y-114690444D01*
X164950040Y-114525056D01*
X164876863Y-114443784D01*
X164846146Y-114379776D01*
X164844500Y-114359474D01*
X164844500Y-106994593D01*
X164864502Y-106926472D01*
X164881400Y-106905503D01*
X166123657Y-105663245D01*
X166136092Y-105653284D01*
X166135905Y-105653057D01*
X166142009Y-105648005D01*
X166142018Y-105648000D01*
X166189999Y-105596904D01*
X166211134Y-105575770D01*
X166215429Y-105570232D01*
X166219271Y-105565731D01*
X166251586Y-105531321D01*
X166261345Y-105513567D01*
X166272197Y-105497046D01*
X166284613Y-105481041D01*
X166303347Y-105437748D01*
X166305961Y-105432412D01*
X166328694Y-105391061D01*
X166328695Y-105391060D01*
X166333733Y-105371435D01*
X166340138Y-105352730D01*
X166348181Y-105334145D01*
X166355563Y-105287525D01*
X166356761Y-105281744D01*
X166368500Y-105236030D01*
X166368500Y-105215769D01*
X166370051Y-105196058D01*
X166373219Y-105176056D01*
X166368780Y-105129089D01*
X166368500Y-105123157D01*
X166368500Y-94063854D01*
X166370249Y-94048012D01*
X166369956Y-94047985D01*
X166370700Y-94040099D01*
X166370702Y-94040092D01*
X166368500Y-93970028D01*
X166368500Y-93940144D01*
X166367620Y-93933182D01*
X166367156Y-93927293D01*
X166365674Y-93880111D01*
X166360017Y-93860642D01*
X166356012Y-93841298D01*
X166353474Y-93821203D01*
X166336100Y-93777322D01*
X166334181Y-93771716D01*
X166329310Y-93754951D01*
X166321018Y-93726407D01*
X166310706Y-93708970D01*
X166302010Y-93691221D01*
X166294552Y-93672383D01*
X166266812Y-93634203D01*
X166263564Y-93629258D01*
X166239542Y-93588638D01*
X166225214Y-93574310D01*
X166212384Y-93559289D01*
X166200472Y-93542893D01*
X166200469Y-93542891D01*
X166200469Y-93542890D01*
X166164113Y-93512813D01*
X166159721Y-93508817D01*
X165920121Y-93269216D01*
X165886095Y-93206904D01*
X165883908Y-93193306D01*
X165866542Y-93028072D01*
X165807527Y-92846444D01*
X165712040Y-92681056D01*
X165712038Y-92681054D01*
X165712034Y-92681048D01*
X165584255Y-92539135D01*
X165429752Y-92426882D01*
X165255288Y-92349206D01*
X165068487Y-92309500D01*
X164877513Y-92309500D01*
X164690711Y-92349206D01*
X164516247Y-92426882D01*
X164361744Y-92539135D01*
X164233965Y-92681048D01*
X164233958Y-92681058D01*
X164138476Y-92846438D01*
X164138473Y-92846445D01*
X164079457Y-93028072D01*
X164059496Y-93218000D01*
X164079457Y-93407927D01*
X164109526Y-93500470D01*
X164138473Y-93589556D01*
X164138476Y-93589561D01*
X164233958Y-93754941D01*
X164233965Y-93754951D01*
X164361744Y-93896864D01*
X164361747Y-93896866D01*
X164516248Y-94009118D01*
X164690712Y-94086794D01*
X164877513Y-94126500D01*
X164933404Y-94126500D01*
X165001525Y-94146502D01*
X165022498Y-94163403D01*
X165064594Y-94205498D01*
X165098620Y-94267810D01*
X165101500Y-94294595D01*
X165101500Y-94561458D01*
X165081498Y-94629579D01*
X165027842Y-94676072D01*
X164957568Y-94686176D01*
X164901440Y-94663395D01*
X164849784Y-94625865D01*
X164794752Y-94585882D01*
X164620288Y-94508206D01*
X164433487Y-94468500D01*
X164242513Y-94468500D01*
X164055711Y-94508206D01*
X163881247Y-94585882D01*
X163726747Y-94698133D01*
X163723437Y-94701810D01*
X163662991Y-94739050D01*
X163629800Y-94743500D01*
X152356853Y-94743500D01*
X152341011Y-94741750D01*
X152340984Y-94742044D01*
X152333092Y-94741298D01*
X152333091Y-94741298D01*
X152263042Y-94743500D01*
X152233144Y-94743500D01*
X152233140Y-94743500D01*
X152233130Y-94743501D01*
X152226179Y-94744379D01*
X152220267Y-94744844D01*
X152173113Y-94746326D01*
X152173111Y-94746327D01*
X152153656Y-94751978D01*
X152134303Y-94755986D01*
X152114211Y-94758524D01*
X152114204Y-94758525D01*
X152114203Y-94758526D01*
X152114201Y-94758526D01*
X152114200Y-94758527D01*
X152070339Y-94775892D01*
X152064724Y-94777815D01*
X152019407Y-94790982D01*
X152001964Y-94801297D01*
X151984218Y-94809990D01*
X151965382Y-94817448D01*
X151927209Y-94845181D01*
X151922248Y-94848440D01*
X151881638Y-94872458D01*
X151867311Y-94886784D01*
X151852285Y-94899617D01*
X151835895Y-94911525D01*
X151835893Y-94911527D01*
X151805808Y-94947892D01*
X151801812Y-94952283D01*
X141333794Y-105420299D01*
X141271482Y-105454325D01*
X141200667Y-105449260D01*
X141143831Y-105406713D01*
X141119087Y-105341091D01*
X141099609Y-105093597D01*
X141040505Y-104847409D01*
X140943616Y-104613498D01*
X140811328Y-104397624D01*
X140646898Y-104205102D01*
X140454376Y-104040672D01*
X140238502Y-103908384D01*
X140184463Y-103886000D01*
X140004589Y-103811494D01*
X139836177Y-103771062D01*
X139758403Y-103752391D01*
X139506000Y-103732526D01*
X139253597Y-103752391D01*
X139007410Y-103811494D01*
X138773499Y-103908383D01*
X138557625Y-104040671D01*
X138365102Y-104205102D01*
X138200671Y-104397625D01*
X138068383Y-104613499D01*
X137971494Y-104847410D01*
X137956582Y-104909525D01*
X137912391Y-105093597D01*
X137892526Y-105346000D01*
X137912391Y-105598403D01*
X137924298Y-105648000D01*
X137971494Y-105844589D01*
X138042204Y-106015297D01*
X138068384Y-106078502D01*
X138200672Y-106294376D01*
X138365102Y-106486898D01*
X138557624Y-106651328D01*
X138773498Y-106783616D01*
X139007409Y-106880505D01*
X139253597Y-106939609D01*
X139506000Y-106959474D01*
X139758403Y-106939609D01*
X139805100Y-106928398D01*
X139876008Y-106931944D01*
X139933742Y-106973263D01*
X139954348Y-107011979D01*
X139961805Y-107034928D01*
X140008473Y-107178556D01*
X140008476Y-107178561D01*
X140103958Y-107343941D01*
X140103965Y-107343951D01*
X140231744Y-107485864D01*
X140231747Y-107485866D01*
X140386248Y-107598118D01*
X140560712Y-107675794D01*
X140747513Y-107715500D01*
X140938487Y-107715500D01*
X141125288Y-107675794D01*
X141299752Y-107598118D01*
X141299756Y-107598114D01*
X141302251Y-107597004D01*
X141372618Y-107587570D01*
X141436915Y-107617676D01*
X141474728Y-107677765D01*
X141479500Y-107712111D01*
X141479500Y-109644146D01*
X141477751Y-109659988D01*
X141478044Y-109660016D01*
X141477298Y-109667907D01*
X141479500Y-109737957D01*
X141479500Y-109767851D01*
X141479501Y-109767872D01*
X141480378Y-109774820D01*
X141480844Y-109780732D01*
X141482326Y-109827888D01*
X141482327Y-109827893D01*
X141487977Y-109847339D01*
X141491986Y-109866697D01*
X141494525Y-109886793D01*
X141494526Y-109886799D01*
X141511893Y-109930662D01*
X141513816Y-109936279D01*
X141526982Y-109981593D01*
X141537294Y-109999031D01*
X141545988Y-110016779D01*
X141553444Y-110035609D01*
X141553450Y-110035620D01*
X141581177Y-110073783D01*
X141584437Y-110078746D01*
X141608460Y-110119365D01*
X141622779Y-110133684D01*
X141635617Y-110148714D01*
X141643919Y-110160140D01*
X141647528Y-110165107D01*
X141674999Y-110187833D01*
X141683886Y-110195185D01*
X141688267Y-110199171D01*
X143093595Y-111604499D01*
X143127621Y-111666811D01*
X143130500Y-111693594D01*
X143130500Y-114232474D01*
X143110498Y-114300595D01*
X143098137Y-114316784D01*
X143024957Y-114398059D01*
X142929476Y-114563438D01*
X142929473Y-114563445D01*
X142870457Y-114745072D01*
X142850496Y-114935000D01*
X142870457Y-115124927D01*
X142893123Y-115194683D01*
X142929473Y-115306556D01*
X142929476Y-115306561D01*
X143024958Y-115471941D01*
X143024965Y-115471951D01*
X143152743Y-115613863D01*
X143152746Y-115613865D01*
X143152747Y-115613866D01*
X143307248Y-115726118D01*
X143481712Y-115803794D01*
X143668513Y-115843500D01*
X143859485Y-115843500D01*
X143859487Y-115843500D01*
X143867300Y-115841839D01*
X143938088Y-115847237D01*
X143994723Y-115890051D01*
X144019220Y-115956687D01*
X144019500Y-115965084D01*
X144019500Y-116010474D01*
X143999498Y-116078595D01*
X143987137Y-116094784D01*
X143913957Y-116176059D01*
X143818476Y-116341438D01*
X143818473Y-116341445D01*
X143759457Y-116523072D01*
X143739496Y-116713000D01*
X143759457Y-116902927D01*
X143783643Y-116977362D01*
X143818473Y-117084556D01*
X143818476Y-117084561D01*
X143913958Y-117249941D01*
X143913965Y-117249951D01*
X144041744Y-117391864D01*
X144041747Y-117391866D01*
X144196248Y-117504118D01*
X144370712Y-117581794D01*
X144557513Y-117621500D01*
X144748487Y-117621500D01*
X144935288Y-117581794D01*
X145109752Y-117504118D01*
X145264253Y-117391866D01*
X145392040Y-117249944D01*
X145487527Y-117084556D01*
X145546542Y-116902928D01*
X145566504Y-116713000D01*
X145546542Y-116523072D01*
X145487527Y-116341444D01*
X145392040Y-116176056D01*
X145318863Y-116094784D01*
X145288146Y-116030776D01*
X145286500Y-116010474D01*
X145286500Y-107509524D01*
X145306502Y-107441403D01*
X145318858Y-107425220D01*
X145392040Y-107343944D01*
X145487527Y-107178556D01*
X145546542Y-106996928D01*
X145563907Y-106831703D01*
X145590920Y-106766048D01*
X145600113Y-106755789D01*
X152244500Y-100111405D01*
X152306812Y-100077379D01*
X152333595Y-100074500D01*
X155265405Y-100074500D01*
X155333526Y-100094502D01*
X155380019Y-100148158D01*
X155390123Y-100218432D01*
X155360629Y-100283012D01*
X155354500Y-100289595D01*
X149782500Y-105861595D01*
X149720188Y-105895621D01*
X149693405Y-105898500D01*
X149637513Y-105898500D01*
X149450711Y-105938206D01*
X149276247Y-106015882D01*
X149121744Y-106128135D01*
X148993965Y-106270048D01*
X148993958Y-106270058D01*
X148898476Y-106435438D01*
X148898473Y-106435445D01*
X148839457Y-106617072D01*
X148819496Y-106807000D01*
X148839457Y-106996927D01*
X148851805Y-107034928D01*
X148898473Y-107178556D01*
X148898476Y-107178561D01*
X148993958Y-107343941D01*
X148993965Y-107343951D01*
X149121744Y-107485864D01*
X149121747Y-107485866D01*
X149276248Y-107598118D01*
X149450712Y-107675794D01*
X149637513Y-107715500D01*
X149828487Y-107715500D01*
X150015288Y-107675794D01*
X150189752Y-107598118D01*
X150344253Y-107485866D01*
X150398865Y-107425213D01*
X150472034Y-107343951D01*
X150472035Y-107343949D01*
X150472040Y-107343944D01*
X150567527Y-107178556D01*
X150626542Y-106996928D01*
X150643907Y-106831703D01*
X150670920Y-106766048D01*
X150680113Y-106755789D01*
X151090059Y-106345843D01*
X151152369Y-106311819D01*
X151223184Y-106316884D01*
X151280020Y-106359431D01*
X151304831Y-106425951D01*
X151298985Y-106473876D01*
X151252457Y-106617071D01*
X151232496Y-106807000D01*
X151252457Y-106996927D01*
X151264805Y-107034928D01*
X151311473Y-107178556D01*
X151311476Y-107178561D01*
X151399026Y-107330203D01*
X151406960Y-107343944D01*
X151480137Y-107425215D01*
X151510853Y-107489220D01*
X151512500Y-107509524D01*
X151512500Y-109159404D01*
X151492498Y-109227525D01*
X151475595Y-109248499D01*
X148201336Y-112522757D01*
X148188901Y-112532721D01*
X148189089Y-112532948D01*
X148182980Y-112538001D01*
X148135016Y-112589078D01*
X148113866Y-112610227D01*
X148109560Y-112615777D01*
X148105714Y-112620279D01*
X148073417Y-112654674D01*
X148073411Y-112654683D01*
X148063651Y-112672435D01*
X148052803Y-112688950D01*
X148040386Y-112704958D01*
X148021645Y-112748264D01*
X148019034Y-112753594D01*
X147996305Y-112794939D01*
X147996303Y-112794944D01*
X147991267Y-112814559D01*
X147984864Y-112833262D01*
X147976819Y-112851852D01*
X147969437Y-112898456D01*
X147968233Y-112904268D01*
X147956500Y-112949968D01*
X147956500Y-112970223D01*
X147954949Y-112989933D01*
X147951780Y-113009942D01*
X147951780Y-113009943D01*
X147956220Y-113056917D01*
X147956500Y-113062850D01*
X147956500Y-119312474D01*
X147936498Y-119380595D01*
X147924137Y-119396784D01*
X147850957Y-119478059D01*
X147765271Y-119626473D01*
X147755473Y-119643444D01*
X147751284Y-119656337D01*
X147696457Y-119825072D01*
X147676496Y-120015000D01*
X147696457Y-120204927D01*
X147720343Y-120278438D01*
X147755473Y-120386556D01*
X147755476Y-120386561D01*
X147850958Y-120551941D01*
X147850965Y-120551951D01*
X147978744Y-120693864D01*
X147978747Y-120693866D01*
X148133248Y-120806118D01*
X148307712Y-120883794D01*
X148494513Y-120923500D01*
X148685487Y-120923500D01*
X148872288Y-120883794D01*
X149046752Y-120806118D01*
X149201253Y-120693866D01*
X149218504Y-120674707D01*
X149329034Y-120551951D01*
X149329035Y-120551949D01*
X149329040Y-120551944D01*
X149424527Y-120386556D01*
X149483542Y-120204928D01*
X149503504Y-120015000D01*
X149483542Y-119825072D01*
X149424527Y-119643444D01*
X149334171Y-119486943D01*
X149329042Y-119478059D01*
X149329041Y-119478058D01*
X149329040Y-119478056D01*
X149255863Y-119396784D01*
X149225146Y-119332776D01*
X149223500Y-119312474D01*
X149223500Y-113344593D01*
X149243502Y-113276472D01*
X149260400Y-113255503D01*
X152534657Y-109981245D01*
X152547092Y-109971284D01*
X152546905Y-109971057D01*
X152553009Y-109966005D01*
X152553018Y-109966000D01*
X152600999Y-109914904D01*
X152622134Y-109893770D01*
X152626429Y-109888232D01*
X152630271Y-109883731D01*
X152662586Y-109849321D01*
X152672345Y-109831567D01*
X152683197Y-109815046D01*
X152695613Y-109799041D01*
X152706946Y-109772850D01*
X152714347Y-109755748D01*
X152716961Y-109750412D01*
X152739694Y-109709061D01*
X152739695Y-109709060D01*
X152744733Y-109689435D01*
X152751138Y-109670730D01*
X152752360Y-109667907D01*
X152759181Y-109652145D01*
X152766563Y-109605525D01*
X152767761Y-109599744D01*
X152779500Y-109554030D01*
X152779500Y-109533769D01*
X152781051Y-109514058D01*
X152784219Y-109494056D01*
X152779780Y-109447089D01*
X152779500Y-109441157D01*
X152779500Y-107509524D01*
X152799502Y-107441403D01*
X152811858Y-107425220D01*
X152885040Y-107343944D01*
X152980527Y-107178556D01*
X153039542Y-106996928D01*
X153059504Y-106807000D01*
X153039542Y-106617072D01*
X152980527Y-106435444D01*
X152885040Y-106270056D01*
X152885038Y-106270054D01*
X152885034Y-106270048D01*
X152757255Y-106128135D01*
X152602752Y-106015882D01*
X152428288Y-105938206D01*
X152241487Y-105898500D01*
X152050513Y-105898500D01*
X151863711Y-105938206D01*
X151825011Y-105955436D01*
X151754644Y-105964869D01*
X151690347Y-105934761D01*
X151652535Y-105874672D01*
X151653212Y-105803678D01*
X151684666Y-105751236D01*
X156181500Y-101254405D01*
X156243812Y-101220379D01*
X156270595Y-101217500D01*
X157932404Y-101217500D01*
X158000525Y-101237502D01*
X158047018Y-101291158D01*
X158057122Y-101361432D01*
X158027628Y-101426012D01*
X158021499Y-101432595D01*
X156710336Y-102743757D01*
X156697901Y-102753721D01*
X156698089Y-102753948D01*
X156691980Y-102759001D01*
X156644016Y-102810078D01*
X156622866Y-102831227D01*
X156618560Y-102836777D01*
X156614714Y-102841279D01*
X156582417Y-102875674D01*
X156582411Y-102875683D01*
X156572651Y-102893435D01*
X156561803Y-102909950D01*
X156549386Y-102925958D01*
X156530645Y-102969264D01*
X156528034Y-102974594D01*
X156505305Y-103015939D01*
X156505303Y-103015944D01*
X156500267Y-103035559D01*
X156493864Y-103054262D01*
X156485819Y-103072852D01*
X156478437Y-103119456D01*
X156477233Y-103125268D01*
X156465500Y-103170968D01*
X156465500Y-103191223D01*
X156463949Y-103210933D01*
X156460780Y-103230942D01*
X156460780Y-103230943D01*
X156465220Y-103277917D01*
X156465500Y-103283850D01*
X156465500Y-106100272D01*
X156445498Y-106168393D01*
X156433138Y-106184579D01*
X156433050Y-106184678D01*
X156321962Y-106308053D01*
X156321958Y-106308058D01*
X156226476Y-106473438D01*
X156226473Y-106473444D01*
X156221442Y-106488927D01*
X156167457Y-106655072D01*
X156147496Y-106845000D01*
X156167457Y-107034927D01*
X156197526Y-107127470D01*
X156226473Y-107216556D01*
X156226476Y-107216561D01*
X156321958Y-107381941D01*
X156321965Y-107381951D01*
X156449744Y-107523864D01*
X156449747Y-107523866D01*
X156604248Y-107636118D01*
X156778712Y-107713794D01*
X156965513Y-107753500D01*
X157156487Y-107753500D01*
X157343288Y-107713794D01*
X157517752Y-107636118D01*
X157672253Y-107523866D01*
X157685167Y-107509524D01*
X157800034Y-107381951D01*
X157800035Y-107381949D01*
X157800040Y-107381944D01*
X157809100Y-107366250D01*
X157860477Y-107317259D01*
X157930190Y-107303819D01*
X157996102Y-107330203D01*
X158011855Y-107344939D01*
X158138744Y-107485864D01*
X158138747Y-107485866D01*
X158293248Y-107598118D01*
X158467712Y-107675794D01*
X158654513Y-107715500D01*
X158845487Y-107715500D01*
X159032288Y-107675794D01*
X159206752Y-107598118D01*
X159361253Y-107485866D01*
X159415865Y-107425213D01*
X159489034Y-107343951D01*
X159489035Y-107343949D01*
X159489040Y-107343944D01*
X159584527Y-107178556D01*
X159643542Y-106996928D01*
X159663504Y-106807000D01*
X159644400Y-106625238D01*
X159657172Y-106555402D01*
X159705674Y-106503556D01*
X159774507Y-106486161D01*
X159832711Y-106502952D01*
X159836695Y-106505252D01*
X159836701Y-106505255D01*
X159836703Y-106505256D01*
X160048174Y-106603867D01*
X160273556Y-106664258D01*
X160506000Y-106684594D01*
X160738444Y-106664258D01*
X160963826Y-106603867D01*
X161175297Y-106505256D01*
X161366432Y-106371422D01*
X161531422Y-106206432D01*
X161665256Y-106015297D01*
X161763867Y-105803826D01*
X161824258Y-105578444D01*
X161844594Y-105346000D01*
X161824258Y-105113556D01*
X161763867Y-104888174D01*
X161675537Y-104698750D01*
X161664876Y-104628558D01*
X161693856Y-104563746D01*
X161753276Y-104524889D01*
X161789732Y-104519500D01*
X163375800Y-104519500D01*
X163443921Y-104539502D01*
X163469437Y-104561190D01*
X163472747Y-104564866D01*
X163627248Y-104677118D01*
X163801712Y-104754794D01*
X163988513Y-104794500D01*
X164179487Y-104794500D01*
X164366288Y-104754794D01*
X164540752Y-104677118D01*
X164695253Y-104564866D01*
X164695255Y-104564864D01*
X164823034Y-104422951D01*
X164823035Y-104422949D01*
X164823040Y-104422944D01*
X164866381Y-104347874D01*
X164917763Y-104298882D01*
X164987477Y-104285446D01*
X165053388Y-104311832D01*
X165094570Y-104369664D01*
X165101500Y-104410875D01*
X165101500Y-104841404D01*
X165081498Y-104909525D01*
X165064595Y-104930499D01*
X163822336Y-106172757D01*
X163809901Y-106182721D01*
X163810089Y-106182948D01*
X163803980Y-106188001D01*
X163756016Y-106239078D01*
X163734866Y-106260227D01*
X163730560Y-106265777D01*
X163726714Y-106270279D01*
X163694417Y-106304674D01*
X163694411Y-106304683D01*
X163684651Y-106322435D01*
X163673803Y-106338950D01*
X163661386Y-106354958D01*
X163642645Y-106398264D01*
X163640034Y-106403594D01*
X163617305Y-106444939D01*
X163617303Y-106444944D01*
X163612267Y-106464559D01*
X163605864Y-106483262D01*
X163597819Y-106501852D01*
X163590437Y-106548456D01*
X163589233Y-106554268D01*
X163577500Y-106599968D01*
X163577500Y-106620223D01*
X163575949Y-106639933D01*
X163572780Y-106659942D01*
X163572780Y-106659943D01*
X163577220Y-106706917D01*
X163577500Y-106712850D01*
X163577500Y-114359474D01*
X163557498Y-114427595D01*
X163545137Y-114443784D01*
X163471957Y-114525059D01*
X163376476Y-114690438D01*
X163376473Y-114690445D01*
X163317457Y-114872072D01*
X163300225Y-115036029D01*
X163273212Y-115101685D01*
X163266768Y-115109108D01*
X163248017Y-115129076D01*
X163226866Y-115150227D01*
X163222560Y-115155777D01*
X163218714Y-115160279D01*
X163186417Y-115194674D01*
X163186411Y-115194683D01*
X163176651Y-115212435D01*
X163165803Y-115228950D01*
X163153386Y-115244958D01*
X163134645Y-115288264D01*
X163132034Y-115293594D01*
X163109305Y-115334939D01*
X163109303Y-115334944D01*
X163104267Y-115354559D01*
X163097864Y-115373262D01*
X163089819Y-115391852D01*
X163082437Y-115438456D01*
X163081233Y-115444268D01*
X163069500Y-115489968D01*
X163069500Y-115510223D01*
X163067949Y-115529933D01*
X163064780Y-115549942D01*
X163064780Y-115549943D01*
X163069220Y-115596917D01*
X163069500Y-115602850D01*
X163069500Y-118811405D01*
X163049498Y-118879526D01*
X163032599Y-118900495D01*
X162562541Y-119370554D01*
X162103522Y-119829573D01*
X162080148Y-119842335D01*
X162074321Y-119857304D01*
X162063637Y-119869458D01*
X161122593Y-120810501D01*
X161060283Y-120844525D01*
X160989468Y-120839461D01*
X160932632Y-120796914D01*
X160907821Y-120730394D01*
X160907500Y-120721405D01*
X160907500Y-120002090D01*
X160927502Y-119933969D01*
X160981158Y-119887476D01*
X161051432Y-119877372D01*
X161059698Y-119878844D01*
X161194509Y-119907500D01*
X161194513Y-119907500D01*
X161385487Y-119907500D01*
X161572288Y-119867794D01*
X161746752Y-119790118D01*
X161900481Y-119678426D01*
X161906554Y-119676259D01*
X161920788Y-119656169D01*
X162029040Y-119535944D01*
X162124527Y-119370556D01*
X162183542Y-119188928D01*
X162203504Y-118999000D01*
X162183542Y-118809072D01*
X162124527Y-118627444D01*
X162029040Y-118462056D01*
X162029038Y-118462054D01*
X162029034Y-118462048D01*
X161901255Y-118320135D01*
X161746752Y-118207882D01*
X161572288Y-118130206D01*
X161385487Y-118090500D01*
X161194513Y-118090500D01*
X161007711Y-118130206D01*
X160833247Y-118207882D01*
X160678749Y-118320132D01*
X160678748Y-118320132D01*
X160644790Y-118357846D01*
X160597536Y-118390687D01*
X160579325Y-118397897D01*
X160573709Y-118399819D01*
X160528410Y-118412980D01*
X160528404Y-118412982D01*
X160510966Y-118423295D01*
X160493220Y-118431989D01*
X160474381Y-118439448D01*
X160474380Y-118439449D01*
X160436213Y-118467178D01*
X160431252Y-118470437D01*
X160390637Y-118494458D01*
X160376307Y-118508787D01*
X160361281Y-118521620D01*
X160344895Y-118533526D01*
X160344894Y-118533526D01*
X160314818Y-118569880D01*
X160310823Y-118574271D01*
X159885336Y-118999757D01*
X159872901Y-119009721D01*
X159873089Y-119009948D01*
X159866980Y-119015001D01*
X159819016Y-119066078D01*
X159797866Y-119087227D01*
X159793560Y-119092777D01*
X159789714Y-119097279D01*
X159757417Y-119131674D01*
X159757411Y-119131683D01*
X159747651Y-119149435D01*
X159736803Y-119165950D01*
X159724386Y-119181958D01*
X159705645Y-119225264D01*
X159703034Y-119230594D01*
X159680305Y-119271939D01*
X159680303Y-119271944D01*
X159675267Y-119291559D01*
X159668864Y-119310262D01*
X159660819Y-119328852D01*
X159653437Y-119375456D01*
X159652233Y-119381268D01*
X159640500Y-119426968D01*
X159640500Y-119447223D01*
X159638949Y-119466933D01*
X159635780Y-119486942D01*
X159635780Y-119486943D01*
X159640220Y-119533917D01*
X159640500Y-119539850D01*
X159640500Y-121097405D01*
X159620498Y-121165526D01*
X159603595Y-121186500D01*
X158524500Y-122265595D01*
X158462188Y-122299621D01*
X158435405Y-122302500D01*
X154243853Y-122302500D01*
X154228011Y-122300750D01*
X154227984Y-122301044D01*
X154220092Y-122300298D01*
X154220091Y-122300298D01*
X154150042Y-122302500D01*
X154120144Y-122302500D01*
X154120140Y-122302500D01*
X154120130Y-122302501D01*
X154113179Y-122303379D01*
X154107267Y-122303844D01*
X154060113Y-122305326D01*
X154060111Y-122305327D01*
X154040656Y-122310978D01*
X154021303Y-122314986D01*
X154001211Y-122317524D01*
X154001204Y-122317525D01*
X154001203Y-122317526D01*
X154001201Y-122317526D01*
X154001200Y-122317527D01*
X153957339Y-122334892D01*
X153951724Y-122336815D01*
X153906407Y-122349982D01*
X153888964Y-122360297D01*
X153871218Y-122368990D01*
X153852382Y-122376448D01*
X153814209Y-122404181D01*
X153809248Y-122407440D01*
X153768638Y-122431458D01*
X153754311Y-122445784D01*
X153739285Y-122458617D01*
X153722895Y-122470525D01*
X153722893Y-122470527D01*
X153692808Y-122506892D01*
X153688812Y-122511283D01*
X151557277Y-124642817D01*
X151494965Y-124676843D01*
X151427273Y-124672896D01*
X151406957Y-124665922D01*
X151406948Y-124665919D01*
X151308411Y-124649476D01*
X151176712Y-124627500D01*
X150943288Y-124627500D01*
X150828066Y-124646727D01*
X150713051Y-124665919D01*
X150713044Y-124665921D01*
X150492276Y-124741711D01*
X150492273Y-124741713D01*
X150286985Y-124852809D01*
X150286983Y-124852810D01*
X150102778Y-124996182D01*
X150102774Y-124996186D01*
X149944685Y-125167916D01*
X149817015Y-125363331D01*
X149723252Y-125577089D01*
X149723249Y-125577096D01*
X149665950Y-125803366D01*
X149665950Y-125803370D01*
X149665949Y-125803374D01*
X149646673Y-126036000D01*
X149659569Y-126191637D01*
X149665950Y-126268633D01*
X149723249Y-126494903D01*
X149723252Y-126494910D01*
X149817015Y-126708668D01*
X149943288Y-126901944D01*
X149944686Y-126904083D01*
X150102780Y-127075818D01*
X150102880Y-127075895D01*
X150102909Y-127075936D01*
X150106615Y-127079348D01*
X150105913Y-127080109D01*
X150144357Y-127133513D01*
X150151500Y-127175335D01*
X150151500Y-128856664D01*
X150131498Y-128924785D01*
X150106319Y-128952345D01*
X150106608Y-128952659D01*
X150102989Y-128955989D01*
X150102896Y-128956092D01*
X150102781Y-128956181D01*
X150102768Y-128956193D01*
X149944685Y-129127916D01*
X149817015Y-129323331D01*
X149723252Y-129537089D01*
X149723249Y-129537096D01*
X149665950Y-129763366D01*
X149646673Y-129996000D01*
X149665950Y-130228633D01*
X149723249Y-130454903D01*
X149723252Y-130454910D01*
X149817015Y-130668668D01*
X149944685Y-130864083D01*
X150102774Y-131035813D01*
X150102778Y-131035817D01*
X150168650Y-131087087D01*
X150286983Y-131179190D01*
X150492273Y-131290287D01*
X150713049Y-131366080D01*
X150943288Y-131404500D01*
X150943292Y-131404500D01*
X151176708Y-131404500D01*
X151176712Y-131404500D01*
X151406951Y-131366080D01*
X151627727Y-131290287D01*
X151833017Y-131179190D01*
X152017220Y-131035818D01*
X152020844Y-131031882D01*
X152175314Y-130864083D01*
X152211478Y-130808730D01*
X152302984Y-130668669D01*
X152396749Y-130454907D01*
X152454051Y-130228626D01*
X152473327Y-129996000D01*
X153606673Y-129996000D01*
X153625950Y-130228633D01*
X153683249Y-130454903D01*
X153683252Y-130454910D01*
X153777015Y-130668668D01*
X153904685Y-130864083D01*
X154062774Y-131035813D01*
X154062778Y-131035817D01*
X154128650Y-131087087D01*
X154246983Y-131179190D01*
X154452273Y-131290287D01*
X154673049Y-131366080D01*
X154903288Y-131404500D01*
X154903292Y-131404500D01*
X155136708Y-131404500D01*
X155136712Y-131404500D01*
X155366951Y-131366080D01*
X155587727Y-131290287D01*
X155793017Y-131179190D01*
X155977220Y-131035818D01*
X155980844Y-131031882D01*
X156135314Y-130864083D01*
X156171478Y-130808730D01*
X156262984Y-130668669D01*
X156356749Y-130454907D01*
X156414051Y-130228626D01*
X156433327Y-129996000D01*
X156414051Y-129763374D01*
X156398820Y-129703227D01*
X156356750Y-129537096D01*
X156356747Y-129537089D01*
X156354400Y-129531739D01*
X156262984Y-129323331D01*
X156135314Y-129127916D01*
X155977231Y-128956193D01*
X155977225Y-128956187D01*
X155977220Y-128956182D01*
X155977103Y-128956091D01*
X155977069Y-128956043D01*
X155973392Y-128952659D01*
X155974088Y-128951901D01*
X155935636Y-128898465D01*
X155928500Y-128856664D01*
X155928500Y-127175335D01*
X155948502Y-127107214D01*
X155973676Y-127079664D01*
X155973385Y-127079348D01*
X155977036Y-127075986D01*
X155977117Y-127075897D01*
X155977220Y-127075818D01*
X156135314Y-126904083D01*
X156262984Y-126708669D01*
X156356749Y-126494907D01*
X156414051Y-126268626D01*
X156433327Y-126036000D01*
X156414051Y-125803374D01*
X156384362Y-125686134D01*
X156356750Y-125577096D01*
X156356747Y-125577089D01*
X156355340Y-125573882D01*
X156262984Y-125363331D01*
X156218592Y-125295384D01*
X156135314Y-125167916D01*
X155977225Y-124996186D01*
X155977221Y-124996182D01*
X155822130Y-124875470D01*
X155793017Y-124852810D01*
X155587727Y-124741713D01*
X155587724Y-124741712D01*
X155587723Y-124741711D01*
X155366955Y-124665921D01*
X155366948Y-124665919D01*
X155268411Y-124649476D01*
X155136712Y-124627500D01*
X154903288Y-124627500D01*
X154788066Y-124646727D01*
X154673051Y-124665919D01*
X154673044Y-124665921D01*
X154452276Y-124741711D01*
X154452273Y-124741713D01*
X154246985Y-124852809D01*
X154246983Y-124852810D01*
X154062778Y-124996182D01*
X154062774Y-124996186D01*
X153904685Y-125167916D01*
X153777015Y-125363331D01*
X153683252Y-125577089D01*
X153683249Y-125577096D01*
X153625950Y-125803366D01*
X153625950Y-125803370D01*
X153625949Y-125803374D01*
X153606673Y-126036000D01*
X153619569Y-126191637D01*
X153625950Y-126268633D01*
X153683249Y-126494903D01*
X153683252Y-126494910D01*
X153777015Y-126708668D01*
X153903288Y-126901944D01*
X153904686Y-126904083D01*
X154062780Y-127075818D01*
X154062880Y-127075895D01*
X154062909Y-127075936D01*
X154066615Y-127079348D01*
X154065913Y-127080109D01*
X154104357Y-127133513D01*
X154111500Y-127175335D01*
X154111500Y-128856664D01*
X154091498Y-128924785D01*
X154066319Y-128952345D01*
X154066608Y-128952659D01*
X154062989Y-128955989D01*
X154062896Y-128956092D01*
X154062781Y-128956181D01*
X154062768Y-128956193D01*
X153904685Y-129127916D01*
X153777015Y-129323331D01*
X153683252Y-129537089D01*
X153683249Y-129537096D01*
X153625950Y-129763366D01*
X153606673Y-129996000D01*
X152473327Y-129996000D01*
X152454051Y-129763374D01*
X152438820Y-129703227D01*
X152396750Y-129537096D01*
X152396747Y-129537089D01*
X152394400Y-129531739D01*
X152302984Y-129323331D01*
X152175314Y-129127916D01*
X152017231Y-128956193D01*
X152017225Y-128956187D01*
X152017220Y-128956182D01*
X152017103Y-128956091D01*
X152017069Y-128956043D01*
X152013392Y-128952659D01*
X152014088Y-128951901D01*
X151975636Y-128898465D01*
X151968500Y-128856664D01*
X151968500Y-127175335D01*
X151988502Y-127107214D01*
X152013676Y-127079664D01*
X152013385Y-127079348D01*
X152017036Y-127075986D01*
X152017117Y-127075897D01*
X152017220Y-127075818D01*
X152175314Y-126904083D01*
X152302984Y-126708669D01*
X152396749Y-126494907D01*
X152454051Y-126268626D01*
X152473327Y-126036000D01*
X152454051Y-125803374D01*
X152417973Y-125660905D01*
X152420640Y-125589960D01*
X152451018Y-125540884D01*
X154385502Y-123606402D01*
X154447812Y-123572379D01*
X154474595Y-123569500D01*
X158666147Y-123569500D01*
X158681988Y-123571249D01*
X158682016Y-123570956D01*
X158689902Y-123571700D01*
X158689909Y-123571702D01*
X158759958Y-123569500D01*
X158789856Y-123569500D01*
X158796818Y-123568619D01*
X158802719Y-123568154D01*
X158849889Y-123566673D01*
X158869347Y-123561019D01*
X158888694Y-123557013D01*
X158908797Y-123554474D01*
X158913960Y-123552430D01*
X158920950Y-123549662D01*
X158952679Y-123537099D01*
X158958274Y-123535183D01*
X158986816Y-123526891D01*
X159003591Y-123522019D01*
X159003595Y-123522017D01*
X159021026Y-123511708D01*
X159038780Y-123503009D01*
X159057617Y-123495552D01*
X159095786Y-123467818D01*
X159100744Y-123464562D01*
X159141362Y-123440542D01*
X159155685Y-123426218D01*
X159170724Y-123413374D01*
X159173436Y-123411404D01*
X159187107Y-123401472D01*
X159217193Y-123365103D01*
X159221161Y-123360741D01*
X160441406Y-122140496D01*
X160503717Y-122106472D01*
X160574533Y-122111537D01*
X160631368Y-122154084D01*
X160656179Y-122220604D01*
X160656500Y-122229593D01*
X160656500Y-123411404D01*
X160636498Y-123479525D01*
X160619595Y-123500499D01*
X159477276Y-124642817D01*
X159414964Y-124676843D01*
X159347270Y-124672895D01*
X159326959Y-124665922D01*
X159326948Y-124665919D01*
X159228411Y-124649476D01*
X159096712Y-124627500D01*
X158863288Y-124627500D01*
X158748066Y-124646727D01*
X158633051Y-124665919D01*
X158633044Y-124665921D01*
X158412276Y-124741711D01*
X158412273Y-124741713D01*
X158206985Y-124852809D01*
X158206983Y-124852810D01*
X158022778Y-124996182D01*
X158022774Y-124996186D01*
X157864685Y-125167916D01*
X157737015Y-125363331D01*
X157643252Y-125577089D01*
X157643249Y-125577096D01*
X157585950Y-125803366D01*
X157585950Y-125803370D01*
X157585949Y-125803374D01*
X157566673Y-126036000D01*
X157579569Y-126191637D01*
X157585950Y-126268633D01*
X157643249Y-126494903D01*
X157643252Y-126494910D01*
X157737015Y-126708668D01*
X157863288Y-126901944D01*
X157864686Y-126904083D01*
X158022780Y-127075818D01*
X158022880Y-127075895D01*
X158022909Y-127075936D01*
X158026615Y-127079348D01*
X158025913Y-127080109D01*
X158064357Y-127133513D01*
X158071500Y-127175335D01*
X158071500Y-128856664D01*
X158051498Y-128924785D01*
X158026319Y-128952345D01*
X158026608Y-128952659D01*
X158022989Y-128955989D01*
X158022896Y-128956092D01*
X158022781Y-128956181D01*
X158022768Y-128956193D01*
X157864685Y-129127916D01*
X157737015Y-129323331D01*
X157643252Y-129537089D01*
X157643249Y-129537096D01*
X157585950Y-129763366D01*
X157566673Y-129996000D01*
X157585950Y-130228633D01*
X157643249Y-130454903D01*
X157643252Y-130454910D01*
X157737015Y-130668668D01*
X157864685Y-130864083D01*
X158022774Y-131035813D01*
X158022778Y-131035817D01*
X158088650Y-131087087D01*
X158206983Y-131179190D01*
X158412273Y-131290287D01*
X158633049Y-131366080D01*
X158863288Y-131404500D01*
X158863292Y-131404500D01*
X159096708Y-131404500D01*
X159096712Y-131404500D01*
X159326951Y-131366080D01*
X159547727Y-131290287D01*
X159753017Y-131179190D01*
X159937220Y-131035818D01*
X159940844Y-131031882D01*
X160095314Y-130864083D01*
X160131478Y-130808730D01*
X160222984Y-130668669D01*
X160316749Y-130454907D01*
X160374051Y-130228626D01*
X160393327Y-129996000D01*
X160374051Y-129763374D01*
X160358820Y-129703227D01*
X160316750Y-129537096D01*
X160316747Y-129537089D01*
X160314400Y-129531739D01*
X160222984Y-129323331D01*
X160095314Y-129127916D01*
X159937231Y-128956193D01*
X159937225Y-128956187D01*
X159937220Y-128956182D01*
X159937103Y-128956091D01*
X159937069Y-128956043D01*
X159933392Y-128952659D01*
X159934088Y-128951901D01*
X159895636Y-128898465D01*
X159888500Y-128856664D01*
X159888500Y-127175335D01*
X159908502Y-127107214D01*
X159933676Y-127079664D01*
X159933385Y-127079348D01*
X159937036Y-127075986D01*
X159937117Y-127075897D01*
X159937220Y-127075818D01*
X160095314Y-126904083D01*
X160222984Y-126708669D01*
X160316749Y-126494907D01*
X160374051Y-126268626D01*
X160393327Y-126036000D01*
X160374051Y-125803374D01*
X160337973Y-125660905D01*
X160340640Y-125589960D01*
X160371020Y-125540882D01*
X161678657Y-124233245D01*
X161691092Y-124223284D01*
X161690905Y-124223057D01*
X161697009Y-124218005D01*
X161697018Y-124218000D01*
X161744999Y-124166904D01*
X161766134Y-124145770D01*
X161770429Y-124140232D01*
X161774271Y-124135731D01*
X161806586Y-124101321D01*
X161816345Y-124083567D01*
X161827197Y-124067046D01*
X161839613Y-124051041D01*
X161858347Y-124007748D01*
X161860961Y-124002412D01*
X161883694Y-123961061D01*
X161883695Y-123961060D01*
X161888733Y-123941435D01*
X161895138Y-123922730D01*
X161903181Y-123904145D01*
X161910563Y-123857525D01*
X161911761Y-123851744D01*
X161923500Y-123806030D01*
X161923500Y-123785769D01*
X161925051Y-123766058D01*
X161926059Y-123759697D01*
X161928219Y-123746057D01*
X161923780Y-123699089D01*
X161923500Y-123693157D01*
X161923500Y-122989541D01*
X161943502Y-122921420D01*
X161997158Y-122874927D01*
X162067432Y-122864823D01*
X162123560Y-122887604D01*
X162230248Y-122965118D01*
X162404712Y-123042794D01*
X162591513Y-123082500D01*
X162782487Y-123082500D01*
X162969288Y-123042794D01*
X163143752Y-122965118D01*
X163298253Y-122852866D01*
X163357863Y-122786661D01*
X163418309Y-122749422D01*
X163489293Y-122750773D01*
X163548278Y-122790287D01*
X163576536Y-122855418D01*
X163577500Y-122870972D01*
X163577500Y-123263146D01*
X163575751Y-123278988D01*
X163576044Y-123279016D01*
X163575298Y-123286907D01*
X163577500Y-123356957D01*
X163577500Y-123386851D01*
X163577501Y-123386872D01*
X163578378Y-123393820D01*
X163578844Y-123399732D01*
X163580326Y-123446888D01*
X163580327Y-123446893D01*
X163585977Y-123466339D01*
X163589986Y-123485697D01*
X163592525Y-123505793D01*
X163592526Y-123505799D01*
X163609893Y-123549662D01*
X163611816Y-123555279D01*
X163624982Y-123600593D01*
X163635294Y-123618031D01*
X163643988Y-123635779D01*
X163651444Y-123654609D01*
X163651450Y-123654620D01*
X163679177Y-123692783D01*
X163682437Y-123697746D01*
X163706460Y-123738365D01*
X163720779Y-123752684D01*
X163733617Y-123767714D01*
X163739530Y-123775852D01*
X163745528Y-123784107D01*
X163772026Y-123806028D01*
X163781886Y-123814185D01*
X163786267Y-123818171D01*
X164666530Y-124698434D01*
X165508976Y-125540880D01*
X165543002Y-125603192D01*
X165542026Y-125660905D01*
X165505949Y-125803370D01*
X165499652Y-125879369D01*
X165486673Y-126036000D01*
X165499569Y-126191637D01*
X165505950Y-126268633D01*
X165563249Y-126494903D01*
X165563252Y-126494910D01*
X165657015Y-126708668D01*
X165783288Y-126901944D01*
X165784686Y-126904083D01*
X165942780Y-127075818D01*
X165942880Y-127075895D01*
X165942909Y-127075936D01*
X165946615Y-127079348D01*
X165945913Y-127080109D01*
X165984357Y-127133513D01*
X165991500Y-127175335D01*
X165991500Y-128856664D01*
X165971498Y-128924785D01*
X165946319Y-128952345D01*
X165946608Y-128952659D01*
X165942989Y-128955989D01*
X165942896Y-128956092D01*
X165942781Y-128956181D01*
X165942768Y-128956193D01*
X165784685Y-129127916D01*
X165657015Y-129323331D01*
X165563252Y-129537089D01*
X165563249Y-129537096D01*
X165505950Y-129763366D01*
X165486673Y-129996000D01*
X165505950Y-130228633D01*
X165563249Y-130454903D01*
X165563252Y-130454910D01*
X165591847Y-130520099D01*
X165657016Y-130668669D01*
X165705961Y-130743586D01*
X165726474Y-130811553D01*
X165706985Y-130879822D01*
X165653680Y-130926717D01*
X165600478Y-130938500D01*
X164830594Y-130938500D01*
X164762473Y-130918498D01*
X164741499Y-130901595D01*
X164331022Y-130491118D01*
X164296996Y-130428806D01*
X164297973Y-130371091D01*
X164334049Y-130228635D01*
X164334050Y-130228630D01*
X164334050Y-130228629D01*
X164334051Y-130228626D01*
X164353327Y-129996000D01*
X164334051Y-129763374D01*
X164318820Y-129703227D01*
X164276750Y-129537096D01*
X164276747Y-129537089D01*
X164274400Y-129531739D01*
X164182984Y-129323331D01*
X164055314Y-129127916D01*
X163897231Y-128956193D01*
X163897225Y-128956187D01*
X163897220Y-128956182D01*
X163897103Y-128956091D01*
X163897069Y-128956043D01*
X163893392Y-128952659D01*
X163894088Y-128951901D01*
X163855636Y-128898465D01*
X163848500Y-128856664D01*
X163848500Y-127175335D01*
X163868502Y-127107214D01*
X163893676Y-127079664D01*
X163893385Y-127079348D01*
X163897036Y-127075986D01*
X163897117Y-127075897D01*
X163897220Y-127075818D01*
X164055314Y-126904083D01*
X164182984Y-126708669D01*
X164276749Y-126494907D01*
X164334051Y-126268626D01*
X164353327Y-126036000D01*
X164334051Y-125803374D01*
X164304362Y-125686134D01*
X164276750Y-125577096D01*
X164276747Y-125577089D01*
X164275340Y-125573882D01*
X164182984Y-125363331D01*
X164138592Y-125295384D01*
X164055314Y-125167916D01*
X163897225Y-124996186D01*
X163897221Y-124996182D01*
X163742130Y-124875470D01*
X163713017Y-124852810D01*
X163507727Y-124741713D01*
X163507724Y-124741712D01*
X163507723Y-124741711D01*
X163286955Y-124665921D01*
X163286948Y-124665919D01*
X163188411Y-124649476D01*
X163056712Y-124627500D01*
X162823288Y-124627500D01*
X162708066Y-124646727D01*
X162593051Y-124665919D01*
X162593044Y-124665921D01*
X162372276Y-124741711D01*
X162372273Y-124741713D01*
X162166985Y-124852809D01*
X162166983Y-124852810D01*
X161982778Y-124996182D01*
X161982774Y-124996186D01*
X161824685Y-125167916D01*
X161697015Y-125363331D01*
X161603252Y-125577089D01*
X161603249Y-125577096D01*
X161545950Y-125803366D01*
X161545950Y-125803370D01*
X161545949Y-125803374D01*
X161526673Y-126036000D01*
X161539569Y-126191637D01*
X161545950Y-126268633D01*
X161603249Y-126494903D01*
X161603252Y-126494910D01*
X161697015Y-126708668D01*
X161823288Y-126901944D01*
X161824686Y-126904083D01*
X161982780Y-127075818D01*
X161982880Y-127075895D01*
X161982909Y-127075936D01*
X161986615Y-127079348D01*
X161985913Y-127080109D01*
X162024357Y-127133513D01*
X162031500Y-127175335D01*
X162031500Y-128856664D01*
X162011498Y-128924785D01*
X161986319Y-128952345D01*
X161986608Y-128952659D01*
X161982989Y-128955989D01*
X161982896Y-128956092D01*
X161982781Y-128956181D01*
X161982768Y-128956193D01*
X161824685Y-129127916D01*
X161697015Y-129323331D01*
X161603252Y-129537089D01*
X161603249Y-129537096D01*
X161545950Y-129763366D01*
X161526673Y-129996000D01*
X161545950Y-130228633D01*
X161603249Y-130454903D01*
X161603252Y-130454910D01*
X161697015Y-130668668D01*
X161824685Y-130864083D01*
X161982774Y-131035813D01*
X161982778Y-131035817D01*
X162048650Y-131087087D01*
X162166983Y-131179190D01*
X162372273Y-131290287D01*
X162593049Y-131366080D01*
X162823288Y-131404500D01*
X162823292Y-131404500D01*
X163056708Y-131404500D01*
X163056712Y-131404500D01*
X163286951Y-131366080D01*
X163299165Y-131361886D01*
X163307269Y-131359105D01*
X163378194Y-131355903D01*
X163437278Y-131389182D01*
X164008753Y-131960657D01*
X164018720Y-131973097D01*
X164018947Y-131972910D01*
X164023999Y-131979017D01*
X164024000Y-131979018D01*
X164075095Y-132026999D01*
X164096231Y-132048135D01*
X164101770Y-132052431D01*
X164106270Y-132056274D01*
X164133293Y-132081650D01*
X164169259Y-132142863D01*
X164166420Y-132213803D01*
X164125680Y-132271947D01*
X164059972Y-132298835D01*
X164047040Y-132299500D01*
X134712500Y-132299500D01*
X134644379Y-132279498D01*
X134597886Y-132225842D01*
X134586500Y-132173500D01*
X134586500Y-128016000D01*
X135969390Y-128016000D01*
X135989803Y-128301424D01*
X136050631Y-128581046D01*
X136150632Y-128849160D01*
X136150637Y-128849170D01*
X136287768Y-129100307D01*
X136287772Y-129100312D01*
X136287774Y-129100315D01*
X136454906Y-129323578D01*
X136459262Y-129329396D01*
X136459270Y-129329405D01*
X136661594Y-129531729D01*
X136661603Y-129531737D01*
X136661605Y-129531739D01*
X136890685Y-129703226D01*
X136890687Y-129703227D01*
X136890692Y-129703231D01*
X137141829Y-129840362D01*
X137141839Y-129840367D01*
X137409954Y-129940369D01*
X137689572Y-130001196D01*
X137903552Y-130016500D01*
X137903558Y-130016500D01*
X138046442Y-130016500D01*
X138046448Y-130016500D01*
X138260428Y-130001196D01*
X138284314Y-129996000D01*
X145687174Y-129996000D01*
X145706444Y-130228549D01*
X145763724Y-130454743D01*
X145763726Y-130454747D01*
X145857454Y-130668425D01*
X145857461Y-130668439D01*
X145940795Y-130795991D01*
X145940796Y-130795991D01*
X146535569Y-130201218D01*
X146575901Y-130298588D01*
X146672075Y-130423925D01*
X146797412Y-130520099D01*
X146894779Y-130560429D01*
X146298680Y-131156528D01*
X146298681Y-131156529D01*
X146327249Y-131178765D01*
X146327258Y-131178771D01*
X146532474Y-131289827D01*
X146532477Y-131289829D01*
X146753167Y-131365592D01*
X146753176Y-131365594D01*
X146983334Y-131404000D01*
X147216666Y-131404000D01*
X147446823Y-131365594D01*
X147446832Y-131365592D01*
X147667522Y-131289829D01*
X147667525Y-131289827D01*
X147872738Y-131178772D01*
X147901317Y-131156528D01*
X147305219Y-130560430D01*
X147402588Y-130520099D01*
X147527925Y-130423925D01*
X147624099Y-130298589D01*
X147664430Y-130201219D01*
X148259203Y-130795991D01*
X148342544Y-130668427D01*
X148436273Y-130454747D01*
X148436275Y-130454743D01*
X148493555Y-130228549D01*
X148512825Y-129996000D01*
X148493555Y-129763450D01*
X148436275Y-129537256D01*
X148436273Y-129537252D01*
X148342547Y-129323578D01*
X148342540Y-129323566D01*
X148259202Y-129196007D01*
X147664429Y-129790778D01*
X147624099Y-129693412D01*
X147527925Y-129568075D01*
X147402588Y-129471901D01*
X147305219Y-129431569D01*
X147901318Y-128835470D01*
X147872743Y-128813229D01*
X147872741Y-128813228D01*
X147667525Y-128702172D01*
X147667522Y-128702170D01*
X147446832Y-128626407D01*
X147446823Y-128626405D01*
X147216666Y-128588000D01*
X146983334Y-128588000D01*
X146753176Y-128626405D01*
X146753167Y-128626407D01*
X146532477Y-128702170D01*
X146532474Y-128702172D01*
X146327259Y-128813227D01*
X146298681Y-128835470D01*
X146298680Y-128835470D01*
X146894780Y-129431570D01*
X146797412Y-129471901D01*
X146672075Y-129568075D01*
X146575901Y-129693411D01*
X146535569Y-129790779D01*
X145940796Y-129196006D01*
X145940795Y-129196007D01*
X145857461Y-129323560D01*
X145857454Y-129323574D01*
X145763726Y-129537252D01*
X145763724Y-129537256D01*
X145706444Y-129763450D01*
X145687174Y-129996000D01*
X138284314Y-129996000D01*
X138540046Y-129940369D01*
X138808161Y-129840367D01*
X138838144Y-129823994D01*
X139059307Y-129703231D01*
X139059309Y-129703229D01*
X139059315Y-129703226D01*
X139288395Y-129531739D01*
X139490739Y-129329395D01*
X139662226Y-129100315D01*
X139662229Y-129100309D01*
X139662231Y-129100307D01*
X139799362Y-128849170D01*
X139799367Y-128849161D01*
X139899369Y-128581046D01*
X139960196Y-128301428D01*
X139980610Y-128016000D01*
X139960196Y-127730572D01*
X139899369Y-127450954D01*
X139799367Y-127182839D01*
X139799362Y-127182829D01*
X139662231Y-126931692D01*
X139662227Y-126931687D01*
X139639962Y-126901944D01*
X139490739Y-126702605D01*
X139490737Y-126702603D01*
X139490729Y-126702594D01*
X139288405Y-126500270D01*
X139288396Y-126500262D01*
X139281237Y-126494903D01*
X139059315Y-126328774D01*
X139059313Y-126328773D01*
X139059312Y-126328772D01*
X139059307Y-126328768D01*
X138808170Y-126191637D01*
X138808160Y-126191632D01*
X138540046Y-126091631D01*
X138284314Y-126036000D01*
X145687174Y-126036000D01*
X145706444Y-126268549D01*
X145763724Y-126494743D01*
X145763726Y-126494747D01*
X145857454Y-126708425D01*
X145857461Y-126708439D01*
X145940795Y-126835991D01*
X145940796Y-126835991D01*
X146535569Y-126241218D01*
X146575901Y-126338588D01*
X146672075Y-126463925D01*
X146797412Y-126560099D01*
X146894779Y-126600429D01*
X146298680Y-127196528D01*
X146298681Y-127196529D01*
X146327249Y-127218765D01*
X146327258Y-127218771D01*
X146532474Y-127329827D01*
X146532477Y-127329829D01*
X146753167Y-127405592D01*
X146753176Y-127405594D01*
X146983334Y-127444000D01*
X147216666Y-127444000D01*
X147446823Y-127405594D01*
X147446832Y-127405592D01*
X147667522Y-127329829D01*
X147667525Y-127329827D01*
X147872738Y-127218772D01*
X147901317Y-127196528D01*
X147305219Y-126600430D01*
X147402588Y-126560099D01*
X147527925Y-126463925D01*
X147624099Y-126338589D01*
X147664430Y-126241219D01*
X148259203Y-126835991D01*
X148342544Y-126708427D01*
X148436273Y-126494747D01*
X148436275Y-126494743D01*
X148493555Y-126268549D01*
X148512825Y-126036000D01*
X148493555Y-125803450D01*
X148436275Y-125577256D01*
X148436273Y-125577252D01*
X148342547Y-125363578D01*
X148342540Y-125363566D01*
X148259202Y-125236007D01*
X147664429Y-125830778D01*
X147624099Y-125733412D01*
X147527925Y-125608075D01*
X147402588Y-125511901D01*
X147305219Y-125471569D01*
X147901318Y-124875470D01*
X147872743Y-124853229D01*
X147872741Y-124853228D01*
X147667525Y-124742172D01*
X147667522Y-124742170D01*
X147446832Y-124666407D01*
X147446823Y-124666405D01*
X147216666Y-124628000D01*
X146983334Y-124628000D01*
X146753176Y-124666405D01*
X146753167Y-124666407D01*
X146532477Y-124742170D01*
X146532474Y-124742172D01*
X146327259Y-124853227D01*
X146298681Y-124875470D01*
X146298680Y-124875470D01*
X146894780Y-125471570D01*
X146797412Y-125511901D01*
X146672075Y-125608075D01*
X146575901Y-125733411D01*
X146535569Y-125830779D01*
X145940796Y-125236006D01*
X145940795Y-125236007D01*
X145857461Y-125363560D01*
X145857454Y-125363574D01*
X145763726Y-125577252D01*
X145763724Y-125577256D01*
X145706444Y-125803450D01*
X145687174Y-126036000D01*
X138284314Y-126036000D01*
X138260424Y-126030803D01*
X138126775Y-126021245D01*
X138046448Y-126015500D01*
X137903552Y-126015500D01*
X137827954Y-126020906D01*
X137689575Y-126030803D01*
X137409953Y-126091631D01*
X137141839Y-126191632D01*
X137141829Y-126191637D01*
X136890692Y-126328768D01*
X136890687Y-126328772D01*
X136661603Y-126500262D01*
X136661594Y-126500270D01*
X136459270Y-126702594D01*
X136459262Y-126702603D01*
X136287772Y-126931687D01*
X136287768Y-126931692D01*
X136150637Y-127182829D01*
X136150632Y-127182839D01*
X136050631Y-127450953D01*
X135989803Y-127730575D01*
X135969390Y-128016000D01*
X134586500Y-128016000D01*
X134586500Y-83026500D01*
X134606502Y-82958379D01*
X134660158Y-82911886D01*
X134712500Y-82900500D01*
X179287500Y-82900500D01*
X179355621Y-82920502D01*
G37*
%TD.AperFunction*%
%TD*%
M02*
