M48
; DRILL file {KiCad 7.0.8} date Fri Nov  3 15:22:23 2023
; FORMAT={-:-/ absolute / inch / decimal}
; #@! TF.CreationDate,2023-11-03T15:22:23-05:00
; #@! TF.GenerationSoftware,Kicad,Pcbnew,7.0.8
; #@! TF.FileFunction,MixedPlating,1,2
FMAT,2
INCH
; #@! TA.AperFunction,Plated,PTH,ViaDrill
T1C0.0157
; #@! TA.AperFunction,Plated,PTH,ComponentDrill
T2C0.0394
; #@! TA.AperFunction,Plated,PTH,ComponentDrill
T3C0.0433
; #@! TA.AperFunction,Plated,PTH,ComponentDrill
T4C0.0472
; #@! TA.AperFunction,Plated,PTH,ComponentDrill
T5C0.0630
; #@! TA.AperFunction,NonPlated,NPTH,ComponentDrill
T6C0.1378
%
G90
G05
T1
X5.37Y-4.33
X5.47Y-3.34
X5.485Y-4.01
X5.545Y-4.205
X5.595Y-4.205
X5.6Y-4.56
X5.66Y-4.525
X5.695Y-4.205
X5.695Y-4.595
X5.85Y-4.725
X5.87Y-3.63
X5.895Y-4.205
X5.99Y-4.205
X5.99Y-4.42
X6.12Y-4.49
X6.1835Y-4.2065
X6.23Y-4.69
X6.25Y-4.205
X6.285Y-3.335
X6.325Y-4.63
X6.35Y-4.685
X6.39Y-4.475
X6.405Y-4.81
X6.46Y-3.915
X6.46Y-3.96
X6.46Y-4.01
X6.46Y-4.09
X6.465Y-3.835
X6.465Y-4.53
X6.465Y-4.75
X6.47Y-3.755
X6.495Y-3.67
X6.495Y-4.565
X6.52Y-4.69
X6.56Y-4.595
X6.56Y-4.75
X6.595Y-4.69
X6.655Y-4.865
X6.665Y-4.625
X6.685Y-4.75
X6.755Y-3.66
X6.775Y-5.05
X6.78Y-4.975
X6.785Y-4.18
X6.885Y-3.72
X6.885Y-4.185
X6.95Y-4.385
X6.975Y-4.78
T2
X6.89Y-4.495
X6.89Y-4.595
X6.89Y-4.695
X6.99Y-4.495
X6.99Y-4.595
X6.99Y-4.695
T3
X6.3191Y-4.1475
T4
X5.7913Y-4.962
X5.7913Y-5.118
X5.9472Y-4.962
X5.9472Y-5.118
X6.1031Y-4.962
X6.1031Y-5.118
X6.2591Y-4.962
X6.2591Y-5.118
X6.415Y-4.962
X6.415Y-5.118
X6.5709Y-4.962
X6.5709Y-5.118
T5
X5.4924Y-4.1475
T6
X5.4321Y-5.04
X6.9301Y-5.04
T0
M30
