%TF.GenerationSoftware,KiCad,Pcbnew,7.0.8*%
%TF.CreationDate,2023-11-03T15:22:21-05:00*%
%TF.ProjectId,tapecart-sd-vertical,74617065-6361-4727-942d-73642d766572,rev?*%
%TF.SameCoordinates,Original*%
%TF.FileFunction,Paste,Top*%
%TF.FilePolarity,Positive*%
%FSLAX46Y46*%
G04 Gerber Fmt 4.6, Leading zero omitted, Abs format (unit mm)*
G04 Created by KiCad (PCBNEW 7.0.8) date 2023-11-03 15:22:21*
%MOMM*%
%LPD*%
G01*
G04 APERTURE LIST*
G04 Aperture macros list*
%AMRoundRect*
0 Rectangle with rounded corners*
0 $1 Rounding radius*
0 $2 $3 $4 $5 $6 $7 $8 $9 X,Y pos of 4 corners*
0 Add a 4 corners polygon primitive as box body*
4,1,4,$2,$3,$4,$5,$6,$7,$8,$9,$2,$3,0*
0 Add four circle primitives for the rounded corners*
1,1,$1+$1,$2,$3*
1,1,$1+$1,$4,$5*
1,1,$1+$1,$6,$7*
1,1,$1+$1,$8,$9*
0 Add four rect primitives between the rounded corners*
20,1,$1+$1,$2,$3,$4,$5,0*
20,1,$1+$1,$4,$5,$6,$7,0*
20,1,$1+$1,$6,$7,$8,$9,0*
20,1,$1+$1,$8,$9,$2,$3,0*%
G04 Aperture macros list end*
%ADD10R,1.600000X0.550000*%
%ADD11R,0.550000X1.600000*%
%ADD12RoundRect,0.250000X0.425000X-0.537500X0.425000X0.537500X-0.425000X0.537500X-0.425000X-0.537500X0*%
%ADD13RoundRect,0.150000X0.150000X-0.587500X0.150000X0.587500X-0.150000X0.587500X-0.150000X-0.587500X0*%
%ADD14RoundRect,0.250000X0.350000X0.450000X-0.350000X0.450000X-0.350000X-0.450000X0.350000X-0.450000X0*%
%ADD15RoundRect,0.250000X0.337500X0.475000X-0.337500X0.475000X-0.337500X-0.475000X0.337500X-0.475000X0*%
%ADD16RoundRect,0.250000X-0.450000X0.350000X-0.450000X-0.350000X0.450000X-0.350000X0.450000X0.350000X0*%
%ADD17R,0.900000X0.900000*%
%ADD18R,1.500000X1.500000*%
%ADD19R,2.100000X1.800000*%
%ADD20R,1.000000X1.500000*%
%ADD21R,0.700000X1.500000*%
%ADD22R,1.500000X2.800000*%
%ADD23RoundRect,0.250000X-0.537500X-0.425000X0.537500X-0.425000X0.537500X0.425000X-0.537500X0.425000X0*%
%ADD24RoundRect,0.250001X0.499999X0.924999X-0.499999X0.924999X-0.499999X-0.924999X0.499999X-0.924999X0*%
%ADD25R,1.780000X1.520000*%
%ADD26R,1.500000X2.000000*%
%ADD27R,3.800000X2.000000*%
%ADD28RoundRect,0.150000X-0.825000X-0.150000X0.825000X-0.150000X0.825000X0.150000X-0.825000X0.150000X0*%
G04 APERTURE END LIST*
D10*
%TO.C,U1*%
X162755000Y-115056000D03*
X162755000Y-115856000D03*
X162755000Y-116656000D03*
X162755000Y-117456000D03*
X162755000Y-118256000D03*
X162755000Y-119056000D03*
X162755000Y-119856000D03*
X162755000Y-120656000D03*
D11*
X164205000Y-122106000D03*
X165005000Y-122106000D03*
X165805000Y-122106000D03*
X166605000Y-122106000D03*
X167405000Y-122106000D03*
X168205000Y-122106000D03*
X169005000Y-122106000D03*
X169805000Y-122106000D03*
D10*
X171255000Y-120656000D03*
X171255000Y-119856000D03*
X171255000Y-119056000D03*
X171255000Y-118256000D03*
X171255000Y-117456000D03*
X171255000Y-116656000D03*
X171255000Y-115856000D03*
X171255000Y-115056000D03*
D11*
X169805000Y-113606000D03*
X169005000Y-113606000D03*
X168205000Y-113606000D03*
X167405000Y-113606000D03*
X166605000Y-113606000D03*
X165805000Y-113606000D03*
X165005000Y-113606000D03*
X164205000Y-113606000D03*
%TD*%
D12*
%TO.C,C7*%
X143891000Y-121960500D03*
X143891000Y-119085500D03*
%TD*%
D13*
%TO.C,Q2*%
X173421000Y-91791000D03*
X175321000Y-91791000D03*
X174371000Y-89916000D03*
%TD*%
D14*
%TO.C,R9*%
X167624000Y-101854000D03*
X165624000Y-101854000D03*
%TD*%
D15*
%TO.C,C6*%
X148738500Y-111760000D03*
X146663500Y-111760000D03*
%TD*%
D16*
%TO.C,R2*%
X164973000Y-89805000D03*
X164973000Y-91805000D03*
%TD*%
D14*
%TO.C,R4*%
X169783000Y-87630000D03*
X167783000Y-87630000D03*
%TD*%
%TO.C,R11*%
X167624000Y-95377000D03*
X165624000Y-95377000D03*
%TD*%
D17*
%TO.C,D1*%
X167894000Y-85513000D03*
D18*
X169644000Y-84963000D03*
X166144000Y-84963000D03*
%TD*%
D15*
%TO.C,C2*%
X158136500Y-112776000D03*
X156061500Y-112776000D03*
%TD*%
D14*
%TO.C,R5*%
X177276000Y-87630000D03*
X175276000Y-87630000D03*
%TD*%
D16*
%TO.C,R1*%
X166624000Y-109347000D03*
X166624000Y-111347000D03*
%TD*%
D13*
%TO.C,Q1*%
X166817000Y-91791000D03*
X168717000Y-91791000D03*
X167767000Y-89916000D03*
%TD*%
D19*
%TO.C,Y1*%
X155395000Y-117736000D03*
X158295000Y-117736000D03*
X158295000Y-115436000D03*
X155395000Y-115436000D03*
%TD*%
D14*
%TO.C,R8*%
X167624000Y-99441000D03*
X165624000Y-99441000D03*
%TD*%
D20*
%TO.C,J3*%
X142131000Y-108146000D03*
X144631000Y-108146000D03*
X147131000Y-108146000D03*
X149631000Y-108146000D03*
X152131000Y-108146000D03*
X154631000Y-108146000D03*
X157061000Y-108146000D03*
X158761000Y-108146000D03*
X139631000Y-108146000D03*
D21*
X159961000Y-108146000D03*
X161161000Y-108146000D03*
D22*
X162656000Y-84646000D03*
X135356000Y-84646000D03*
X162656000Y-106146000D03*
X137556000Y-106146000D03*
%TD*%
D23*
%TO.C,C5*%
X166837500Y-106934000D03*
X169712500Y-106934000D03*
%TD*%
D14*
%TO.C,R7*%
X167624000Y-97409000D03*
X165624000Y-97409000D03*
%TD*%
D16*
%TO.C,R6*%
X177419000Y-91456000D03*
X177419000Y-93456000D03*
%TD*%
D24*
%TO.C,C8*%
X141579000Y-112141000D03*
X138329000Y-112141000D03*
%TD*%
D15*
%TO.C,C1*%
X175916500Y-108331000D03*
X173841500Y-108331000D03*
%TD*%
D16*
%TO.C,R3*%
X171577000Y-89805000D03*
X171577000Y-91805000D03*
%TD*%
D14*
%TO.C,R10*%
X167624000Y-103886000D03*
X165624000Y-103886000D03*
%TD*%
D17*
%TO.C,D2*%
X175387000Y-85513000D03*
D18*
X177137000Y-84963000D03*
X173637000Y-84963000D03*
%TD*%
D25*
%TO.C,OK1*%
X177419000Y-95685000D03*
X174879000Y-95685000D03*
X172339000Y-95685000D03*
X172339000Y-104975000D03*
X174879000Y-104975000D03*
X177419000Y-104975000D03*
%TD*%
D15*
%TO.C,C3*%
X157882500Y-120396000D03*
X155807500Y-120396000D03*
%TD*%
%TO.C,C4*%
X164105500Y-111125000D03*
X162030500Y-111125000D03*
%TD*%
D26*
%TO.C,U3*%
X136511000Y-121768000D03*
X138811000Y-121768000D03*
D27*
X138811000Y-115468000D03*
D26*
X141111000Y-121768000D03*
%TD*%
D28*
%TO.C,U2*%
X147004000Y-113665000D03*
X147004000Y-114935000D03*
X147004000Y-116205000D03*
X147004000Y-117475000D03*
X147004000Y-118745000D03*
X147004000Y-120015000D03*
X147004000Y-121285000D03*
X147004000Y-122555000D03*
X151954000Y-122555000D03*
X151954000Y-121285000D03*
X151954000Y-120015000D03*
X151954000Y-118745000D03*
X151954000Y-117475000D03*
X151954000Y-116205000D03*
X151954000Y-114935000D03*
X151954000Y-113665000D03*
%TD*%
M02*
