%TF.GenerationSoftware,KiCad,Pcbnew,7.0.8*%
%TF.CreationDate,2023-11-03T15:22:21-05:00*%
%TF.ProjectId,tapecart-sd-vertical,74617065-6361-4727-942d-73642d766572,rev?*%
%TF.SameCoordinates,Original*%
%TF.FileFunction,Legend,Bot*%
%TF.FilePolarity,Positive*%
%FSLAX46Y46*%
G04 Gerber Fmt 4.6, Leading zero omitted, Abs format (unit mm)*
G04 Created by KiCad (PCBNEW 7.0.8) date 2023-11-03 15:22:21*
%MOMM*%
%LPD*%
G01*
G04 APERTURE LIST*
%ADD10C,0.150000*%
%ADD11C,0.120000*%
G04 APERTURE END LIST*
D10*
X170115048Y-85089819D02*
X169543620Y-85089819D01*
X169829334Y-86089819D02*
X169829334Y-85089819D01*
X168781715Y-86089819D02*
X168781715Y-85566009D01*
X168781715Y-85566009D02*
X168829334Y-85470771D01*
X168829334Y-85470771D02*
X168924572Y-85423152D01*
X168924572Y-85423152D02*
X169115048Y-85423152D01*
X169115048Y-85423152D02*
X169210286Y-85470771D01*
X168781715Y-86042200D02*
X168876953Y-86089819D01*
X168876953Y-86089819D02*
X169115048Y-86089819D01*
X169115048Y-86089819D02*
X169210286Y-86042200D01*
X169210286Y-86042200D02*
X169257905Y-85946961D01*
X169257905Y-85946961D02*
X169257905Y-85851723D01*
X169257905Y-85851723D02*
X169210286Y-85756485D01*
X169210286Y-85756485D02*
X169115048Y-85708866D01*
X169115048Y-85708866D02*
X168876953Y-85708866D01*
X168876953Y-85708866D02*
X168781715Y-85661247D01*
X168305524Y-85423152D02*
X168305524Y-86423152D01*
X168305524Y-85470771D02*
X168210286Y-85423152D01*
X168210286Y-85423152D02*
X168019810Y-85423152D01*
X168019810Y-85423152D02*
X167924572Y-85470771D01*
X167924572Y-85470771D02*
X167876953Y-85518390D01*
X167876953Y-85518390D02*
X167829334Y-85613628D01*
X167829334Y-85613628D02*
X167829334Y-85899342D01*
X167829334Y-85899342D02*
X167876953Y-85994580D01*
X167876953Y-85994580D02*
X167924572Y-86042200D01*
X167924572Y-86042200D02*
X168019810Y-86089819D01*
X168019810Y-86089819D02*
X168210286Y-86089819D01*
X168210286Y-86089819D02*
X168305524Y-86042200D01*
X167019810Y-86042200D02*
X167115048Y-86089819D01*
X167115048Y-86089819D02*
X167305524Y-86089819D01*
X167305524Y-86089819D02*
X167400762Y-86042200D01*
X167400762Y-86042200D02*
X167448381Y-85946961D01*
X167448381Y-85946961D02*
X167448381Y-85566009D01*
X167448381Y-85566009D02*
X167400762Y-85470771D01*
X167400762Y-85470771D02*
X167305524Y-85423152D01*
X167305524Y-85423152D02*
X167115048Y-85423152D01*
X167115048Y-85423152D02*
X167019810Y-85470771D01*
X167019810Y-85470771D02*
X166972191Y-85566009D01*
X166972191Y-85566009D02*
X166972191Y-85661247D01*
X166972191Y-85661247D02*
X167448381Y-85756485D01*
X165972191Y-85994580D02*
X166019810Y-86042200D01*
X166019810Y-86042200D02*
X166162667Y-86089819D01*
X166162667Y-86089819D02*
X166257905Y-86089819D01*
X166257905Y-86089819D02*
X166400762Y-86042200D01*
X166400762Y-86042200D02*
X166496000Y-85946961D01*
X166496000Y-85946961D02*
X166543619Y-85851723D01*
X166543619Y-85851723D02*
X166591238Y-85661247D01*
X166591238Y-85661247D02*
X166591238Y-85518390D01*
X166591238Y-85518390D02*
X166543619Y-85327914D01*
X166543619Y-85327914D02*
X166496000Y-85232676D01*
X166496000Y-85232676D02*
X166400762Y-85137438D01*
X166400762Y-85137438D02*
X166257905Y-85089819D01*
X166257905Y-85089819D02*
X166162667Y-85089819D01*
X166162667Y-85089819D02*
X166019810Y-85137438D01*
X166019810Y-85137438D02*
X165972191Y-85185057D01*
X165115048Y-86089819D02*
X165115048Y-85566009D01*
X165115048Y-85566009D02*
X165162667Y-85470771D01*
X165162667Y-85470771D02*
X165257905Y-85423152D01*
X165257905Y-85423152D02*
X165448381Y-85423152D01*
X165448381Y-85423152D02*
X165543619Y-85470771D01*
X165115048Y-86042200D02*
X165210286Y-86089819D01*
X165210286Y-86089819D02*
X165448381Y-86089819D01*
X165448381Y-86089819D02*
X165543619Y-86042200D01*
X165543619Y-86042200D02*
X165591238Y-85946961D01*
X165591238Y-85946961D02*
X165591238Y-85851723D01*
X165591238Y-85851723D02*
X165543619Y-85756485D01*
X165543619Y-85756485D02*
X165448381Y-85708866D01*
X165448381Y-85708866D02*
X165210286Y-85708866D01*
X165210286Y-85708866D02*
X165115048Y-85661247D01*
X164638857Y-86089819D02*
X164638857Y-85423152D01*
X164638857Y-85613628D02*
X164591238Y-85518390D01*
X164591238Y-85518390D02*
X164543619Y-85470771D01*
X164543619Y-85470771D02*
X164448381Y-85423152D01*
X164448381Y-85423152D02*
X164353143Y-85423152D01*
X164162666Y-85423152D02*
X163781714Y-85423152D01*
X164019809Y-85089819D02*
X164019809Y-85946961D01*
X164019809Y-85946961D02*
X163972190Y-86042200D01*
X163972190Y-86042200D02*
X163876952Y-86089819D01*
X163876952Y-86089819D02*
X163781714Y-86089819D01*
X162734094Y-86042200D02*
X162591237Y-86089819D01*
X162591237Y-86089819D02*
X162353142Y-86089819D01*
X162353142Y-86089819D02*
X162257904Y-86042200D01*
X162257904Y-86042200D02*
X162210285Y-85994580D01*
X162210285Y-85994580D02*
X162162666Y-85899342D01*
X162162666Y-85899342D02*
X162162666Y-85804104D01*
X162162666Y-85804104D02*
X162210285Y-85708866D01*
X162210285Y-85708866D02*
X162257904Y-85661247D01*
X162257904Y-85661247D02*
X162353142Y-85613628D01*
X162353142Y-85613628D02*
X162543618Y-85566009D01*
X162543618Y-85566009D02*
X162638856Y-85518390D01*
X162638856Y-85518390D02*
X162686475Y-85470771D01*
X162686475Y-85470771D02*
X162734094Y-85375533D01*
X162734094Y-85375533D02*
X162734094Y-85280295D01*
X162734094Y-85280295D02*
X162686475Y-85185057D01*
X162686475Y-85185057D02*
X162638856Y-85137438D01*
X162638856Y-85137438D02*
X162543618Y-85089819D01*
X162543618Y-85089819D02*
X162305523Y-85089819D01*
X162305523Y-85089819D02*
X162162666Y-85137438D01*
X161734094Y-86089819D02*
X161734094Y-85089819D01*
X161734094Y-85089819D02*
X161495999Y-85089819D01*
X161495999Y-85089819D02*
X161353142Y-85137438D01*
X161353142Y-85137438D02*
X161257904Y-85232676D01*
X161257904Y-85232676D02*
X161210285Y-85327914D01*
X161210285Y-85327914D02*
X161162666Y-85518390D01*
X161162666Y-85518390D02*
X161162666Y-85661247D01*
X161162666Y-85661247D02*
X161210285Y-85851723D01*
X161210285Y-85851723D02*
X161257904Y-85946961D01*
X161257904Y-85946961D02*
X161353142Y-86042200D01*
X161353142Y-86042200D02*
X161495999Y-86089819D01*
X161495999Y-86089819D02*
X161734094Y-86089819D01*
X160115046Y-85089819D02*
X159781713Y-86089819D01*
X159781713Y-86089819D02*
X159448380Y-85089819D01*
X158734094Y-86042200D02*
X158829332Y-86089819D01*
X158829332Y-86089819D02*
X159019808Y-86089819D01*
X159019808Y-86089819D02*
X159115046Y-86042200D01*
X159115046Y-86042200D02*
X159162665Y-85946961D01*
X159162665Y-85946961D02*
X159162665Y-85566009D01*
X159162665Y-85566009D02*
X159115046Y-85470771D01*
X159115046Y-85470771D02*
X159019808Y-85423152D01*
X159019808Y-85423152D02*
X158829332Y-85423152D01*
X158829332Y-85423152D02*
X158734094Y-85470771D01*
X158734094Y-85470771D02*
X158686475Y-85566009D01*
X158686475Y-85566009D02*
X158686475Y-85661247D01*
X158686475Y-85661247D02*
X159162665Y-85756485D01*
X158257903Y-86089819D02*
X158257903Y-85423152D01*
X158257903Y-85613628D02*
X158210284Y-85518390D01*
X158210284Y-85518390D02*
X158162665Y-85470771D01*
X158162665Y-85470771D02*
X158067427Y-85423152D01*
X158067427Y-85423152D02*
X157972189Y-85423152D01*
X157781712Y-85423152D02*
X157400760Y-85423152D01*
X157638855Y-85089819D02*
X157638855Y-85946961D01*
X157638855Y-85946961D02*
X157591236Y-86042200D01*
X157591236Y-86042200D02*
X157495998Y-86089819D01*
X157495998Y-86089819D02*
X157400760Y-86089819D01*
X157067426Y-86089819D02*
X157067426Y-85423152D01*
X157067426Y-85089819D02*
X157115045Y-85137438D01*
X157115045Y-85137438D02*
X157067426Y-85185057D01*
X157067426Y-85185057D02*
X157019807Y-85137438D01*
X157019807Y-85137438D02*
X157067426Y-85089819D01*
X157067426Y-85089819D02*
X157067426Y-85185057D01*
X156162665Y-86042200D02*
X156257903Y-86089819D01*
X156257903Y-86089819D02*
X156448379Y-86089819D01*
X156448379Y-86089819D02*
X156543617Y-86042200D01*
X156543617Y-86042200D02*
X156591236Y-85994580D01*
X156591236Y-85994580D02*
X156638855Y-85899342D01*
X156638855Y-85899342D02*
X156638855Y-85613628D01*
X156638855Y-85613628D02*
X156591236Y-85518390D01*
X156591236Y-85518390D02*
X156543617Y-85470771D01*
X156543617Y-85470771D02*
X156448379Y-85423152D01*
X156448379Y-85423152D02*
X156257903Y-85423152D01*
X156257903Y-85423152D02*
X156162665Y-85470771D01*
X155305522Y-86089819D02*
X155305522Y-85566009D01*
X155305522Y-85566009D02*
X155353141Y-85470771D01*
X155353141Y-85470771D02*
X155448379Y-85423152D01*
X155448379Y-85423152D02*
X155638855Y-85423152D01*
X155638855Y-85423152D02*
X155734093Y-85470771D01*
X155305522Y-86042200D02*
X155400760Y-86089819D01*
X155400760Y-86089819D02*
X155638855Y-86089819D01*
X155638855Y-86089819D02*
X155734093Y-86042200D01*
X155734093Y-86042200D02*
X155781712Y-85946961D01*
X155781712Y-85946961D02*
X155781712Y-85851723D01*
X155781712Y-85851723D02*
X155734093Y-85756485D01*
X155734093Y-85756485D02*
X155638855Y-85708866D01*
X155638855Y-85708866D02*
X155400760Y-85708866D01*
X155400760Y-85708866D02*
X155305522Y-85661247D01*
X154686474Y-86089819D02*
X154781712Y-86042200D01*
X154781712Y-86042200D02*
X154829331Y-85946961D01*
X154829331Y-85946961D02*
X154829331Y-85089819D01*
X153591235Y-86042200D02*
X153448378Y-86089819D01*
X153448378Y-86089819D02*
X153210283Y-86089819D01*
X153210283Y-86089819D02*
X153115045Y-86042200D01*
X153115045Y-86042200D02*
X153067426Y-85994580D01*
X153067426Y-85994580D02*
X153019807Y-85899342D01*
X153019807Y-85899342D02*
X153019807Y-85804104D01*
X153019807Y-85804104D02*
X153067426Y-85708866D01*
X153067426Y-85708866D02*
X153115045Y-85661247D01*
X153115045Y-85661247D02*
X153210283Y-85613628D01*
X153210283Y-85613628D02*
X153400759Y-85566009D01*
X153400759Y-85566009D02*
X153495997Y-85518390D01*
X153495997Y-85518390D02*
X153543616Y-85470771D01*
X153543616Y-85470771D02*
X153591235Y-85375533D01*
X153591235Y-85375533D02*
X153591235Y-85280295D01*
X153591235Y-85280295D02*
X153543616Y-85185057D01*
X153543616Y-85185057D02*
X153495997Y-85137438D01*
X153495997Y-85137438D02*
X153400759Y-85089819D01*
X153400759Y-85089819D02*
X153162664Y-85089819D01*
X153162664Y-85089819D02*
X153019807Y-85137438D01*
X152591235Y-86089819D02*
X152591235Y-85089819D01*
X152591235Y-85089819D02*
X152257902Y-85804104D01*
X152257902Y-85804104D02*
X151924569Y-85089819D01*
X151924569Y-85089819D02*
X151924569Y-86089819D01*
X151448378Y-86089819D02*
X151448378Y-85089819D01*
X151448378Y-85089819D02*
X151210283Y-85089819D01*
X151210283Y-85089819D02*
X151067426Y-85137438D01*
X151067426Y-85137438D02*
X150972188Y-85232676D01*
X150972188Y-85232676D02*
X150924569Y-85327914D01*
X150924569Y-85327914D02*
X150876950Y-85518390D01*
X150876950Y-85518390D02*
X150876950Y-85661247D01*
X150876950Y-85661247D02*
X150924569Y-85851723D01*
X150924569Y-85851723D02*
X150972188Y-85946961D01*
X150972188Y-85946961D02*
X151067426Y-86042200D01*
X151067426Y-86042200D02*
X151210283Y-86089819D01*
X151210283Y-86089819D02*
X151448378Y-86089819D01*
X149781711Y-85423152D02*
X149543616Y-86089819D01*
X149543616Y-86089819D02*
X149305521Y-85423152D01*
X148400759Y-86089819D02*
X148972187Y-86089819D01*
X148686473Y-86089819D02*
X148686473Y-85089819D01*
X148686473Y-85089819D02*
X148781711Y-85232676D01*
X148781711Y-85232676D02*
X148876949Y-85327914D01*
X148876949Y-85327914D02*
X148972187Y-85375533D01*
X147972187Y-85994580D02*
X147924568Y-86042200D01*
X147924568Y-86042200D02*
X147972187Y-86089819D01*
X147972187Y-86089819D02*
X148019806Y-86042200D01*
X148019806Y-86042200D02*
X147972187Y-85994580D01*
X147972187Y-85994580D02*
X147972187Y-86089819D01*
X146972188Y-86089819D02*
X147543616Y-86089819D01*
X147257902Y-86089819D02*
X147257902Y-85089819D01*
X147257902Y-85089819D02*
X147353140Y-85232676D01*
X147353140Y-85232676D02*
X147448378Y-85327914D01*
X147448378Y-85327914D02*
X147543616Y-85375533D01*
X171710287Y-87033152D02*
X171710287Y-87842676D01*
X171710287Y-87842676D02*
X171757906Y-87937914D01*
X171757906Y-87937914D02*
X171805525Y-87985533D01*
X171805525Y-87985533D02*
X171900763Y-88033152D01*
X171900763Y-88033152D02*
X172043620Y-88033152D01*
X172043620Y-88033152D02*
X172138858Y-87985533D01*
X171710287Y-87652200D02*
X171805525Y-87699819D01*
X171805525Y-87699819D02*
X171996001Y-87699819D01*
X171996001Y-87699819D02*
X172091239Y-87652200D01*
X172091239Y-87652200D02*
X172138858Y-87604580D01*
X172138858Y-87604580D02*
X172186477Y-87509342D01*
X172186477Y-87509342D02*
X172186477Y-87223628D01*
X172186477Y-87223628D02*
X172138858Y-87128390D01*
X172138858Y-87128390D02*
X172091239Y-87080771D01*
X172091239Y-87080771D02*
X171996001Y-87033152D01*
X171996001Y-87033152D02*
X171805525Y-87033152D01*
X171805525Y-87033152D02*
X171710287Y-87080771D01*
X171234096Y-87699819D02*
X171234096Y-87033152D01*
X171234096Y-86699819D02*
X171281715Y-86747438D01*
X171281715Y-86747438D02*
X171234096Y-86795057D01*
X171234096Y-86795057D02*
X171186477Y-86747438D01*
X171186477Y-86747438D02*
X171234096Y-86699819D01*
X171234096Y-86699819D02*
X171234096Y-86795057D01*
X170900763Y-87033152D02*
X170519811Y-87033152D01*
X170757906Y-86699819D02*
X170757906Y-87556961D01*
X170757906Y-87556961D02*
X170710287Y-87652200D01*
X170710287Y-87652200D02*
X170615049Y-87699819D01*
X170615049Y-87699819D02*
X170519811Y-87699819D01*
X170186477Y-87699819D02*
X170186477Y-86699819D01*
X169757906Y-87699819D02*
X169757906Y-87176009D01*
X169757906Y-87176009D02*
X169805525Y-87080771D01*
X169805525Y-87080771D02*
X169900763Y-87033152D01*
X169900763Y-87033152D02*
X170043620Y-87033152D01*
X170043620Y-87033152D02*
X170138858Y-87080771D01*
X170138858Y-87080771D02*
X170186477Y-87128390D01*
X168853144Y-87033152D02*
X168853144Y-87699819D01*
X169281715Y-87033152D02*
X169281715Y-87556961D01*
X169281715Y-87556961D02*
X169234096Y-87652200D01*
X169234096Y-87652200D02*
X169138858Y-87699819D01*
X169138858Y-87699819D02*
X168996001Y-87699819D01*
X168996001Y-87699819D02*
X168900763Y-87652200D01*
X168900763Y-87652200D02*
X168853144Y-87604580D01*
X168376953Y-87699819D02*
X168376953Y-86699819D01*
X168376953Y-87080771D02*
X168281715Y-87033152D01*
X168281715Y-87033152D02*
X168091239Y-87033152D01*
X168091239Y-87033152D02*
X167996001Y-87080771D01*
X167996001Y-87080771D02*
X167948382Y-87128390D01*
X167948382Y-87128390D02*
X167900763Y-87223628D01*
X167900763Y-87223628D02*
X167900763Y-87509342D01*
X167900763Y-87509342D02*
X167948382Y-87604580D01*
X167948382Y-87604580D02*
X167996001Y-87652200D01*
X167996001Y-87652200D02*
X168091239Y-87699819D01*
X168091239Y-87699819D02*
X168281715Y-87699819D01*
X168281715Y-87699819D02*
X168376953Y-87652200D01*
X167472191Y-87604580D02*
X167424572Y-87652200D01*
X167424572Y-87652200D02*
X167472191Y-87699819D01*
X167472191Y-87699819D02*
X167519810Y-87652200D01*
X167519810Y-87652200D02*
X167472191Y-87604580D01*
X167472191Y-87604580D02*
X167472191Y-87699819D01*
X166567430Y-87652200D02*
X166662668Y-87699819D01*
X166662668Y-87699819D02*
X166853144Y-87699819D01*
X166853144Y-87699819D02*
X166948382Y-87652200D01*
X166948382Y-87652200D02*
X166996001Y-87604580D01*
X166996001Y-87604580D02*
X167043620Y-87509342D01*
X167043620Y-87509342D02*
X167043620Y-87223628D01*
X167043620Y-87223628D02*
X166996001Y-87128390D01*
X166996001Y-87128390D02*
X166948382Y-87080771D01*
X166948382Y-87080771D02*
X166853144Y-87033152D01*
X166853144Y-87033152D02*
X166662668Y-87033152D01*
X166662668Y-87033152D02*
X166567430Y-87080771D01*
X165996001Y-87699819D02*
X166091239Y-87652200D01*
X166091239Y-87652200D02*
X166138858Y-87604580D01*
X166138858Y-87604580D02*
X166186477Y-87509342D01*
X166186477Y-87509342D02*
X166186477Y-87223628D01*
X166186477Y-87223628D02*
X166138858Y-87128390D01*
X166138858Y-87128390D02*
X166091239Y-87080771D01*
X166091239Y-87080771D02*
X165996001Y-87033152D01*
X165996001Y-87033152D02*
X165853144Y-87033152D01*
X165853144Y-87033152D02*
X165757906Y-87080771D01*
X165757906Y-87080771D02*
X165710287Y-87128390D01*
X165710287Y-87128390D02*
X165662668Y-87223628D01*
X165662668Y-87223628D02*
X165662668Y-87509342D01*
X165662668Y-87509342D02*
X165710287Y-87604580D01*
X165710287Y-87604580D02*
X165757906Y-87652200D01*
X165757906Y-87652200D02*
X165853144Y-87699819D01*
X165853144Y-87699819D02*
X165996001Y-87699819D01*
X165234096Y-87699819D02*
X165234096Y-87033152D01*
X165234096Y-87128390D02*
X165186477Y-87080771D01*
X165186477Y-87080771D02*
X165091239Y-87033152D01*
X165091239Y-87033152D02*
X164948382Y-87033152D01*
X164948382Y-87033152D02*
X164853144Y-87080771D01*
X164853144Y-87080771D02*
X164805525Y-87176009D01*
X164805525Y-87176009D02*
X164805525Y-87699819D01*
X164805525Y-87176009D02*
X164757906Y-87080771D01*
X164757906Y-87080771D02*
X164662668Y-87033152D01*
X164662668Y-87033152D02*
X164519811Y-87033152D01*
X164519811Y-87033152D02*
X164424572Y-87080771D01*
X164424572Y-87080771D02*
X164376953Y-87176009D01*
X164376953Y-87176009D02*
X164376953Y-87699819D01*
X163186478Y-86652200D02*
X164043620Y-87937914D01*
X162424573Y-87699819D02*
X162424573Y-86699819D01*
X162424573Y-87652200D02*
X162519811Y-87699819D01*
X162519811Y-87699819D02*
X162710287Y-87699819D01*
X162710287Y-87699819D02*
X162805525Y-87652200D01*
X162805525Y-87652200D02*
X162853144Y-87604580D01*
X162853144Y-87604580D02*
X162900763Y-87509342D01*
X162900763Y-87509342D02*
X162900763Y-87223628D01*
X162900763Y-87223628D02*
X162853144Y-87128390D01*
X162853144Y-87128390D02*
X162805525Y-87080771D01*
X162805525Y-87080771D02*
X162710287Y-87033152D01*
X162710287Y-87033152D02*
X162519811Y-87033152D01*
X162519811Y-87033152D02*
X162424573Y-87080771D01*
X161948382Y-87033152D02*
X161948382Y-87890295D01*
X161948382Y-87890295D02*
X161996001Y-87985533D01*
X161996001Y-87985533D02*
X162091239Y-88033152D01*
X162091239Y-88033152D02*
X162138858Y-88033152D01*
X161948382Y-86699819D02*
X161996001Y-86747438D01*
X161996001Y-86747438D02*
X161948382Y-86795057D01*
X161948382Y-86795057D02*
X161900763Y-86747438D01*
X161900763Y-86747438D02*
X161948382Y-86699819D01*
X161948382Y-86699819D02*
X161948382Y-86795057D01*
X161615049Y-87033152D02*
X161234097Y-87033152D01*
X161472192Y-86699819D02*
X161472192Y-87556961D01*
X161472192Y-87556961D02*
X161424573Y-87652200D01*
X161424573Y-87652200D02*
X161329335Y-87699819D01*
X161329335Y-87699819D02*
X161234097Y-87699819D01*
X160519811Y-87652200D02*
X160615049Y-87699819D01*
X160615049Y-87699819D02*
X160805525Y-87699819D01*
X160805525Y-87699819D02*
X160900763Y-87652200D01*
X160900763Y-87652200D02*
X160948382Y-87556961D01*
X160948382Y-87556961D02*
X160948382Y-87176009D01*
X160948382Y-87176009D02*
X160900763Y-87080771D01*
X160900763Y-87080771D02*
X160805525Y-87033152D01*
X160805525Y-87033152D02*
X160615049Y-87033152D01*
X160615049Y-87033152D02*
X160519811Y-87080771D01*
X160519811Y-87080771D02*
X160472192Y-87176009D01*
X160472192Y-87176009D02*
X160472192Y-87271247D01*
X160472192Y-87271247D02*
X160948382Y-87366485D01*
X160043620Y-87699819D02*
X160043620Y-87033152D01*
X160043620Y-87223628D02*
X159996001Y-87128390D01*
X159996001Y-87128390D02*
X159948382Y-87080771D01*
X159948382Y-87080771D02*
X159853144Y-87033152D01*
X159853144Y-87033152D02*
X159757906Y-87033152D01*
X159472191Y-87652200D02*
X159376953Y-87699819D01*
X159376953Y-87699819D02*
X159186477Y-87699819D01*
X159186477Y-87699819D02*
X159091239Y-87652200D01*
X159091239Y-87652200D02*
X159043620Y-87556961D01*
X159043620Y-87556961D02*
X159043620Y-87509342D01*
X159043620Y-87509342D02*
X159091239Y-87414104D01*
X159091239Y-87414104D02*
X159186477Y-87366485D01*
X159186477Y-87366485D02*
X159329334Y-87366485D01*
X159329334Y-87366485D02*
X159424572Y-87318866D01*
X159424572Y-87318866D02*
X159472191Y-87223628D01*
X159472191Y-87223628D02*
X159472191Y-87176009D01*
X159472191Y-87176009D02*
X159424572Y-87080771D01*
X159424572Y-87080771D02*
X159329334Y-87033152D01*
X159329334Y-87033152D02*
X159186477Y-87033152D01*
X159186477Y-87033152D02*
X159091239Y-87080771D01*
X158757905Y-87033152D02*
X158376953Y-87033152D01*
X158615048Y-86699819D02*
X158615048Y-87556961D01*
X158615048Y-87556961D02*
X158567429Y-87652200D01*
X158567429Y-87652200D02*
X158472191Y-87699819D01*
X158472191Y-87699819D02*
X158376953Y-87699819D01*
X157662667Y-87652200D02*
X157757905Y-87699819D01*
X157757905Y-87699819D02*
X157948381Y-87699819D01*
X157948381Y-87699819D02*
X158043619Y-87652200D01*
X158043619Y-87652200D02*
X158091238Y-87556961D01*
X158091238Y-87556961D02*
X158091238Y-87176009D01*
X158091238Y-87176009D02*
X158043619Y-87080771D01*
X158043619Y-87080771D02*
X157948381Y-87033152D01*
X157948381Y-87033152D02*
X157757905Y-87033152D01*
X157757905Y-87033152D02*
X157662667Y-87080771D01*
X157662667Y-87080771D02*
X157615048Y-87176009D01*
X157615048Y-87176009D02*
X157615048Y-87271247D01*
X157615048Y-87271247D02*
X158091238Y-87366485D01*
X156805524Y-87652200D02*
X156900762Y-87699819D01*
X156900762Y-87699819D02*
X157091238Y-87699819D01*
X157091238Y-87699819D02*
X157186476Y-87652200D01*
X157186476Y-87652200D02*
X157234095Y-87556961D01*
X157234095Y-87556961D02*
X157234095Y-87176009D01*
X157234095Y-87176009D02*
X157186476Y-87080771D01*
X157186476Y-87080771D02*
X157091238Y-87033152D01*
X157091238Y-87033152D02*
X156900762Y-87033152D01*
X156900762Y-87033152D02*
X156805524Y-87080771D01*
X156805524Y-87080771D02*
X156757905Y-87176009D01*
X156757905Y-87176009D02*
X156757905Y-87271247D01*
X156757905Y-87271247D02*
X157234095Y-87366485D01*
X155900762Y-87033152D02*
X155900762Y-87842676D01*
X155900762Y-87842676D02*
X155948381Y-87937914D01*
X155948381Y-87937914D02*
X155996000Y-87985533D01*
X155996000Y-87985533D02*
X156091238Y-88033152D01*
X156091238Y-88033152D02*
X156234095Y-88033152D01*
X156234095Y-88033152D02*
X156329333Y-87985533D01*
X155900762Y-87652200D02*
X155996000Y-87699819D01*
X155996000Y-87699819D02*
X156186476Y-87699819D01*
X156186476Y-87699819D02*
X156281714Y-87652200D01*
X156281714Y-87652200D02*
X156329333Y-87604580D01*
X156329333Y-87604580D02*
X156376952Y-87509342D01*
X156376952Y-87509342D02*
X156376952Y-87223628D01*
X156376952Y-87223628D02*
X156329333Y-87128390D01*
X156329333Y-87128390D02*
X156281714Y-87080771D01*
X156281714Y-87080771D02*
X156186476Y-87033152D01*
X156186476Y-87033152D02*
X155996000Y-87033152D01*
X155996000Y-87033152D02*
X155900762Y-87080771D01*
X154996000Y-87652200D02*
X155091238Y-87699819D01*
X155091238Y-87699819D02*
X155281714Y-87699819D01*
X155281714Y-87699819D02*
X155376952Y-87652200D01*
X155376952Y-87652200D02*
X155424571Y-87604580D01*
X155424571Y-87604580D02*
X155472190Y-87509342D01*
X155472190Y-87509342D02*
X155472190Y-87223628D01*
X155472190Y-87223628D02*
X155424571Y-87128390D01*
X155424571Y-87128390D02*
X155376952Y-87080771D01*
X155376952Y-87080771D02*
X155281714Y-87033152D01*
X155281714Y-87033152D02*
X155091238Y-87033152D01*
X155091238Y-87033152D02*
X154996000Y-87080771D01*
X153853143Y-86652200D02*
X154710285Y-87937914D01*
X153662666Y-87033152D02*
X153281714Y-87033152D01*
X153519809Y-86699819D02*
X153519809Y-87556961D01*
X153519809Y-87556961D02*
X153472190Y-87652200D01*
X153472190Y-87652200D02*
X153376952Y-87699819D01*
X153376952Y-87699819D02*
X153281714Y-87699819D01*
X152519809Y-87699819D02*
X152519809Y-87176009D01*
X152519809Y-87176009D02*
X152567428Y-87080771D01*
X152567428Y-87080771D02*
X152662666Y-87033152D01*
X152662666Y-87033152D02*
X152853142Y-87033152D01*
X152853142Y-87033152D02*
X152948380Y-87080771D01*
X152519809Y-87652200D02*
X152615047Y-87699819D01*
X152615047Y-87699819D02*
X152853142Y-87699819D01*
X152853142Y-87699819D02*
X152948380Y-87652200D01*
X152948380Y-87652200D02*
X152995999Y-87556961D01*
X152995999Y-87556961D02*
X152995999Y-87461723D01*
X152995999Y-87461723D02*
X152948380Y-87366485D01*
X152948380Y-87366485D02*
X152853142Y-87318866D01*
X152853142Y-87318866D02*
X152615047Y-87318866D01*
X152615047Y-87318866D02*
X152519809Y-87271247D01*
X152043618Y-87033152D02*
X152043618Y-88033152D01*
X152043618Y-87080771D02*
X151948380Y-87033152D01*
X151948380Y-87033152D02*
X151757904Y-87033152D01*
X151757904Y-87033152D02*
X151662666Y-87080771D01*
X151662666Y-87080771D02*
X151615047Y-87128390D01*
X151615047Y-87128390D02*
X151567428Y-87223628D01*
X151567428Y-87223628D02*
X151567428Y-87509342D01*
X151567428Y-87509342D02*
X151615047Y-87604580D01*
X151615047Y-87604580D02*
X151662666Y-87652200D01*
X151662666Y-87652200D02*
X151757904Y-87699819D01*
X151757904Y-87699819D02*
X151948380Y-87699819D01*
X151948380Y-87699819D02*
X152043618Y-87652200D01*
X150757904Y-87652200D02*
X150853142Y-87699819D01*
X150853142Y-87699819D02*
X151043618Y-87699819D01*
X151043618Y-87699819D02*
X151138856Y-87652200D01*
X151138856Y-87652200D02*
X151186475Y-87556961D01*
X151186475Y-87556961D02*
X151186475Y-87176009D01*
X151186475Y-87176009D02*
X151138856Y-87080771D01*
X151138856Y-87080771D02*
X151043618Y-87033152D01*
X151043618Y-87033152D02*
X150853142Y-87033152D01*
X150853142Y-87033152D02*
X150757904Y-87080771D01*
X150757904Y-87080771D02*
X150710285Y-87176009D01*
X150710285Y-87176009D02*
X150710285Y-87271247D01*
X150710285Y-87271247D02*
X151186475Y-87366485D01*
X149853142Y-87652200D02*
X149948380Y-87699819D01*
X149948380Y-87699819D02*
X150138856Y-87699819D01*
X150138856Y-87699819D02*
X150234094Y-87652200D01*
X150234094Y-87652200D02*
X150281713Y-87604580D01*
X150281713Y-87604580D02*
X150329332Y-87509342D01*
X150329332Y-87509342D02*
X150329332Y-87223628D01*
X150329332Y-87223628D02*
X150281713Y-87128390D01*
X150281713Y-87128390D02*
X150234094Y-87080771D01*
X150234094Y-87080771D02*
X150138856Y-87033152D01*
X150138856Y-87033152D02*
X149948380Y-87033152D01*
X149948380Y-87033152D02*
X149853142Y-87080771D01*
X148995999Y-87699819D02*
X148995999Y-87176009D01*
X148995999Y-87176009D02*
X149043618Y-87080771D01*
X149043618Y-87080771D02*
X149138856Y-87033152D01*
X149138856Y-87033152D02*
X149329332Y-87033152D01*
X149329332Y-87033152D02*
X149424570Y-87080771D01*
X148995999Y-87652200D02*
X149091237Y-87699819D01*
X149091237Y-87699819D02*
X149329332Y-87699819D01*
X149329332Y-87699819D02*
X149424570Y-87652200D01*
X149424570Y-87652200D02*
X149472189Y-87556961D01*
X149472189Y-87556961D02*
X149472189Y-87461723D01*
X149472189Y-87461723D02*
X149424570Y-87366485D01*
X149424570Y-87366485D02*
X149329332Y-87318866D01*
X149329332Y-87318866D02*
X149091237Y-87318866D01*
X149091237Y-87318866D02*
X148995999Y-87271247D01*
X148519808Y-87699819D02*
X148519808Y-87033152D01*
X148519808Y-87223628D02*
X148472189Y-87128390D01*
X148472189Y-87128390D02*
X148424570Y-87080771D01*
X148424570Y-87080771D02*
X148329332Y-87033152D01*
X148329332Y-87033152D02*
X148234094Y-87033152D01*
X148043617Y-87033152D02*
X147662665Y-87033152D01*
X147900760Y-86699819D02*
X147900760Y-87556961D01*
X147900760Y-87556961D02*
X147853141Y-87652200D01*
X147853141Y-87652200D02*
X147757903Y-87699819D01*
X147757903Y-87699819D02*
X147662665Y-87699819D01*
X147329331Y-87318866D02*
X146567427Y-87318866D01*
X146138855Y-87652200D02*
X146043617Y-87699819D01*
X146043617Y-87699819D02*
X145853141Y-87699819D01*
X145853141Y-87699819D02*
X145757903Y-87652200D01*
X145757903Y-87652200D02*
X145710284Y-87556961D01*
X145710284Y-87556961D02*
X145710284Y-87509342D01*
X145710284Y-87509342D02*
X145757903Y-87414104D01*
X145757903Y-87414104D02*
X145853141Y-87366485D01*
X145853141Y-87366485D02*
X145995998Y-87366485D01*
X145995998Y-87366485D02*
X146091236Y-87318866D01*
X146091236Y-87318866D02*
X146138855Y-87223628D01*
X146138855Y-87223628D02*
X146138855Y-87176009D01*
X146138855Y-87176009D02*
X146091236Y-87080771D01*
X146091236Y-87080771D02*
X145995998Y-87033152D01*
X145995998Y-87033152D02*
X145853141Y-87033152D01*
X145853141Y-87033152D02*
X145757903Y-87080771D01*
X144853141Y-87699819D02*
X144853141Y-86699819D01*
X144853141Y-87652200D02*
X144948379Y-87699819D01*
X144948379Y-87699819D02*
X145138855Y-87699819D01*
X145138855Y-87699819D02*
X145234093Y-87652200D01*
X145234093Y-87652200D02*
X145281712Y-87604580D01*
X145281712Y-87604580D02*
X145329331Y-87509342D01*
X145329331Y-87509342D02*
X145329331Y-87223628D01*
X145329331Y-87223628D02*
X145281712Y-87128390D01*
X145281712Y-87128390D02*
X145234093Y-87080771D01*
X145234093Y-87080771D02*
X145138855Y-87033152D01*
X145138855Y-87033152D02*
X144948379Y-87033152D01*
X144948379Y-87033152D02*
X144853141Y-87080771D01*
X166757905Y-89309819D02*
X166757905Y-88309819D01*
X166757905Y-88309819D02*
X166376953Y-88309819D01*
X166376953Y-88309819D02*
X166281715Y-88357438D01*
X166281715Y-88357438D02*
X166234096Y-88405057D01*
X166234096Y-88405057D02*
X166186477Y-88500295D01*
X166186477Y-88500295D02*
X166186477Y-88643152D01*
X166186477Y-88643152D02*
X166234096Y-88738390D01*
X166234096Y-88738390D02*
X166281715Y-88786009D01*
X166281715Y-88786009D02*
X166376953Y-88833628D01*
X166376953Y-88833628D02*
X166757905Y-88833628D01*
X165186477Y-89214580D02*
X165234096Y-89262200D01*
X165234096Y-89262200D02*
X165376953Y-89309819D01*
X165376953Y-89309819D02*
X165472191Y-89309819D01*
X165472191Y-89309819D02*
X165615048Y-89262200D01*
X165615048Y-89262200D02*
X165710286Y-89166961D01*
X165710286Y-89166961D02*
X165757905Y-89071723D01*
X165757905Y-89071723D02*
X165805524Y-88881247D01*
X165805524Y-88881247D02*
X165805524Y-88738390D01*
X165805524Y-88738390D02*
X165757905Y-88547914D01*
X165757905Y-88547914D02*
X165710286Y-88452676D01*
X165710286Y-88452676D02*
X165615048Y-88357438D01*
X165615048Y-88357438D02*
X165472191Y-88309819D01*
X165472191Y-88309819D02*
X165376953Y-88309819D01*
X165376953Y-88309819D02*
X165234096Y-88357438D01*
X165234096Y-88357438D02*
X165186477Y-88405057D01*
X164424572Y-88786009D02*
X164281715Y-88833628D01*
X164281715Y-88833628D02*
X164234096Y-88881247D01*
X164234096Y-88881247D02*
X164186477Y-88976485D01*
X164186477Y-88976485D02*
X164186477Y-89119342D01*
X164186477Y-89119342D02*
X164234096Y-89214580D01*
X164234096Y-89214580D02*
X164281715Y-89262200D01*
X164281715Y-89262200D02*
X164376953Y-89309819D01*
X164376953Y-89309819D02*
X164757905Y-89309819D01*
X164757905Y-89309819D02*
X164757905Y-88309819D01*
X164757905Y-88309819D02*
X164424572Y-88309819D01*
X164424572Y-88309819D02*
X164329334Y-88357438D01*
X164329334Y-88357438D02*
X164281715Y-88405057D01*
X164281715Y-88405057D02*
X164234096Y-88500295D01*
X164234096Y-88500295D02*
X164234096Y-88595533D01*
X164234096Y-88595533D02*
X164281715Y-88690771D01*
X164281715Y-88690771D02*
X164329334Y-88738390D01*
X164329334Y-88738390D02*
X164424572Y-88786009D01*
X164424572Y-88786009D02*
X164757905Y-88786009D01*
X162996000Y-89309819D02*
X162996000Y-88309819D01*
X162996000Y-88690771D02*
X162900762Y-88643152D01*
X162900762Y-88643152D02*
X162710286Y-88643152D01*
X162710286Y-88643152D02*
X162615048Y-88690771D01*
X162615048Y-88690771D02*
X162567429Y-88738390D01*
X162567429Y-88738390D02*
X162519810Y-88833628D01*
X162519810Y-88833628D02*
X162519810Y-89119342D01*
X162519810Y-89119342D02*
X162567429Y-89214580D01*
X162567429Y-89214580D02*
X162615048Y-89262200D01*
X162615048Y-89262200D02*
X162710286Y-89309819D01*
X162710286Y-89309819D02*
X162900762Y-89309819D01*
X162900762Y-89309819D02*
X162996000Y-89262200D01*
X162186476Y-88643152D02*
X161948381Y-89309819D01*
X161710286Y-88643152D02*
X161948381Y-89309819D01*
X161948381Y-89309819D02*
X162043619Y-89547914D01*
X162043619Y-89547914D02*
X162091238Y-89595533D01*
X162091238Y-89595533D02*
X162186476Y-89643152D01*
X159996000Y-89214580D02*
X160043619Y-89262200D01*
X160043619Y-89262200D02*
X160186476Y-89309819D01*
X160186476Y-89309819D02*
X160281714Y-89309819D01*
X160281714Y-89309819D02*
X160424571Y-89262200D01*
X160424571Y-89262200D02*
X160519809Y-89166961D01*
X160519809Y-89166961D02*
X160567428Y-89071723D01*
X160567428Y-89071723D02*
X160615047Y-88881247D01*
X160615047Y-88881247D02*
X160615047Y-88738390D01*
X160615047Y-88738390D02*
X160567428Y-88547914D01*
X160567428Y-88547914D02*
X160519809Y-88452676D01*
X160519809Y-88452676D02*
X160424571Y-88357438D01*
X160424571Y-88357438D02*
X160281714Y-88309819D01*
X160281714Y-88309819D02*
X160186476Y-88309819D01*
X160186476Y-88309819D02*
X160043619Y-88357438D01*
X160043619Y-88357438D02*
X159996000Y-88405057D01*
X159567428Y-89309819D02*
X159567428Y-88309819D01*
X159138857Y-89309819D02*
X159138857Y-88786009D01*
X159138857Y-88786009D02*
X159186476Y-88690771D01*
X159186476Y-88690771D02*
X159281714Y-88643152D01*
X159281714Y-88643152D02*
X159424571Y-88643152D01*
X159424571Y-88643152D02*
X159519809Y-88690771D01*
X159519809Y-88690771D02*
X159567428Y-88738390D01*
X158662666Y-89309819D02*
X158662666Y-88643152D01*
X158662666Y-88833628D02*
X158615047Y-88738390D01*
X158615047Y-88738390D02*
X158567428Y-88690771D01*
X158567428Y-88690771D02*
X158472190Y-88643152D01*
X158472190Y-88643152D02*
X158376952Y-88643152D01*
X158043618Y-89309819D02*
X158043618Y-88643152D01*
X158043618Y-88309819D02*
X158091237Y-88357438D01*
X158091237Y-88357438D02*
X158043618Y-88405057D01*
X158043618Y-88405057D02*
X157995999Y-88357438D01*
X157995999Y-88357438D02*
X158043618Y-88309819D01*
X158043618Y-88309819D02*
X158043618Y-88405057D01*
X157615047Y-89262200D02*
X157519809Y-89309819D01*
X157519809Y-89309819D02*
X157329333Y-89309819D01*
X157329333Y-89309819D02*
X157234095Y-89262200D01*
X157234095Y-89262200D02*
X157186476Y-89166961D01*
X157186476Y-89166961D02*
X157186476Y-89119342D01*
X157186476Y-89119342D02*
X157234095Y-89024104D01*
X157234095Y-89024104D02*
X157329333Y-88976485D01*
X157329333Y-88976485D02*
X157472190Y-88976485D01*
X157472190Y-88976485D02*
X157567428Y-88928866D01*
X157567428Y-88928866D02*
X157615047Y-88833628D01*
X157615047Y-88833628D02*
X157615047Y-88786009D01*
X157615047Y-88786009D02*
X157567428Y-88690771D01*
X157567428Y-88690771D02*
X157472190Y-88643152D01*
X157472190Y-88643152D02*
X157329333Y-88643152D01*
X157329333Y-88643152D02*
X157234095Y-88690771D01*
X156138856Y-88309819D02*
X155567428Y-88309819D01*
X155853142Y-89309819D02*
X155853142Y-88309819D01*
X154853142Y-89262200D02*
X154948380Y-89309819D01*
X154948380Y-89309819D02*
X155138856Y-89309819D01*
X155138856Y-89309819D02*
X155234094Y-89262200D01*
X155234094Y-89262200D02*
X155281713Y-89166961D01*
X155281713Y-89166961D02*
X155281713Y-88786009D01*
X155281713Y-88786009D02*
X155234094Y-88690771D01*
X155234094Y-88690771D02*
X155138856Y-88643152D01*
X155138856Y-88643152D02*
X154948380Y-88643152D01*
X154948380Y-88643152D02*
X154853142Y-88690771D01*
X154853142Y-88690771D02*
X154805523Y-88786009D01*
X154805523Y-88786009D02*
X154805523Y-88881247D01*
X154805523Y-88881247D02*
X155281713Y-88976485D01*
X154376951Y-89309819D02*
X154376951Y-88643152D01*
X154376951Y-88833628D02*
X154329332Y-88738390D01*
X154329332Y-88738390D02*
X154281713Y-88690771D01*
X154281713Y-88690771D02*
X154186475Y-88643152D01*
X154186475Y-88643152D02*
X154091237Y-88643152D01*
X153805522Y-89262200D02*
X153710284Y-89309819D01*
X153710284Y-89309819D02*
X153519808Y-89309819D01*
X153519808Y-89309819D02*
X153424570Y-89262200D01*
X153424570Y-89262200D02*
X153376951Y-89166961D01*
X153376951Y-89166961D02*
X153376951Y-89119342D01*
X153376951Y-89119342D02*
X153424570Y-89024104D01*
X153424570Y-89024104D02*
X153519808Y-88976485D01*
X153519808Y-88976485D02*
X153662665Y-88976485D01*
X153662665Y-88976485D02*
X153757903Y-88928866D01*
X153757903Y-88928866D02*
X153805522Y-88833628D01*
X153805522Y-88833628D02*
X153805522Y-88786009D01*
X153805522Y-88786009D02*
X153757903Y-88690771D01*
X153757903Y-88690771D02*
X153662665Y-88643152D01*
X153662665Y-88643152D02*
X153519808Y-88643152D01*
X153519808Y-88643152D02*
X153424570Y-88690771D01*
X153091236Y-88643152D02*
X152710284Y-88643152D01*
X152948379Y-88309819D02*
X152948379Y-89166961D01*
X152948379Y-89166961D02*
X152900760Y-89262200D01*
X152900760Y-89262200D02*
X152805522Y-89309819D01*
X152805522Y-89309819D02*
X152710284Y-89309819D01*
X151995998Y-89262200D02*
X152091236Y-89309819D01*
X152091236Y-89309819D02*
X152281712Y-89309819D01*
X152281712Y-89309819D02*
X152376950Y-89262200D01*
X152376950Y-89262200D02*
X152424569Y-89166961D01*
X152424569Y-89166961D02*
X152424569Y-88786009D01*
X152424569Y-88786009D02*
X152376950Y-88690771D01*
X152376950Y-88690771D02*
X152281712Y-88643152D01*
X152281712Y-88643152D02*
X152091236Y-88643152D01*
X152091236Y-88643152D02*
X151995998Y-88690771D01*
X151995998Y-88690771D02*
X151948379Y-88786009D01*
X151948379Y-88786009D02*
X151948379Y-88881247D01*
X151948379Y-88881247D02*
X152424569Y-88976485D01*
X151138855Y-89262200D02*
X151234093Y-89309819D01*
X151234093Y-89309819D02*
X151424569Y-89309819D01*
X151424569Y-89309819D02*
X151519807Y-89262200D01*
X151519807Y-89262200D02*
X151567426Y-89166961D01*
X151567426Y-89166961D02*
X151567426Y-88786009D01*
X151567426Y-88786009D02*
X151519807Y-88690771D01*
X151519807Y-88690771D02*
X151424569Y-88643152D01*
X151424569Y-88643152D02*
X151234093Y-88643152D01*
X151234093Y-88643152D02*
X151138855Y-88690771D01*
X151138855Y-88690771D02*
X151091236Y-88786009D01*
X151091236Y-88786009D02*
X151091236Y-88881247D01*
X151091236Y-88881247D02*
X151567426Y-88976485D01*
X150234093Y-88643152D02*
X150234093Y-89452676D01*
X150234093Y-89452676D02*
X150281712Y-89547914D01*
X150281712Y-89547914D02*
X150329331Y-89595533D01*
X150329331Y-89595533D02*
X150424569Y-89643152D01*
X150424569Y-89643152D02*
X150567426Y-89643152D01*
X150567426Y-89643152D02*
X150662664Y-89595533D01*
X150234093Y-89262200D02*
X150329331Y-89309819D01*
X150329331Y-89309819D02*
X150519807Y-89309819D01*
X150519807Y-89309819D02*
X150615045Y-89262200D01*
X150615045Y-89262200D02*
X150662664Y-89214580D01*
X150662664Y-89214580D02*
X150710283Y-89119342D01*
X150710283Y-89119342D02*
X150710283Y-88833628D01*
X150710283Y-88833628D02*
X150662664Y-88738390D01*
X150662664Y-88738390D02*
X150615045Y-88690771D01*
X150615045Y-88690771D02*
X150519807Y-88643152D01*
X150519807Y-88643152D02*
X150329331Y-88643152D01*
X150329331Y-88643152D02*
X150234093Y-88690771D01*
X172734096Y-91529819D02*
X172543620Y-91529819D01*
X172543620Y-91529819D02*
X172448382Y-91577438D01*
X172448382Y-91577438D02*
X172353144Y-91672676D01*
X172353144Y-91672676D02*
X172305525Y-91863152D01*
X172305525Y-91863152D02*
X172305525Y-92196485D01*
X172305525Y-92196485D02*
X172353144Y-92386961D01*
X172353144Y-92386961D02*
X172448382Y-92482200D01*
X172448382Y-92482200D02*
X172543620Y-92529819D01*
X172543620Y-92529819D02*
X172734096Y-92529819D01*
X172734096Y-92529819D02*
X172829334Y-92482200D01*
X172829334Y-92482200D02*
X172924572Y-92386961D01*
X172924572Y-92386961D02*
X172972191Y-92196485D01*
X172972191Y-92196485D02*
X172972191Y-91863152D01*
X172972191Y-91863152D02*
X172924572Y-91672676D01*
X172924572Y-91672676D02*
X172829334Y-91577438D01*
X172829334Y-91577438D02*
X172734096Y-91529819D01*
X171876953Y-92529819D02*
X171876953Y-91863152D01*
X171876953Y-92053628D02*
X171829334Y-91958390D01*
X171829334Y-91958390D02*
X171781715Y-91910771D01*
X171781715Y-91910771D02*
X171686477Y-91863152D01*
X171686477Y-91863152D02*
X171591239Y-91863152D01*
X171257905Y-92529819D02*
X171257905Y-91863152D01*
X171257905Y-91529819D02*
X171305524Y-91577438D01*
X171305524Y-91577438D02*
X171257905Y-91625057D01*
X171257905Y-91625057D02*
X171210286Y-91577438D01*
X171210286Y-91577438D02*
X171257905Y-91529819D01*
X171257905Y-91529819D02*
X171257905Y-91625057D01*
X170353144Y-91863152D02*
X170353144Y-92672676D01*
X170353144Y-92672676D02*
X170400763Y-92767914D01*
X170400763Y-92767914D02*
X170448382Y-92815533D01*
X170448382Y-92815533D02*
X170543620Y-92863152D01*
X170543620Y-92863152D02*
X170686477Y-92863152D01*
X170686477Y-92863152D02*
X170781715Y-92815533D01*
X170353144Y-92482200D02*
X170448382Y-92529819D01*
X170448382Y-92529819D02*
X170638858Y-92529819D01*
X170638858Y-92529819D02*
X170734096Y-92482200D01*
X170734096Y-92482200D02*
X170781715Y-92434580D01*
X170781715Y-92434580D02*
X170829334Y-92339342D01*
X170829334Y-92339342D02*
X170829334Y-92053628D01*
X170829334Y-92053628D02*
X170781715Y-91958390D01*
X170781715Y-91958390D02*
X170734096Y-91910771D01*
X170734096Y-91910771D02*
X170638858Y-91863152D01*
X170638858Y-91863152D02*
X170448382Y-91863152D01*
X170448382Y-91863152D02*
X170353144Y-91910771D01*
X169876953Y-92529819D02*
X169876953Y-91863152D01*
X169876953Y-91529819D02*
X169924572Y-91577438D01*
X169924572Y-91577438D02*
X169876953Y-91625057D01*
X169876953Y-91625057D02*
X169829334Y-91577438D01*
X169829334Y-91577438D02*
X169876953Y-91529819D01*
X169876953Y-91529819D02*
X169876953Y-91625057D01*
X169400763Y-91863152D02*
X169400763Y-92529819D01*
X169400763Y-91958390D02*
X169353144Y-91910771D01*
X169353144Y-91910771D02*
X169257906Y-91863152D01*
X169257906Y-91863152D02*
X169115049Y-91863152D01*
X169115049Y-91863152D02*
X169019811Y-91910771D01*
X169019811Y-91910771D02*
X168972192Y-92006009D01*
X168972192Y-92006009D02*
X168972192Y-92529819D01*
X168067430Y-92529819D02*
X168067430Y-92006009D01*
X168067430Y-92006009D02*
X168115049Y-91910771D01*
X168115049Y-91910771D02*
X168210287Y-91863152D01*
X168210287Y-91863152D02*
X168400763Y-91863152D01*
X168400763Y-91863152D02*
X168496001Y-91910771D01*
X168067430Y-92482200D02*
X168162668Y-92529819D01*
X168162668Y-92529819D02*
X168400763Y-92529819D01*
X168400763Y-92529819D02*
X168496001Y-92482200D01*
X168496001Y-92482200D02*
X168543620Y-92386961D01*
X168543620Y-92386961D02*
X168543620Y-92291723D01*
X168543620Y-92291723D02*
X168496001Y-92196485D01*
X168496001Y-92196485D02*
X168400763Y-92148866D01*
X168400763Y-92148866D02*
X168162668Y-92148866D01*
X168162668Y-92148866D02*
X168067430Y-92101247D01*
X167448382Y-92529819D02*
X167543620Y-92482200D01*
X167543620Y-92482200D02*
X167591239Y-92386961D01*
X167591239Y-92386961D02*
X167591239Y-91529819D01*
X166448381Y-91529819D02*
X165876953Y-91529819D01*
X166162667Y-92529819D02*
X166162667Y-91529819D01*
X165115048Y-92529819D02*
X165115048Y-92006009D01*
X165115048Y-92006009D02*
X165162667Y-91910771D01*
X165162667Y-91910771D02*
X165257905Y-91863152D01*
X165257905Y-91863152D02*
X165448381Y-91863152D01*
X165448381Y-91863152D02*
X165543619Y-91910771D01*
X165115048Y-92482200D02*
X165210286Y-92529819D01*
X165210286Y-92529819D02*
X165448381Y-92529819D01*
X165448381Y-92529819D02*
X165543619Y-92482200D01*
X165543619Y-92482200D02*
X165591238Y-92386961D01*
X165591238Y-92386961D02*
X165591238Y-92291723D01*
X165591238Y-92291723D02*
X165543619Y-92196485D01*
X165543619Y-92196485D02*
X165448381Y-92148866D01*
X165448381Y-92148866D02*
X165210286Y-92148866D01*
X165210286Y-92148866D02*
X165115048Y-92101247D01*
X164638857Y-91863152D02*
X164638857Y-92863152D01*
X164638857Y-91910771D02*
X164543619Y-91863152D01*
X164543619Y-91863152D02*
X164353143Y-91863152D01*
X164353143Y-91863152D02*
X164257905Y-91910771D01*
X164257905Y-91910771D02*
X164210286Y-91958390D01*
X164210286Y-91958390D02*
X164162667Y-92053628D01*
X164162667Y-92053628D02*
X164162667Y-92339342D01*
X164162667Y-92339342D02*
X164210286Y-92434580D01*
X164210286Y-92434580D02*
X164257905Y-92482200D01*
X164257905Y-92482200D02*
X164353143Y-92529819D01*
X164353143Y-92529819D02*
X164543619Y-92529819D01*
X164543619Y-92529819D02*
X164638857Y-92482200D01*
X163353143Y-92482200D02*
X163448381Y-92529819D01*
X163448381Y-92529819D02*
X163638857Y-92529819D01*
X163638857Y-92529819D02*
X163734095Y-92482200D01*
X163734095Y-92482200D02*
X163781714Y-92386961D01*
X163781714Y-92386961D02*
X163781714Y-92006009D01*
X163781714Y-92006009D02*
X163734095Y-91910771D01*
X163734095Y-91910771D02*
X163638857Y-91863152D01*
X163638857Y-91863152D02*
X163448381Y-91863152D01*
X163448381Y-91863152D02*
X163353143Y-91910771D01*
X163353143Y-91910771D02*
X163305524Y-92006009D01*
X163305524Y-92006009D02*
X163305524Y-92101247D01*
X163305524Y-92101247D02*
X163781714Y-92196485D01*
X162305524Y-92434580D02*
X162353143Y-92482200D01*
X162353143Y-92482200D02*
X162496000Y-92529819D01*
X162496000Y-92529819D02*
X162591238Y-92529819D01*
X162591238Y-92529819D02*
X162734095Y-92482200D01*
X162734095Y-92482200D02*
X162829333Y-92386961D01*
X162829333Y-92386961D02*
X162876952Y-92291723D01*
X162876952Y-92291723D02*
X162924571Y-92101247D01*
X162924571Y-92101247D02*
X162924571Y-91958390D01*
X162924571Y-91958390D02*
X162876952Y-91767914D01*
X162876952Y-91767914D02*
X162829333Y-91672676D01*
X162829333Y-91672676D02*
X162734095Y-91577438D01*
X162734095Y-91577438D02*
X162591238Y-91529819D01*
X162591238Y-91529819D02*
X162496000Y-91529819D01*
X162496000Y-91529819D02*
X162353143Y-91577438D01*
X162353143Y-91577438D02*
X162305524Y-91625057D01*
X161448381Y-92529819D02*
X161448381Y-92006009D01*
X161448381Y-92006009D02*
X161496000Y-91910771D01*
X161496000Y-91910771D02*
X161591238Y-91863152D01*
X161591238Y-91863152D02*
X161781714Y-91863152D01*
X161781714Y-91863152D02*
X161876952Y-91910771D01*
X161448381Y-92482200D02*
X161543619Y-92529819D01*
X161543619Y-92529819D02*
X161781714Y-92529819D01*
X161781714Y-92529819D02*
X161876952Y-92482200D01*
X161876952Y-92482200D02*
X161924571Y-92386961D01*
X161924571Y-92386961D02*
X161924571Y-92291723D01*
X161924571Y-92291723D02*
X161876952Y-92196485D01*
X161876952Y-92196485D02*
X161781714Y-92148866D01*
X161781714Y-92148866D02*
X161543619Y-92148866D01*
X161543619Y-92148866D02*
X161448381Y-92101247D01*
X160972190Y-92529819D02*
X160972190Y-91863152D01*
X160972190Y-92053628D02*
X160924571Y-91958390D01*
X160924571Y-91958390D02*
X160876952Y-91910771D01*
X160876952Y-91910771D02*
X160781714Y-91863152D01*
X160781714Y-91863152D02*
X160686476Y-91863152D01*
X160495999Y-91863152D02*
X160115047Y-91863152D01*
X160353142Y-91529819D02*
X160353142Y-92386961D01*
X160353142Y-92386961D02*
X160305523Y-92482200D01*
X160305523Y-92482200D02*
X160210285Y-92529819D01*
X160210285Y-92529819D02*
X160115047Y-92529819D01*
X158591237Y-92529819D02*
X158591237Y-91529819D01*
X158591237Y-92482200D02*
X158686475Y-92529819D01*
X158686475Y-92529819D02*
X158876951Y-92529819D01*
X158876951Y-92529819D02*
X158972189Y-92482200D01*
X158972189Y-92482200D02*
X159019808Y-92434580D01*
X159019808Y-92434580D02*
X159067427Y-92339342D01*
X159067427Y-92339342D02*
X159067427Y-92053628D01*
X159067427Y-92053628D02*
X159019808Y-91958390D01*
X159019808Y-91958390D02*
X158972189Y-91910771D01*
X158972189Y-91910771D02*
X158876951Y-91863152D01*
X158876951Y-91863152D02*
X158686475Y-91863152D01*
X158686475Y-91863152D02*
X158591237Y-91910771D01*
X157734094Y-92482200D02*
X157829332Y-92529819D01*
X157829332Y-92529819D02*
X158019808Y-92529819D01*
X158019808Y-92529819D02*
X158115046Y-92482200D01*
X158115046Y-92482200D02*
X158162665Y-92386961D01*
X158162665Y-92386961D02*
X158162665Y-92006009D01*
X158162665Y-92006009D02*
X158115046Y-91910771D01*
X158115046Y-91910771D02*
X158019808Y-91863152D01*
X158019808Y-91863152D02*
X157829332Y-91863152D01*
X157829332Y-91863152D02*
X157734094Y-91910771D01*
X157734094Y-91910771D02*
X157686475Y-92006009D01*
X157686475Y-92006009D02*
X157686475Y-92101247D01*
X157686475Y-92101247D02*
X158162665Y-92196485D01*
X157305522Y-92482200D02*
X157210284Y-92529819D01*
X157210284Y-92529819D02*
X157019808Y-92529819D01*
X157019808Y-92529819D02*
X156924570Y-92482200D01*
X156924570Y-92482200D02*
X156876951Y-92386961D01*
X156876951Y-92386961D02*
X156876951Y-92339342D01*
X156876951Y-92339342D02*
X156924570Y-92244104D01*
X156924570Y-92244104D02*
X157019808Y-92196485D01*
X157019808Y-92196485D02*
X157162665Y-92196485D01*
X157162665Y-92196485D02*
X157257903Y-92148866D01*
X157257903Y-92148866D02*
X157305522Y-92053628D01*
X157305522Y-92053628D02*
X157305522Y-92006009D01*
X157305522Y-92006009D02*
X157257903Y-91910771D01*
X157257903Y-91910771D02*
X157162665Y-91863152D01*
X157162665Y-91863152D02*
X157019808Y-91863152D01*
X157019808Y-91863152D02*
X156924570Y-91910771D01*
X156448379Y-92529819D02*
X156448379Y-91863152D01*
X156448379Y-91529819D02*
X156495998Y-91577438D01*
X156495998Y-91577438D02*
X156448379Y-91625057D01*
X156448379Y-91625057D02*
X156400760Y-91577438D01*
X156400760Y-91577438D02*
X156448379Y-91529819D01*
X156448379Y-91529819D02*
X156448379Y-91625057D01*
X155543618Y-91863152D02*
X155543618Y-92672676D01*
X155543618Y-92672676D02*
X155591237Y-92767914D01*
X155591237Y-92767914D02*
X155638856Y-92815533D01*
X155638856Y-92815533D02*
X155734094Y-92863152D01*
X155734094Y-92863152D02*
X155876951Y-92863152D01*
X155876951Y-92863152D02*
X155972189Y-92815533D01*
X155543618Y-92482200D02*
X155638856Y-92529819D01*
X155638856Y-92529819D02*
X155829332Y-92529819D01*
X155829332Y-92529819D02*
X155924570Y-92482200D01*
X155924570Y-92482200D02*
X155972189Y-92434580D01*
X155972189Y-92434580D02*
X156019808Y-92339342D01*
X156019808Y-92339342D02*
X156019808Y-92053628D01*
X156019808Y-92053628D02*
X155972189Y-91958390D01*
X155972189Y-91958390D02*
X155924570Y-91910771D01*
X155924570Y-91910771D02*
X155829332Y-91863152D01*
X155829332Y-91863152D02*
X155638856Y-91863152D01*
X155638856Y-91863152D02*
X155543618Y-91910771D01*
X155067427Y-91863152D02*
X155067427Y-92529819D01*
X155067427Y-91958390D02*
X155019808Y-91910771D01*
X155019808Y-91910771D02*
X154924570Y-91863152D01*
X154924570Y-91863152D02*
X154781713Y-91863152D01*
X154781713Y-91863152D02*
X154686475Y-91910771D01*
X154686475Y-91910771D02*
X154638856Y-92006009D01*
X154638856Y-92006009D02*
X154638856Y-92529819D01*
X153400760Y-92529819D02*
X153400760Y-91529819D01*
X153400760Y-91910771D02*
X153305522Y-91863152D01*
X153305522Y-91863152D02*
X153115046Y-91863152D01*
X153115046Y-91863152D02*
X153019808Y-91910771D01*
X153019808Y-91910771D02*
X152972189Y-91958390D01*
X152972189Y-91958390D02*
X152924570Y-92053628D01*
X152924570Y-92053628D02*
X152924570Y-92339342D01*
X152924570Y-92339342D02*
X152972189Y-92434580D01*
X152972189Y-92434580D02*
X153019808Y-92482200D01*
X153019808Y-92482200D02*
X153115046Y-92529819D01*
X153115046Y-92529819D02*
X153305522Y-92529819D01*
X153305522Y-92529819D02*
X153400760Y-92482200D01*
X152591236Y-91863152D02*
X152353141Y-92529819D01*
X152115046Y-91863152D02*
X152353141Y-92529819D01*
X152353141Y-92529819D02*
X152448379Y-92767914D01*
X152448379Y-92767914D02*
X152495998Y-92815533D01*
X152495998Y-92815533D02*
X152591236Y-92863152D01*
X150972188Y-92529819D02*
X150972188Y-91529819D01*
X150495998Y-91863152D02*
X150495998Y-92529819D01*
X150495998Y-91958390D02*
X150448379Y-91910771D01*
X150448379Y-91910771D02*
X150353141Y-91863152D01*
X150353141Y-91863152D02*
X150210284Y-91863152D01*
X150210284Y-91863152D02*
X150115046Y-91910771D01*
X150115046Y-91910771D02*
X150067427Y-92006009D01*
X150067427Y-92006009D02*
X150067427Y-92529819D01*
X149162665Y-91863152D02*
X149162665Y-92672676D01*
X149162665Y-92672676D02*
X149210284Y-92767914D01*
X149210284Y-92767914D02*
X149257903Y-92815533D01*
X149257903Y-92815533D02*
X149353141Y-92863152D01*
X149353141Y-92863152D02*
X149495998Y-92863152D01*
X149495998Y-92863152D02*
X149591236Y-92815533D01*
X149162665Y-92482200D02*
X149257903Y-92529819D01*
X149257903Y-92529819D02*
X149448379Y-92529819D01*
X149448379Y-92529819D02*
X149543617Y-92482200D01*
X149543617Y-92482200D02*
X149591236Y-92434580D01*
X149591236Y-92434580D02*
X149638855Y-92339342D01*
X149638855Y-92339342D02*
X149638855Y-92053628D01*
X149638855Y-92053628D02*
X149591236Y-91958390D01*
X149591236Y-91958390D02*
X149543617Y-91910771D01*
X149543617Y-91910771D02*
X149448379Y-91863152D01*
X149448379Y-91863152D02*
X149257903Y-91863152D01*
X149257903Y-91863152D02*
X149162665Y-91910771D01*
X148543617Y-92529819D02*
X148638855Y-92482200D01*
X148638855Y-92482200D02*
X148686474Y-92434580D01*
X148686474Y-92434580D02*
X148734093Y-92339342D01*
X148734093Y-92339342D02*
X148734093Y-92053628D01*
X148734093Y-92053628D02*
X148686474Y-91958390D01*
X148686474Y-91958390D02*
X148638855Y-91910771D01*
X148638855Y-91910771D02*
X148543617Y-91863152D01*
X148543617Y-91863152D02*
X148400760Y-91863152D01*
X148400760Y-91863152D02*
X148305522Y-91910771D01*
X148305522Y-91910771D02*
X148257903Y-91958390D01*
X148257903Y-91958390D02*
X148210284Y-92053628D01*
X148210284Y-92053628D02*
X148210284Y-92339342D01*
X148210284Y-92339342D02*
X148257903Y-92434580D01*
X148257903Y-92434580D02*
X148305522Y-92482200D01*
X148305522Y-92482200D02*
X148400760Y-92529819D01*
X148400760Y-92529819D02*
X148543617Y-92529819D01*
X147019807Y-92529819D02*
X147019807Y-91529819D01*
X146448379Y-92529819D02*
X146876950Y-91958390D01*
X146448379Y-91529819D02*
X147019807Y-92101247D01*
X145876950Y-92529819D02*
X145972188Y-92482200D01*
X145972188Y-92482200D02*
X146019807Y-92434580D01*
X146019807Y-92434580D02*
X146067426Y-92339342D01*
X146067426Y-92339342D02*
X146067426Y-92053628D01*
X146067426Y-92053628D02*
X146019807Y-91958390D01*
X146019807Y-91958390D02*
X145972188Y-91910771D01*
X145972188Y-91910771D02*
X145876950Y-91863152D01*
X145876950Y-91863152D02*
X145734093Y-91863152D01*
X145734093Y-91863152D02*
X145638855Y-91910771D01*
X145638855Y-91910771D02*
X145591236Y-91958390D01*
X145591236Y-91958390D02*
X145543617Y-92053628D01*
X145543617Y-92053628D02*
X145543617Y-92339342D01*
X145543617Y-92339342D02*
X145591236Y-92434580D01*
X145591236Y-92434580D02*
X145638855Y-92482200D01*
X145638855Y-92482200D02*
X145734093Y-92529819D01*
X145734093Y-92529819D02*
X145876950Y-92529819D01*
X145115045Y-92529819D02*
X145115045Y-91863152D01*
X145115045Y-92053628D02*
X145067426Y-91958390D01*
X145067426Y-91958390D02*
X145019807Y-91910771D01*
X145019807Y-91910771D02*
X144924569Y-91863152D01*
X144924569Y-91863152D02*
X144829331Y-91863152D01*
X144495997Y-92529819D02*
X144495997Y-91529819D01*
X144495997Y-91910771D02*
X144400759Y-91863152D01*
X144400759Y-91863152D02*
X144210283Y-91863152D01*
X144210283Y-91863152D02*
X144115045Y-91910771D01*
X144115045Y-91910771D02*
X144067426Y-91958390D01*
X144067426Y-91958390D02*
X144019807Y-92053628D01*
X144019807Y-92053628D02*
X144019807Y-92339342D01*
X144019807Y-92339342D02*
X144067426Y-92434580D01*
X144067426Y-92434580D02*
X144115045Y-92482200D01*
X144115045Y-92482200D02*
X144210283Y-92529819D01*
X144210283Y-92529819D02*
X144400759Y-92529819D01*
X144400759Y-92529819D02*
X144495997Y-92482200D01*
X167948381Y-93473152D02*
X167948381Y-94282676D01*
X167948381Y-94282676D02*
X167996000Y-94377914D01*
X167996000Y-94377914D02*
X168043619Y-94425533D01*
X168043619Y-94425533D02*
X168138857Y-94473152D01*
X168138857Y-94473152D02*
X168281714Y-94473152D01*
X168281714Y-94473152D02*
X168376952Y-94425533D01*
X167948381Y-94092200D02*
X168043619Y-94139819D01*
X168043619Y-94139819D02*
X168234095Y-94139819D01*
X168234095Y-94139819D02*
X168329333Y-94092200D01*
X168329333Y-94092200D02*
X168376952Y-94044580D01*
X168376952Y-94044580D02*
X168424571Y-93949342D01*
X168424571Y-93949342D02*
X168424571Y-93663628D01*
X168424571Y-93663628D02*
X168376952Y-93568390D01*
X168376952Y-93568390D02*
X168329333Y-93520771D01*
X168329333Y-93520771D02*
X168234095Y-93473152D01*
X168234095Y-93473152D02*
X168043619Y-93473152D01*
X168043619Y-93473152D02*
X167948381Y-93520771D01*
X167472190Y-94139819D02*
X167472190Y-93473152D01*
X167472190Y-93139819D02*
X167519809Y-93187438D01*
X167519809Y-93187438D02*
X167472190Y-93235057D01*
X167472190Y-93235057D02*
X167424571Y-93187438D01*
X167424571Y-93187438D02*
X167472190Y-93139819D01*
X167472190Y-93139819D02*
X167472190Y-93235057D01*
X167138857Y-93473152D02*
X166757905Y-93473152D01*
X166996000Y-93139819D02*
X166996000Y-93996961D01*
X166996000Y-93996961D02*
X166948381Y-94092200D01*
X166948381Y-94092200D02*
X166853143Y-94139819D01*
X166853143Y-94139819D02*
X166757905Y-94139819D01*
X166424571Y-94139819D02*
X166424571Y-93139819D01*
X165996000Y-94139819D02*
X165996000Y-93616009D01*
X165996000Y-93616009D02*
X166043619Y-93520771D01*
X166043619Y-93520771D02*
X166138857Y-93473152D01*
X166138857Y-93473152D02*
X166281714Y-93473152D01*
X166281714Y-93473152D02*
X166376952Y-93520771D01*
X166376952Y-93520771D02*
X166424571Y-93568390D01*
X165091238Y-93473152D02*
X165091238Y-94139819D01*
X165519809Y-93473152D02*
X165519809Y-93996961D01*
X165519809Y-93996961D02*
X165472190Y-94092200D01*
X165472190Y-94092200D02*
X165376952Y-94139819D01*
X165376952Y-94139819D02*
X165234095Y-94139819D01*
X165234095Y-94139819D02*
X165138857Y-94092200D01*
X165138857Y-94092200D02*
X165091238Y-94044580D01*
X164615047Y-94139819D02*
X164615047Y-93139819D01*
X164615047Y-93520771D02*
X164519809Y-93473152D01*
X164519809Y-93473152D02*
X164329333Y-93473152D01*
X164329333Y-93473152D02*
X164234095Y-93520771D01*
X164234095Y-93520771D02*
X164186476Y-93568390D01*
X164186476Y-93568390D02*
X164138857Y-93663628D01*
X164138857Y-93663628D02*
X164138857Y-93949342D01*
X164138857Y-93949342D02*
X164186476Y-94044580D01*
X164186476Y-94044580D02*
X164234095Y-94092200D01*
X164234095Y-94092200D02*
X164329333Y-94139819D01*
X164329333Y-94139819D02*
X164519809Y-94139819D01*
X164519809Y-94139819D02*
X164615047Y-94092200D01*
X163710285Y-94044580D02*
X163662666Y-94092200D01*
X163662666Y-94092200D02*
X163710285Y-94139819D01*
X163710285Y-94139819D02*
X163757904Y-94092200D01*
X163757904Y-94092200D02*
X163710285Y-94044580D01*
X163710285Y-94044580D02*
X163710285Y-94139819D01*
X162805524Y-94092200D02*
X162900762Y-94139819D01*
X162900762Y-94139819D02*
X163091238Y-94139819D01*
X163091238Y-94139819D02*
X163186476Y-94092200D01*
X163186476Y-94092200D02*
X163234095Y-94044580D01*
X163234095Y-94044580D02*
X163281714Y-93949342D01*
X163281714Y-93949342D02*
X163281714Y-93663628D01*
X163281714Y-93663628D02*
X163234095Y-93568390D01*
X163234095Y-93568390D02*
X163186476Y-93520771D01*
X163186476Y-93520771D02*
X163091238Y-93473152D01*
X163091238Y-93473152D02*
X162900762Y-93473152D01*
X162900762Y-93473152D02*
X162805524Y-93520771D01*
X162234095Y-94139819D02*
X162329333Y-94092200D01*
X162329333Y-94092200D02*
X162376952Y-94044580D01*
X162376952Y-94044580D02*
X162424571Y-93949342D01*
X162424571Y-93949342D02*
X162424571Y-93663628D01*
X162424571Y-93663628D02*
X162376952Y-93568390D01*
X162376952Y-93568390D02*
X162329333Y-93520771D01*
X162329333Y-93520771D02*
X162234095Y-93473152D01*
X162234095Y-93473152D02*
X162091238Y-93473152D01*
X162091238Y-93473152D02*
X161996000Y-93520771D01*
X161996000Y-93520771D02*
X161948381Y-93568390D01*
X161948381Y-93568390D02*
X161900762Y-93663628D01*
X161900762Y-93663628D02*
X161900762Y-93949342D01*
X161900762Y-93949342D02*
X161948381Y-94044580D01*
X161948381Y-94044580D02*
X161996000Y-94092200D01*
X161996000Y-94092200D02*
X162091238Y-94139819D01*
X162091238Y-94139819D02*
X162234095Y-94139819D01*
X161472190Y-94139819D02*
X161472190Y-93473152D01*
X161472190Y-93568390D02*
X161424571Y-93520771D01*
X161424571Y-93520771D02*
X161329333Y-93473152D01*
X161329333Y-93473152D02*
X161186476Y-93473152D01*
X161186476Y-93473152D02*
X161091238Y-93520771D01*
X161091238Y-93520771D02*
X161043619Y-93616009D01*
X161043619Y-93616009D02*
X161043619Y-94139819D01*
X161043619Y-93616009D02*
X160996000Y-93520771D01*
X160996000Y-93520771D02*
X160900762Y-93473152D01*
X160900762Y-93473152D02*
X160757905Y-93473152D01*
X160757905Y-93473152D02*
X160662666Y-93520771D01*
X160662666Y-93520771D02*
X160615047Y-93616009D01*
X160615047Y-93616009D02*
X160615047Y-94139819D01*
X159424572Y-93092200D02*
X160281714Y-94377914D01*
X159091238Y-94139819D02*
X159091238Y-93473152D01*
X159091238Y-93139819D02*
X159138857Y-93187438D01*
X159138857Y-93187438D02*
X159091238Y-93235057D01*
X159091238Y-93235057D02*
X159043619Y-93187438D01*
X159043619Y-93187438D02*
X159091238Y-93139819D01*
X159091238Y-93139819D02*
X159091238Y-93235057D01*
X158615048Y-94139819D02*
X158615048Y-93139819D01*
X158519810Y-93758866D02*
X158234096Y-94139819D01*
X158234096Y-93473152D02*
X158615048Y-93854104D01*
X157662667Y-94139819D02*
X157757905Y-94092200D01*
X157757905Y-94092200D02*
X157805524Y-94044580D01*
X157805524Y-94044580D02*
X157853143Y-93949342D01*
X157853143Y-93949342D02*
X157853143Y-93663628D01*
X157853143Y-93663628D02*
X157805524Y-93568390D01*
X157805524Y-93568390D02*
X157757905Y-93520771D01*
X157757905Y-93520771D02*
X157662667Y-93473152D01*
X157662667Y-93473152D02*
X157519810Y-93473152D01*
X157519810Y-93473152D02*
X157424572Y-93520771D01*
X157424572Y-93520771D02*
X157376953Y-93568390D01*
X157376953Y-93568390D02*
X157329334Y-93663628D01*
X157329334Y-93663628D02*
X157329334Y-93949342D01*
X157329334Y-93949342D02*
X157376953Y-94044580D01*
X157376953Y-94044580D02*
X157424572Y-94092200D01*
X157424572Y-94092200D02*
X157519810Y-94139819D01*
X157519810Y-94139819D02*
X157662667Y-94139819D01*
X156900762Y-94139819D02*
X156900762Y-93473152D01*
X156900762Y-93663628D02*
X156853143Y-93568390D01*
X156853143Y-93568390D02*
X156805524Y-93520771D01*
X156805524Y-93520771D02*
X156710286Y-93473152D01*
X156710286Y-93473152D02*
X156615048Y-93473152D01*
X156281714Y-94139819D02*
X156281714Y-93139819D01*
X156281714Y-93520771D02*
X156186476Y-93473152D01*
X156186476Y-93473152D02*
X155996000Y-93473152D01*
X155996000Y-93473152D02*
X155900762Y-93520771D01*
X155900762Y-93520771D02*
X155853143Y-93568390D01*
X155853143Y-93568390D02*
X155805524Y-93663628D01*
X155805524Y-93663628D02*
X155805524Y-93949342D01*
X155805524Y-93949342D02*
X155853143Y-94044580D01*
X155853143Y-94044580D02*
X155900762Y-94092200D01*
X155900762Y-94092200D02*
X155996000Y-94139819D01*
X155996000Y-94139819D02*
X156186476Y-94139819D01*
X156186476Y-94139819D02*
X156281714Y-94092200D01*
X154662667Y-93092200D02*
X155519809Y-94377914D01*
X154472190Y-93473152D02*
X154091238Y-93473152D01*
X154329333Y-93139819D02*
X154329333Y-93996961D01*
X154329333Y-93996961D02*
X154281714Y-94092200D01*
X154281714Y-94092200D02*
X154186476Y-94139819D01*
X154186476Y-94139819D02*
X154091238Y-94139819D01*
X153329333Y-94139819D02*
X153329333Y-93616009D01*
X153329333Y-93616009D02*
X153376952Y-93520771D01*
X153376952Y-93520771D02*
X153472190Y-93473152D01*
X153472190Y-93473152D02*
X153662666Y-93473152D01*
X153662666Y-93473152D02*
X153757904Y-93520771D01*
X153329333Y-94092200D02*
X153424571Y-94139819D01*
X153424571Y-94139819D02*
X153662666Y-94139819D01*
X153662666Y-94139819D02*
X153757904Y-94092200D01*
X153757904Y-94092200D02*
X153805523Y-93996961D01*
X153805523Y-93996961D02*
X153805523Y-93901723D01*
X153805523Y-93901723D02*
X153757904Y-93806485D01*
X153757904Y-93806485D02*
X153662666Y-93758866D01*
X153662666Y-93758866D02*
X153424571Y-93758866D01*
X153424571Y-93758866D02*
X153329333Y-93711247D01*
X152853142Y-93473152D02*
X152853142Y-94473152D01*
X152853142Y-93520771D02*
X152757904Y-93473152D01*
X152757904Y-93473152D02*
X152567428Y-93473152D01*
X152567428Y-93473152D02*
X152472190Y-93520771D01*
X152472190Y-93520771D02*
X152424571Y-93568390D01*
X152424571Y-93568390D02*
X152376952Y-93663628D01*
X152376952Y-93663628D02*
X152376952Y-93949342D01*
X152376952Y-93949342D02*
X152424571Y-94044580D01*
X152424571Y-94044580D02*
X152472190Y-94092200D01*
X152472190Y-94092200D02*
X152567428Y-94139819D01*
X152567428Y-94139819D02*
X152757904Y-94139819D01*
X152757904Y-94139819D02*
X152853142Y-94092200D01*
X151567428Y-94092200D02*
X151662666Y-94139819D01*
X151662666Y-94139819D02*
X151853142Y-94139819D01*
X151853142Y-94139819D02*
X151948380Y-94092200D01*
X151948380Y-94092200D02*
X151995999Y-93996961D01*
X151995999Y-93996961D02*
X151995999Y-93616009D01*
X151995999Y-93616009D02*
X151948380Y-93520771D01*
X151948380Y-93520771D02*
X151853142Y-93473152D01*
X151853142Y-93473152D02*
X151662666Y-93473152D01*
X151662666Y-93473152D02*
X151567428Y-93520771D01*
X151567428Y-93520771D02*
X151519809Y-93616009D01*
X151519809Y-93616009D02*
X151519809Y-93711247D01*
X151519809Y-93711247D02*
X151995999Y-93806485D01*
X150662666Y-94092200D02*
X150757904Y-94139819D01*
X150757904Y-94139819D02*
X150948380Y-94139819D01*
X150948380Y-94139819D02*
X151043618Y-94092200D01*
X151043618Y-94092200D02*
X151091237Y-94044580D01*
X151091237Y-94044580D02*
X151138856Y-93949342D01*
X151138856Y-93949342D02*
X151138856Y-93663628D01*
X151138856Y-93663628D02*
X151091237Y-93568390D01*
X151091237Y-93568390D02*
X151043618Y-93520771D01*
X151043618Y-93520771D02*
X150948380Y-93473152D01*
X150948380Y-93473152D02*
X150757904Y-93473152D01*
X150757904Y-93473152D02*
X150662666Y-93520771D01*
X149805523Y-94139819D02*
X149805523Y-93616009D01*
X149805523Y-93616009D02*
X149853142Y-93520771D01*
X149853142Y-93520771D02*
X149948380Y-93473152D01*
X149948380Y-93473152D02*
X150138856Y-93473152D01*
X150138856Y-93473152D02*
X150234094Y-93520771D01*
X149805523Y-94092200D02*
X149900761Y-94139819D01*
X149900761Y-94139819D02*
X150138856Y-94139819D01*
X150138856Y-94139819D02*
X150234094Y-94092200D01*
X150234094Y-94092200D02*
X150281713Y-93996961D01*
X150281713Y-93996961D02*
X150281713Y-93901723D01*
X150281713Y-93901723D02*
X150234094Y-93806485D01*
X150234094Y-93806485D02*
X150138856Y-93758866D01*
X150138856Y-93758866D02*
X149900761Y-93758866D01*
X149900761Y-93758866D02*
X149805523Y-93711247D01*
X149329332Y-94139819D02*
X149329332Y-93473152D01*
X149329332Y-93663628D02*
X149281713Y-93568390D01*
X149281713Y-93568390D02*
X149234094Y-93520771D01*
X149234094Y-93520771D02*
X149138856Y-93473152D01*
X149138856Y-93473152D02*
X149043618Y-93473152D01*
X148853141Y-93473152D02*
X148472189Y-93473152D01*
X148710284Y-93139819D02*
X148710284Y-93996961D01*
X148710284Y-93996961D02*
X148662665Y-94092200D01*
X148662665Y-94092200D02*
X148567427Y-94139819D01*
X148567427Y-94139819D02*
X148472189Y-94139819D01*
X169829333Y-97312200D02*
X169686476Y-97359819D01*
X169686476Y-97359819D02*
X169448381Y-97359819D01*
X169448381Y-97359819D02*
X169353143Y-97312200D01*
X169353143Y-97312200D02*
X169305524Y-97264580D01*
X169305524Y-97264580D02*
X169257905Y-97169342D01*
X169257905Y-97169342D02*
X169257905Y-97074104D01*
X169257905Y-97074104D02*
X169305524Y-96978866D01*
X169305524Y-96978866D02*
X169353143Y-96931247D01*
X169353143Y-96931247D02*
X169448381Y-96883628D01*
X169448381Y-96883628D02*
X169638857Y-96836009D01*
X169638857Y-96836009D02*
X169734095Y-96788390D01*
X169734095Y-96788390D02*
X169781714Y-96740771D01*
X169781714Y-96740771D02*
X169829333Y-96645533D01*
X169829333Y-96645533D02*
X169829333Y-96550295D01*
X169829333Y-96550295D02*
X169781714Y-96455057D01*
X169781714Y-96455057D02*
X169734095Y-96407438D01*
X169734095Y-96407438D02*
X169638857Y-96359819D01*
X169638857Y-96359819D02*
X169400762Y-96359819D01*
X169400762Y-96359819D02*
X169257905Y-96407438D01*
X168829333Y-97359819D02*
X168829333Y-96359819D01*
X168829333Y-96359819D02*
X168591238Y-96359819D01*
X168591238Y-96359819D02*
X168448381Y-96407438D01*
X168448381Y-96407438D02*
X168353143Y-96502676D01*
X168353143Y-96502676D02*
X168305524Y-96597914D01*
X168305524Y-96597914D02*
X168257905Y-96788390D01*
X168257905Y-96788390D02*
X168257905Y-96931247D01*
X168257905Y-96931247D02*
X168305524Y-97121723D01*
X168305524Y-97121723D02*
X168353143Y-97216961D01*
X168353143Y-97216961D02*
X168448381Y-97312200D01*
X168448381Y-97312200D02*
X168591238Y-97359819D01*
X168591238Y-97359819D02*
X168829333Y-97359819D01*
X166638857Y-97359819D02*
X166638857Y-96836009D01*
X166638857Y-96836009D02*
X166686476Y-96740771D01*
X166686476Y-96740771D02*
X166781714Y-96693152D01*
X166781714Y-96693152D02*
X166972190Y-96693152D01*
X166972190Y-96693152D02*
X167067428Y-96740771D01*
X166638857Y-97312200D02*
X166734095Y-97359819D01*
X166734095Y-97359819D02*
X166972190Y-97359819D01*
X166972190Y-97359819D02*
X167067428Y-97312200D01*
X167067428Y-97312200D02*
X167115047Y-97216961D01*
X167115047Y-97216961D02*
X167115047Y-97121723D01*
X167115047Y-97121723D02*
X167067428Y-97026485D01*
X167067428Y-97026485D02*
X166972190Y-96978866D01*
X166972190Y-96978866D02*
X166734095Y-96978866D01*
X166734095Y-96978866D02*
X166638857Y-96931247D01*
X165734095Y-97359819D02*
X165734095Y-96359819D01*
X165734095Y-97312200D02*
X165829333Y-97359819D01*
X165829333Y-97359819D02*
X166019809Y-97359819D01*
X166019809Y-97359819D02*
X166115047Y-97312200D01*
X166115047Y-97312200D02*
X166162666Y-97264580D01*
X166162666Y-97264580D02*
X166210285Y-97169342D01*
X166210285Y-97169342D02*
X166210285Y-96883628D01*
X166210285Y-96883628D02*
X166162666Y-96788390D01*
X166162666Y-96788390D02*
X166115047Y-96740771D01*
X166115047Y-96740771D02*
X166019809Y-96693152D01*
X166019809Y-96693152D02*
X165829333Y-96693152D01*
X165829333Y-96693152D02*
X165734095Y-96740771D01*
X164829333Y-97359819D02*
X164829333Y-96359819D01*
X164829333Y-97312200D02*
X164924571Y-97359819D01*
X164924571Y-97359819D02*
X165115047Y-97359819D01*
X165115047Y-97359819D02*
X165210285Y-97312200D01*
X165210285Y-97312200D02*
X165257904Y-97264580D01*
X165257904Y-97264580D02*
X165305523Y-97169342D01*
X165305523Y-97169342D02*
X165305523Y-96883628D01*
X165305523Y-96883628D02*
X165257904Y-96788390D01*
X165257904Y-96788390D02*
X165210285Y-96740771D01*
X165210285Y-96740771D02*
X165115047Y-96693152D01*
X165115047Y-96693152D02*
X164924571Y-96693152D01*
X164924571Y-96693152D02*
X164829333Y-96740771D01*
X164353142Y-97359819D02*
X164353142Y-96693152D01*
X164353142Y-96359819D02*
X164400761Y-96407438D01*
X164400761Y-96407438D02*
X164353142Y-96455057D01*
X164353142Y-96455057D02*
X164305523Y-96407438D01*
X164305523Y-96407438D02*
X164353142Y-96359819D01*
X164353142Y-96359819D02*
X164353142Y-96455057D01*
X164019809Y-96693152D02*
X163638857Y-96693152D01*
X163876952Y-96359819D02*
X163876952Y-97216961D01*
X163876952Y-97216961D02*
X163829333Y-97312200D01*
X163829333Y-97312200D02*
X163734095Y-97359819D01*
X163734095Y-97359819D02*
X163638857Y-97359819D01*
X163305523Y-97359819D02*
X163305523Y-96693152D01*
X163305523Y-96359819D02*
X163353142Y-96407438D01*
X163353142Y-96407438D02*
X163305523Y-96455057D01*
X163305523Y-96455057D02*
X163257904Y-96407438D01*
X163257904Y-96407438D02*
X163305523Y-96359819D01*
X163305523Y-96359819D02*
X163305523Y-96455057D01*
X162686476Y-97359819D02*
X162781714Y-97312200D01*
X162781714Y-97312200D02*
X162829333Y-97264580D01*
X162829333Y-97264580D02*
X162876952Y-97169342D01*
X162876952Y-97169342D02*
X162876952Y-96883628D01*
X162876952Y-96883628D02*
X162829333Y-96788390D01*
X162829333Y-96788390D02*
X162781714Y-96740771D01*
X162781714Y-96740771D02*
X162686476Y-96693152D01*
X162686476Y-96693152D02*
X162543619Y-96693152D01*
X162543619Y-96693152D02*
X162448381Y-96740771D01*
X162448381Y-96740771D02*
X162400762Y-96788390D01*
X162400762Y-96788390D02*
X162353143Y-96883628D01*
X162353143Y-96883628D02*
X162353143Y-97169342D01*
X162353143Y-97169342D02*
X162400762Y-97264580D01*
X162400762Y-97264580D02*
X162448381Y-97312200D01*
X162448381Y-97312200D02*
X162543619Y-97359819D01*
X162543619Y-97359819D02*
X162686476Y-97359819D01*
X161924571Y-96693152D02*
X161924571Y-97359819D01*
X161924571Y-96788390D02*
X161876952Y-96740771D01*
X161876952Y-96740771D02*
X161781714Y-96693152D01*
X161781714Y-96693152D02*
X161638857Y-96693152D01*
X161638857Y-96693152D02*
X161543619Y-96740771D01*
X161543619Y-96740771D02*
X161496000Y-96836009D01*
X161496000Y-96836009D02*
X161496000Y-97359819D01*
X160257904Y-97359819D02*
X160257904Y-96359819D01*
X160257904Y-96740771D02*
X160162666Y-96693152D01*
X160162666Y-96693152D02*
X159972190Y-96693152D01*
X159972190Y-96693152D02*
X159876952Y-96740771D01*
X159876952Y-96740771D02*
X159829333Y-96788390D01*
X159829333Y-96788390D02*
X159781714Y-96883628D01*
X159781714Y-96883628D02*
X159781714Y-97169342D01*
X159781714Y-97169342D02*
X159829333Y-97264580D01*
X159829333Y-97264580D02*
X159876952Y-97312200D01*
X159876952Y-97312200D02*
X159972190Y-97359819D01*
X159972190Y-97359819D02*
X160162666Y-97359819D01*
X160162666Y-97359819D02*
X160257904Y-97312200D01*
X159448380Y-96693152D02*
X159210285Y-97359819D01*
X158972190Y-96693152D02*
X159210285Y-97359819D01*
X159210285Y-97359819D02*
X159305523Y-97597914D01*
X159305523Y-97597914D02*
X159353142Y-97645533D01*
X159353142Y-97645533D02*
X159448380Y-97693152D01*
X157829332Y-97359819D02*
X157829332Y-96359819D01*
X157257904Y-97359819D02*
X157686475Y-96788390D01*
X157257904Y-96359819D02*
X157829332Y-96931247D01*
X156829332Y-97359819D02*
X156829332Y-96693152D01*
X156829332Y-96359819D02*
X156876951Y-96407438D01*
X156876951Y-96407438D02*
X156829332Y-96455057D01*
X156829332Y-96455057D02*
X156781713Y-96407438D01*
X156781713Y-96407438D02*
X156829332Y-96359819D01*
X156829332Y-96359819D02*
X156829332Y-96455057D01*
X156353142Y-97359819D02*
X156353142Y-96693152D01*
X156353142Y-96788390D02*
X156305523Y-96740771D01*
X156305523Y-96740771D02*
X156210285Y-96693152D01*
X156210285Y-96693152D02*
X156067428Y-96693152D01*
X156067428Y-96693152D02*
X155972190Y-96740771D01*
X155972190Y-96740771D02*
X155924571Y-96836009D01*
X155924571Y-96836009D02*
X155924571Y-97359819D01*
X155924571Y-96836009D02*
X155876952Y-96740771D01*
X155876952Y-96740771D02*
X155781714Y-96693152D01*
X155781714Y-96693152D02*
X155638857Y-96693152D01*
X155638857Y-96693152D02*
X155543618Y-96740771D01*
X155543618Y-96740771D02*
X155495999Y-96836009D01*
X155495999Y-96836009D02*
X155495999Y-97359819D01*
X153972190Y-96359819D02*
X153972190Y-97074104D01*
X153972190Y-97074104D02*
X154019809Y-97216961D01*
X154019809Y-97216961D02*
X154115047Y-97312200D01*
X154115047Y-97312200D02*
X154257904Y-97359819D01*
X154257904Y-97359819D02*
X154353142Y-97359819D01*
X153353142Y-97359819D02*
X153448380Y-97312200D01*
X153448380Y-97312200D02*
X153495999Y-97264580D01*
X153495999Y-97264580D02*
X153543618Y-97169342D01*
X153543618Y-97169342D02*
X153543618Y-96883628D01*
X153543618Y-96883628D02*
X153495999Y-96788390D01*
X153495999Y-96788390D02*
X153448380Y-96740771D01*
X153448380Y-96740771D02*
X153353142Y-96693152D01*
X153353142Y-96693152D02*
X153210285Y-96693152D01*
X153210285Y-96693152D02*
X153115047Y-96740771D01*
X153115047Y-96740771D02*
X153067428Y-96788390D01*
X153067428Y-96788390D02*
X153019809Y-96883628D01*
X153019809Y-96883628D02*
X153019809Y-97169342D01*
X153019809Y-97169342D02*
X153067428Y-97264580D01*
X153067428Y-97264580D02*
X153115047Y-97312200D01*
X153115047Y-97312200D02*
X153210285Y-97359819D01*
X153210285Y-97359819D02*
X153353142Y-97359819D01*
X152591237Y-97359819D02*
X152591237Y-96693152D01*
X152591237Y-96883628D02*
X152543618Y-96788390D01*
X152543618Y-96788390D02*
X152495999Y-96740771D01*
X152495999Y-96740771D02*
X152400761Y-96693152D01*
X152400761Y-96693152D02*
X152305523Y-96693152D01*
X151543618Y-96693152D02*
X151543618Y-97502676D01*
X151543618Y-97502676D02*
X151591237Y-97597914D01*
X151591237Y-97597914D02*
X151638856Y-97645533D01*
X151638856Y-97645533D02*
X151734094Y-97693152D01*
X151734094Y-97693152D02*
X151876951Y-97693152D01*
X151876951Y-97693152D02*
X151972189Y-97645533D01*
X151543618Y-97312200D02*
X151638856Y-97359819D01*
X151638856Y-97359819D02*
X151829332Y-97359819D01*
X151829332Y-97359819D02*
X151924570Y-97312200D01*
X151924570Y-97312200D02*
X151972189Y-97264580D01*
X151972189Y-97264580D02*
X152019808Y-97169342D01*
X152019808Y-97169342D02*
X152019808Y-96883628D01*
X152019808Y-96883628D02*
X151972189Y-96788390D01*
X151972189Y-96788390D02*
X151924570Y-96740771D01*
X151924570Y-96740771D02*
X151829332Y-96693152D01*
X151829332Y-96693152D02*
X151638856Y-96693152D01*
X151638856Y-96693152D02*
X151543618Y-96740771D01*
X150686475Y-97312200D02*
X150781713Y-97359819D01*
X150781713Y-97359819D02*
X150972189Y-97359819D01*
X150972189Y-97359819D02*
X151067427Y-97312200D01*
X151067427Y-97312200D02*
X151115046Y-97216961D01*
X151115046Y-97216961D02*
X151115046Y-96836009D01*
X151115046Y-96836009D02*
X151067427Y-96740771D01*
X151067427Y-96740771D02*
X150972189Y-96693152D01*
X150972189Y-96693152D02*
X150781713Y-96693152D01*
X150781713Y-96693152D02*
X150686475Y-96740771D01*
X150686475Y-96740771D02*
X150638856Y-96836009D01*
X150638856Y-96836009D02*
X150638856Y-96931247D01*
X150638856Y-96931247D02*
X151115046Y-97026485D01*
X150210284Y-96693152D02*
X150210284Y-97359819D01*
X150210284Y-96788390D02*
X150162665Y-96740771D01*
X150162665Y-96740771D02*
X150067427Y-96693152D01*
X150067427Y-96693152D02*
X149924570Y-96693152D01*
X149924570Y-96693152D02*
X149829332Y-96740771D01*
X149829332Y-96740771D02*
X149781713Y-96836009D01*
X149781713Y-96836009D02*
X149781713Y-97359819D01*
X149353141Y-97312200D02*
X149257903Y-97359819D01*
X149257903Y-97359819D02*
X149067427Y-97359819D01*
X149067427Y-97359819D02*
X148972189Y-97312200D01*
X148972189Y-97312200D02*
X148924570Y-97216961D01*
X148924570Y-97216961D02*
X148924570Y-97169342D01*
X148924570Y-97169342D02*
X148972189Y-97074104D01*
X148972189Y-97074104D02*
X149067427Y-97026485D01*
X149067427Y-97026485D02*
X149210284Y-97026485D01*
X149210284Y-97026485D02*
X149305522Y-96978866D01*
X149305522Y-96978866D02*
X149353141Y-96883628D01*
X149353141Y-96883628D02*
X149353141Y-96836009D01*
X149353141Y-96836009D02*
X149305522Y-96740771D01*
X149305522Y-96740771D02*
X149210284Y-96693152D01*
X149210284Y-96693152D02*
X149067427Y-96693152D01*
X149067427Y-96693152D02*
X148972189Y-96740771D01*
X148115046Y-97312200D02*
X148210284Y-97359819D01*
X148210284Y-97359819D02*
X148400760Y-97359819D01*
X148400760Y-97359819D02*
X148495998Y-97312200D01*
X148495998Y-97312200D02*
X148543617Y-97216961D01*
X148543617Y-97216961D02*
X148543617Y-96836009D01*
X148543617Y-96836009D02*
X148495998Y-96740771D01*
X148495998Y-96740771D02*
X148400760Y-96693152D01*
X148400760Y-96693152D02*
X148210284Y-96693152D01*
X148210284Y-96693152D02*
X148115046Y-96740771D01*
X148115046Y-96740771D02*
X148067427Y-96836009D01*
X148067427Y-96836009D02*
X148067427Y-96931247D01*
X148067427Y-96931247D02*
X148543617Y-97026485D01*
X147638855Y-96693152D02*
X147638855Y-97359819D01*
X147638855Y-96788390D02*
X147591236Y-96740771D01*
X147591236Y-96740771D02*
X147495998Y-96693152D01*
X147495998Y-96693152D02*
X147353141Y-96693152D01*
X147353141Y-96693152D02*
X147257903Y-96740771D01*
X147257903Y-96740771D02*
X147210284Y-96836009D01*
X147210284Y-96836009D02*
X147210284Y-97359819D01*
X171257905Y-98303152D02*
X171257905Y-99112676D01*
X171257905Y-99112676D02*
X171305524Y-99207914D01*
X171305524Y-99207914D02*
X171353143Y-99255533D01*
X171353143Y-99255533D02*
X171448381Y-99303152D01*
X171448381Y-99303152D02*
X171591238Y-99303152D01*
X171591238Y-99303152D02*
X171686476Y-99255533D01*
X171257905Y-98922200D02*
X171353143Y-98969819D01*
X171353143Y-98969819D02*
X171543619Y-98969819D01*
X171543619Y-98969819D02*
X171638857Y-98922200D01*
X171638857Y-98922200D02*
X171686476Y-98874580D01*
X171686476Y-98874580D02*
X171734095Y-98779342D01*
X171734095Y-98779342D02*
X171734095Y-98493628D01*
X171734095Y-98493628D02*
X171686476Y-98398390D01*
X171686476Y-98398390D02*
X171638857Y-98350771D01*
X171638857Y-98350771D02*
X171543619Y-98303152D01*
X171543619Y-98303152D02*
X171353143Y-98303152D01*
X171353143Y-98303152D02*
X171257905Y-98350771D01*
X170781714Y-98969819D02*
X170781714Y-98303152D01*
X170781714Y-97969819D02*
X170829333Y-98017438D01*
X170829333Y-98017438D02*
X170781714Y-98065057D01*
X170781714Y-98065057D02*
X170734095Y-98017438D01*
X170734095Y-98017438D02*
X170781714Y-97969819D01*
X170781714Y-97969819D02*
X170781714Y-98065057D01*
X170448381Y-98303152D02*
X170067429Y-98303152D01*
X170305524Y-97969819D02*
X170305524Y-98826961D01*
X170305524Y-98826961D02*
X170257905Y-98922200D01*
X170257905Y-98922200D02*
X170162667Y-98969819D01*
X170162667Y-98969819D02*
X170067429Y-98969819D01*
X169734095Y-98969819D02*
X169734095Y-97969819D01*
X169305524Y-98969819D02*
X169305524Y-98446009D01*
X169305524Y-98446009D02*
X169353143Y-98350771D01*
X169353143Y-98350771D02*
X169448381Y-98303152D01*
X169448381Y-98303152D02*
X169591238Y-98303152D01*
X169591238Y-98303152D02*
X169686476Y-98350771D01*
X169686476Y-98350771D02*
X169734095Y-98398390D01*
X168400762Y-98303152D02*
X168400762Y-98969819D01*
X168829333Y-98303152D02*
X168829333Y-98826961D01*
X168829333Y-98826961D02*
X168781714Y-98922200D01*
X168781714Y-98922200D02*
X168686476Y-98969819D01*
X168686476Y-98969819D02*
X168543619Y-98969819D01*
X168543619Y-98969819D02*
X168448381Y-98922200D01*
X168448381Y-98922200D02*
X168400762Y-98874580D01*
X167924571Y-98969819D02*
X167924571Y-97969819D01*
X167924571Y-98350771D02*
X167829333Y-98303152D01*
X167829333Y-98303152D02*
X167638857Y-98303152D01*
X167638857Y-98303152D02*
X167543619Y-98350771D01*
X167543619Y-98350771D02*
X167496000Y-98398390D01*
X167496000Y-98398390D02*
X167448381Y-98493628D01*
X167448381Y-98493628D02*
X167448381Y-98779342D01*
X167448381Y-98779342D02*
X167496000Y-98874580D01*
X167496000Y-98874580D02*
X167543619Y-98922200D01*
X167543619Y-98922200D02*
X167638857Y-98969819D01*
X167638857Y-98969819D02*
X167829333Y-98969819D01*
X167829333Y-98969819D02*
X167924571Y-98922200D01*
X167019809Y-98874580D02*
X166972190Y-98922200D01*
X166972190Y-98922200D02*
X167019809Y-98969819D01*
X167019809Y-98969819D02*
X167067428Y-98922200D01*
X167067428Y-98922200D02*
X167019809Y-98874580D01*
X167019809Y-98874580D02*
X167019809Y-98969819D01*
X166115048Y-98922200D02*
X166210286Y-98969819D01*
X166210286Y-98969819D02*
X166400762Y-98969819D01*
X166400762Y-98969819D02*
X166496000Y-98922200D01*
X166496000Y-98922200D02*
X166543619Y-98874580D01*
X166543619Y-98874580D02*
X166591238Y-98779342D01*
X166591238Y-98779342D02*
X166591238Y-98493628D01*
X166591238Y-98493628D02*
X166543619Y-98398390D01*
X166543619Y-98398390D02*
X166496000Y-98350771D01*
X166496000Y-98350771D02*
X166400762Y-98303152D01*
X166400762Y-98303152D02*
X166210286Y-98303152D01*
X166210286Y-98303152D02*
X166115048Y-98350771D01*
X165543619Y-98969819D02*
X165638857Y-98922200D01*
X165638857Y-98922200D02*
X165686476Y-98874580D01*
X165686476Y-98874580D02*
X165734095Y-98779342D01*
X165734095Y-98779342D02*
X165734095Y-98493628D01*
X165734095Y-98493628D02*
X165686476Y-98398390D01*
X165686476Y-98398390D02*
X165638857Y-98350771D01*
X165638857Y-98350771D02*
X165543619Y-98303152D01*
X165543619Y-98303152D02*
X165400762Y-98303152D01*
X165400762Y-98303152D02*
X165305524Y-98350771D01*
X165305524Y-98350771D02*
X165257905Y-98398390D01*
X165257905Y-98398390D02*
X165210286Y-98493628D01*
X165210286Y-98493628D02*
X165210286Y-98779342D01*
X165210286Y-98779342D02*
X165257905Y-98874580D01*
X165257905Y-98874580D02*
X165305524Y-98922200D01*
X165305524Y-98922200D02*
X165400762Y-98969819D01*
X165400762Y-98969819D02*
X165543619Y-98969819D01*
X164781714Y-98969819D02*
X164781714Y-98303152D01*
X164781714Y-98398390D02*
X164734095Y-98350771D01*
X164734095Y-98350771D02*
X164638857Y-98303152D01*
X164638857Y-98303152D02*
X164496000Y-98303152D01*
X164496000Y-98303152D02*
X164400762Y-98350771D01*
X164400762Y-98350771D02*
X164353143Y-98446009D01*
X164353143Y-98446009D02*
X164353143Y-98969819D01*
X164353143Y-98446009D02*
X164305524Y-98350771D01*
X164305524Y-98350771D02*
X164210286Y-98303152D01*
X164210286Y-98303152D02*
X164067429Y-98303152D01*
X164067429Y-98303152D02*
X163972190Y-98350771D01*
X163972190Y-98350771D02*
X163924571Y-98446009D01*
X163924571Y-98446009D02*
X163924571Y-98969819D01*
X162734096Y-97922200D02*
X163591238Y-99207914D01*
X162400762Y-98969819D02*
X162400762Y-97969819D01*
X161829334Y-98969819D02*
X162257905Y-98398390D01*
X161829334Y-97969819D02*
X162400762Y-98541247D01*
X161400762Y-98969819D02*
X161400762Y-98303152D01*
X161400762Y-97969819D02*
X161448381Y-98017438D01*
X161448381Y-98017438D02*
X161400762Y-98065057D01*
X161400762Y-98065057D02*
X161353143Y-98017438D01*
X161353143Y-98017438D02*
X161400762Y-97969819D01*
X161400762Y-97969819D02*
X161400762Y-98065057D01*
X160924572Y-98969819D02*
X160924572Y-98303152D01*
X160924572Y-98398390D02*
X160876953Y-98350771D01*
X160876953Y-98350771D02*
X160781715Y-98303152D01*
X160781715Y-98303152D02*
X160638858Y-98303152D01*
X160638858Y-98303152D02*
X160543620Y-98350771D01*
X160543620Y-98350771D02*
X160496001Y-98446009D01*
X160496001Y-98446009D02*
X160496001Y-98969819D01*
X160496001Y-98446009D02*
X160448382Y-98350771D01*
X160448382Y-98350771D02*
X160353144Y-98303152D01*
X160353144Y-98303152D02*
X160210287Y-98303152D01*
X160210287Y-98303152D02*
X160115048Y-98350771D01*
X160115048Y-98350771D02*
X160067429Y-98446009D01*
X160067429Y-98446009D02*
X160067429Y-98969819D01*
X159305525Y-97969819D02*
X159305525Y-98684104D01*
X159305525Y-98684104D02*
X159353144Y-98826961D01*
X159353144Y-98826961D02*
X159448382Y-98922200D01*
X159448382Y-98922200D02*
X159591239Y-98969819D01*
X159591239Y-98969819D02*
X159686477Y-98969819D01*
X158686477Y-98969819D02*
X158781715Y-98922200D01*
X158781715Y-98922200D02*
X158829334Y-98874580D01*
X158829334Y-98874580D02*
X158876953Y-98779342D01*
X158876953Y-98779342D02*
X158876953Y-98493628D01*
X158876953Y-98493628D02*
X158829334Y-98398390D01*
X158829334Y-98398390D02*
X158781715Y-98350771D01*
X158781715Y-98350771D02*
X158686477Y-98303152D01*
X158686477Y-98303152D02*
X158543620Y-98303152D01*
X158543620Y-98303152D02*
X158448382Y-98350771D01*
X158448382Y-98350771D02*
X158400763Y-98398390D01*
X158400763Y-98398390D02*
X158353144Y-98493628D01*
X158353144Y-98493628D02*
X158353144Y-98779342D01*
X158353144Y-98779342D02*
X158400763Y-98874580D01*
X158400763Y-98874580D02*
X158448382Y-98922200D01*
X158448382Y-98922200D02*
X158543620Y-98969819D01*
X158543620Y-98969819D02*
X158686477Y-98969819D01*
X157924572Y-98969819D02*
X157924572Y-98303152D01*
X157924572Y-98493628D02*
X157876953Y-98398390D01*
X157876953Y-98398390D02*
X157829334Y-98350771D01*
X157829334Y-98350771D02*
X157734096Y-98303152D01*
X157734096Y-98303152D02*
X157638858Y-98303152D01*
X156876953Y-98303152D02*
X156876953Y-99112676D01*
X156876953Y-99112676D02*
X156924572Y-99207914D01*
X156924572Y-99207914D02*
X156972191Y-99255533D01*
X156972191Y-99255533D02*
X157067429Y-99303152D01*
X157067429Y-99303152D02*
X157210286Y-99303152D01*
X157210286Y-99303152D02*
X157305524Y-99255533D01*
X156876953Y-98922200D02*
X156972191Y-98969819D01*
X156972191Y-98969819D02*
X157162667Y-98969819D01*
X157162667Y-98969819D02*
X157257905Y-98922200D01*
X157257905Y-98922200D02*
X157305524Y-98874580D01*
X157305524Y-98874580D02*
X157353143Y-98779342D01*
X157353143Y-98779342D02*
X157353143Y-98493628D01*
X157353143Y-98493628D02*
X157305524Y-98398390D01*
X157305524Y-98398390D02*
X157257905Y-98350771D01*
X157257905Y-98350771D02*
X157162667Y-98303152D01*
X157162667Y-98303152D02*
X156972191Y-98303152D01*
X156972191Y-98303152D02*
X156876953Y-98350771D01*
X156019810Y-98922200D02*
X156115048Y-98969819D01*
X156115048Y-98969819D02*
X156305524Y-98969819D01*
X156305524Y-98969819D02*
X156400762Y-98922200D01*
X156400762Y-98922200D02*
X156448381Y-98826961D01*
X156448381Y-98826961D02*
X156448381Y-98446009D01*
X156448381Y-98446009D02*
X156400762Y-98350771D01*
X156400762Y-98350771D02*
X156305524Y-98303152D01*
X156305524Y-98303152D02*
X156115048Y-98303152D01*
X156115048Y-98303152D02*
X156019810Y-98350771D01*
X156019810Y-98350771D02*
X155972191Y-98446009D01*
X155972191Y-98446009D02*
X155972191Y-98541247D01*
X155972191Y-98541247D02*
X156448381Y-98636485D01*
X155543619Y-98303152D02*
X155543619Y-98969819D01*
X155543619Y-98398390D02*
X155496000Y-98350771D01*
X155496000Y-98350771D02*
X155400762Y-98303152D01*
X155400762Y-98303152D02*
X155257905Y-98303152D01*
X155257905Y-98303152D02*
X155162667Y-98350771D01*
X155162667Y-98350771D02*
X155115048Y-98446009D01*
X155115048Y-98446009D02*
X155115048Y-98969819D01*
X154686476Y-98922200D02*
X154591238Y-98969819D01*
X154591238Y-98969819D02*
X154400762Y-98969819D01*
X154400762Y-98969819D02*
X154305524Y-98922200D01*
X154305524Y-98922200D02*
X154257905Y-98826961D01*
X154257905Y-98826961D02*
X154257905Y-98779342D01*
X154257905Y-98779342D02*
X154305524Y-98684104D01*
X154305524Y-98684104D02*
X154400762Y-98636485D01*
X154400762Y-98636485D02*
X154543619Y-98636485D01*
X154543619Y-98636485D02*
X154638857Y-98588866D01*
X154638857Y-98588866D02*
X154686476Y-98493628D01*
X154686476Y-98493628D02*
X154686476Y-98446009D01*
X154686476Y-98446009D02*
X154638857Y-98350771D01*
X154638857Y-98350771D02*
X154543619Y-98303152D01*
X154543619Y-98303152D02*
X154400762Y-98303152D01*
X154400762Y-98303152D02*
X154305524Y-98350771D01*
X153448381Y-98922200D02*
X153543619Y-98969819D01*
X153543619Y-98969819D02*
X153734095Y-98969819D01*
X153734095Y-98969819D02*
X153829333Y-98922200D01*
X153829333Y-98922200D02*
X153876952Y-98826961D01*
X153876952Y-98826961D02*
X153876952Y-98446009D01*
X153876952Y-98446009D02*
X153829333Y-98350771D01*
X153829333Y-98350771D02*
X153734095Y-98303152D01*
X153734095Y-98303152D02*
X153543619Y-98303152D01*
X153543619Y-98303152D02*
X153448381Y-98350771D01*
X153448381Y-98350771D02*
X153400762Y-98446009D01*
X153400762Y-98446009D02*
X153400762Y-98541247D01*
X153400762Y-98541247D02*
X153876952Y-98636485D01*
X152972190Y-98303152D02*
X152972190Y-98969819D01*
X152972190Y-98398390D02*
X152924571Y-98350771D01*
X152924571Y-98350771D02*
X152829333Y-98303152D01*
X152829333Y-98303152D02*
X152686476Y-98303152D01*
X152686476Y-98303152D02*
X152591238Y-98350771D01*
X152591238Y-98350771D02*
X152543619Y-98446009D01*
X152543619Y-98446009D02*
X152543619Y-98969819D01*
X151353143Y-97922200D02*
X152210285Y-99207914D01*
X151162666Y-98303152D02*
X150781714Y-98303152D01*
X151019809Y-97969819D02*
X151019809Y-98826961D01*
X151019809Y-98826961D02*
X150972190Y-98922200D01*
X150972190Y-98922200D02*
X150876952Y-98969819D01*
X150876952Y-98969819D02*
X150781714Y-98969819D01*
X150019809Y-98969819D02*
X150019809Y-98446009D01*
X150019809Y-98446009D02*
X150067428Y-98350771D01*
X150067428Y-98350771D02*
X150162666Y-98303152D01*
X150162666Y-98303152D02*
X150353142Y-98303152D01*
X150353142Y-98303152D02*
X150448380Y-98350771D01*
X150019809Y-98922200D02*
X150115047Y-98969819D01*
X150115047Y-98969819D02*
X150353142Y-98969819D01*
X150353142Y-98969819D02*
X150448380Y-98922200D01*
X150448380Y-98922200D02*
X150495999Y-98826961D01*
X150495999Y-98826961D02*
X150495999Y-98731723D01*
X150495999Y-98731723D02*
X150448380Y-98636485D01*
X150448380Y-98636485D02*
X150353142Y-98588866D01*
X150353142Y-98588866D02*
X150115047Y-98588866D01*
X150115047Y-98588866D02*
X150019809Y-98541247D01*
X149543618Y-98303152D02*
X149543618Y-99303152D01*
X149543618Y-98350771D02*
X149448380Y-98303152D01*
X149448380Y-98303152D02*
X149257904Y-98303152D01*
X149257904Y-98303152D02*
X149162666Y-98350771D01*
X149162666Y-98350771D02*
X149115047Y-98398390D01*
X149115047Y-98398390D02*
X149067428Y-98493628D01*
X149067428Y-98493628D02*
X149067428Y-98779342D01*
X149067428Y-98779342D02*
X149115047Y-98874580D01*
X149115047Y-98874580D02*
X149162666Y-98922200D01*
X149162666Y-98922200D02*
X149257904Y-98969819D01*
X149257904Y-98969819D02*
X149448380Y-98969819D01*
X149448380Y-98969819D02*
X149543618Y-98922200D01*
X148257904Y-98922200D02*
X148353142Y-98969819D01*
X148353142Y-98969819D02*
X148543618Y-98969819D01*
X148543618Y-98969819D02*
X148638856Y-98922200D01*
X148638856Y-98922200D02*
X148686475Y-98826961D01*
X148686475Y-98826961D02*
X148686475Y-98446009D01*
X148686475Y-98446009D02*
X148638856Y-98350771D01*
X148638856Y-98350771D02*
X148543618Y-98303152D01*
X148543618Y-98303152D02*
X148353142Y-98303152D01*
X148353142Y-98303152D02*
X148257904Y-98350771D01*
X148257904Y-98350771D02*
X148210285Y-98446009D01*
X148210285Y-98446009D02*
X148210285Y-98541247D01*
X148210285Y-98541247D02*
X148686475Y-98636485D01*
X147353142Y-98922200D02*
X147448380Y-98969819D01*
X147448380Y-98969819D02*
X147638856Y-98969819D01*
X147638856Y-98969819D02*
X147734094Y-98922200D01*
X147734094Y-98922200D02*
X147781713Y-98874580D01*
X147781713Y-98874580D02*
X147829332Y-98779342D01*
X147829332Y-98779342D02*
X147829332Y-98493628D01*
X147829332Y-98493628D02*
X147781713Y-98398390D01*
X147781713Y-98398390D02*
X147734094Y-98350771D01*
X147734094Y-98350771D02*
X147638856Y-98303152D01*
X147638856Y-98303152D02*
X147448380Y-98303152D01*
X147448380Y-98303152D02*
X147353142Y-98350771D01*
X146495999Y-98969819D02*
X146495999Y-98446009D01*
X146495999Y-98446009D02*
X146543618Y-98350771D01*
X146543618Y-98350771D02*
X146638856Y-98303152D01*
X146638856Y-98303152D02*
X146829332Y-98303152D01*
X146829332Y-98303152D02*
X146924570Y-98350771D01*
X146495999Y-98922200D02*
X146591237Y-98969819D01*
X146591237Y-98969819D02*
X146829332Y-98969819D01*
X146829332Y-98969819D02*
X146924570Y-98922200D01*
X146924570Y-98922200D02*
X146972189Y-98826961D01*
X146972189Y-98826961D02*
X146972189Y-98731723D01*
X146972189Y-98731723D02*
X146924570Y-98636485D01*
X146924570Y-98636485D02*
X146829332Y-98588866D01*
X146829332Y-98588866D02*
X146591237Y-98588866D01*
X146591237Y-98588866D02*
X146495999Y-98541247D01*
X146019808Y-98969819D02*
X146019808Y-98303152D01*
X146019808Y-98493628D02*
X145972189Y-98398390D01*
X145972189Y-98398390D02*
X145924570Y-98350771D01*
X145924570Y-98350771D02*
X145829332Y-98303152D01*
X145829332Y-98303152D02*
X145734094Y-98303152D01*
X145543617Y-98303152D02*
X145162665Y-98303152D01*
X145400760Y-97969819D02*
X145400760Y-98826961D01*
X145400760Y-98826961D02*
X145353141Y-98922200D01*
X145353141Y-98922200D02*
X145257903Y-98969819D01*
X145257903Y-98969819D02*
X145162665Y-98969819D01*
X157333333Y-133410819D02*
X157333333Y-134125104D01*
X157333333Y-134125104D02*
X157380952Y-134267961D01*
X157380952Y-134267961D02*
X157476190Y-134363200D01*
X157476190Y-134363200D02*
X157619047Y-134410819D01*
X157619047Y-134410819D02*
X157714285Y-134410819D01*
X156333333Y-134410819D02*
X156904761Y-134410819D01*
X156619047Y-134410819D02*
X156619047Y-133410819D01*
X156619047Y-133410819D02*
X156714285Y-133553676D01*
X156714285Y-133553676D02*
X156809523Y-133648914D01*
X156809523Y-133648914D02*
X156904761Y-133696533D01*
X147597561Y-121215411D02*
X147645180Y-121310649D01*
X147645180Y-121310649D02*
X147645180Y-121453506D01*
X147645180Y-121453506D02*
X147597561Y-121596363D01*
X147597561Y-121596363D02*
X147502323Y-121691601D01*
X147502323Y-121691601D02*
X147407085Y-121739220D01*
X147407085Y-121739220D02*
X147216609Y-121786839D01*
X147216609Y-121786839D02*
X147073752Y-121786839D01*
X147073752Y-121786839D02*
X146883276Y-121739220D01*
X146883276Y-121739220D02*
X146788038Y-121691601D01*
X146788038Y-121691601D02*
X146692800Y-121596363D01*
X146692800Y-121596363D02*
X146645180Y-121453506D01*
X146645180Y-121453506D02*
X146645180Y-121358268D01*
X146645180Y-121358268D02*
X146692800Y-121215411D01*
X146692800Y-121215411D02*
X146740419Y-121167792D01*
X146740419Y-121167792D02*
X147073752Y-121167792D01*
X147073752Y-121167792D02*
X147073752Y-121358268D01*
X146645180Y-120739220D02*
X147645180Y-120739220D01*
X147645180Y-120739220D02*
X146645180Y-120167792D01*
X146645180Y-120167792D02*
X147645180Y-120167792D01*
X146645180Y-119691601D02*
X147645180Y-119691601D01*
X147645180Y-119691601D02*
X147645180Y-119453506D01*
X147645180Y-119453506D02*
X147597561Y-119310649D01*
X147597561Y-119310649D02*
X147502323Y-119215411D01*
X147502323Y-119215411D02*
X147407085Y-119167792D01*
X147407085Y-119167792D02*
X147216609Y-119120173D01*
X147216609Y-119120173D02*
X147073752Y-119120173D01*
X147073752Y-119120173D02*
X146883276Y-119167792D01*
X146883276Y-119167792D02*
X146788038Y-119215411D01*
X146788038Y-119215411D02*
X146692800Y-119310649D01*
X146692800Y-119310649D02*
X146645180Y-119453506D01*
X146645180Y-119453506D02*
X146645180Y-119691601D01*
X158525180Y-121167792D02*
X159001371Y-121501125D01*
X158525180Y-121739220D02*
X159525180Y-121739220D01*
X159525180Y-121739220D02*
X159525180Y-121358268D01*
X159525180Y-121358268D02*
X159477561Y-121263030D01*
X159477561Y-121263030D02*
X159429942Y-121215411D01*
X159429942Y-121215411D02*
X159334704Y-121167792D01*
X159334704Y-121167792D02*
X159191847Y-121167792D01*
X159191847Y-121167792D02*
X159096609Y-121215411D01*
X159096609Y-121215411D02*
X159048990Y-121263030D01*
X159048990Y-121263030D02*
X159001371Y-121358268D01*
X159001371Y-121358268D02*
X159001371Y-121739220D01*
X159048990Y-120739220D02*
X159048990Y-120405887D01*
X158525180Y-120263030D02*
X158525180Y-120739220D01*
X158525180Y-120739220D02*
X159525180Y-120739220D01*
X159525180Y-120739220D02*
X159525180Y-120263030D01*
X158810895Y-119882077D02*
X158810895Y-119405887D01*
X158525180Y-119977315D02*
X159525180Y-119643982D01*
X159525180Y-119643982D02*
X158525180Y-119310649D01*
X158525180Y-118977315D02*
X159525180Y-118977315D01*
X159525180Y-118977315D02*
X159525180Y-118739220D01*
X159525180Y-118739220D02*
X159477561Y-118596363D01*
X159477561Y-118596363D02*
X159382323Y-118501125D01*
X159382323Y-118501125D02*
X159287085Y-118453506D01*
X159287085Y-118453506D02*
X159096609Y-118405887D01*
X159096609Y-118405887D02*
X158953752Y-118405887D01*
X158953752Y-118405887D02*
X158763276Y-118453506D01*
X158763276Y-118453506D02*
X158668038Y-118501125D01*
X158668038Y-118501125D02*
X158572800Y-118596363D01*
X158572800Y-118596363D02*
X158525180Y-118739220D01*
X158525180Y-118739220D02*
X158525180Y-118977315D01*
X154565180Y-121739220D02*
X155565180Y-121739220D01*
X155565180Y-121739220D02*
X154850895Y-121405887D01*
X154850895Y-121405887D02*
X155565180Y-121072554D01*
X155565180Y-121072554D02*
X154565180Y-121072554D01*
X155565180Y-120405887D02*
X155565180Y-120215411D01*
X155565180Y-120215411D02*
X155517561Y-120120173D01*
X155517561Y-120120173D02*
X155422323Y-120024935D01*
X155422323Y-120024935D02*
X155231847Y-119977316D01*
X155231847Y-119977316D02*
X154898514Y-119977316D01*
X154898514Y-119977316D02*
X154708038Y-120024935D01*
X154708038Y-120024935D02*
X154612800Y-120120173D01*
X154612800Y-120120173D02*
X154565180Y-120215411D01*
X154565180Y-120215411D02*
X154565180Y-120405887D01*
X154565180Y-120405887D02*
X154612800Y-120501125D01*
X154612800Y-120501125D02*
X154708038Y-120596363D01*
X154708038Y-120596363D02*
X154898514Y-120643982D01*
X154898514Y-120643982D02*
X155231847Y-120643982D01*
X155231847Y-120643982D02*
X155422323Y-120596363D01*
X155422323Y-120596363D02*
X155517561Y-120501125D01*
X155517561Y-120501125D02*
X155565180Y-120405887D01*
X155565180Y-119691601D02*
X155565180Y-119120173D01*
X154565180Y-119405887D02*
X155565180Y-119405887D01*
X155565180Y-118596363D02*
X155565180Y-118405887D01*
X155565180Y-118405887D02*
X155517561Y-118310649D01*
X155517561Y-118310649D02*
X155422323Y-118215411D01*
X155422323Y-118215411D02*
X155231847Y-118167792D01*
X155231847Y-118167792D02*
X154898514Y-118167792D01*
X154898514Y-118167792D02*
X154708038Y-118215411D01*
X154708038Y-118215411D02*
X154612800Y-118310649D01*
X154612800Y-118310649D02*
X154565180Y-118405887D01*
X154565180Y-118405887D02*
X154565180Y-118596363D01*
X154565180Y-118596363D02*
X154612800Y-118691601D01*
X154612800Y-118691601D02*
X154708038Y-118786839D01*
X154708038Y-118786839D02*
X154898514Y-118834458D01*
X154898514Y-118834458D02*
X155231847Y-118834458D01*
X155231847Y-118834458D02*
X155422323Y-118786839D01*
X155422323Y-118786839D02*
X155517561Y-118691601D01*
X155517561Y-118691601D02*
X155565180Y-118596363D01*
X154565180Y-117167792D02*
X155041371Y-117501125D01*
X154565180Y-117739220D02*
X155565180Y-117739220D01*
X155565180Y-117739220D02*
X155565180Y-117358268D01*
X155565180Y-117358268D02*
X155517561Y-117263030D01*
X155517561Y-117263030D02*
X155469942Y-117215411D01*
X155469942Y-117215411D02*
X155374704Y-117167792D01*
X155374704Y-117167792D02*
X155231847Y-117167792D01*
X155231847Y-117167792D02*
X155136609Y-117215411D01*
X155136609Y-117215411D02*
X155088990Y-117263030D01*
X155088990Y-117263030D02*
X155041371Y-117358268D01*
X155041371Y-117358268D02*
X155041371Y-117739220D01*
X163485180Y-121834458D02*
X162485180Y-121596363D01*
X162485180Y-121596363D02*
X163199466Y-121405887D01*
X163199466Y-121405887D02*
X162485180Y-121215411D01*
X162485180Y-121215411D02*
X163485180Y-120977316D01*
X162485180Y-120024935D02*
X162961371Y-120358268D01*
X162485180Y-120596363D02*
X163485180Y-120596363D01*
X163485180Y-120596363D02*
X163485180Y-120215411D01*
X163485180Y-120215411D02*
X163437561Y-120120173D01*
X163437561Y-120120173D02*
X163389942Y-120072554D01*
X163389942Y-120072554D02*
X163294704Y-120024935D01*
X163294704Y-120024935D02*
X163151847Y-120024935D01*
X163151847Y-120024935D02*
X163056609Y-120072554D01*
X163056609Y-120072554D02*
X163008990Y-120120173D01*
X163008990Y-120120173D02*
X162961371Y-120215411D01*
X162961371Y-120215411D02*
X162961371Y-120596363D01*
X162485180Y-119596363D02*
X163485180Y-119596363D01*
X163485180Y-119263030D02*
X163485180Y-118691602D01*
X162485180Y-118977316D02*
X163485180Y-118977316D01*
X163008990Y-118358268D02*
X163008990Y-118024935D01*
X162485180Y-117882078D02*
X162485180Y-118358268D01*
X162485180Y-118358268D02*
X163485180Y-118358268D01*
X163485180Y-118358268D02*
X163485180Y-117882078D01*
X151605180Y-121882077D02*
X150605180Y-121548744D01*
X150605180Y-121548744D02*
X151605180Y-121215411D01*
X150700419Y-120310649D02*
X150652800Y-120358268D01*
X150652800Y-120358268D02*
X150605180Y-120501125D01*
X150605180Y-120501125D02*
X150605180Y-120596363D01*
X150605180Y-120596363D02*
X150652800Y-120739220D01*
X150652800Y-120739220D02*
X150748038Y-120834458D01*
X150748038Y-120834458D02*
X150843276Y-120882077D01*
X150843276Y-120882077D02*
X151033752Y-120929696D01*
X151033752Y-120929696D02*
X151176609Y-120929696D01*
X151176609Y-120929696D02*
X151367085Y-120882077D01*
X151367085Y-120882077D02*
X151462323Y-120834458D01*
X151462323Y-120834458D02*
X151557561Y-120739220D01*
X151557561Y-120739220D02*
X151605180Y-120596363D01*
X151605180Y-120596363D02*
X151605180Y-120501125D01*
X151605180Y-120501125D02*
X151557561Y-120358268D01*
X151557561Y-120358268D02*
X151509942Y-120310649D01*
X150700419Y-119310649D02*
X150652800Y-119358268D01*
X150652800Y-119358268D02*
X150605180Y-119501125D01*
X150605180Y-119501125D02*
X150605180Y-119596363D01*
X150605180Y-119596363D02*
X150652800Y-119739220D01*
X150652800Y-119739220D02*
X150748038Y-119834458D01*
X150748038Y-119834458D02*
X150843276Y-119882077D01*
X150843276Y-119882077D02*
X151033752Y-119929696D01*
X151033752Y-119929696D02*
X151176609Y-119929696D01*
X151176609Y-119929696D02*
X151367085Y-119882077D01*
X151367085Y-119882077D02*
X151462323Y-119834458D01*
X151462323Y-119834458D02*
X151557561Y-119739220D01*
X151557561Y-119739220D02*
X151605180Y-119596363D01*
X151605180Y-119596363D02*
X151605180Y-119501125D01*
X151605180Y-119501125D02*
X151557561Y-119358268D01*
X151557561Y-119358268D02*
X151509942Y-119310649D01*
X166492800Y-121786839D02*
X166445180Y-121643982D01*
X166445180Y-121643982D02*
X166445180Y-121405887D01*
X166445180Y-121405887D02*
X166492800Y-121310649D01*
X166492800Y-121310649D02*
X166540419Y-121263030D01*
X166540419Y-121263030D02*
X166635657Y-121215411D01*
X166635657Y-121215411D02*
X166730895Y-121215411D01*
X166730895Y-121215411D02*
X166826133Y-121263030D01*
X166826133Y-121263030D02*
X166873752Y-121310649D01*
X166873752Y-121310649D02*
X166921371Y-121405887D01*
X166921371Y-121405887D02*
X166968990Y-121596363D01*
X166968990Y-121596363D02*
X167016609Y-121691601D01*
X167016609Y-121691601D02*
X167064228Y-121739220D01*
X167064228Y-121739220D02*
X167159466Y-121786839D01*
X167159466Y-121786839D02*
X167254704Y-121786839D01*
X167254704Y-121786839D02*
X167349942Y-121739220D01*
X167349942Y-121739220D02*
X167397561Y-121691601D01*
X167397561Y-121691601D02*
X167445180Y-121596363D01*
X167445180Y-121596363D02*
X167445180Y-121358268D01*
X167445180Y-121358268D02*
X167397561Y-121215411D01*
X166968990Y-120786839D02*
X166968990Y-120453506D01*
X166445180Y-120310649D02*
X166445180Y-120786839D01*
X166445180Y-120786839D02*
X167445180Y-120786839D01*
X167445180Y-120786839D02*
X167445180Y-120310649D01*
X166445180Y-119882077D02*
X167445180Y-119882077D01*
X167445180Y-119882077D02*
X166445180Y-119310649D01*
X166445180Y-119310649D02*
X167445180Y-119310649D01*
X166492800Y-118882077D02*
X166445180Y-118739220D01*
X166445180Y-118739220D02*
X166445180Y-118501125D01*
X166445180Y-118501125D02*
X166492800Y-118405887D01*
X166492800Y-118405887D02*
X166540419Y-118358268D01*
X166540419Y-118358268D02*
X166635657Y-118310649D01*
X166635657Y-118310649D02*
X166730895Y-118310649D01*
X166730895Y-118310649D02*
X166826133Y-118358268D01*
X166826133Y-118358268D02*
X166873752Y-118405887D01*
X166873752Y-118405887D02*
X166921371Y-118501125D01*
X166921371Y-118501125D02*
X166968990Y-118691601D01*
X166968990Y-118691601D02*
X167016609Y-118786839D01*
X167016609Y-118786839D02*
X167064228Y-118834458D01*
X167064228Y-118834458D02*
X167159466Y-118882077D01*
X167159466Y-118882077D02*
X167254704Y-118882077D01*
X167254704Y-118882077D02*
X167349942Y-118834458D01*
X167349942Y-118834458D02*
X167397561Y-118786839D01*
X167397561Y-118786839D02*
X167445180Y-118691601D01*
X167445180Y-118691601D02*
X167445180Y-118453506D01*
X167445180Y-118453506D02*
X167397561Y-118310649D01*
X166968990Y-117882077D02*
X166968990Y-117548744D01*
X166445180Y-117405887D02*
X166445180Y-117882077D01*
X166445180Y-117882077D02*
X167445180Y-117882077D01*
X167445180Y-117882077D02*
X167445180Y-117405887D01*
D11*
%TO.C,J1*%
X179400000Y-132416000D02*
X134600000Y-132416000D01*
X179400000Y-123616000D02*
X179400000Y-132416000D01*
X179400000Y-123616000D02*
X134600000Y-123616000D01*
X134600000Y-123616000D02*
X134600000Y-132416000D01*
%TD*%
M02*
